<?xml version="1.0" encoding="UTF-8"?><svg id="Layer_1" xmlns="http://www.w3.org/2000/svg" viewBox="0 0 986.38 888"><path d="M228.93,399.53c-.39-.21-.52-.23-.56-.31-5.24-8.59-10.96-16.94-15.6-25.84-8.27-15.89-14.48-32.67-19.95-49.73-3.7-11.56-7.12-23.18-8.83-35.22-.81-5.69-1.17-11.44-1.76-17.17-.11-1.12-.17-2.29-.56-3.32-.52-1.37-2.11-1.65-2.94-.47-.73,1.05-1.35,2.39-1.43,3.64-.18,3.06-.19,6.17.05,9.22.31,3.99,1.15,7.95,1.37,11.94.45,8.36,2.87,16.38,3.83,24.64.73,6.26.53,12.38-1.19,18.6-1.88,6.8-2.83,13.87-4.04,20.86-3.63,20.98-5.79,42.15-7.93,63.31-2.65,26.21-4.19,52.5-2.4,78.82,2.32,34.17,8.79,67.44,23.54,98.69,1.13,2.4,1.44,4.87,1.6,7.46,1.75,28.14,6.58,55.7,15.58,82.47,7.14,21.25,17.98,40.54,31.25,58.51,1.6,2.16,2.15,4.35,2.17,6.84.02,2.29-.72,3.21-2.93,3.6-4.43.76-8.79.57-13.04-1.08-5.02-1.94-9.69-4.52-14.07-7.61-4.12-2.9-8.2-5.84-12.29-8.79-3.77-2.72-7.27-5.78-10.03-9.52-13.03-17.65-24.99-35.94-34.39-55.84-8.98-19.02-14.95-38.89-17.26-59.82-.56-4.99-.98-10.03-1.05-15.04-.03-2.71.82-5.43,1.28-8.14.1-.6.5-1.3.32-1.77-.38-.98-.86-2.17-1.68-2.68-1.06-.68-2.28.05-2.87,1.07-.77,1.32-1.5,2.75-1.79,4.22-2.35,11.48-3.09,23-.5,34.56,4.34,19.36,11.28,37.73,20.32,55.39,9.3,18.17,20.39,35.2,32.16,51.82,2.35,3.33,4.09,7.1,6.05,10.71.47.87.67,1.89,1.17,3.33-1.09-.29-1.75-.36-2.31-.63-6.62-3.25-12.64-7.3-17.16-13.28-6.93-9.18-13.83-18.39-20.73-27.61-.73-.98-1.35-2.07-1.91-3.16-4.75-9.11-9.49-18.23-14.18-27.37-1.08-2.1-1.98-4.29-2.95-6.44-.53-1.18-1.14-2.27-2.71-1.93-1.23.26-1.77,1.38-1.36,3.29.35,1.6.82,3.2,1.49,4.69,3.07,6.85,6.28,13.62,9.34,20.47,1.92,4.31,3.65,8.71,5.43,13.08.26.64.34,1.35.64,2.64-.96-.74-1.54-1.04-1.93-1.52-4.45-5.39-9.17-10.58-13.22-16.25-16.79-23.5-29.62-49.01-38.57-76.52-7.42-22.78-11.95-46.13-14.95-69.84-4.75-37.54-4.59-75.08.33-112.56,5.41-41.38,16.26-81.25,35.52-118.43,23.07-44.55,53.1-83.77,91.67-116.17,12.62-10.6,26.03-20.1,39.98-28.85,24.88-15.59,51.84-25.67,80.68-30.99,16.48-3.04,33.03-3.74,49.74-3.11,28.05,1.07,54.99,7.01,80.8,17.96,5.57,2.36,10.91,5.29,16.3,8.03,3.68,1.87,6.34,4.86,8.45,8.34,1.31,2.16,1.25,3.15-.9,4.34-2.76,1.54-5.66,3.06-8.69,3.83-40.3,10.23-75.94,29.89-109.42,53.93-5.92,4.26-11.64,8.8-17.47,13.19-2.19,1.65-4.34,3.47-7.58,3.86-.43-1-.91-1.97-1.27-3-1.35-3.88-2.59-7.8-4-11.65-.56-1.53-1.4-2.97-2.25-4.38-1.28-2.12-3.18-3.59-5.65-3.91-2.32-.3-4.74-.59-7.03-.27-8.11,1.12-15.36,4.4-21.81,9.45-7.01,5.49-13.13,11.81-18.2,19.15-2.92,4.22-6.27,8.19-8.83,12.61-11.49,19.89-18.33,41.29-19.69,64.26-.4,6.75.31,13.55.39,20.33.04,3.28-.13,6.57-.33,9.85-.06.89-.42,1.79-.81,2.62-5.24,11.16-10.5,22.32-15.75,33.47-.18.36-.42.69-.69,1.12ZM317.83,158.87c1.15-.29,1.86-.41,2.54-.64,9.51-3.31,19.37-5.17,29.23-7.07.5-.1,1.09-.1,1.46-.39.52-.41,1.27-1.1,1.19-1.54-.12-.66-.77-1.5-1.38-1.71-.92-.32-2.02-.3-3.01-.18-9.68,1.22-19.15,3.38-28.42,6.41-.86.28-1.83.59-2.46,1.19-.57.55-1.19,1.66-1,2.25.25.75,1.32,1.23,1.86,1.68ZM396.74,186c-.78.1-1.09.11-1.39.18-8.17,2.17-15.39,6.07-21.56,11.86-.42.39-.44,1.23-.64,1.85.71.22,1.42.59,2.14.6.56.01,1.16-.38,1.71-.64,6.42-3.18,12.82-6.38,19.24-9.57.45-.23.89-.51,1.3-.8.8-.56,1.6-1.31,1-2.26-.41-.65-1.38-.96-1.79-1.22ZM339.14,165.36c.98-.22,1.47-.33,1.97-.46,5.62-1.52,11.25-3.03,16.87-4.57.78-.21,1.63-.42,2.27-.88.5-.36,1.11-1.23.98-1.65-.21-.62-.95-1.33-1.59-1.51-.84-.23-1.85-.14-2.73.07-5.37,1.24-10.74,2.54-16.09,3.87-.89.22-1.75.61-2.55,1.04-.98.54-1.67,1.49-1.07,2.53.43.76,1.42,1.18,1.93,1.57ZM361.71,171.2c.03.1.06.2.09.3,3.27-.75,6.55-1.44,9.8-2.26,1.12-.29,2.15-.97,1.87-2.39-.24-1.23-1.29-1.44-2.36-1.52-4.44-.35-8.42,1.3-12.37,2.99-.5.21-1.03,1.15-.94,1.65.09.48.9,1.02,1.49,1.17.76.2,1.62.05,2.44.05ZM379.33,184.57c.35-.03,1.02.07,1.56-.13,2.09-.77,4.19-1.56,6.21-2.51.82-.39,1.54-1.39.85-2.28-.47-.59-1.48-.81-2.29-1.06-.34-.1-.81.09-1.18.25-2.41,1.08-4.84,2.13-7.2,3.32-.51.26-.76,1.06-1.12,1.62.66.32,1.32.69,2.01.95.25.09.6-.08,1.16-.16Z" fill="#fe9520" fill-rule="evenodd"/><path d="M626.8,685.14c-5.47.56-36.08-1.42-39.14-2.54.55-1,1.02-2.02,1.61-2.94,8.49-13.23,17-26.45,25.49-39.69,1.1-1.72,2.3-3.44,3.09-5.31,2.13-5.02-.5-8.96-5.94-8.95-1.84,0-3.69.22-5.53.42-14.95,1.65-29.74.49-44.48-2.27-18.19-3.41-36.31-7.13-53.89-13.02-21.66-7.26-42.9-15.53-63-26.51-5.21-2.85-5.21-2.82-4.31-8.62,8.82-56.51,21.29-112.21,36.76-167.27,7.9-28.12,16.62-55.95,27.88-82.94,8.46-20.29,18.82-39.51,31.77-57.31,7.04-9.67,15.02-18.51,23.84-26.59,4.81-4.41,10.53-7.51,16.06-10.86,8.22-4.97,16.89-8.91,26.38-10.87,6.51-1.35,13.02-1.91,19.55-.28,1.77.44,3.55,1.11,5.14,2,6.98,3.91,12.96,9.05,17.83,15.42,5.13,6.72,9.68,13.81,13.04,21.59,3.14,7.27,6.28,14.53,9.27,21.86,5.68,13.9,8.38,28.55,10.55,43.32,4.24,29.06,3.76,58.21,1.77,87.39-.74,10.76-1.75,21.51-2.62,32.27-.37,4.68-1.75,9.08-3.73,13.28-1.58,3.34-4.14,5.77-7.6,7.32-12.19,5.48-24.43,10.82-36.46,16.63-15.54,7.49-31.28,14.65-45.95,23.84-4.56,2.86-5.72,5.47-3.91,10.63,4.36,12.36,10.43,23.77,20.5,32.49,5.81,5.04,11.93,9.76,18.11,14.36,7.42,5.55,15.91,8.93,24.83,11.3,2.3.61,4.43,1.49,6.44,2.8,1.41.93,2.36,2.11,2.53,3.66.25,2.33.65,4.8.15,7.02-7.2,32.09-14.67,64.11-24.99,95.37-.32.97-.68,1.93-1.05,2.99ZM666.86,318.2c-1.26-5.21-2.15-10.3-3.76-15.16-1.86-5.64-4.3-11.1-6.6-16.6-.71-1.7-1.65-3.33-2.66-4.86-1.08-1.63-2.39-2.09-3.62-1.56-1.24.54-1.77,1.85-1.25,3.72.4,1.48.98,2.92,1.61,4.32,3.44,7.68,6.95,15.34,10.38,23.02,1.09,2.43,1.94,4.98,3.07,7.4.27.59,1.17.89,1.78,1.33.36-.56.71-1.1,1.04-1.62ZM531.86,300.49c.29.4.67,1.39,1.33,1.65.5.2,1.53-.36,2.02-.87.62-.64.98-1.54,1.37-2.38,3.47-7.42,6.96-14.84,11.59-21.64.34-.5.65-1.04.9-1.61.51-1.18.78-2.43-.42-3.36-1.23-.95-2.4-.29-3.3.57-1.19,1.12-2.28,2.35-3.3,3.63-5.19,6.59-7.6,14.43-9.94,22.29-.11.39-.13.81-.25,1.71ZM644.01,300.02c.13-.04.26-.07.39-.11-1.19-4.23-2.32-8.48-3.59-12.68-.26-.82-.88-1.65-1.57-2.2-1.36-1.1-3.22-.32-3.5,1.41-.1.69.02,1.43.19,2.12.92,3.47,1.85,6.93,2.84,10.38.28.97.71,1.92,1.17,2.83.53,1.06,1.3,1.99,2.63,1.62,1.34-.37,1.42-1.59,1.47-2.75.01-.2-.02-.41-.03-.61ZM553.05,292.67c.8-.5,1.32-.67,1.63-1.03,1.57-1.88,3.21-3.72,4.59-5.73.79-1.14,1.3-2.56,1.61-3.93.13-.61-.35-1.71-.88-2.03-.53-.31-1.72-.17-2.18.25-3.04,2.79-4.42,6.57-5.66,10.36-.17.5.53,1.29.9,2.11ZM601.19,289.98c0-1.74-.58-2.95-1.6-2.98-.8-.03-2.12.32-2.35.87-1.12,2.61-2.14,5.3-2.82,8.06-.34,1.41,1.37,2.28,2.48,1.28,2.26-2.01,3.88-4.48,4.29-7.24Z" fill="#fe9520" fill-rule="evenodd"/><path d="M706.88,870.6c2.41-2.76,4.97-4.95,7.86-6.72,3.06-1.89,6.26-3.53,9.36-5.37,4.86-2.87,9.89-5.52,14.48-8.77,10.59-7.49,20.62-15.67,29.42-25.27,7.44-8.1,15.31-15.81,21.73-24.8,6.25-8.73,11.56-17.97,15.65-27.9.5-1.23.92-2.52,1.13-3.82.09-.53-.37-1.35-.83-1.71-.25-.19-1.15.19-1.56.55-.51.46-.87,1.14-1.22,1.76-12.01,20.9-26.59,39.76-44.14,56.35-8.22,7.78-16.32,15.68-25.64,22.15-3.88,2.68-7.89,5.25-12.09,7.37-7.89,3.98-15.93,7.67-23.96,11.34-3.75,1.71-7.66,3.02-11.86,3.03-3.68.02-5.11-1.91-3.86-5.32.72-1.94,1.69-3.73,3.54-4.91,20.67-13.13,37.26-30.65,52.55-49.46,27.53-33.86,46.84-72.09,59.77-113.66,5.99-19.25,11.15-38.71,15.11-58.49.29-1.45.93-3,1.87-4.11,18.81-22.42,35.56-46.3,50.83-71.23,5.98-9.76,13.63-17.96,21.92-25.69,2.47-2.3,4.73-4.84,7.04-7.31.62-.67,1.29-1.5.47-2.44-.81-.92-1.72-.4-2.5.1-2.07,1.32-4.28,2.51-6.13,4.1-13.77,11.85-28.72,21.98-44.61,30.75-5.76,3.18-11.41,6.54-17.12,9.81-.87.5-1.78.94-3.01,1.58-.08-.95-.22-1.6-.18-2.25,1.56-23.74,1.2-47.47-.52-71.18-.34-4.58.11-9.04,1.32-13.41.4-1.45,1.19-2.82,1.97-4.12,2.42-4.05,5.2-7.91,7.36-12.1,7.73-15,14.6-30.37,18.92-46.77,2.36-8.97,3.26-18,1.49-27.16-.35-1.76-1.05-3.55-1.99-5.06-1.76-2.81-3.72-3.51-6.87-2.32-6.06,2.28-12.04,4.76-18,7.26-4.36,1.83-8.63,3.85-12.96,5.76-2.29,1.01-3.15.93-4.39-1.15-1.15-1.92-2.16-4.01-2.73-6.16-8.15-30.48-21.62-58.57-38.56-85.04-10.96-17.11-23.94-32.65-37.66-47.58-6.15-6.69-13.5-12.02-20.7-17.51-.89-.68-1.84-1.33-2.6-2.16-2.84-3.07-1.73-6.81,2.35-7.71,1.89-.42,3.87-.54,5.82-.56,9.43-.09,18.33,2.22,26.77,6.31,3.14,1.52,6.23,3.19,9.22,4.99,23.48,14.15,44.66,31.09,63.13,51.43,23.87,26.28,44.63,54.84,62.8,85.29,18.82,31.54,31.12,65.69,39.4,101.34,4.51,19.44,7.93,39.08,10.06,58.93,2.92,27.02,2.57,53.96-1.22,80.88-3.87,27.56-9.75,54.65-18.64,81.02-9.07,26.9-20.62,52.68-37.45,75.74-22.01,30.17-48.83,54.89-82.61,71.59-13.57,6.71-27.26,13.03-41.97,16.87-9.99,2.61-20.13,4.1-30.46,4.31-1.69.04-3.49.38-5.26-1.42ZM759.91,847.06c1.59,1.79,2.83,1.04,3.95.37,3.61-2.15,7.28-4.23,10.73-6.61,16.61-11.48,30.71-25.61,43.29-41.33,5.3-6.62,9.62-13.82,12.96-21.59.96-2.24,1.53-4.67,2.03-7.06.15-.72-.53-1.61-.83-2.42-.8.31-1.85.41-2.34.99-1.38,1.65-2.59,3.44-3.75,5.24-4.82,7.52-9.28,15.28-14.46,22.53-7.4,10.36-15.23,20.45-25.22,28.54-5.66,4.59-11.44,9.04-17.25,13.43-3.17,2.41-6.14,5.01-9.1,7.91ZM766.04,296.77c-.34-.99-.52-1.8-.87-2.52-3.39-7.03-7.35-13.75-12.05-19.99-1.14-1.51-2.73-2.77-4.32-3.85-1.53-1.04-3.18-.8-3.93.22-1.02,1.37-.22,2.51.61,3.6,1.63,2.11,3.33,4.17,4.88,6.34,3.25,4.6,6.4,9.28,9.65,13.9.87,1.25,1.84,2.47,2.94,3.53.41.38,1.4.52,1.94.31.52-.21.81-1.02,1.17-1.53ZM773.67,280.67c-1.19-2.48-2.16-4.86-3.46-7.04-.87-1.46-2.08-2.78-3.35-3.93-1.26-1.14-2.8-1.08-3.59-.17-1,1.15-.63,2.36.21,3.35,2.24,2.65,4.52,5.26,6.86,7.82.93,1.01,2.06,1.26,3.34-.03Z" fill="#fe9520" fill-rule="evenodd"/><path d="M431.57,576.82c-4.64-2.64-8.85-4.98-13.01-7.42-20.3-11.93-40.38-24.2-59.78-37.56-16.54-11.39-32.07-24.05-46.89-37.58-17.4-15.88-34.35-32.2-49.78-50.03-9.09-10.5-17.77-21.32-25.75-32.69-1.28-1.82-1.47-3.3-.53-5.33,4.36-9.42,8.57-18.91,12.86-28.36.49-1.09,1.16-2.09,1.75-3.12,2.39.36,3.14,1.98,3.77,3.59,2.54,6.44,6.01,12.38,9.61,18.25,5.55,9.04,12.59,16.75,20.86,23.34,24.22,19.33,51.32,32.91,81.43,40.29,11.57,2.83,23.21,5.45,34.9,7.77,4.59.92,9.4,1.04,14.11,1.02,5.07-.03,6.99-2.97,5.47-7.82-.71-2.25-1.62-4.44-2.58-6.6-14.45-32.6-28.38-65.42-41.27-98.69-10.66-27.5-22.12-54.69-33.18-82.03-1.03-2.56-2.06-5.17-2.67-7.86-.99-4.33.16-7.93,3.84-10.9,21.73-17.56,44.63-33.33,69.51-46.14,18.61-9.58,37.83-17.58,58.37-22.09,10.41-2.28,20.91-3.41,31.55-2.22,3.96.45,7.93,1.18,11.81,2.13,11.92,2.93,23.35,7.27,34.45,12.47,6.35,2.98,12.27,6.72,17.39,11.56,3.74,3.54,4.21,5.91,1.58,10.37-1.38,2.34-3.17,4.66-5.3,6.3-20.78,16.01-36.61,36.22-49.76,58.66-12.37,21.11-21.45,43.69-29.27,66.82-16.07,47.48-29,95.81-38.85,144.92-5.07,25.27-9.32,50.71-13.95,76.08-.14.78-.36,1.55-.68,2.87ZM434.77,207.35c-1.5.49-2.71.79-3.83,1.27-8.7,3.74-16.89,8.37-24.28,14.32-1.66,1.33-3.02,3.04-4.47,4.62-.68.73-1.62,1.55-.82,2.66.82,1.14,1.84.46,2.73-.03,2.15-1.18,4.3-2.36,6.4-3.62,5.62-3.37,11.2-6.79,16.82-10.15,2.28-1.36,4.66-2.57,6.97-3.89.7-.41,1.48-.86,1.9-1.5.4-.6.7-1.64.44-2.19-.32-.68-1.28-1.06-1.87-1.49ZM504.79,259.14c.1-2.42-1.71-3.58-3.32-2.38-1.52,1.14-3.01,2.57-3.95,4.21-4.05,7.12-7.9,14.36-11.8,21.56-.34.62-.58,1.33-.67,2.03-.05.44.14,1.2.44,1.33.47.22,1.22.22,1.66-.03.6-.33,1.09-.93,1.5-1.51,1.63-2.36,3.24-4.73,4.8-7.13,3.24-4.99,6.45-9.98,9.64-15,.71-1.11,1.27-2.32,1.68-3.08ZM443.79,217.76c-.57-.44-1.04-1.06-1.62-1.18-.76-.16-1.65-.07-2.41.16-5.54,1.7-10.52,4.47-15.01,8.13-.54.44-1.04,1.02-1.35,1.64-.86,1.72.35,3.49,2.24,3.16,1.07-.18,2.12-.74,3.06-1.32,4.02-2.44,8.01-4.93,11.99-7.43.78-.48,1.53-1.03,2.2-1.64.35-.32.51-.85.89-1.52ZM470.51,237.06c-.81-.7-1.44-1.49-2.26-1.86-.56-.25-1.42-.06-2.08.17-3.49,1.24-6.28,3.39-8.13,6.65-.26.45-.39,1.41-.15,1.61.45.38,1.27.6,1.86.47,3.6-.76,6.51-2.89,9.37-5.04.53-.39.79-1.12,1.39-2.01ZM480.66,243.43c-.14-1.85-1.55-2.45-3.33-1.71-3.68,1.55-5.83,4.7-7.91,7.86-.31.46-.04,1.61.36,2.13.27.35,1.43.42,1.89.13,2.94-1.84,5.87-3.74,7.98-6.58.48-.63.77-1.4,1-1.83Z" fill="#fe9520" fill-rule="evenodd"/><path d="M230.71,164.31c-.46,1.83-1.94,2.6-3.25,3.54-7.43,5.34-15.02,10.46-22.24,16.07-28.89,22.44-53.6,48.79-74.09,79.14-15.57,23.06-29.66,46.95-39.82,72.93-12.73,32.57-21.79,66.12-25.94,100.95-3.94,33.01-4.56,66.06-1.36,99.09,2.49,25.68,6.06,51.26,13.72,76.04,6.61,21.37,15.08,41.96,26.07,61.48,1.2,2.13,1.24,3.57.16,4.83-1.14,1.33-3.55,1.69-5.41.66-1.25-.7-2.43-1.56-3.51-2.5-7.56-6.66-15.35-13.08-22.59-20.07-18.96-18.33-32.99-40.02-43.25-64.29-4.56-10.78-7.03-22.1-9.84-33.36-6.96-27.9-8.23-56.28-6.87-84.83,2.4-50.4,14.39-98.53,35.39-144.36,13.82-30.18,31.77-57.82,53.66-82.8,24.49-27.97,53.89-49.64,86.88-66.54,6.86-3.51,13.77-6.95,20.83-10.03,5.55-2.42,11.35-4.24,17.05-6.29,1.46-.52,2.95-.9,4.42.34Z" fill="#fe9520" fill-rule="evenodd"/><path d="M445.45,800.75c-3.85,1.5-7.38,3.18-11.08,4.26-15.52,4.5-31.44,6.15-47.56,5.85-15.86-.3-31.58-1.94-47.04-5.65-28.02-6.73-52.44-19.78-72.91-40.36-29.09-29.24-47.84-64-56.71-104.13-2.5-11.32-4.15-22.84-6.16-34.27-.23-1.3-.25-2.63-.42-4.63.85.91,1.35,1.31,1.67,1.81,5.69,8.87,12.62,16.72,19.98,24.22,4.92,5.02,9.63,4.12,11.78-2.6,1.24-3.89,1.96-7.99,2.4-12.05,1.64-15.02,3.07-30.06,4.59-45.09.18-1.8.42-3.6.71-6.02,2.29,1.59,4.17,2.8,5.93,4.15,7.58,5.81,15.19,11.6,22.68,17.54,9.59,7.61,19.5,14.75,29.9,21.21,1.48.92,2.91,1.93,4.35,2.93.33.23.59.54,1.09,1.01-.49.97-.9,2-1.48,2.93-8.2,13.29-16.42,26.57-24.63,39.85-1.24,2.01-2.47,4.03-3.77,6.01-2.08,3.2-2.06,6.46.02,9.55,2.17,3.23,4.42,6.45,6.98,9.38,7.46,8.58,16.28,15.65,25.42,22.35,17.38,12.72,36.58,22,56.54,29.86,20.79,8.19,41.91,15.26,63.9,19.45,2.36.45,3.27,1.56,3.98,3.84,2.63,8.43,5.6,16.75,8.45,25.1.36,1.05.81,2.07,1.38,3.51Z" fill="#fe9520" fill-rule="evenodd"/><path d="M798.4,651.74c-.78,3.27-1.54,6.56-2.36,9.82-4.88,19.24-10.12,38.37-17.32,56.88-13.01,33.43-30.72,64.07-54.54,91.03-11.59,13.12-23.96,25.38-38.35,35.54-17.42,12.29-36.5,19.99-57.77,22.12-6.6.67-13.14.16-19.66-.86-1.11-.18-2.38-.23-2.56-1.72-.19-1.63-.49-3.33,1.01-4.57.63-.52,1.36-.92,2.04-1.39,19.14-13.28,33.12-30.84,42.87-51.88.89-1.95,1.44-4.06,2.1-6.11.3-.94.25-2.07-.8-2.32-.7-.17-1.83.23-2.35.77-.98,1.03-1.67,2.33-2.45,3.54-4.65,7.27-9.14,14.64-13.98,21.79-5.26,7.77-11.42,14.8-18.5,21-4.29,3.76-9.02,6.82-14.39,8.78-5.2,1.9-10.43,3.75-15.69,5.48-1.11.36-2.5.44-3.62.14-8.1-2.15-15.73-5.41-22.62-10.24-.41-.28-.74-.67-1.24-1.14.44-.56.76-1.06,1.17-1.48,8.72-9.09,16.22-19.07,22.5-30.02,7.16-12.5,13.66-25.32,19.39-38.53.95-2.2,2.27-3.32,4.59-3.95,14.98-4.05,29.76-8.65,44.15-14.61,18.5-7.65,36.1-16.88,52.73-27.99,18.13-12.12,35.29-25.57,52.23-39.27,14.41-11.65,27.63-24.6,40.03-38.36.88-.98,1.75-1.96,2.63-2.94.25.16.51.32.77.48Z" fill="#fe9520" fill-rule="evenodd"/><path d="M966.09,554.44c-.23,28.9-3.04,57.49-9.05,85.75-3.03,14.22-7.72,27.89-13.53,41.23-8.88,20.38-20.47,39.13-33.28,57.21-1.37,1.95-3.2,3.15-5.31,4.04-.92.39-2.11,1.02-2.79-.06-.35-.56-.06-1.73.26-2.48,1.67-3.99,3.47-7.91,5.18-11.87,9.23-21.52,15.53-43.97,21.04-66.67,3.98-16.39,7.28-32.91,8.89-49.73,2.11-21.96,2.32-43.92-.02-65.88-2.17-20.36-5.06-40.59-9.5-60.59-4.54-20.51-10.37-40.63-18.08-60.18-8.71-22.07-19.82-42.94-32.77-62.77-17.79-27.23-37.26-53.23-59.74-76.83-12.07-12.68-25.21-24.19-39.33-34.57-1.45-1.06-2.65-2.52-3.82-3.92-.83-1-1.04-2.27-.29-3.45.71-1.11,1.9-1.14,3.05-.98,4.27.59,8.57,1.07,12.82,1.83,16.75,3,32.53,8.82,47.24,17.32,13.31,7.68,24.45,18.06,34.55,29.52,13.5,15.32,25.16,31.97,35.66,49.46,14.65,24.38,27.36,49.69,36.93,76.52,5.74,16.12,9.39,32.79,12.77,49.52,3.82,18.97,6.67,38.08,7.84,57.39.61,10.05.86,20.12,1.27,30.18Z" fill="#fe9520" fill-rule="evenodd"/><path d="M670.27,240.73c5.1.18,10.03,1.28,14.55,3.52,4.76,2.36,9.39,5.09,13.83,8.02,12.62,8.33,23.25,18.76,33.05,30.29,19.09,22.48,34.75,47.09,47.37,73.67,6.59,13.87,11.24,28.46,15,43.33.25,1,.5,2.01.6,3.03.42,4.17-1.01,6.59-4.81,8.09-32.01,12.67-63.5,26.54-94.8,40.86-.75.34-1.49.68-2.25,1-2.85,1.21-3.92.83-4.82-2.08-.41-1.33-.52-2.83-.39-4.23.83-9.21,1.78-18.4,2.67-27.61,2.62-27.06,3.64-54.13.81-81.23-1.33-12.67-3.03-25.3-5.86-37.75-2.17-9.56-5.14-18.84-9.22-27.74-3.76-8.22-7.7-16.35-11.53-24.54-.38-.81-.65-1.75-.65-2.63,0-2.71.94-3.63,3.67-3.86.92-.08,1.84-.1,2.76-.14ZM703.5,313.45c-.45-7.74-2.27-15.09-5.31-22.13-1.22-2.81-2.64-5.57-4.23-8.19-1.28-2.12-2.79-2.64-4-1.89-1.12.68-1.27,1.98-.2,4.16,3.99,8.14,7.17,16.58,9.44,25.37.43,1.68,1.11,3.31,1.83,4.9.19.43.99.86,1.44.8.4-.06.85-.75,1.01-1.25.18-.56.04-1.22.04-1.77ZM710.32,300.91c-.4-3.06-.46-5.77-1.15-8.3-.72-2.64-1.98-5.14-3.16-7.63-.52-1.11-1.65-1.56-2.88-1.06-1.26.51-1.48,1.6-1.23,2.81.1.5.23,1,.42,1.48,1.2,3.04,2.38,6.09,3.65,9.11.59,1.41,1.25,2.8,2.05,4.1.22.37,1.11.64,1.55.49.42-.14.65-.86.75-1.01ZM713.73,284.55c.57,3.21,2.01,5.54,3.96,7.52.83.84,2.31.26,2.26-.9-.1-2.75-.47-5.54-2.34-7.73-.45-.54-1.72-.83-2.42-.61-.66.21-1.08,1.23-1.47,1.72Z" fill="#fe9520" fill-rule="evenodd"/><path d="M569.92,719.48c-.7,1.51-1.17,2.73-1.8,3.87-8.41,15.09-17.12,29.99-27.21,44.04-.6.83-1.22,1.67-1.71,2.56-2.04,3.76-1,7.37,2.74,9.43,2.76,1.51,5.78,2.14,8.89,2.3,11.23.57,22.39-.24,33.46-2.21,1.99-.36,3.99-.69,6.33-1.1-.22.93-.27,1.52-.51,2.02-6.24,13.3-12.54,26.59-20.08,39.22-6.32,10.57-13.69,20.3-23.65,27.76-2.7,2.02-5.54,3.95-8.55,5.45-10.16,5.09-20.42,4.65-30.64.03-13.91-6.3-25.44-15.73-35.55-27.05-12.03-13.48-19.26-29.5-24.79-46.43-.74-2.25-1.38-4.52-2.04-6.79-.08-.28-.01-.6-.01-1.13.7.05,1.38.04,2.04.15,9.94,1.6,19.85,3.35,29.82,4.78,7.12,1.02,10.99-1.51,13.54-8.28,2-5.33,2.8-10.92,3.5-16.54,1.62-13.06,3.3-26.1,4.98-39.15.18-1.42.53-2.81.8-4.21,1.94-.9,3.78-.39,5.55-.13,9.66,1.42,19.33,2.77,28.96,4.4,10.53,1.78,21.01,3.83,31.52,5.8,1.38.25,2.71.75,4.41,1.23Z" fill="#fe9520" fill-rule="evenodd"/><path d="M636.28,685.58c.24-1.06.36-1.85.6-2.6,9.8-30.54,17.75-61.59,24.47-92.94.74-3.48,1.96-6.68,4.03-9.57,1.42-1.97,3.16-3.02,5.69-3.04,12.44-.11,24.45-2.59,36.26-6.45,21.29-6.95,41.05-16.88,58.87-30.42,13.03-9.9,25.08-20.93,36.01-33.16.88-.98,1.81-2.01,2.92-2.68,1.85-1.12,3.43-.34,3.94,1.77.17.69.16,1.43.21,2.14,1.32,19.4,1.52,38.81.59,58.22-.16,3.28-.39,6.57-.54,9.85-.06,1.41-.68,2.21-1.96,2.8-21.57,9.89-43.1,19.87-65.78,27.1-13.8,4.4-27.4,9.4-41.17,13.85-6.93,2.24-14.06,3.84-21.1,5.73-.99.26-2,.5-2.96.84-3.26,1.17-4.68,3.43-4.33,6.92.1,1.02.36,2.02.58,3.02,3.17,14.66,6.39,29.3,9.52,43.97.9,4.21.68,4.44-3.74,4.82-1.64.14-3.29.13-4.93.12-11.3-.04-22.61-.09-33.91-.15-1,0-2.01-.1-3.25-.16Z" fill="#fe9520" fill-rule="evenodd"/><path d="M300.73,400.62c15.06,13.78,33.17,21.91,51.28,30.37-.78,5.32-1.52,10.46-2.35,16.08-21.96-7.99-41.52-19.48-59.4-34,3.53-4.2,6.87-8.17,10.47-12.45Z" fill="#d17532" fill-rule="evenodd"/><path d="M582.66,204.95c-3.52-2.32-6.86-4.33-9.99-6.62-4.22-3.08-5.17-6.8-3.16-11.66.59-1.41,1.32-2.79,2.17-4.08,15.46-23.68,32.58-45.95,54.51-64.12,15.31-12.69,31.68-23.88,48.78-33.98,8.51-5.03,17.64-8.84,26.86-12.38,15.06-5.78,30.08-11.69,45.79-15.55,16.1-3.96,32.32-7.2,48.91-7.97,7.47-.35,14.99.05,22.48.32,2.11.08,4.23.78,6.29,1.39,1.46.42,2.84,1.16,3.64,3.16-1.06.4-2.01,1.02-3.01,1.1-21.9,1.76-42.82,7.72-63.46,14.84-4.28,1.47-8.48,3.18-12.1,6-1.99,1.54-2.66,2.79-1.85,3.71,1.25,1.41,2.63.49,3.94-.03,13.69-5.42,27.57-10.27,42.17-12.53,11.56-1.79,23.13-4.03,34.91-3.47,3.97.19,7.98.8,11.84,1.79,2.62.67,5.04,2.22,7.43,3.58,4.69,2.64,4.97,9.71,1.85,13.23-3.97,4.47-8.47,8.17-14.35,9.69-11.67,3.03-23.46,5.15-35.63,4.65-5.84-.25-11.7.11-17.55.24-7.61.17-15.2.53-22.8.56-6.71.03-13.34.54-19.91,1.91-5.53,1.16-11.09,2.21-16.61,3.42-2.71.6-5.45,1.21-8.02,2.21-17.32,6.68-33.42,15.27-46.15,29.28-9.46,10.41-17.65,21.68-24.13,34.14-4.84,9.3-9.48,18.69-14.15,28.07-.73,1.46-1.02,3.13-1.7,4.63-.8,1.76-1.72,3.49-2.75,5.14-.92,1.46-2.39,2.35-4.13,2.38-4.4.08-8.8.03-13.48.03-1.02-1.56-.72-3.52-.48-5.43.57-4.61,1.82-9.05,3.58-13.36,5.23-12.72,12.15-24.46,20.39-35.44,6.29-8.38,12.53-16.83,20.41-23.82,6.38-5.65,13.05-10.98,19.61-16.42,1.5-1.24,2.87-2.45,1.73-4.7-1.49-.74-2.74-.16-3.89.8-6.38,5.35-13.08,10.36-19.04,16.15-16.98,16.5-31.06,35.28-42.44,56.06-3.72,6.79-6.63,13.9-8.65,21.38-.42,1.57-1.06,3.11-1.71,4.6-.62,1.42-1.81,2.18-3.33,2.46-2.89.55-4.17-.33-4.09-3.26.06-2.55.36-5.12.88-7.62,3.87-18.58,12.46-34.92,23.99-49.83,1.64-2.11,3.31-4.19,5.02-6.24,1.63-1.96,1.94-3.08.94-4-1.01-.93-2.26-.65-3.97,1.05-11.81,11.76-21.12,25.14-26.45,41.08-1.62,4.87-3.13,9.78-4.76,14.65-.68,2.04-1.47,4.06-2.37,6.01-.45.97-1.25,1.76-2.02,2.81Z" fill="#a5cd39" fill-rule="evenodd"/><path d="M765.72,34.28c6.83.41,11.86.64,16.88,1.05,1.5.13,2.98.71,4.44,1.19,1.31.42,2.21,1.5,2.01,2.77-.15.98-.98,1.99-1.78,2.66-.64.54-1.68.72-2.57.82-23.18,2.8-45.59,8.71-67.44,16.82-7.14,2.64-14.24,5.36-21.34,8.07-14.57,5.57-28.29,12.75-41.07,21.7-8.92,6.26-17.77,12.61-26.6,19-24.33,17.62-49.15,34.49-76.06,47.97-9.73,4.88-19.82,9.05-29.76,13.49-1.49.67-3.09,1.13-4.67,1.57-1.87.51-3.45-.19-4.74-1.52-1.27-1.3-1.01-2.78-.41-4.31,1.33-3.41,3.39-6.35,5.88-8.98,11.86-12.55,23.52-25.31,37.04-36.16,10.27-8.23,20.19-16.9,30.76-24.72,19.33-14.29,39.97-26.32,62.65-34.68,7.14-2.63,14.05-5.82,21.16-8.52,5.56-2.12,11.22-4.01,16.91-5.77,5.79-1.79,11.62-3.48,17.51-4.89,4.58-1.09,9.27-1.79,13.94-2.49,7.42-1.11,14.83-2.27,22.29-3.05,8.88-.92,17.8-1.46,24.95-2.02Z" fill="#a5cd39" fill-rule="evenodd"/><path d="M707.64,134.24c-.89.54-1.87.99-2.68,1.66-4.79,3.97-8.44,8.91-11.97,14-11.07,15.98-17.94,33.64-21.7,52.64-1.56,7.87-3.1,15.72-2.7,23.8.12,2.36-.86,3.22-3.14,3-3.23-.32-4.7-1.96-4.46-5.33.59-8.21,1.72-16.36,4.02-24.29,4.46-15.35,10.21-30.18,18.79-43.76,2.25-3.56,4.77-6.93,7.13-10.43.66-.98,1.16-2.06,1.77-3.16-1.62-.96-2.53-.1-3.26.66-2.76,2.89-5.55,5.76-8.13,8.81-6.95,8.23-10.9,18.08-14.76,27.95-5.56,14.23-9.64,28.85-10.66,44.19-.16,2.28-1.52,3.53-3.86,3.3-1.18-.11-2.53-.44-3.42-1.15-3.05-2.42-5.96-5.04-8.88-7.63-.76-.67-1.33-1.56-2-2.33-2.3-2.65-2.55-5.51-1.61-8.9,4.49-16.36,12.23-31.13,21.72-45.07,7.98-11.69,16.97-22.48,27.88-31.56,15.35-12.78,32.76-20.65,52.89-21.95.51-.03,1.04-.13,1.54-.06,1.12.14,1.53,1.09.83,2.01-.36.47-.88.87-1.4,1.18-19.59,11.87-32.12,29.32-39.99,50.48-4.28,11.48-8.15,23.05-10.07,35.21-1.23,7.78-1.14,15.56-1.05,23.37.02,1.63-.07,3.3-.43,4.89-.66,2.89-2.21,4.17-5.14,4.49-1.53.16-3.07.18-4.61.24-2.5.1-3.38-.35-4.11-2.74-.47-1.54-.67-3.25-.57-4.85.3-4.3.6-8.62,1.29-12.88,3.86-23.52,12.56-45.04,26.79-64.26,1.95-2.64,3.74-5.4,5.55-8.14.52-.8.82-1.75,1.22-2.63-.27-.25-.54-.5-.81-.74Z" fill="#a5cd39" fill-rule="evenodd"/><path d="M848.72,57.26c-2.18-.56-4.38-1.01-6.52-1.69-2.12-.67-3.8-2.03-4.96-3.95-1.96-3.24-4.97-5.09-8.35-6.51-5.28-2.23-10.82-3.13-16.49-3.52-3.18-.21-6.36-.49-9.52-.87-1.42-.17-2.86-.48-4.18-1-2.43-.95-3.04-3.92-1.2-5.8.78-.8,1.78-1.39,2.72-2.01,2.79-1.85,5.09-4.1,6.51-7.22.63-1.39,1.49-2.71,2.43-3.92,2.91-3.75,6.71-5.31,11.42-4.18,3.14.74,5.35,2.45,6.02,5.83.72,3.65,3.04,5.98,6.45,7.27,2.78,1.05,5.59,2.07,8.4,3.04,4.14,1.41,7.89,3.55,11.23,6.31,5.13,4.22,5.78,8.16,3.22,14.26-1.27,3.03-3.91,4.04-7.17,3.98Z" fill="#a5cd39" fill-rule="evenodd"/><path d="M711.76,31.05c-.28-2.89-.21-3.1,2.21-3.79,6.22-1.79,12.46-3.52,18.69-5.26,17.27-4.82,34.92-7.57,52.7-9.64,5.12-.6,9.51,1.37,13.74,3.72,3.1,1.73,3.59,6.34,1.02,8.8-1.52,1.45-3.42,2.73-5.37,3.44-3.3,1.2-6.82,1.35-10.34.85-2.54-.36-5.08-.81-7.63-.99-10.99-.77-21.97-1.13-32.85,1.23-2,.43-4.08.59-6.12.68-7.8.36-15.61.64-23.41.95-.89.04-1.78,0-2.64,0Z" fill="#a5cd39" fill-rule="evenodd"/><path d="M587.05,149.26c-.67,1.11-1.2,2.2-1.91,3.15-2.75,3.72-5.66,7.32-8.32,11.1-3.49,4.96-6.78,10.05-10.16,15.08-.39.6-.73,1.24-1.14,1.83-4.4,6.35-7.1,8.97-17.06,6.87-6.57-1.4-12.84-4.27-19.21-6.57-1.44-.53-2.97-1.41-3.06-3.16-.09-1.83,1.58-2.56,2.93-3.21,2.59-1.25,5.24-2.4,7.92-3.44,14.88-5.78,29.11-12.91,42.99-20.77.9-.51,1.8-1,2.75-1.38,1.27-.51,2.57-.72,4.28.5Z" fill="#a5cd39" fill-rule="evenodd"/><path d="M777.71,506.1c3.15,1.94,5.93,3.64,9.04,5.56-23.3,24-51.26,39.62-82.33,50.42-.53-1.99-.92-3.68-1.43-5.34-.5-1.65-1.1-3.26-1.75-5.14,29.13-9.05,55.09-23.19,76.47-45.5Z" fill="#d17532" fill-rule="evenodd"/><path d="M173.98,487.38c5.8-.63,11.06-1.2,16.57-1.8,1.04,15.65,2.95,30.98,6.59,46.28-5.58,2.48-10.96,4.88-16.74,7.45-3.4-17.34-5.96-34.41-6.42-51.92Z" fill="#d17532" fill-rule="evenodd"/><path d="M626.91,557.52c2.9-4.38,5.73-8.62,8.67-13.04,14.94,8.08,30.88,10.5,47.73,9.67.7,4.24,1.36,8.26,2.03,12.28-10.29,6.08-44.94.93-58.43-8.92Z" fill="#d17532" fill-rule="evenodd"/><path d="M283.24,379.83c-4.36,3.87-8.4,7.47-12.64,11.23-10.02-15.18-15.11-31.75-15.65-50.19,5.18-.17,10.14-.33,15.06-.5,1.7,6.98,3.13,13.79,5.03,20.47,1.88,6.62,4.62,12.92,8.21,18.99Z" fill="#d17532" fill-rule="evenodd"/><path d="M195.5,588.05c-6.41-14.48-10.91-29.35-14-44.79,5.46-2.58,10.72-5.06,16.34-7.7,1.71,6.11,3.37,12.07,5.1,18.3-1.87.53-3.53.96-5.19,1.48-2.55.8-5.09,1.6-7.6,2.49-.86.31-1.74.76-2.38,1.39-.42.41-.72,1.33-.56,1.87.17.53.95,1.14,1.52,1.21.99.1,2.07-.03,3.03-.33,3.14-.97,6.23-2.07,9.35-3.13.95-.33,1.89-.71,3.03-1.14,2.45,6.83,4.83,13.47,7.32,20.4-5.33,3.33-10.6,6.61-15.97,9.96Z" fill="#d17532" fill-rule="evenodd"/><path d="M327.75,698.77c8.69,5.17,17.38,10.35,26.14,15.56-3.32,4.85-6.53,9.54-9.74,14.22-6.65-2.25-26.12-14.72-31.05-19.95,4.84-3.26,9.66-6.48,14.64-9.84Z" fill="#d17532" fill-rule="evenodd"/><path d="M812.41,447.45c6.39.88,12.67,1.73,18.94,2.59-.4,3.78-11.95,23.5-16.47,28.08-4.55-1.6-9.04-3.19-13.58-4.78,3.71-8.66,7.34-17.12,11.1-25.9Z" fill="#d17532" fill-rule="evenodd"/><path d="M192.89,418.19c-5.39.22-10.59.44-15.81.67-.63-2.32,1.34-24.03,2.69-28.79,5.69.25,11.46.27,17.4,1.22-1.44,9.02-2.83,17.78-4.28,26.91Z" fill="#d17532" fill-rule="evenodd"/><path d="M200.32,362.02c.48.88.74,1.44,1.06,1.96,1.7,2.77,2.03,5.4.68,8.64-1.52,3.66-2.13,7.71-3.15,11.58-.26.98-.51,1.97-.87,3.35-5.94-.61-11.83-1.22-18.15-1.88.87-8,2.36-15.72,3.24-23.65h17.2Z" fill="#d17532" fill-rule="evenodd"/><path d="M190.25,451.73c-5.43.2-10.51.4-15.99.61.24-9.88.97-19.44,1.79-29.17,5.57-.17,10.93-.33,16.51-.5-.77,9.83-1.53,19.3-2.3,29.06Z" fill="#d17532" fill-rule="evenodd"/><path d="M809.58,591.75c6.3,3.3,12.28,6.43,18.57,9.72-4.74,6.37-9.9,12.15-14.74,18.03-5.37-3.31-10.56-6.5-16.01-9.85,4.19-5.63,6.96-12.36,12.18-17.9Z" fill="#d17532" fill-rule="evenodd"/><path d="M190.11,481.06c-5.36.69-10.61,1.36-16.18,2.07-.56-8.99-.39-17.75.11-26.72,5.43-.21,10.61-.43,16.07-.63v25.28Z" fill="#d17532" fill-rule="evenodd"/><path d="M347.61,730.6c3.64-4.79,6.99-9.2,10.54-13.87,6.91,3.55,13.99,7.2,21.33,10.97-1.64,4.67-3.27,9.26-5.01,14.21-9.23-3.34-18.04-7.09-26.86-11.3Z" fill="#d17532" fill-rule="evenodd"/><path d="M599.73,507.8c3.18,8.89,9.3,15.59,16.18,21.95-3.63,3.83-7.13,7.54-10.84,11.47-2.91-2.54-5.4-5.24-7.46-8.27-1.95-2.88-3.63-5.95-5.39-8.95-1.58-2.7-1.69-5.71-1.34-8.67.14-1.21.92-2.5,1.77-3.44,1.82-1.99,4.18-3.24,7.08-4.09Z" fill="#d17532" fill-rule="evenodd"/><path d="M413.41,462.7c-10.67-1.58-21.02-3.41-31.37-6.25.34-4.8.67-9.44,1.02-14.42,1.36.29,2.45.46,3.5.76,6.13,1.75,12.3,3.21,18.72,3.38.98.03,1.8.23,2.23,1.27,1.95,4.62,3.93,9.24,5.88,13.87.11.26.02.6.02,1.4Z" fill="#d17532" fill-rule="evenodd"/><path d="M323.85,696.36c-4.93,3.44-9.44,6.6-14.17,9.9-7.95-6.37-15.48-13.17-21.98-21.7,1.06-.19,1.69-.34,2.34-.42,4.47-.56,8.94-1.08,13.41-1.64,1.03-.13,2-.36,2.78.66,3.32,4.35,7.99,6.97,12.48,9.84,1.63,1.04,3.24,2.13,5.14,3.37Z" fill="#d17532" fill-rule="evenodd"/><path d="M378.66,743.61c1.69-4.92,3.21-9.35,4.81-14.04,7.73,3.23,15.16,6.34,22.73,9.5-.18,4.49-.37,8.86-.56,13.63-9.25-2.36-17.82-5.91-26.98-9.09Z" fill="#d17532" fill-rule="evenodd"/><path d="M273.74,271.13c5.04-8.4,11.33-15.24,18.1-21.95,3.42,2.33,6.71,4.56,10.1,6.86-5.4,6.96-10.72,13.81-16.17,20.82-3.74-1.79-7.7-3.67-12.03-5.73Z" fill="#d17532" fill-rule="evenodd"/><path d="M377.54,455.45c-8.28-2.39-16.11-4.65-24.01-6.92,1.08-4.99,2.07-9.58,3.08-14.16.08-.37.32-.71.54-1.16,7.02,2.53,13.95,5.03,21.3,7.68-.28,4.51-.57,9.16-.9,14.56Z" fill="#d17532" fill-rule="evenodd"/><path d="M479.4,768.29c-4.52.87-17.21-.87-26.36-3.59v-13.61c.82,0,1.49-.06,2.15.01,5.21.54,10.4,1.18,15.62,1.63,2.3.2,3.68.98,4.38,3.38,1.2,4.1,2.77,8.1,4.21,12.17Z" fill="#d17532" fill-rule="evenodd"/><path d="M279.27,288.76c-2.71,7.94-5.29,15.51-8.01,23.48-3.9-.9-8.13-1.88-12.32-2.85-.23-3.83,5.19-20.51,8.16-25.04,4.04,1.47,8.14,2.96,12.16,4.42Z" fill="#d17532" fill-rule="evenodd"/><path d="M296.75,397.14c-3.21,4.44-6.32,8.74-9.66,13.37-5.32-4.58-10.12-9.67-14.02-15.71,4.25-3.53,8.4-6.97,12.65-10.49,3.65,4.24,7.3,8.5,11.03,12.84Z" fill="#d17532" fill-rule="evenodd"/><path d="M283.39,600.93c5.45-3.07,10.43-5.89,15.6-8.8,5.49,3.51,11.08,7.08,16.98,10.86-.8.48-1.32.88-1.9,1.13-4.99,2.16-9.97,4.33-15,6.39-.75.31-1.97.45-2.54.05-4.35-3.06-8.6-6.26-13.14-9.62Z" fill="#d17532" fill-rule="evenodd"/><path d="M257.45,313.75c4.69,1.12,8.93,2.14,13.01,3.12-.31,6.72-.59,13.03-.9,19.6-4.72.4-9.48.81-14.56,1.24-.36-8.07.98-15.69,2.44-23.96Z" fill="#d17532" fill-rule="evenodd"/><path d="M658.49,731.88c8.57-4.63,16.86-9.11,25.41-13.74,2.41,2.17,4.89,4.39,7.76,6.98-8.96,5.43-17.74,10.43-26.74,15.37-2.19-2.92-4.26-5.69-6.44-8.6Z" fill="#d17532" fill-rule="evenodd"/><path d="M820.84,418.34h21.5c.09,2.83-1.74,9.8-3.62,13.75-6.8-.4-13.7-.8-20.9-1.22,1.02-4.25,1.99-8.27,3.02-12.54Z" fill="#d17532" fill-rule="evenodd"/><path d="M831.1,598c-6.12-3.31-11.77-6.36-17.79-9.61,1.19-1.03,2.26-2.24,3.58-3.05,3.41-2.09,6.91-4.04,10.43-5.93.73-.39,1.85-.64,2.57-.37,3.8,1.44,7.54,3.06,11.7,4.79-3.55,4.8-7,9.46-10.48,14.17Z" fill="#d17532" fill-rule="evenodd"/><path d="M316.49,623.23c-5.03-3.06-9.8-5.97-15.07-9.17,1.43-.63,2.24-1.01,3.06-1.35,4.63-1.95,9.31-3.81,13.89-5.88,1.47-.67,2.53-.81,3.93.15,3.46,2.4,7.05,4.61,10.59,6.89.34.22.71.41,1.34.76-5.76,4.2-12.14,5.72-17.73,8.58Z" fill="#d17532" fill-rule="evenodd"/><path d="M213.18,582.15c2.14,4.88,4.18,9.53,6.24,14.24-5.38,2.85-10.59,5.61-16.17,8.56-2.17-4.36-4.37-8.8-6.69-13.46,5.58-3.14,10.89-6.13,16.61-9.34Z" fill="#d17532" fill-rule="evenodd"/><path d="M221.19,600.7c2.57,4.53,4.98,8.8,7.56,13.36-4.78,2.84-9.5,5.65-14.26,8.49-1.81-1.43-6.91-9.23-9.1-14.07,5.19-2.56,10.39-5.13,15.8-7.79Z" fill="#d17532" fill-rule="evenodd"/><path d="M608.07,543.95c3.6-4.02,6.99-7.82,10.52-11.76,4.48,3.33,8.8,6.55,13.29,9.9-3.08,4.3-6.07,8.5-9.29,13-5.12-3.4-9.84-7.03-14.52-11.13Z" fill="#d17532" fill-rule="evenodd"/><path d="M597.56,752.98c.69-.28,1.21-.56,1.77-.71,5.56-1.42,11.13-2.84,16.71-4.2.62-.15,1.62-.21,1.97.15,2.76,2.86,5.4,5.84,8.39,9.13-7.04,2.54-13.67,5.05-20.78,6.72-2.68-3.68-5.31-7.3-8.06-11.09Z" fill="#d17532" fill-rule="evenodd"/><path d="M784.82,649.6c-4.99,4.76-9.63,9.19-14.29,13.64-3.62-2.59-7-5.01-10.57-7.57,4.4-4.74,8.7-9.36,13.14-14.15,3.82,2.64,7.51,5.18,11.71,8.08Z" fill="#d17532" fill-rule="evenodd"/><path d="M799.36,634.25c-3.95,3.88-7.87,7.74-11.95,11.75-3.57-2.4-7.38-4.96-11.57-7.78,3.38-4.23,6.69-8.2,10.2-12.45,4.5,2.87,8.88,5.65,13.32,8.48Z" fill="#d17532" fill-rule="evenodd"/><path d="M789.21,492.82c3.1-4.79,6.03-9.33,9.15-14.16,4.4,1.35,8.87,2.72,13.69,4.19-3.7,5.81-7.79,11.09-12.72,16.03-3.42-2.05-6.73-4.03-10.13-6.07Z" fill="#d17532" fill-rule="evenodd"/><path d="M427.7,758.94c-6.04-1.66-11.92-3.27-17.85-4.89.2-4.6.39-8.87.59-13.51,5.88,1.72,11.44,3.35,17.25,5.05v13.35Z" fill="#d17532" fill-rule="evenodd"/><path d="M449.2,763.95c-5.87-1.43-11.32-2.76-17.02-4.15v-13.1c5.49,1.17,10.93,2.33,16.38,3.5.21,4.56.42,8.93.64,13.75Z" fill="#d17532" fill-rule="evenodd"/><path d="M247.46,572.37c.3-1.79,1.15-2.98,2.55-3.81,2.46-1.47,4.96-2.88,7.38-4.42,2.02-1.29,3.74-1.14,5.57.43,2.56,2.19,5.25,4.22,8.29,6.64-4.58,3.16-8.84,6.1-13.27,9.16-3.59-2.74-7.06-5.37-10.52-8Z" fill="#d17532" fill-rule="evenodd"/><path d="M533.32,700.7c-4.13,1.39-7.96.71-11.72-.28-1.54-.41-2.51-1.67-2.62-3.44-.2-3.56-.96-7.09-.09-10.68.46-1.9.76-2.48,2.7-2.65,1.01-.09,2.05-.06,3.07,0,4.49.28,5.91,1.47,6.92,5.92.64,2.79,1.19,5.61,1.7,8.43.14.78.02,1.61.02,2.72Z" fill="#d17532" fill-rule="evenodd"/><path d="M577,757.54c5.35-1.2,10.41-2.33,15.71-3.51,2.78,3.55,5.59,7.16,8.58,10.99-.62.32-1.17.74-1.78.88-4.37,1.01-8.77,1.94-13.15,2.95-1.24.28-2.13.13-2.86-1.06-2.03-3.3-4.15-6.55-6.5-10.25Z" fill="#d17532" fill-rule="evenodd"/><path d="M309.07,645.02c3.05-4.92,5.63-9.22,8.37-13.42.58-.88,1.67-1.56,2.67-2.03,4.54-2.15,9.13-4.2,13.72-6.26.14-.07.37.04.64.08,0,.26.1.6-.02.8-2.96,5.29-5.91,10.59-8.95,15.83-.42.73-1.19,1.55-1.95,1.75-4.56,1.13-9.16,2.08-14.49,3.25Z" fill="#d17532" fill-rule="evenodd"/><path d="M321.64,646.61c-.94,1.64-1.53,2.68-2.12,3.72-1.92,3.4-3.86,6.78-5.74,10.19-.57,1.02-1.12,1.81-2.45,2.03-4.45.72-8.88,1.59-13.32,2.39-.47.08-.95,0-1.87,0,1.34-2.11,2.44-3.92,3.61-5.7,1.63-2.49,3.23-5,4.95-7.42.49-.68,1.29-1.38,2.07-1.59,4.65-1.22,9.34-2.29,14.87-3.62Z" fill="#d17532" fill-rule="evenodd"/><path d="M321.01,239.1c-5.32,4.59-10.57,9.12-16.06,13.85-3.06-2.2-6.18-4.46-9.52-6.87.75-.77,1.24-1.41,1.85-1.88,5.18-3.98,10.78-6.98,17.31-8.24,3.11-.6,4.82.61,6.42,3.14Z" fill="#d17532" fill-rule="evenodd"/><path d="M844.8,399.53c.37,4.85-.34,9.14-1.04,13.69-7.45.19-14.66.36-21.84.54-.78-3.95-.58-4.37,2.6-5.75,5.62-2.44,11.25-4.9,16.89-7.32,1-.43,2.05-.72,3.38-1.17Z" fill="#d17532" fill-rule="evenodd"/><path d="M513.79,692.05c0,1.54.03,3.08,0,4.62-.03,1.22-.68,1.82-1.92,1.93-2.57.23-4.86-.63-7.06-1.77-.45-.23-.68-.96-.89-1.51-1.4-3.63-2.76-7.27-4.14-10.91-.18-.47-.39-.94-.53-1.44-.33-1.2.07-1.99,1.37-2.23,2.97-.56,5.93-.53,8.86.19,2.08.52,3.39,1.95,3.69,4.08.33,2.33.48,4.68.71,7.03-.02,0-.05,0-.07,0Z" fill="#d17532" fill-rule="evenodd"/><path d="M552.62,704.39c-1.31.12-2.59.38-3.86.34-1.84-.07-3.67-.42-5.51-.54-2.35-.16-3.92-1.44-4.53-3.56-1.04-3.63-2.13-7.28-1.93-11.13.11-1.95.48-2.31,2.38-2.49,3.1-.3,5.65.77,7.54,3.27,1.33,1.75,5.26,11.17,5.91,14.12Z" fill="#d17532" fill-rule="evenodd"/><path d="M723.04,702.54c-2.03-2.53-3.93-4.91-6-7.51,4.59-3.84,9.17-7.66,14.08-11.77,2.27,2.68,4.38,5.16,6.58,7.74-.9,1.24-11.18,9.53-14.66,11.54Z" fill="#d17532" fill-rule="evenodd"/><path d="M803.19,631.33c-5-3.05-9.61-5.87-14.56-8.89,1.9-2.69,3.87-5.48,5.92-8.38,5.4,2.88,10.61,5.66,16.22,8.64-2.6,2.96-5.06,5.76-7.59,8.63Z" fill="#d17532" fill-rule="evenodd"/><path d="M636.35,741.2c3.01,3.05,5.71,5.78,8.57,8.68-4.55,1.92-9.31,3.93-14.2,6-2.89-3.18-5.67-6.23-8.73-9.59,5.13-1.81,9.89-3.5,14.35-5.09Z" fill="#d17532" fill-rule="evenodd"/><path d="M232.15,618.48c-.72,7.62-1.45,15.24-2.2,23.01-2.71-1.31-9.91-9.71-12.81-14.75,4.74-2.88,9.49-5.77,14.24-8.65.26.13.51.26.77.39Z" fill="#d17532" fill-rule="evenodd"/><path d="M198.51,357c-.68.28-.95.48-1.24.49-4.08.13-8.18.24-12.27.34-.28,0-.57-.16-.82-.25-.23-5.42,2.13-17.05,4.08-19.48.7.5,1.5.93,2.11,1.55.78.8,1.62,1.66,2.05,2.66,2.1,4.85,4.07,9.77,6.1,14.7Z" fill="#d17532" fill-rule="evenodd"/><path d="M310.46,666.83c-1.63,3.44-3.07,6.6-4.62,9.7-.29.58-.89,1.25-1.48,1.38-5.55,1.37-11.22,1.87-17.59,2.4,1.97-3.37,3.57-6.19,5.28-8.94.34-.53,1.09-.99,1.72-1.12,5.39-1.15,10.79-2.23,16.69-3.42Z" fill="#d17532" fill-rule="evenodd"/><path d="M744.68,670.88c3.54,2.18,6.75,4.17,9.96,6.15-1.23,1.94-8.91,8.47-12.34,10.39-2.61-2.13-5.29-4.31-8.19-6.67,3.6-3.36,7.03-6.56,10.57-9.88Z" fill="#d17532" fill-rule="evenodd"/><path d="M837.22,437.25c-1.17,3.05-2.12,5.51-3.16,8.22-6.75-.77-13.39-1.53-20.33-2.32.95-2.76,1.74-5.05,2.59-7.49,6.91.52,13.61,1.03,20.91,1.59Z" fill="#d17532" fill-rule="evenodd"/><path d="M280,598.1c-2.34-1.86-4.72-3.74-7.48-5.92,2.59-1.64,4.87-3.06,7.13-4.52,2.23-1.44,4.42-2.92,6.87-4.54,2.85,2.06,5.63,4.07,8.85,6.4-5.22,2.91-10.07,5.62-15.37,8.58Z" fill="#d17532" fill-rule="evenodd"/><path d="M654.45,733.6c2.52,2.83,4.9,5.48,7.56,8.47-4.36,2.09-8.57,4.1-12.84,6.15-2.79-2.91-5.4-5.62-8.36-8.7,4.66-2.02,9.01-3.91,13.63-5.91Z" fill="#d17532" fill-rule="evenodd"/><path d="M488.3,678c3.37.2,5.79,1.77,6.99,5.02,1.28,3.47,2.5,6.95,3.74,10.43.07.19.16.38.2.58.6,2.62-.53,3.75-3.17,3.06-2.23-.59-4.32-1.68-5.41-3.79-2.01-3.92-3.89-7.92-5.59-11.99-1.07-2.55-.13-3.39,3.24-3.31Z" fill="#d17532" fill-rule="evenodd"/><path d="M757.63,674.7c-3.07-2.24-6.19-4.52-9-6.57,2.86-2.91,5.7-5.8,8.81-8.95,2.9,1.95,6.26,4.22,9.62,6.49-1.01,1.94-6.11,6.87-9.43,9.03Z" fill="#d17532" fill-rule="evenodd"/><path d="M694.51,722.98c-2.28-2.4-4.46-4.7-6.92-7.28,4.05-2.69,8.18-5.43,12.54-8.33,2.12,2.48,4.16,4.86,6.21,7.25-1.31,1.8-7.34,6.1-11.83,8.36Z" fill="#d17532" fill-rule="evenodd"/><path d="M261.47,583.39c4.73-3.06,9.16-5.92,13.75-8.89,2.46,1.93,4.92,3.88,7.7,6.07-4.78,3.01-9.29,5.86-13.97,8.81-2.42-1.93-4.78-3.83-7.47-5.99Z" fill="#d17532" fill-rule="evenodd"/><path d="M564.38,760.11c.73-.3.9-.42,1.1-.45,2.52-.42,5.05-.83,7.58-1.24,1.5,2.05,3.01,4.09,4.5,6.14,1.14,1.56,2.27,3.14,3.61,4.98-2.67,1.01-5.31,1.18-7.87,1.45-4.92.49-3.87,1.36-6.58-3.43-.76-1.34-1.42-2.75-1.9-4.19-.34-1.01-.3-2.14-.44-3.26Z" fill="#d17532" fill-rule="evenodd"/><path d="M591,663.99c-2.79-4.43-5.43-8.22-7.64-12.25-1.88-3.41-.99-5.9,2.76-9.35,3.18,4.54,6.33,9.05,9.56,13.67-1.51,2.56-2.94,4.99-4.68,7.92Z" fill="#d17532" fill-rule="evenodd"/><path d="M703.35,705.1c3.54-2.6,6.81-5.02,10.18-7.49,2.24,2.52,4.33,4.87,6.62,7.46-3.49,2.62-6.88,5.17-10.39,7.8-2.24-2.72-4.28-5.19-6.41-7.76Z" fill="#d17532" fill-rule="evenodd"/><path d="M567.22,707.32c-2.13,1.54-4.12.98-5.47-.05-1.72-1.32-3.17-3.18-4.27-5.08-1.52-2.63-2.56-5.54-3.91-8.28-1.19-2.42-.6-3.46,2.1-3.32,2.5.12,4.7,1.04,5.8,3.39,2.01,4.34,3.81,8.79,5.76,13.34Z" fill="#d17532" fill-rule="evenodd"/><path d="M579.12,651.96c3.41,5.2,6.65,10.14,9.98,15.21-1.22,2.12-2.38,4.15-3.66,6.37-.55-.58-.95-.89-1.2-1.3-2.23-3.56-4.57-7.06-6.62-10.72-2.56-4.57-2.39-5.08,1.5-9.56Z" fill="#d17532" fill-rule="evenodd"/><path d="M843.7,580.57c-3.25-1.75-6.18-3.34-9.37-5.05.71-.56,1.19-1.02,1.76-1.38,4.03-2.63,8.07-5.23,12.11-7.84.51-.33,1.02-.69,1.56-.97.83-.44,1.72-.85,2.54-.02.86.88.71,1.83.06,2.77-2.86,4.11-5.7,8.23-8.65,12.5Z" fill="#d17532" fill-rule="evenodd"/><path d="M558.12,761.4c2.56,3.71,4.75,6.87,7.1,10.27-3.99.82-7.83.96-11.63.63-2.7-.23-3.79-3.58-1.85-5.48,1.86-1.84,3.99-3.41,6.38-5.42Z" fill="#d17532" fill-rule="evenodd"/><path d="M583.45,677c-.93,1.49-1.72,2.76-2.66,4.27-.73-.79-1.25-1.25-1.64-1.8-2.52-3.63-5.07-7.24-7.48-10.93-2.11-3.24-2.02-3.36.78-6.95,4.04,4.81,7.34,10.05,11,15.41Z" fill="#d17532" fill-rule="evenodd"/><path d="M482.58,690.17c4.35,7.19,8.49,13.72,5.22,22.05-4.7-3.41-7.95-15.84-5.22-22.05Z" fill="#d17532" fill-rule="evenodd"/><path d="M689.02,553.72c2.4-.35,4.29-.63,6.29-.92,1.41,3.55,2.75,6.95,4.21,10.63-2.43,1.23-5.25,1.54-8.29,2.39-.73-4.03-1.44-7.88-2.21-12.11Z" fill="#d17532" fill-rule="evenodd"/><path d="M786.01,496.83c3.54,1.79,6.8,3.44,10.25,5.19-1.56,2.59-3.79,4.19-5.77,6.32-3.14-1.94-6.15-3.78-9.34-5.74,1.67-1.98,3.17-3.77,4.86-5.77Z" fill="#d17532" fill-rule="evenodd"/><path d="M601.19,646.9c-1.16,1.83-2.23,3.51-3.51,5.54-2.5-3.77-4.86-7.11-7.01-10.59-1.55-2.5-1.28-3.15,1.65-5.58,2.92,3.5,5.84,7,8.87,10.63Z" fill="#d17532" fill-rule="evenodd"/><path d="M268.77,279.88c.99-1.85,1.66-3.08,2.45-4.56,4.4,1.36,8.25,3.62,12.7,5.41-.74,1.4-1.37,2.61-2.14,4.08-4.33-1.64-8.47-3.21-13.01-4.93Z" fill="#d17532" fill-rule="evenodd"/><path d="M485.37,737.08c-5.2-3.39-6.81-7.63-5.09-12.9,4.99,1.41,7.23,6.93,5.09,12.9Z" fill="#d17532" fill-rule="evenodd"/><path d="M481.97,709.83c1.8,3.25,3.37,5.9,4.76,8.63.97,1.91.94,3.9-.33,6.15-2.46-1.99-4.69-4.12-5.13-7.05-.34-2.25-.86-4.88.7-7.72Z" fill="#d17532" fill-rule="evenodd"/><path d="M605.51,639.35c-.26.53-.44,1-.7,1.42-.43.69-.9,1.35-1.58,2.35-2.35-3.02-4.54-5.85-7.13-9.18,1.84-.09,3.23-.28,4.6-.19.6.04,1.36.48,1.73.98,1.1,1.46,2.04,3.04,3.08,4.61Z" fill="#d17532" fill-rule="evenodd"/><path d="M482.37,757.87c-2.87-5.2-3.65-7.76-3.39-10.66,3.73,1.69,4.6,4.29,3.39,10.66Z" fill="#d17532" fill-rule="evenodd"/><path d="M483.69,746.95c-1.52-2.95-4.66-5.23-3.8-9.24,3.2,2.1,5.02,6.21,3.8,9.24Z" fill="#d17532" fill-rule="evenodd"/><path d="M605.27,633.25c1.73-.09,2.86-.15,4.58-.24-.93,1.48-1.56,2.47-2.49,3.96-.73-1.32-1.27-2.27-2.08-3.72Z" fill="#d17532" fill-rule="evenodd"/><path d="M11.84,481.93c-.51-2.19-1.01-4.17-1.44-6.16-.27-1.3-.6-2.62-.57-3.93.01-.65.62-1.58,1.21-1.88.98-.49,1.8.23,2.15,1.18,1.16,3.17,2.33,6.35,3.37,9.57,1.9,5.87,1.83,12.12,3.4,18.07.45,1.68.75,3.42,1.31,5.06,5.28,15.27,11.12,30.29,19.4,44.25,3.52,5.94,7.42,11.62,12.54,16.32,1.35,1.25,2.84,2.39,4.43,3.3,3.07,1.75,6.23,1.96,9.32-.08.69-.46,1.43-.84,2.08-1.33,3.37-2.53,7.22-2.27,10.51.43,2.92,2.4,5.72,5.02,8.22,7.86,7.75,8.84,14.26,18.59,20.54,28.49,5.8,9.13,12.07,17.88,19.42,25.85,7.61,8.25,16.48,14.36,27.39,17.59,10.89,3.24,21.24,7.93,30.14,15.1,5.58,4.49,10.62,9.67,15.71,14.75,5.97,5.94,11.74,12.09,17.59,18.16,2.95,3.06,6.32,5.59,10.09,7.53,12.22,6.28,23.28,14.27,33.93,22.88,14.36,11.6,30.05,21.15,46.12,30.17,23.14,12.98,47.7,22.09,73.69,27.24,6.22,1.23,12.62,1.79,18.97,2.08,8.3.38,16.64.32,24.94.13,4.51-.1,9.05-.58,13.47-1.41,5.64-1.07,10.84-.1,15.87,2.3,5.19,2.48,10.35,5.03,15.45,7.7,13.36,6.98,27.22,12.62,41.89,16.13,5.67,1.35,11.47,2.39,17.27,2.95,7.46.71,14.98.95,22.47,1.12,6.9.17,13.76-.41,20.45-2.27,6.61-1.83,13.18-1.37,19.81.06,16.69,3.6,33.52,4.97,50.55,2.87,5.82-.72,11.62-1.59,17.15-3.63,8.63-3.18,17.53-5.14,26.64-6.26,8-.98,15.63-3.39,23.11-6.33,10.38-4.07,20.31-8.94,29.25-15.68,1.31-.99,2.76-1.79,4.12-2.72,5.21-3.6,10.87-4.46,17.05-3.23,5.43,1.08,10.91,1.97,16.41,2.68,12.58,1.63,24.78-.37,36.75-4.21,13.17-4.22,25.73-9.75,37.39-17.26,6.44-4.14,12.29-8.97,17.71-14.32,8.48-8.38,16.9-16.82,25.23-25.35,3.58-3.67,6.86-7.65,10.29-11.47.75-.84,1.58-1.61,2.42-2.37,2.53-2.3,5.54-3.26,8.85-2.49,4.94,1.15,9.57.34,14.14-1.57,2.37-.99,4.74-1.97,7.15-2.85,1.04-.38,2.2-.68,3.29-.66,2.6.05,4.45,2.33,3.76,4.85-.45,1.64-1.3,3.25-2.27,4.67-4.96,7.18-10.04,14.29-15.05,21.44-4.78,6.81-9.41,13.73-14.3,20.46-6.8,9.34-14.88,17.54-23.28,25.43-19.92,18.77-41.16,35.98-62.51,53.07-7.78,6.23-15.56,12.48-23.44,18.58-13.6,10.54-28.67,18.4-44.79,24.34-7.23,2.67-14.43,5.37-22.03,6.88-5.2,1.02-10.4,1.24-15.64.84-9.73-.76-19.47-1.54-29.18-2.44-8.54-.79-17.04-.26-25.55.48-20.55,1.78-41.09,2.18-61.4-2.16-7.11-1.52-14.06-3.83-21.03-5.96-5.31-1.61-10.52-3.45-16.09-4.14-5.68-.7-11.27-.01-16.9.44-13.97,1.13-27.76.29-41.03-4.63-8.91-3.3-17.1-8.03-24.83-13.54-5.85-4.18-11.67-8.42-17.57-12.52-10.56-7.33-22.39-11.19-35.14-12.09-9.22-.65-18.47-1.14-27.71-1.25-14.34-.18-28.47-2.08-42.59-4.29-15.04-2.36-29.85-5.77-44.42-10.21-15.39-4.69-29.54-11.81-42.34-21.58-2.21-1.68-4.53-3.2-6.83-4.76-9.36-6.34-19.67-10.01-30.86-11.66-7.92-1.16-15.75-2.94-23.59-4.58-13.94-2.89-26.26-9.35-37.89-17.31-12.49-8.55-24.23-18.02-35.26-28.4-5.01-4.72-10.12-9.34-15.26-13.93-7.29-6.53-15.68-11.61-23.54-17.38-9.2-6.74-18.35-13.57-27.24-20.71-9.44-7.58-16.96-17.04-24.17-26.67-13.71-18.32-24.38-38.32-31.21-60.19-2.29-7.33-3.67-14.96-5.07-22.53-1.78-9.59-3.72-19.2-4.56-28.89-1.06-12.17-1.08-24.43-1.52-36.65-.1-2.9.46-5.57,3.68-7.35Z" fill="#d17532" fill-rule="evenodd"/><path d="M644.24,224.39c6.92,6.27,14.4,11.16,24.34,10.65,8.62-.45,17.26-.58,25.89-.94,5.26-.22,10.39-1.33,15.39-2.96,13.33-4.35,26.51-3.88,39.56,1.1,3.75,1.43,7.54,2.75,11.22,4.33,6.79,2.92,13.89,4.3,21.2,5,6.13.59,12.25,1.36,18.36,2.16,9.99,1.31,19.2,5.21,28.56,8.62,6.21,2.26,12.08,5.21,17.46,9.05,1.57,1.13,3.15,2.39,4.32,3.9,2.88,3.69,1.46,7.76-3.13,8.61-2.67.5-5.51.15-8.27.05-2.36-.09-4.71-.5-7.06-.51-3.83-.02-5.84,1.58-7.05,5.23-.99,3.02-.61,6.1-.36,9.17.14,1.74.37,3.49.34,5.22-.05,3.49-1.98,5.62-5.44,5.86-1.5.11-3.15,0-4.54-.53-3.05-1.18-6-2.65-8.96-4.06-3.42-1.63-6.72-3.59-10.25-4.95-7.02-2.7-14.1-2.28-21.06.47-3.63,1.43-6.57,3.84-8.93,6.9-2.01,2.59-3.89,5.3-5.72,8.03-2.98,4.45-6.51,6.02-11.63,4.32-4.37-1.45-8.6-3.38-12.79-5.29-4.6-2.09-9.17-4.23-14.17-5.15-5.36-.99-10.74-1.64-16.23-1.18-6.98.59-12.46,3.82-16.93,9.03-.74.86-1.43,1.75-2.14,2.64-3.82,4.82-8.47,5.81-13.86,2.86-4.11-2.25-7.53-5.35-10.61-8.84-3.54-4-7.03-8.05-10.56-12.06-6.13-6.96-13.49-12.33-21.69-16.55-8.71-4.48-17.65-8.49-27.28-10.39-11.1-2.18-22.25-2.17-33.32.64-9.17,2.34-18.17,5.16-26.91,8.82-2.92,1.23-6.02,2.11-9.12,2.78-4.6.97-8.28-.75-10.89-4.64-2.16-3.23-3.51-6.85-3.62-10.68-.18-6.62-2.83-12.09-6.9-17.07-11.27-13.81-25.7-22.24-43.24-25.17-15.77-2.64-31.61-3.79-47.6-2.2-4.59.46-9.25.52-13.86.35-2.5-.09-5.12-.71-7.44-1.69-4.41-1.86-6.55-6.24-5.37-10.89.62-2.45,1.77-4.82,2.98-7.06,1.32-2.43,3.03-4.64,4.48-7,.86-1.4,1.7-2.84,2.26-4.36,1.35-3.76.68-7.23-2.55-9.69-2.59-1.98-5.38-3.81-8.33-5.17-7.71-3.57-16.01-5.14-24.35-6.47-13.18-2.11-26.4-4.07-39.55-6.34-7.8-1.35-15.56-3.01-22.67-6.73-1.17-.61-2.44-1.21-3.39-2.1-2.9-2.74-3.22-4.86-.95-7.81,1.4-1.81,3.34-3.46,5.39-4.45,7.95-3.85,16.27-6.25,25.27-5.25.8.09,1.64-.04,2.45-.15,11.68-1.62,23.4-1.22,35.09-.41,24.17,1.67,47.9,6.1,71.27,12.34,11.04,2.94,21.72,6.95,31.94,12.11,7.24,3.65,13.74,8.3,18.94,14.56,4.13,4.97,9.23,7.97,15.62,9.07,13.72,2.35,26.34,7.83,38.8,13.78,4.36,2.08,8.73,4.14,13.15,6.08,7.84,3.45,14.83,8.03,20.05,14.94,2.58,3.41,5.88,4.73,10,3.86,4.02-.84,7.98-1.94,12.01-2.75,4.02-.8,8.06-1.69,12.14-1.99,8.55-.63,16.12,2.45,23.25,6.87,2.34,1.45,4.74,2.81,7.11,4.21l-.11-.11Z" fill="#feb520" fill-rule="evenodd"/><path d="M644.35,224.51c-1.92-4.18-5.55-6.74-9.06-9.33-1.6-1.18-2.21-2.5-2.25-4.4-.16-6.79,1.21-13.3,3.63-19.58,3.63-9.39,8.57-18.02,15.5-25.37,9.01-9.59,18.1-19.1,27.3-28.51,9.67-9.89,21.06-17.38,33.58-23.15,2.02-.93,4.28-1.36,6.43-2.02,1.08-.34,2.17-.61,3.22-1.01,3.94-1.5,7.85-3.06,11.78-4.56,1.06-.4,2.14-.75,3.25-.96,3.09-.56,6.02.63,7.49,3.11,1.57,2.64,1.41,5.34-.29,7.85-.85,1.26-1.94,2.39-3.03,3.47-4.7,4.61-9.39,9.22-14.16,13.75-15.8,15.02-24.73,33.57-28.29,54.89-1.39,8.31-2.6,16.64-4,24.95-.38,2.22-.89,4.48-1.82,6.51-1.18,2.59-2.66,5.09-4.33,7.38-2.27,3.1-5.49,4.41-9.4,4.3-5.14-.15-10.28-.04-15.42-.05-2.8,0-5.51-.53-8.06-1.72-4.06-1.89-8.12-3.78-12.19-5.67,0,0,.11.12.11.12Z" fill="#86b125" fill-rule="evenodd"/><path d="M846.59,60.94c-6.87.2-10.45-3.53-13.42-8.25-.46-.73-1.2-1.61-1.96-1.77-4-.84-6.87-3.09-8.8-6.74-5.42.7-10.98,3.25-15.41-1.99-1.05.45-1.87.85-2.71,1.15-3.44,1.25-6.89.12-8.61-2.81-1.63-2.76-1.08-6.35,1.58-8.66,2.32-2.02,4.82-3.84,7.3-5.67,2.26-1.66,4.14-3.63,5.73-5.96,1.21-1.76,2.6-3.46,4.18-4.9,3.1-2.83,6.78-3.88,10.85-2.45,4.21,1.47,6.33,4.69,7,8.98.11.71.17,1.42.29,2.38,3.34,1.36,6.76,2.69,10.14,4.13,3.58,1.53,7.24,2.93,10.66,4.77,8.53,4.62,10.57,19.3-.47,25.06-1.24.65-2.49,1.31-4.28,2.27,4.21.72,6.88,2.73,8.51,6.03,1.83,3.69,1.85,7.52.76,11.41-1.47,5.22-4.85,8.97-9.3,11.85-6.26,4.06-13.26,5.98-20.57,6.91-9.92,1.27-19.88,1.59-29.85.97-6.39-.4-12.72.09-19.07.56-4.52.33-9.04.47-13.52,1.02-5.59.7-11.17,1.61-16.71,2.68-5.65,1.08-11.24,2.42-16.85,3.73-9.27,2.17-17.83,6.19-26.33,10.33-13.06,6.33-24.7,14.78-35.38,24.46-5.76,5.22-10.73,11.33-15.95,17.12-5.88,6.52-10.82,13.74-14.58,21.67-2.28,4.81-4.05,9.87-6.05,14.82-1.05,2.56-2.13,5.11-3.19,7.67-.16.38-.5.76-.46,1.11.36,3.08-1.84,4.1-4.05,5.03-1.8.75-3.64,1.45-5.53,1.93-1.26.32-2.69.53-3.92.23-1.36-.32-2.35.03-3.47.61-1.37.7-2.78,1.38-4.24,1.8-2.14.61-4.11-.28-5.01-2.02-.85-1.63-.53-3.62,1.23-4.96,5.98-4.56,10-10.86,14.87-16.4.54-.61.97-1.33,1.32-2.07,3.87-7.9,8.93-15.02,14.29-21.92,7.7-9.91,16.13-19.14,25.2-27.86,11.41-10.97,23.96-20.26,37.55-28.32,16.17-9.6,33.59-15.79,51.91-19.69,16.6-3.53,33.32-6.16,50.2-7.98,10.92-1.17,21.76-3.1,32.6-4.88,2.27-.37,4.48-1.41,6.62-2.37,1.56-.69,2.57-2.01,2.68-3.85.21-3.34.88-6.49,4.24-9.17Z" fill="#86b125" fill-rule="evenodd"/><path d="M589.32,208.23c.28-5.71,1.23-11.3,3.05-16.66,3.11-9.14,6.23-18.28,9.8-27.25,3.53-8.86,8.79-16.7,15.73-23.36,7.49-7.18,14.41-15.01,22.86-21.1,13.68-9.86,27.87-18.86,42.93-26.58,21.95-11.25,44.79-20.15,68.39-27.04,10.82-3.16,21.98-5.19,32.99-7.73,11.65-2.69,23.52-3.81,35.39-4.88,1.62-.15,3.29-.04,4.91.17,1.44.18,2.45,1.1,2.57,2.64.12,1.35-.98,2.72-2.61,2.98-2.02.31-4.09.38-6.14.53-16.63,1.19-32.56,5.48-48.35,10.6-22.03,7.13-43.77,14.98-64.28,25.79-17.67,9.31-34.16,20.45-49.73,33.04-19.11,15.48-34.19,34-44.75,56.19-2.61,5.46-5.01,11.02-7.49,16.54-.73,1.62-1.61,3.05-3.21,4.02-.68.41-1.26,1.28-1.51,2.07-.54,1.65-.82,3.39-1.24,5.08-.5,2.04-2.01,3.02-5.43,2.95-1.81-.04-2.77-1.06-3.27-3.45-.32-1.5-.42-3.04-.62-4.57Z" fill="#86b125" fill-rule="evenodd"/><path d="M550.42,191.8c-1.32-.15-2.74-.05-3.94-.51-3.73-1.42-7.36-3.05-11.04-4.6-.94-.4-1.89-.76-2.82-1.17-2.04-.92-4.33-1.54-6.06-2.88-1.77-1.37-3.2-3.32-4.4-5.25-1.08-1.72-.38-3.89,1.5-5.1,1.17-.76,2.59-1.22,3.96-1.55,5.99-1.44,12.06-2.52,17.97-4.21,9.36-2.68,17.73-7.57,26.04-12.49,2.92-1.73,5.9-3.35,8.82-5.07,1.31-.77,2.6-1.62,3.82-2.54,2.09-1.57,3.96-1.76,5.63-.44,1.6,1.26,2.06,3.42.89,5.58-1.18,2.16-2.53,4.24-3.99,6.22-5.67,7.68-11.41,15.32-17.15,22.96-.99,1.31-2.09,2.54-3.17,3.78-4.25,4.84-9.57,7.3-16.06,7.28Z" fill="#86b125" fill-rule="evenodd"/><path d="M0,476.16c.69-15.5.91-31.04,2.16-46.5,1.64-20.24,5.39-40.12,12.9-59.15,1.96-4.97,3.66-10.04,5.54-15.04,4.91-13.08,9.35-26.38,14.9-39.19,9.08-20.96,19.4-41.36,33.08-59.77,18.57-24.98,39.97-47.22,65.72-64.99,8.88-6.12,17.85-12.14,26.94-17.94,9.59-6.12,20.01-10.45,30.95-13.61,17.97-5.19,35.81-10.79,53.25-17.61,10.94-4.27,22.26-7.3,33.69-9.9,14.53-3.3,29.03-6.75,43.61-9.8,5.19-1.09,10.6-1.54,15.92-1.66,22.44-.48,44.82.49,67.06,3.59,16.31,2.28,32.33,5.83,47.89,11.45,11.33,4.08,23.04,6.95,34.97,8.65,8.17,1.17,16.22.2,23.85-3.15,1.57-.69,3.11-1.64,4.38-2.78,5.66-5.08,11.24-10.25,16.8-15.45,12.91-12.09,26.15-23.82,40.13-34.65,16.21-12.58,33.91-22.8,52.28-31.94,14.44-7.18,28.71-14.73,43.1-22.04,14.38-7.32,28.83-14.55,44.32-19.3,14.25-4.37,28.68-8.12,43.45-10.33,10.98-1.64,21.95-3.31,32.98-4.51,8.59-.94,17.24-.7,25.81.76,4.61.78,9.01,2.3,12.98,4.69,2.23,1.35,4.49,3.12,5.89,5.26,2.64,4.03,6.19,6.78,10.17,9.21,3.68,2.24,7.31,4.59,10.94,6.92,8.4,5.37,11.86,13.26,11.8,23.01-.04,5.74.15,11.49.32,17.23.44,15.12-6.5,26.05-19.97,31.57-7.28,2.98-14.85,4.7-22.63,5.81-8.27,1.19-16.58,1.59-24.9,1.69-7.92.1-15.51,1.59-22.88,4.4-4.32,1.64-8.68,3.2-13.04,4.74-4.4,1.55-8.36,3.81-12.08,6.67-9.07,6.97-17.67,14.43-25.13,23.14-2.41,2.81-4.7,5.72-6.98,8.63-3.13,4-5.39,8.45-7.13,13.24-2.57,7.05-5.78,13.89-6.84,21.39-.61,4.26-1.22,8.59-1.02,12.86.34,7.57,3.47,11.17,10.8,13.03,5.47,1.39,11.04,2.45,16.56,3.63,6.16,1.32,12.09,3.29,17.83,5.85,3.85,1.71,7.76,3.3,11.65,4.91,3.65,1.5,7.42,2.2,11.42,2.08,9.18-.3,18.3.49,27.26,2.52,13.31,3.01,26.79,5.54,39.12,11.87,5.78,2.97,11.34,6.26,16.23,10.58,6.55,5.78,13.21,11.44,19.59,17.4,4.2,3.92,8.12,8.16,11.9,12.49,4.93,5.65,9.71,11.45,14.39,17.31,18.9,23.65,34.95,49.02,46.48,77.12,4.09,9.98,8.5,19.85,12.23,29.97,8.07,21.85,13.17,44.51,17.99,67.26,3.41,16.13,6.13,32.34,6.95,48.79,1,20.13,1.38,40.3-.8,60.38-1.71,15.85-4.49,31.55-8.62,46.97-3.35,12.5-6.92,24.96-10.79,37.31-6.45,20.6-15.25,40.15-27.42,58.07-2.07,3.06-4.3,6.03-6.61,8.91-15.97,19.78-33.31,38.32-51.45,56.11-5.07,4.97-9.91,10.16-15.04,15.05-16.77,16.02-34.74,30.51-54.26,43.07-12.5,8.05-25.68,14.9-39.63,19.82-17.42,6.14-35.12,11.71-53.48,14.53-11.89,1.83-23.78,1.46-35.61-.64-3.74-.67-7.46-1.44-11.22-2.05-1.61-.26-3.28-.37-4.91-.3-11.19.49-22.38.94-33.56,1.6-12.17.71-24.01-1-35.58-4.61-7.25-2.26-14.44-4.77-21.65-7.18-5.17-1.72-10.32-3.49-15.5-5.18-1.16-.39-2.4-.82-3.6-.79-6.16.15-12.47-.35-18.43.84-11.36,2.27-22.13.71-32.68-3.22-10.67-3.97-20.3-9.9-29.43-16.66-3.96-2.93-7.89-5.92-11.8-8.94-10.81-8.34-23.17-13.22-36.42-15.87-3.14-.63-6.57-.25-9.8.13-12.27,1.43-24.57,2.76-36.89,1.3-9.17-1.09-18.27-2.84-27.38-4.36-19.87-3.32-38.2-11.16-56.49-19.15-10.28-4.49-20.29-9.5-29.9-15.29-7.72-4.65-15.86-8.2-24.77-9.91-8.78-1.69-17.54-3.44-26.28-5.31-13.02-2.77-25.62-6.79-37.57-12.74-8.91-4.45-16.65-10.56-23.97-17.21-5.4-4.9-10.75-9.87-16.01-14.93-7.51-7.23-15.8-13.45-24.51-19.13-10.5-6.85-21.33-13.21-31.19-21.01-21.81-17.26-40.17-37.59-54.5-61.5-3.4-5.68-5.81-11.79-8.08-17.97-6.1-16.63-11.49-33.51-14.25-51.01C2.12,534.31-.03,512.72.13,490.97c.04-4.93,0-9.87,0-14.8-.05,0-.09,0-.14-.01ZM228.93,399.53c.26-.43.51-.76.69-1.12,5.26-11.15,10.51-22.3,15.75-33.47.38-.82.75-1.73.81-2.62.19-3.28.36-6.57.33-9.85-.09-6.78-.8-13.59-.39-20.33,1.36-22.97,8.2-44.37,19.69-64.26,2.56-4.42,5.91-8.39,8.83-12.61,5.07-7.34,11.19-13.66,18.2-19.15,6.45-5.05,13.69-8.33,21.81-9.45,2.29-.32,4.71-.02,7.03.27,2.47.32,4.37,1.79,5.65,3.91.85,1.41,1.69,2.85,2.25,4.38,1.42,3.85,2.65,7.77,4,11.65.35,1.02.84,2,1.27,3,3.25-.39,5.39-2.21,7.58-3.86,5.83-4.39,11.55-8.94,17.47-13.19,33.47-24.05,69.11-43.71,109.42-53.93,3.04-.77,5.93-2.29,8.69-3.83,2.15-1.19,2.21-2.19.9-4.34-2.1-3.49-4.77-6.47-8.45-8.34-5.4-2.75-10.73-5.67-16.3-8.03-25.82-10.95-52.75-16.89-80.8-17.96-16.71-.64-33.26.07-49.74,3.11-28.84,5.33-55.8,15.4-80.68,30.99-13.95,8.75-27.36,18.25-39.98,28.85-38.57,32.4-68.59,71.62-91.67,116.17-19.26,37.18-30.11,77.05-35.52,118.43-4.91,37.48-5.08,75.02-.33,112.56,3,23.7,7.53,47.05,14.95,69.84,8.96,27.51,21.79,53.01,38.57,76.52,4.05,5.67,8.78,10.86,13.22,16.25.39.47.98.78,1.93,1.52-.3-1.29-.38-2-.64-2.64-1.78-4.37-3.51-8.77-5.43-13.08-3.06-6.85-6.27-13.62-9.34-20.47-.67-1.49-1.14-3.09-1.49-4.69-.41-1.91.12-3.03,1.36-3.29,1.58-.34,2.18.75,2.71,1.93.97,2.15,1.87,4.34,2.95,6.44,4.69,9.14,9.44,18.26,14.18,27.37.57,1.09,1.18,2.18,1.91,3.16,6.89,9.22,13.8,18.42,20.73,27.61,4.51,5.98,10.53,10.03,17.16,13.28.56.28,1.22.34,2.31.63-.5-1.44-.7-2.46-1.17-3.33-1.96-3.6-3.69-7.38-6.05-10.71-11.78-16.63-22.87-33.65-32.16-51.82-9.04-17.66-15.99-36.03-20.32-55.39-2.59-11.56-1.84-23.08.5-34.56.3-1.47,1.03-2.9,1.79-4.22.58-1.02,1.8-1.75,2.87-1.07.82.51,1.3,1.7,1.68,2.68.18.48-.21,1.17-.32,1.77-.46,2.71-1.31,5.43-1.28,8.14.06,5.02.49,10.05,1.05,15.04,2.31,20.92,8.28,40.8,17.26,59.82,9.4,19.89,21.36,38.19,34.39,55.84,2.77,3.74,6.26,6.79,10.03,9.52,4.08,2.95,8.16,5.89,12.29,8.79,4.38,3.09,9.05,5.66,14.07,7.61,4.25,1.64,8.61,1.84,13.04,1.08,2.21-.39,2.95-1.3,2.93-3.6-.02-2.5-.58-4.69-2.17-6.84-13.26-17.97-24.11-37.27-31.25-58.51-9-26.77-13.83-54.33-15.58-82.47-.16-2.59-.47-5.06-1.6-7.46-14.75-31.25-21.21-64.51-23.54-98.69-1.78-26.32-.24-52.6,2.4-78.82,2.14-21.17,4.3-42.33,7.93-63.31,1.21-6.98,2.15-14.06,4.04-20.86,1.72-6.22,1.92-12.33,1.19-18.6-.96-8.26-3.38-16.28-3.83-24.64-.22-3.99-1.06-7.94-1.37-11.94-.24-3.06-.23-6.16-.05-9.22.07-1.24.7-2.59,1.43-3.64.83-1.19,2.42-.9,2.94.47.38,1.03.45,2.2.56,3.32.59,5.72.95,11.48,1.76,17.17,1.71,12.04,5.13,23.67,8.83,35.22,5.47,17.06,11.69,33.85,19.95,49.73,4.64,8.9,10.36,17.25,15.6,25.84.04.07.17.1.56.31ZM626.8,685.14c.37-1.05.72-2.01,1.05-2.99,10.32-31.27,17.79-63.29,24.99-95.37.5-2.22.1-4.69-.15-7.02-.16-1.55-1.11-2.74-2.53-3.66-2.01-1.32-4.15-2.19-6.44-2.8-8.91-2.37-17.4-5.75-24.83-11.3-6.18-4.61-12.29-9.32-18.11-14.36-10.07-8.72-16.14-20.13-20.5-32.49-1.81-5.16-.65-7.77,3.91-10.63,14.67-9.19,30.41-16.35,45.95-23.84,12.03-5.8,24.28-11.15,36.46-16.63,3.45-1.55,6.01-3.97,7.6-7.32,1.99-4.19,3.36-8.6,3.73-13.28.86-10.76,1.88-21.5,2.62-32.27,2-29.18,2.47-58.33-1.77-87.39-2.17-14.77-4.86-29.42-10.55-43.32-2.99-7.33-6.13-14.59-9.27-21.86-3.37-7.78-7.91-14.87-13.04-21.59-4.87-6.37-10.85-11.51-17.83-15.42-1.59-.89-3.37-1.56-5.14-2-6.52-1.63-13.04-1.07-19.55.28-9.49,1.96-18.16,5.9-26.38,10.87-5.53,3.34-11.25,6.45-16.06,10.86-8.83,8.08-16.8,16.92-23.84,26.59-12.95,17.79-23.3,37.01-31.77,57.31-11.26,26.99-19.98,54.82-27.88,82.94-15.47,55.05-27.94,110.76-36.76,167.27-.9,5.8-.9,5.77,4.31,8.62,20.1,10.97,41.34,19.25,63,26.51,17.58,5.89,35.7,9.61,53.89,13.02,14.73,2.76,29.52,3.92,44.48,2.27,1.84-.2,3.69-.42,5.53-.42,5.44,0,8.08,3.93,5.94,8.95-.8,1.87-1.99,3.58-3.09,5.31-8.49,13.24-17,26.46-25.49,39.69-.59.93-1.07,1.94-1.61,2.94,3.06,1.12,33.68,3.1,39.14,2.54ZM706.88,870.6c1.76,1.8,3.57,1.46,5.26,1.42,10.33-.21,20.47-1.7,30.46-4.31,14.72-3.84,28.4-10.16,41.97-16.87,33.78-16.7,60.6-41.41,82.61-71.59,16.83-23.06,28.38-48.83,37.45-75.74,8.89-26.37,14.77-53.47,18.64-81.02,3.79-26.92,4.14-53.86,1.22-80.88-2.14-19.86-5.55-39.5-10.06-58.93-8.28-35.66-20.57-69.8-39.4-101.34-18.17-30.45-38.93-59-62.8-85.29-18.46-20.34-39.65-37.29-63.13-51.43-2.99-1.8-6.07-3.47-9.22-4.99-8.44-4.09-17.34-6.4-26.77-6.31-1.94.01-3.93.14-5.82.56-4.08.91-5.18,4.64-2.35,7.71.76.82,1.71,1.47,2.6,2.16,7.2,5.49,14.55,10.82,20.7,17.51,13.71,14.93,26.7,30.47,37.66,47.58,16.95,26.47,30.41,54.56,38.56,85.04.57,2.15,1.58,4.24,2.73,6.16,1.24,2.07,2.1,2.16,4.39,1.15,4.33-1.91,8.61-3.93,12.96-5.76,5.96-2.5,11.95-4.98,18-7.26,3.15-1.19,5.11-.48,6.87,2.32.95,1.52,1.65,3.31,1.99,5.06,1.77,9.16.87,18.19-1.49,27.16-4.32,16.4-11.19,31.77-18.92,46.77-2.16,4.19-4.94,8.05-7.36,12.1-.78,1.31-1.57,2.68-1.97,4.12-1.21,4.38-1.65,8.83-1.32,13.41,1.72,23.72,2.08,47.45.52,71.18-.05.65.09,1.3.18,2.25,1.23-.64,2.13-1.08,3.01-1.58,5.71-3.27,11.37-6.64,17.12-9.81,15.89-8.78,30.84-18.9,44.61-30.75,1.85-1.59,4.06-2.78,6.13-4.1.78-.5,1.69-1.02,2.5-.1.82.93.16,1.76-.47,2.44-2.31,2.47-4.56,5.01-7.04,7.31-8.29,7.73-15.94,15.93-21.92,25.69-15.26,24.93-32.02,48.81-50.83,71.23-.94,1.11-1.58,2.67-1.87,4.11-3.96,19.78-9.12,39.24-15.11,58.49-12.93,41.57-32.24,79.8-59.77,113.66-15.29,18.81-31.88,36.32-52.55,49.46-1.86,1.18-2.83,2.96-3.54,4.91-1.25,3.41.17,5.33,3.86,5.32,4.21,0,8.12-1.32,11.86-3.03,8.04-3.67,16.07-7.37,23.96-11.34,4.2-2.12,8.22-4.68,12.09-7.37,9.32-6.47,17.42-14.37,25.64-22.15,17.55-16.59,32.13-35.45,44.14-56.35.35-.62.71-1.3,1.22-1.76.41-.36,1.31-.74,1.56-.55.46.36.92,1.17.83,1.71-.21,1.3-.63,2.6-1.13,3.82-4.09,9.93-9.4,19.17-15.65,27.9-6.43,8.99-14.29,16.7-21.73,24.8-8.8,9.6-18.84,17.78-29.42,25.27-4.59,3.25-9.62,5.9-14.48,8.77-3.09,1.83-6.3,3.48-9.36,5.37-2.88,1.77-5.45,3.95-7.86,6.72ZM431.57,576.82c.32-1.32.54-2.09.68-2.87,4.63-25.36,8.88-50.8,13.95-76.08,9.86-49.12,22.79-97.44,38.85-144.92,7.82-23.12,16.9-45.7,29.27-66.82,13.15-22.45,28.97-42.65,49.76-58.66,2.13-1.64,3.93-3.96,5.3-6.3,2.63-4.47,2.16-6.83-1.58-10.37-5.13-4.85-11.05-8.58-17.39-11.56-11.09-5.2-22.52-9.54-34.45-12.47-3.88-.95-7.84-1.68-11.81-2.13-10.64-1.19-21.14-.06-31.55,2.22-20.53,4.51-39.75,12.51-58.37,22.09-24.87,12.81-47.77,28.58-69.51,46.14-3.68,2.96-4.83,6.56-3.84,10.9.61,2.69,1.63,5.3,2.67,7.86,11.07,27.35,22.52,54.54,33.18,82.03,12.89,33.27,26.82,66.09,41.27,98.69.96,2.16,1.87,4.35,2.58,6.6,1.52,4.85-.39,7.79-5.47,7.82-4.71.02-9.51-.1-14.11-1.02-11.69-2.32-23.32-4.94-34.9-7.77-30.12-7.38-57.21-20.96-81.43-40.29-8.27-6.6-15.31-14.3-20.86-23.34-3.61-5.87-7.07-11.81-9.61-18.25-.63-1.61-1.38-3.23-3.77-3.59-.58,1.03-1.25,2.03-1.75,3.12-4.3,9.45-8.5,18.94-12.86,28.36-.94,2.03-.75,3.52.53,5.33,7.97,11.38,16.65,22.2,25.75,32.69,15.43,17.83,32.38,34.16,49.78,50.03,14.82,13.53,30.35,26.18,46.89,37.58,19.4,13.36,39.48,25.63,59.78,37.56,4.16,2.44,8.37,4.78,13.01,7.42ZM230.71,164.31c-1.46-1.24-2.96-.86-4.42-.34-5.69,2.05-11.5,3.88-17.05,6.29-7.06,3.08-13.97,6.52-20.83,10.03-32.99,16.9-62.39,38.57-86.88,66.54-21.89,24.97-39.83,52.62-53.66,82.8-20.99,45.83-32.99,93.96-35.39,144.36-1.36,28.55-.09,56.93,6.87,84.83,2.81,11.26,5.28,22.58,9.84,33.36,10.26,24.27,24.29,45.96,43.25,64.29,7.24,6.99,15.03,13.42,22.59,20.07,1.08.94,2.26,1.8,3.51,2.5,1.86,1.04,4.27.67,5.41-.66,1.08-1.26,1.04-2.7-.16-4.83-10.99-19.52-19.46-40.11-26.07-61.48-7.66-24.79-11.24-50.36-13.72-76.04-3.2-33.03-2.57-66.09,1.36-99.09,4.15-34.83,13.21-68.38,25.94-100.95,10.15-25.97,24.24-49.86,39.82-72.93,20.49-30.34,45.2-56.7,74.09-79.14,7.22-5.61,14.81-10.73,22.24-16.07,1.31-.94,2.79-1.71,3.25-3.54ZM445.45,800.75c-.57-1.45-1.02-2.46-1.38-3.51-2.86-8.35-5.83-16.67-8.45-25.1-.71-2.28-1.62-3.39-3.98-3.84-21.99-4.19-43.11-11.26-63.9-19.45-19.96-7.86-39.16-17.13-56.54-29.86-9.14-6.69-17.96-13.77-25.42-22.35-2.55-2.93-4.81-6.15-6.98-9.38-2.08-3.1-2.1-6.36-.02-9.55,1.29-1.98,2.52-4,3.77-6.01,8.21-13.28,16.43-26.56,24.63-39.85.57-.93.99-1.96,1.48-2.93-.5-.47-.76-.79-1.09-1.01-1.44-.99-2.87-2-4.35-2.93-10.4-6.46-20.31-13.6-29.9-21.21-7.49-5.93-15.1-11.72-22.68-17.54-1.76-1.35-3.64-2.56-5.93-4.15-.29,2.42-.53,4.22-.71,6.02-1.52,15.03-2.95,30.07-4.59,45.09-.45,4.06-1.16,8.17-2.4,12.05-2.15,6.72-6.85,7.62-11.78,2.6-7.36-7.5-14.29-15.35-19.98-24.22-.32-.51-.82-.9-1.67-1.81.17,2,.2,3.33.42,4.63,2,11.44,3.65,22.95,6.16,34.27,8.87,40.13,27.62,74.9,56.71,104.13,20.47,20.58,44.9,33.63,72.91,40.36,15.46,3.71,31.18,5.35,47.04,5.65,16.12.31,32.03-1.35,47.56-5.85,3.7-1.08,7.23-2.76,11.08-4.26ZM798.4,651.74c-.26-.16-.52-.32-.77-.48-.88.98-1.75,1.96-2.63,2.94-12.4,13.77-25.62,26.71-40.03,38.36-16.95,13.7-34.1,27.14-52.23,39.27-16.63,11.11-34.23,20.34-52.73,27.99-14.39,5.96-29.17,10.56-44.15,14.61-2.32.63-3.64,1.75-4.59,3.95-5.73,13.21-12.23,26.03-19.39,38.53-6.28,10.95-13.78,20.93-22.5,30.02-.4.42-.73.92-1.17,1.48.5.47.83.85,1.24,1.14,6.89,4.83,14.52,8.09,22.62,10.24,1.12.3,2.52.23,3.62-.14,5.26-1.73,10.49-3.58,15.69-5.48,5.37-1.97,10.1-5.02,14.39-8.78,7.08-6.2,13.23-13.23,18.5-21,4.83-7.14,9.33-14.51,13.98-21.79.78-1.21,1.47-2.51,2.45-3.54.51-.54,1.65-.94,2.35-.77,1.06.25,1.1,1.38.8,2.32-.66,2.05-1.21,4.17-2.1,6.11-9.74,21.04-23.72,38.6-42.87,51.88-.68.47-1.41.87-2.04,1.39-1.51,1.24-1.21,2.94-1.01,4.57.18,1.49,1.45,1.55,2.56,1.72,6.51,1.02,13.05,1.53,19.66.86,21.27-2.13,40.34-9.83,57.77-22.12,14.39-10.16,26.76-22.42,38.35-35.54,23.82-26.96,41.53-57.61,54.54-91.03,7.2-18.52,12.44-37.65,17.32-56.88.82-3.27,1.58-6.55,2.36-9.82ZM966.09,554.44c-.41-10.06-.66-20.13-1.27-30.18-1.17-19.32-4.02-38.42-7.84-57.39-3.37-16.73-7.02-33.4-12.77-49.52-9.56-26.83-22.27-52.14-36.93-76.52-10.5-17.49-22.16-34.14-35.66-49.46-10.11-11.47-21.24-21.84-34.55-29.52-14.72-8.5-30.49-14.32-47.24-17.32-4.25-.76-8.55-1.25-12.82-1.83-1.15-.16-2.34-.13-3.05.98-.76,1.18-.55,2.46.29,3.45,1.17,1.4,2.37,2.85,3.82,3.92,14.12,10.38,27.26,21.88,39.33,34.57,22.48,23.6,41.95,49.59,59.74,76.83,12.95,19.83,24.06,40.7,32.77,62.77,7.72,19.55,13.54,39.68,18.08,60.18,4.44,19.99,7.33,40.23,9.5,60.59,2.34,21.96,2.13,43.92.02,65.88-1.61,16.82-4.91,33.34-8.89,49.73-5.51,22.7-11.81,45.15-21.04,66.67-1.71,3.97-3.51,7.89-5.18,11.87-.32.76-.61,1.92-.26,2.48.68,1.08,1.87.45,2.79.06,2.1-.89,3.93-2.1,5.31-4.04,12.8-18.08,24.4-36.83,33.28-57.21,5.81-13.34,10.5-27.01,13.53-41.23,6.01-28.26,8.83-56.85,9.05-85.75ZM670.27,240.73c-.92.04-1.84.07-2.76.14-2.73.23-3.67,1.15-3.67,3.86,0,.88.27,1.82.65,2.63,3.82,8.19,7.77,16.32,11.53,24.54,4.07,8.9,7.05,18.18,9.22,27.74,2.83,12.45,4.53,25.08,5.86,37.75,2.83,27.1,1.81,54.18-.81,81.23-.89,9.21-1.84,18.4-2.67,27.61-.13,1.39-.02,2.9.39,4.23.89,2.91,1.97,3.29,4.82,2.08.76-.32,1.5-.66,2.25-1,31.3-14.32,62.79-28.19,94.8-40.86,3.81-1.51,5.23-3.93,4.81-8.09-.1-1.02-.35-2.03-.6-3.03-3.77-14.87-8.41-29.46-15-43.33-12.62-26.58-28.28-51.19-47.37-73.67-9.79-11.53-20.43-21.96-33.05-30.29-4.44-2.93-9.07-5.65-13.83-8.02-4.52-2.24-9.46-3.35-14.55-3.52ZM582.66,204.95c.77-1.04,1.57-1.84,2.02-2.81.9-1.95,1.69-3.96,2.37-6.01,1.63-4.87,3.14-9.78,4.76-14.65,5.33-15.94,14.63-29.33,26.45-41.08,1.71-1.7,2.97-1.98,3.97-1.05.99.92.69,2.04-.94,4-1.71,2.05-3.38,4.13-5.02,6.24-11.53,14.91-20.12,31.24-23.99,49.83-.52,2.5-.82,5.07-.88,7.62-.08,2.93,1.2,3.8,4.09,3.26,1.52-.28,2.71-1.04,3.33-2.46.65-1.49,1.28-3.03,1.71-4.6,2.02-7.48,4.93-14.59,8.65-21.38,11.38-20.78,25.46-39.56,42.44-56.06,5.95-5.79,12.66-10.79,19.04-16.15,1.15-.96,2.4-1.55,3.89-.8,1.13,2.26-.24,3.46-1.73,4.7-6.56,5.44-13.23,10.77-19.61,16.42-7.88,6.99-14.12,15.44-20.41,23.82-8.24,10.97-15.16,22.72-20.39,35.44-1.76,4.3-3.01,8.74-3.58,13.36-.24,1.91-.53,3.87.48,5.43,4.68,0,9.08.05,13.48-.03,1.74-.03,3.2-.92,4.13-2.38,1.03-1.65,1.94-3.38,2.75-5.14.68-1.49.98-3.16,1.7-4.63,4.67-9.38,9.31-18.77,14.15-28.07,6.49-12.46,14.67-23.73,24.13-34.14,12.74-14.01,28.83-22.6,46.15-29.28,2.57-.99,5.31-1.61,8.02-2.21,5.52-1.21,11.08-2.26,16.61-3.42,6.57-1.37,13.2-1.88,19.91-1.91,7.6-.03,15.2-.39,22.8-.56,5.85-.13,11.71-.48,17.55-.24,12.17.5,23.96-1.62,35.63-4.65,5.88-1.52,10.37-5.23,14.35-9.69,3.13-3.52,2.85-10.59-1.85-13.23-2.4-1.35-4.82-2.91-7.43-3.58-3.85-.99-7.86-1.6-11.84-1.79-11.79-.56-23.35,1.69-34.91,3.47-14.6,2.26-28.48,7.1-42.17,12.53-1.31.52-2.69,1.44-3.94.03-.81-.92-.14-2.17,1.85-3.71,3.62-2.82,7.82-4.53,12.1-6,20.64-7.12,41.56-13.09,63.46-14.84,1-.08,1.96-.7,3.01-1.1-.8-2.01-2.18-2.74-3.64-3.16-2.06-.61-4.18-1.31-6.29-1.39-7.5-.26-15.01-.66-22.48-.32-16.58.77-32.81,4.01-48.91,7.97-15.72,3.86-30.74,9.77-45.79,15.55-9.22,3.54-18.34,7.35-26.86,12.38-17.1,10.1-33.47,21.29-48.78,33.98-21.93,18.17-39.05,40.44-54.51,64.12-.84,1.28-1.58,2.66-2.17,4.08-2.01,4.86-1.06,8.58,3.16,11.66,3.13,2.29,6.46,4.3,9.99,6.62ZM569.92,719.48c-1.7-.48-3.03-.97-4.41-1.23-10.51-1.97-20.99-4.02-31.52-5.8-9.62-1.63-19.29-2.98-28.96-4.4-1.78-.26-3.62-.77-5.55.13-.27,1.4-.61,2.79-.8,4.21-1.68,13.05-3.36,26.09-4.98,39.15-.7,5.62-1.5,11.2-3.5,16.54-2.55,6.77-6.41,9.3-13.54,8.28-9.97-1.43-19.88-3.18-29.82-4.78-.66-.11-1.34-.1-2.04-.15,0,.53-.07.86.01,1.13.66,2.27,1.3,4.54,2.04,6.79,5.52,16.94,12.75,32.95,24.79,46.43,10.11,11.33,21.64,20.75,35.55,27.05,10.22,4.62,20.48,5.07,30.64-.03,3.01-1.5,5.85-3.43,8.55-5.45,9.97-7.46,17.34-17.19,23.65-27.76,7.55-12.63,13.85-25.91,20.08-39.22.24-.5.28-1.09.51-2.02-2.34.41-4.33.75-6.33,1.1-11.07,1.97-22.22,2.78-33.46,2.21-3.1-.16-6.13-.79-8.89-2.3-3.75-2.06-4.78-5.67-2.74-9.43.49-.9,1.1-1.73,1.71-2.56,10.09-14.05,18.8-28.95,27.21-44.04.63-1.14,1.1-2.37,1.8-3.87ZM636.28,685.58c1.25.06,2.25.16,3.25.16,11.3.06,22.61.12,33.91.15,1.64,0,3.29.02,4.93-.12,4.43-.38,4.65-.6,3.74-4.82-3.14-14.66-6.35-29.31-9.52-43.97-.22-1-.48-2.01-.58-3.02-.35-3.48,1.07-5.74,4.33-6.92.97-.34,1.97-.58,2.96-.84,7.04-1.89,14.17-3.49,21.1-5.73,13.78-4.45,27.38-9.45,41.17-13.85,22.68-7.23,44.21-17.21,65.78-27.1,1.28-.59,1.91-1.4,1.96-2.8.14-3.28.38-6.57.54-9.85.94-19.41.73-38.83-.59-58.22-.05-.71-.04-1.45-.21-2.14-.51-2.12-2.09-2.9-3.94-1.77-1.11.67-2.04,1.7-2.92,2.68-10.93,12.22-22.98,23.26-36.01,33.16-17.82,13.54-37.58,23.47-58.87,30.42-11.8,3.86-23.81,6.34-36.26,6.45-2.53.02-4.27,1.06-5.69,3.04-2.07,2.89-3.29,6.1-4.03,9.57-6.72,31.35-14.66,62.4-24.47,92.94-.24.76-.36,1.54-.6,2.6ZM765.72,34.28c-7.14.57-16.07,1.1-24.95,2.02-7.46.78-14.87,1.94-22.29,3.05-4.67.7-9.36,1.4-13.94,2.49-5.89,1.41-11.73,3.1-17.51,4.89-5.69,1.76-11.35,3.64-16.91,5.77-7.11,2.7-14.03,5.89-21.16,8.52-22.67,8.35-43.31,20.39-62.65,34.68-10.57,7.81-20.5,16.49-30.76,24.72-13.53,10.85-25.18,23.61-37.04,36.16-2.49,2.63-4.55,5.56-5.88,8.98-.6,1.52-.85,3.01.41,4.31,1.29,1.33,2.87,2.03,4.74,1.52,1.58-.44,3.18-.9,4.67-1.57,9.95-4.44,20.03-8.61,29.76-13.49,26.91-13.48,51.73-30.35,76.06-47.97,8.82-6.39,17.67-12.74,26.6-19,12.77-8.95,26.49-16.14,41.07-21.7,7.1-2.71,14.2-5.43,21.34-8.07,21.85-8.11,44.26-14.02,67.44-16.82.9-.11,1.93-.28,2.57-.82.8-.66,1.62-1.68,1.78-2.66.2-1.27-.7-2.34-2.01-2.77-1.46-.47-2.94-1.06-4.44-1.19-5.02-.41-10.05-.64-16.88-1.05ZM707.64,134.24c.27.25.54.5.81.74-.4.88-.7,1.83-1.22,2.63-1.81,2.74-3.6,5.5-5.55,8.14-14.22,19.22-22.93,40.75-26.79,64.26-.7,4.25-1,8.58-1.29,12.88-.11,1.6.1,3.31.57,4.85.73,2.39,1.61,2.84,4.11,2.74,1.54-.06,3.08-.07,4.61-.24,2.94-.32,4.49-1.6,5.14-4.49.36-1.58.45-3.26.43-4.89-.09-7.81-.18-15.6,1.05-23.37,1.92-12.16,5.79-23.73,10.07-35.21,7.88-21.16,20.41-38.61,39.99-50.48.51-.31,1.04-.7,1.4-1.18.7-.91.29-1.87-.83-2.01-.5-.07-1.02.03-1.54.06-20.12,1.29-37.53,9.16-52.89,21.95-10.91,9.08-19.91,19.87-27.88,31.56-9.5,13.93-17.23,28.7-21.72,45.07-.93,3.39-.69,6.25,1.61,8.9.67.77,1.24,1.66,2,2.33,2.92,2.59,5.83,5.21,8.88,7.63.9.72,2.25,1.04,3.42,1.15,2.34.23,3.7-1.03,3.86-3.3,1.02-15.33,5.1-29.95,10.66-44.19,3.86-9.87,7.81-19.72,14.76-27.95,2.58-3.05,5.37-5.92,8.13-8.81.73-.76,1.64-1.63,3.26-.66-.61,1.1-1.11,2.19-1.77,3.16-2.35,3.49-4.88,6.87-7.13,10.43-8.59,13.58-14.33,28.41-18.79,43.76-2.31,7.92-3.43,16.07-4.02,24.29-.24,3.37,1.23,5.01,4.46,5.33,2.28.22,3.26-.64,3.14-3-.4-8.09,1.14-15.93,2.7-23.8,3.76-19,10.64-36.66,21.7-52.64,3.52-5.09,7.17-10.03,11.97-14,.8-.67,1.78-1.11,2.68-1.66ZM848.72,57.26c3.26.06,5.9-.95,7.17-3.98,2.56-6.1,1.91-10.04-3.22-14.26-3.34-2.75-7.09-4.89-11.23-6.31-2.82-.97-5.62-1.99-8.4-3.04-3.41-1.29-5.73-3.61-6.45-7.27-.67-3.38-2.88-5.09-6.02-5.83-4.71-1.12-8.51.43-11.42,4.18-.94,1.21-1.8,2.53-2.43,3.92-1.42,3.12-3.72,5.37-6.51,7.22-.94.62-1.94,1.22-2.72,2.01-1.84,1.88-1.24,4.85,1.2,5.8,1.32.52,2.76.83,4.18,1,3.16.38,6.34.66,9.52.87,5.67.38,11.21,1.29,16.49,3.52,3.38,1.43,6.39,3.27,8.35,6.51,1.16,1.92,2.85,3.28,4.96,3.95,2.14.68,4.35,1.13,6.52,1.69ZM300.73,400.62c-3.6,4.28-6.94,8.25-10.47,12.45,17.88,14.52,37.44,26.01,59.4,34,.82-5.62,1.57-10.76,2.35-16.08-18.11-8.45-36.21-16.59-51.28-30.37ZM711.76,31.05c.86,0,1.75.03,2.64,0,7.81-.3,15.61-.59,23.41-.95,2.05-.09,4.12-.25,6.12-.68,10.88-2.36,21.86-2,32.85-1.23,2.55.18,5.09.63,7.63.99,3.51.5,7.03.35,10.34-.85,1.95-.72,3.85-1.99,5.37-3.44,2.58-2.46,2.08-7.07-1.02-8.8-4.22-2.35-8.61-4.31-13.74-3.72-17.78,2.06-35.43,4.81-52.7,9.64-6.24,1.74-12.48,3.46-18.69,5.26-2.42.7-2.49.91-2.21,3.79ZM587.05,149.26c-1.71-1.23-3.01-1.01-4.28-.5-.95.38-1.85.88-2.75,1.38-13.88,7.87-28.11,14.99-42.99,20.77-2.68,1.04-5.33,2.19-7.92,3.44-1.35.65-3.02,1.38-2.93,3.21.09,1.75,1.62,2.63,3.06,3.16,6.37,2.31,12.64,5.18,19.21,6.57,9.96,2.11,12.67-.52,17.06-6.87.41-.59.75-1.23,1.14-1.83,3.38-5.03,6.67-10.12,10.16-15.08,2.66-3.78,5.57-7.38,8.32-11.1.71-.96,1.24-2.04,1.91-3.15ZM777.71,506.1c-21.38,22.31-47.34,36.44-76.47,45.5.65,1.88,1.25,3.49,1.75,5.14.51,1.66.9,3.35,1.43,5.34,31.08-10.8,59.03-26.42,82.33-50.42-3.11-1.92-5.89-3.62-9.04-5.56ZM173.98,487.38c.46,17.52,3.02,34.58,6.42,51.92,5.78-2.57,11.16-4.97,16.74-7.45-3.63-15.3-5.54-30.63-6.59-46.28-5.51.6-10.77,1.17-16.57,1.8ZM626.91,557.52c13.49,9.85,48.13,15,58.43,8.92-.67-4.03-1.33-8.04-2.03-12.28-16.85.83-32.79-1.59-47.73-9.67-2.94,4.42-5.77,8.66-8.67,13.04ZM283.24,379.83c-3.58-6.07-6.32-12.38-8.21-18.99-1.89-6.67-3.33-13.48-5.03-20.47-4.92.16-9.88.33-15.06.5.55,18.44,5.64,35.01,15.65,50.19,4.24-3.76,8.28-7.36,12.64-11.23ZM195.5,588.05c5.37-3.35,10.64-6.63,15.97-9.96-2.49-6.93-4.87-13.57-7.32-20.4-1.14.43-2.08.81-3.03,1.14-3.11,1.07-6.21,2.16-9.35,3.13-.96.31-2.04.44-3.03.33-.57-.07-1.35-.68-1.52-1.21-.17-.53.14-1.45.56-1.87.64-.62,1.52-1.08,2.38-1.39,2.51-.89,5.05-1.7,7.6-2.49,1.65-.51,3.32-.95,5.19-1.48-1.73-6.23-3.39-12.19-5.1-18.3-5.61,2.65-10.87,5.13-16.34,7.7,3.09,15.43,7.59,30.3,14,44.79ZM327.75,698.77c-4.98,3.35-9.8,6.58-14.64,9.84,4.93,5.23,24.4,17.69,31.05,19.95,3.21-4.69,6.42-9.37,9.74-14.22-8.76-5.21-17.45-10.39-26.14-15.56ZM812.41,447.45c-3.77,8.78-7.39,17.24-11.1,25.9,4.54,1.59,9.03,3.18,13.58,4.78,4.52-4.59,16.07-24.31,16.47-28.08-6.28-.86-12.56-1.72-18.94-2.59ZM192.89,418.19c1.45-9.13,2.84-17.89,4.28-26.91-5.94-.95-11.71-.97-17.4-1.22-1.36,4.77-3.33,26.47-2.69,28.79,5.22-.22,10.42-.44,15.81-.67ZM200.32,362.02h-17.2c-.88,7.93-2.37,15.65-3.24,23.65,6.32.66,12.21,1.27,18.15,1.88.36-1.38.61-2.37.87-3.35,1.01-3.87,1.63-7.92,3.15-11.58,1.35-3.24,1.02-5.87-.68-8.64-.32-.52-.58-1.08-1.06-1.96ZM190.25,451.73c.78-9.76,1.53-19.23,2.3-29.06-5.59.17-10.94.33-16.51.5-.82,9.73-1.54,19.29-1.79,29.17,5.48-.21,10.57-.41,15.99-.61ZM809.58,591.75c-5.22,5.54-7.99,12.27-12.18,17.9,5.45,3.35,10.63,6.54,16.01,9.85,4.85-5.88,10-11.66,14.74-18.03-6.29-3.29-12.27-6.42-18.57-9.72ZM190.11,481.06v-25.28c-5.46.21-10.64.42-16.07.63-.5,8.96-.67,17.73-.11,26.72,5.56-.72,10.82-1.38,16.18-2.07ZM347.61,730.6c8.82,4.22,17.63,7.96,26.86,11.3,1.74-4.95,3.37-9.54,5.01-14.21-7.35-3.77-14.43-7.42-21.33-10.97-3.56,4.68-6.9,9.08-10.54,13.87ZM599.73,507.8c-2.9.85-5.26,2.09-7.08,4.09-.85.93-1.63,2.23-1.77,3.44-.35,2.96-.24,5.97,1.34,8.67,1.76,3,3.44,6.07,5.39,8.95,2.05,3.03,4.54,5.73,7.46,8.27,3.71-3.92,7.21-7.64,10.84-11.47-6.88-6.35-13-13.06-16.18-21.95ZM413.41,462.7c0-.81.09-1.14-.02-1.4-1.94-4.63-3.92-9.24-5.88-13.87-.44-1.03-1.25-1.24-2.23-1.27-6.41-.17-12.59-1.64-18.72-3.38-1.05-.3-2.14-.47-3.5-.76-.36,4.99-.69,9.63-1.02,14.42,10.35,2.84,20.69,4.67,31.37,6.25ZM323.85,696.36c-1.91-1.25-3.51-2.33-5.14-3.37-4.49-2.87-9.17-5.49-12.48-9.84-.78-1.02-1.75-.79-2.78-.66-4.47.56-8.94,1.08-13.41,1.64-.65.08-1.28.23-2.34.42,6.5,8.53,14.04,15.34,21.98,21.7,4.73-3.3,9.24-6.46,14.17-9.9ZM378.66,743.61c9.15,3.17,17.73,6.72,26.98,9.09.2-4.76.38-9.13.56-13.63-7.56-3.16-14.99-6.27-22.73-9.5-1.61,4.69-3.13,9.12-4.81,14.04ZM273.74,271.13c4.33,2.06,8.29,3.94,12.03,5.73,5.44-7.01,10.76-13.86,16.17-20.82-3.38-2.3-6.68-4.53-10.1-6.86-6.77,6.72-13.06,13.55-18.1,21.95ZM377.54,455.45c.34-5.4.62-10.05.9-14.56-7.34-2.65-14.28-5.15-21.3-7.68-.21.44-.46.78-.54,1.16-1.01,4.58-1.99,9.17-3.08,14.16,7.9,2.28,15.72,4.53,24.01,6.92ZM479.4,768.29c-1.43-4.07-3.01-8.07-4.21-12.17-.7-2.4-2.08-3.18-4.38-3.38-5.21-.45-10.41-1.09-15.62-1.63-.66-.07-1.33-.01-2.15-.01v13.61c9.15,2.72,21.84,4.46,26.36,3.59ZM279.27,288.76c-4.02-1.46-8.12-2.95-12.16-4.42-2.97,4.54-8.4,21.21-8.16,25.04,4.18.97,8.42,1.95,12.32,2.85,2.71-7.97,5.29-15.53,8.01-23.48ZM296.75,397.14c-3.73-4.33-7.38-8.59-11.03-12.84-4.25,3.52-8.4,6.96-12.65,10.49,3.9,6.04,8.71,11.13,14.02,15.71,3.34-4.63,6.45-8.93,9.66-13.37ZM283.39,600.93c4.55,3.36,8.79,6.56,13.14,9.62.57.4,1.79.26,2.54-.05,5.03-2.06,10.01-4.23,15-6.39.58-.25,1.1-.65,1.9-1.13-5.9-3.77-11.49-7.35-16.98-10.86-5.17,2.91-10.16,5.73-15.6,8.8ZM257.45,313.75c-1.46,8.27-2.8,15.9-2.44,23.96,5.08-.43,9.83-.83,14.56-1.24.3-6.57.59-12.89.9-19.6-4.09-.98-8.32-2-13.01-3.12ZM658.49,731.88c2.18,2.91,4.25,5.68,6.44,8.6,9-4.94,17.78-9.93,26.74-15.37-2.87-2.59-5.35-4.81-7.76-6.98-8.55,4.63-16.84,9.11-25.41,13.74ZM820.84,418.34c-1.02,4.27-2,8.29-3.02,12.54,7.2.42,14.09.82,20.9,1.22,1.89-3.96,3.71-10.92,3.62-13.75h-21.5ZM831.1,598c3.48-4.71,6.93-9.37,10.48-14.17-4.16-1.73-7.89-3.35-11.7-4.79-.72-.27-1.83-.02-2.57.37-3.52,1.89-7.02,3.84-10.43,5.93-1.32.81-2.4,2.02-3.58,3.05,6.02,3.25,11.67,6.31,17.79,9.61ZM316.49,623.23c5.59-2.86,11.98-4.38,17.73-8.58-.63-.35-.99-.54-1.34-.76-3.54-2.28-7.12-4.5-10.59-6.89-1.4-.96-2.46-.83-3.93-.15-4.58,2.07-9.26,3.93-13.89,5.88-.82.34-1.63.71-3.06,1.35,5.27,3.2,10.04,6.1,15.07,9.17ZM213.18,582.15c-5.72,3.21-11.04,6.2-16.61,9.34,2.32,4.67,4.52,9.1,6.69,13.46,5.57-2.95,10.79-5.71,16.17-8.56-2.07-4.72-4.1-9.37-6.24-14.24ZM221.19,600.7c-5.41,2.66-10.61,5.23-15.8,7.79,2.19,4.84,7.29,12.63,9.1,14.07,4.76-2.84,9.48-5.65,14.26-8.49-2.58-4.56-5-8.83-7.56-13.36ZM608.07,543.95c4.68,4.1,9.4,7.73,14.52,11.13,3.22-4.5,6.22-8.7,9.29-13-4.49-3.34-8.81-6.56-13.29-9.9-3.53,3.94-6.93,7.74-10.52,11.76ZM597.56,752.98c2.76,3.79,5.39,7.41,8.06,11.09,7.11-1.67,13.74-4.18,20.78-6.72-2.99-3.29-5.64-6.26-8.39-9.13-.35-.36-1.35-.3-1.97-.15-5.58,1.36-11.15,2.78-16.71,4.2-.56.14-1.08.43-1.77.71ZM784.82,649.6c-4.2-2.9-7.89-5.44-11.71-8.08-4.44,4.79-8.75,9.41-13.14,14.15,3.57,2.55,6.94,4.97,10.57,7.57,4.66-4.45,9.3-8.89,14.29-13.64ZM799.36,634.25c-4.44-2.83-8.82-5.61-13.32-8.48-3.51,4.26-6.83,8.23-10.2,12.45,4.19,2.81,8.01,5.38,11.57,7.78,4.08-4.01,8-7.87,11.95-11.75ZM789.21,492.82c3.4,2.04,6.71,4.02,10.13,6.07,4.92-4.95,9.02-10.22,12.72-16.03-4.82-1.48-9.29-2.85-13.69-4.19-3.12,4.83-6.06,9.37-9.15,14.16ZM427.7,758.94v-13.35c-5.81-1.7-11.37-3.33-17.25-5.05-.2,4.64-.39,8.9-.59,13.51,5.93,1.63,11.81,3.23,17.85,4.89ZM449.2,763.95c-.23-4.82-.43-9.18-.64-13.75-5.46-1.16-10.89-2.32-16.38-3.5v13.1c5.7,1.39,11.15,2.72,17.02,4.15ZM247.46,572.37c3.46,2.63,6.93,5.27,10.52,8,4.43-3.06,8.69-6,13.27-9.16-3.04-2.42-5.74-4.45-8.29-6.64-1.83-1.57-3.55-1.72-5.57-.43-2.42,1.54-4.92,2.96-7.38,4.42-1.4.83-2.25,2.02-2.55,3.81ZM533.32,700.7c0-1.11.12-1.94-.02-2.72-.51-2.82-1.06-5.63-1.7-8.43-1.01-4.45-2.43-5.64-6.92-5.92-1.02-.06-2.06-.1-3.07,0-1.94.17-2.25.76-2.7,2.65-.87,3.59-.12,7.12.09,10.68.1,1.77,1.08,3.03,2.62,3.44,3.76.99,7.58,1.68,11.72.28ZM577,757.54c2.35,3.7,4.46,6.95,6.5,10.25.73,1.19,1.63,1.34,2.86,1.06,4.38-1.01,8.77-1.94,13.15-2.95.61-.14,1.16-.56,1.78-.88-2.99-3.84-5.81-7.44-8.58-10.99-5.29,1.18-10.36,2.31-15.71,3.51ZM309.07,645.02c5.33-1.17,9.93-2.13,14.49-3.25.76-.19,1.53-1.02,1.95-1.75,3.04-5.24,5.99-10.54,8.95-15.83.12-.21.02-.54.02-.8-.27-.04-.5-.15-.64-.08-4.59,2.06-9.18,4.11-13.72,6.26-1,.47-2.08,1.15-2.67,2.03-2.74,4.2-5.32,8.5-8.37,13.42ZM321.64,646.61c-5.53,1.33-10.22,2.4-14.87,3.62-.78.21-1.58.91-2.07,1.59-1.72,2.42-3.33,4.93-4.95,7.42-1.17,1.79-2.27,3.59-3.61,5.7.92,0,1.41.07,1.87,0,4.44-.8,8.87-1.67,13.32-2.39,1.33-.22,1.89-1.01,2.45-2.03,1.89-3.41,3.82-6.79,5.74-10.19.59-1.04,1.18-2.08,2.12-3.72ZM321.01,239.1c-1.6-2.53-3.31-3.73-6.42-3.14-6.53,1.26-12.13,4.26-17.31,8.24-.61.47-1.1,1.11-1.85,1.88,3.34,2.41,6.46,4.67,9.52,6.87,5.48-4.73,10.74-9.26,16.06-13.85ZM844.8,399.53c-1.33.45-2.39.74-3.38,1.17-5.64,2.42-11.27,4.87-16.89,7.32-3.18,1.38-3.38,1.8-2.6,5.75,7.18-.18,14.38-.35,21.84-.54.7-4.55,1.41-8.84,1.04-13.69ZM513.79,692.05s.05,0,.07,0c-.23-2.35-.38-4.7-.71-7.03-.3-2.13-1.61-3.56-3.69-4.08-2.93-.73-5.89-.75-8.86-.19-1.3.24-1.69,1.02-1.37,2.23.13.49.35.96.53,1.44,1.38,3.64,2.74,7.28,4.14,10.91.21.55.44,1.28.89,1.51,2.19,1.14,4.49,2,7.06,1.77,1.24-.11,1.89-.71,1.92-1.93.03-1.53,0-3.07,0-4.62ZM552.62,704.39c-.65-2.95-4.58-12.37-5.91-14.12-1.88-2.49-4.44-3.56-7.54-3.27-1.89.18-2.27.54-2.38,2.49-.21,3.85.89,7.5,1.93,11.13.6,2.12,2.17,3.4,4.53,3.56,1.84.12,3.67.48,5.51.54,1.27.05,2.56-.21,3.86-.34ZM723.04,702.54c3.48-2.01,13.76-10.3,14.66-11.54-2.19-2.57-4.31-5.06-6.58-7.74-4.91,4.11-9.5,7.94-14.08,11.77,2.07,2.6,3.98,4.98,6,7.51ZM803.19,631.33c2.52-2.86,4.99-5.67,7.59-8.63-5.61-2.98-10.82-5.77-16.22-8.64-2.05,2.9-4.02,5.69-5.92,8.38,4.95,3.02,9.56,5.84,14.56,8.89ZM636.35,741.2c-4.47,1.59-9.23,3.27-14.35,5.09,3.05,3.36,5.84,6.41,8.73,9.59,4.88-2.07,9.64-4.08,14.2-6-2.86-2.9-5.56-5.63-8.57-8.68ZM232.15,618.48c-.25-.13-.51-.25-.77-.39-4.75,2.88-9.49,5.77-14.24,8.65,2.9,5.03,10.1,13.44,12.81,14.75.75-7.77,1.47-15.39,2.2-23.01ZM198.51,357c-2.03-4.93-4-9.84-6.1-14.7-.43-1-1.27-1.86-2.05-2.66-.6-.62-1.41-1.04-2.11-1.55-1.96,2.43-4.31,14.06-4.08,19.48.26.09.54.26.82.25,4.09-.09,8.19-.21,12.27-.34.29-.01.56-.21,1.24-.49ZM310.46,666.83c-5.89,1.19-11.3,2.27-16.69,3.42-.63.13-1.38.59-1.72,1.12-1.71,2.75-3.31,5.57-5.28,8.94,6.37-.53,12.03-1.04,17.59-2.4.58-.14,1.19-.8,1.48-1.38,1.55-3.1,3-6.26,4.62-9.7ZM744.68,670.88c-3.55,3.31-6.97,6.51-10.57,9.88,2.9,2.36,5.58,4.54,8.19,6.67,3.43-1.93,11.11-8.45,12.34-10.39-3.21-1.98-6.42-3.97-9.96-6.15ZM837.22,437.25c-7.3-.56-14-1.06-20.91-1.59-.84,2.44-1.63,4.73-2.59,7.49,6.94.79,13.58,1.54,20.33,2.32,1.04-2.71,1.99-5.17,3.16-8.22ZM280,598.1c5.31-2.97,10.16-5.67,15.37-8.58-3.22-2.33-6-4.35-8.85-6.4-2.45,1.62-4.65,3.1-6.87,4.54-2.26,1.47-4.55,2.88-7.13,4.52,2.76,2.18,5.14,4.06,7.48,5.92ZM654.45,733.6c-4.62,2.01-8.98,3.89-13.63,5.91,2.96,3.08,5.57,5.79,8.36,8.7,4.27-2.04,8.48-4.05,12.84-6.15-2.66-2.99-5.04-5.64-7.56-8.47ZM488.3,678c-3.38-.08-4.31.76-3.24,3.31,1.71,4.07,3.58,8.07,5.59,11.99,1.09,2.1,3.18,3.19,5.41,3.79,2.64.7,3.77-.44,3.17-3.06-.05-.2-.13-.39-.2-.58-1.24-3.48-2.46-6.97-3.74-10.43-1.19-3.24-3.62-4.82-6.99-5.02ZM757.63,674.7c3.31-2.17,8.42-7.09,9.43-9.03-3.37-2.26-6.72-4.53-9.62-6.49-3.1,3.15-5.95,6.04-8.81,8.95,2.81,2.05,5.93,4.33,9,6.57ZM694.51,722.98c4.48-2.26,10.52-6.56,11.83-8.36-2.05-2.39-4.09-4.77-6.21-7.25-4.36,2.9-8.49,5.64-12.54,8.33,2.46,2.58,4.64,4.88,6.92,7.28ZM261.47,583.39c2.7,2.16,5.06,4.06,7.47,5.99,4.68-2.95,9.2-5.8,13.97-8.81-2.78-2.19-5.24-4.14-7.7-6.07-4.59,2.97-9.02,5.83-13.75,8.89ZM564.38,760.11c.13,1.11.1,2.25.44,3.26.48,1.45,1.14,2.86,1.9,4.19,2.72,4.79,1.67,3.92,6.58,3.43,2.56-.26,5.2-.43,7.87-1.45-1.34-1.84-2.47-3.41-3.61-4.98-1.5-2.05-3-4.09-4.5-6.14-2.53.41-5.05.82-7.58,1.24-.2.03-.38.14-1.1.45ZM591,663.99c1.74-2.94,3.17-5.36,4.68-7.92-3.23-4.62-6.39-9.13-9.56-13.67-3.75,3.45-4.63,5.94-2.76,9.35,2.21,4.02,4.85,7.81,7.64,12.25ZM703.35,705.1c2.13,2.57,4.16,5.04,6.41,7.76,3.51-2.63,6.9-5.18,10.39-7.8-2.3-2.59-4.39-4.94-6.62-7.46-3.36,2.47-6.64,4.89-10.18,7.49ZM567.22,707.32c-1.95-4.55-3.75-9-5.76-13.34-1.09-2.35-3.3-3.27-5.8-3.39-2.7-.13-3.29.9-2.1,3.32,1.35,2.73,2.39,5.65,3.91,8.28,1.1,1.9,2.55,3.76,4.27,5.08,1.35,1.03,3.35,1.59,5.47.05ZM579.12,651.96c-3.9,4.48-4.06,4.98-1.5,9.56,2.05,3.66,4.39,7.17,6.62,10.72.26.41.66.72,1.2,1.3,1.28-2.22,2.44-4.25,3.66-6.37-3.33-5.07-6.57-10.02-9.98-15.21ZM843.7,580.57c2.95-4.27,5.8-8.38,8.65-12.5.65-.94.8-1.9-.06-2.77-.82-.83-1.71-.42-2.54.02-.54.28-1.05.64-1.56.97-4.04,2.61-8.08,5.21-12.11,7.84-.56.36-1.05.82-1.76,1.38,3.18,1.71,6.12,3.3,9.37,5.05ZM558.12,761.4c-2.39,2.01-4.52,3.58-6.38,5.42-1.94,1.91-.84,5.25,1.85,5.48,3.8.32,7.64.19,11.63-.63-2.35-3.4-4.54-6.55-7.1-10.27ZM583.45,677c-3.66-5.36-6.96-10.6-11-15.41-2.81,3.58-2.89,3.71-.78,6.95,2.41,3.7,4.96,7.3,7.48,10.93.38.55.91,1.01,1.64,1.8.94-1.51,1.74-2.78,2.66-4.27ZM482.58,690.17c-2.73,6.2.52,18.64,5.22,22.05,3.27-8.33-.87-14.86-5.22-22.05ZM689.02,553.72c.77,4.23,1.48,8.08,2.21,12.11,3.04-.85,5.86-1.16,8.29-2.39-1.46-3.69-2.8-7.08-4.21-10.63-2,.29-3.89.57-6.29.92ZM786.01,496.83c-1.69,2-3.19,3.79-4.86,5.77,3.19,1.96,6.2,3.81,9.34,5.74,1.98-2.14,4.21-3.74,5.77-6.32-3.46-1.76-6.71-3.4-10.25-5.19ZM601.19,646.9c-3.04-3.63-5.96-7.14-8.87-10.63-2.93,2.43-3.2,3.08-1.65,5.58,2.15,3.48,4.51,6.82,7.01,10.59,1.28-2.02,2.36-3.71,3.51-5.54ZM268.77,279.88c4.53,1.71,8.67,3.29,13.01,4.93.77-1.47,1.41-2.67,2.14-4.08-4.46-1.79-8.3-4.05-12.7-5.41-.79,1.47-1.46,2.71-2.45,4.56ZM485.37,737.08c2.14-5.97-.1-11.49-5.09-12.9-1.72,5.27-.12,9.51,5.09,12.9ZM481.97,709.83c-1.55,2.84-1.03,5.47-.7,7.72.44,2.93,2.67,5.06,5.13,7.05,1.27-2.24,1.29-4.23.33-6.15-1.39-2.73-2.96-5.37-4.76-8.63ZM605.51,639.35c-1.03-1.57-1.97-3.15-3.08-4.61-.37-.5-1.13-.94-1.73-.98-1.37-.09-2.75.1-4.6.19,2.58,3.33,4.78,6.16,7.13,9.18.68-1,1.15-1.67,1.58-2.35.26-.42.44-.89.7-1.42ZM482.37,757.87c1.21-6.37.34-8.97-3.39-10.66-.26,2.9.52,5.46,3.39,10.66ZM483.69,746.95c1.22-3.03-.6-7.13-3.8-9.24-.86,4.01,2.28,6.29,3.8,9.24ZM605.27,633.25c.82,1.46,1.35,2.4,2.08,3.72.94-1.49,1.56-2.48,2.49-3.96-1.72.09-2.85.15-4.58.24Z" fill-rule="evenodd"/><path d="M317.83,158.87c-.54-.45-1.6-.92-1.86-1.68-.2-.59.43-1.7,1-2.25.63-.6,1.6-.91,2.46-1.19,9.27-3.03,18.74-5.19,28.42-6.41.99-.12,2.09-.14,3.01.18.61.21,1.26,1.05,1.38,1.71.08.44-.67,1.13-1.19,1.54-.36.29-.96.29-1.46.39-9.86,1.9-19.72,3.75-29.23,7.07-.68.24-1.39.36-2.54.64Z" fill-rule="evenodd"/><path d="M396.74,186c.41.26,1.38.57,1.79,1.22.6.95-.2,1.71-1,2.26-.41.29-.85.57-1.3.8-6.41,3.19-12.82,6.39-19.24,9.57-.55.27-1.14.66-1.71.64-.72-.02-1.43-.38-2.14-.6.2-.62.22-1.46.64-1.85,6.17-5.79,13.39-9.69,21.56-11.86.3-.07.6-.08,1.39-.18Z" fill-rule="evenodd"/><path d="M339.14,165.36c-.51-.39-1.5-.81-1.93-1.57-.6-1.04.09-1.99,1.07-2.53.8-.43,1.67-.82,2.55-1.04,5.35-1.33,10.72-2.63,16.09-3.87.88-.21,1.89-.3,2.73-.07.64.18,1.38.89,1.59,1.51.13.42-.48,1.29-.98,1.65-.64.46-1.49.67-2.27.88-5.62,1.54-11.25,3.06-16.87,4.57-.5.13-1,.23-1.97.46Z" fill-rule="evenodd"/><path d="M361.71,171.2c-.82,0-1.67.15-2.44-.05-.59-.16-1.4-.69-1.49-1.17-.08-.5.45-1.44.94-1.65,3.95-1.69,7.93-3.34,12.37-2.99,1.07.08,2.12.29,2.36,1.52.28,1.42-.75,2.1-1.87,2.39-3.24.82-6.53,1.52-9.8,2.26-.03-.1-.06-.2-.09-.3Z" fill-rule="evenodd"/><path d="M379.33,184.57c-.57.08-.91.24-1.16.16-.7-.27-1.35-.63-2.02-.95.37-.56.61-1.36,1.12-1.62,2.36-1.19,4.79-2.25,7.2-3.32.37-.16.84-.35,1.18-.25.82.25,1.83.47,2.29,1.06.69.89-.02,1.89-.85,2.28-2.01.96-4.11,1.74-6.21,2.51-.55.2-1.21.1-1.56.13Z" fill-rule="evenodd"/><path d="M666.86,318.2c-.33.52-.68,1.06-1.04,1.62-.61-.43-1.51-.74-1.78-1.33-1.12-2.42-1.98-4.96-3.07-7.4-3.43-7.69-6.94-15.34-10.38-23.02-.63-1.4-1.21-2.85-1.61-4.32-.52-1.88.01-3.18,1.25-3.72,1.23-.53,2.55-.08,3.62,1.56,1.01,1.53,1.95,3.16,2.66,4.86,2.29,5.49,4.73,10.95,6.6,16.6,1.61,4.86,2.5,9.95,3.76,15.16Z" fill-rule="evenodd"/><path d="M531.86,300.49c.13-.89.14-1.31.25-1.71,2.35-7.86,4.75-15.71,9.94-22.29,1.02-1.28,2.11-2.52,3.3-3.63.91-.86,2.08-1.51,3.3-.57,1.2.93.93,2.17.42,3.36-.25.56-.56,1.11-.9,1.61-4.63,6.8-8.12,14.22-11.59,21.64-.39.83-.75,1.74-1.37,2.38-.49.51-1.53,1.07-2.02.87-.66-.26-1.04-1.25-1.33-1.65Z" fill-rule="evenodd"/><path d="M644.01,300.02c.01.2.04.41.03.61-.05,1.16-.12,2.38-1.47,2.75-1.33.36-2.1-.56-2.63-1.62-.46-.91-.89-1.86-1.17-2.83-.99-3.45-1.93-6.91-2.84-10.38-.17-.68-.29-1.43-.19-2.12.28-1.72,2.13-2.5,3.5-1.41.69.55,1.31,1.38,1.57,2.2,1.27,4.2,2.4,8.45,3.59,12.68-.13.04-.26.07-.39.11Z" fill-rule="evenodd"/><path d="M553.05,292.67c-.37-.82-1.06-1.61-.9-2.11,1.24-3.79,2.62-7.57,5.66-10.36.46-.42,1.66-.56,2.18-.25.53.32,1.01,1.42.88,2.03-.31,1.37-.82,2.78-1.61,3.93-1.38,2.01-3.01,3.86-4.59,5.73-.31.36-.83.54-1.63,1.03Z" fill-rule="evenodd"/><path d="M601.19,289.98c-.41,2.76-2.03,5.23-4.29,7.24-1.11.99-2.82.12-2.48-1.28.68-2.76,1.7-5.45,2.82-8.06.23-.55,1.55-.9,2.35-.87,1.02.03,1.61,1.24,1.6,2.98Z" fill-rule="evenodd"/><path d="M759.91,847.06c2.96-2.9,5.93-5.5,9.1-7.91,5.81-4.4,11.59-8.84,17.25-13.43,9.99-8.09,17.82-18.18,25.22-28.54,5.18-7.25,9.64-15.02,14.46-22.53,1.16-1.8,2.37-3.6,3.75-5.24.49-.58,1.55-.68,2.34-.99.3.81.98,1.71.83,2.42-.5,2.4-1.07,4.82-2.03,7.06-3.34,7.77-7.66,14.97-12.96,21.59-12.59,15.71-26.68,29.85-43.29,41.33-3.45,2.38-7.12,4.46-10.73,6.61-1.13.67-2.37,1.42-3.95-.37Z" fill-rule="evenodd"/><path d="M766.04,296.77c-.36.51-.65,1.32-1.17,1.53-.54.21-1.53.08-1.94-.31-1.1-1.06-2.06-2.28-2.94-3.53-3.24-4.62-6.39-9.3-9.65-13.9-1.54-2.18-3.24-4.23-4.88-6.34-.84-1.09-1.63-2.22-.61-3.6.75-1.02,2.4-1.25,3.93-.22,1.59,1.08,3.18,2.34,4.32,3.85,4.7,6.24,8.66,12.96,12.05,19.99.35.73.54,1.53.87,2.52Z" fill-rule="evenodd"/><path d="M773.67,280.67c-1.27,1.3-2.41,1.04-3.34.03-2.34-2.56-4.62-5.17-6.86-7.82-.84-.99-1.2-2.19-.21-3.35.79-.91,2.33-.97,3.59.17,1.27,1.15,2.49,2.47,3.35,3.93,1.3,2.18,2.27,4.55,3.46,7.04Z" fill-rule="evenodd"/><path d="M434.77,207.35c.59.43,1.54.81,1.87,1.49.27.55-.04,1.59-.44,2.19-.42.64-1.2,1.1-1.9,1.5-2.31,1.33-4.69,2.53-6.97,3.89-5.63,3.35-11.21,6.78-16.82,10.15-2.1,1.26-4.25,2.44-6.4,3.62-.89.49-1.91,1.17-2.73.03-.79-1.11.15-1.93.82-2.66,1.45-1.58,2.81-3.29,4.47-4.62,7.39-5.95,15.58-10.59,24.28-14.32,1.12-.48,2.32-.77,3.83-1.27Z" fill-rule="evenodd"/><path d="M504.79,259.14c-.41.76-.97,1.96-1.68,3.08-3.19,5.01-6.4,10.01-9.64,15-1.56,2.4-3.17,4.77-4.8,7.13-.41.58-.9,1.18-1.5,1.51-.44.25-1.2.25-1.66.03-.3-.14-.5-.89-.44-1.33.09-.69.34-1.41.67-2.03,3.9-7.2,7.75-14.44,11.8-21.56.93-1.64,2.42-3.07,3.95-4.21,1.6-1.2,3.41-.04,3.32,2.38Z" fill-rule="evenodd"/><path d="M443.79,217.76c-.38.67-.54,1.19-.89,1.52-.68.61-1.43,1.16-2.2,1.64-3.98,2.5-7.97,4.99-11.99,7.43-.94.58-2,1.14-3.06,1.32-1.89.34-3.09-1.44-2.24-3.16.31-.62.81-1.2,1.35-1.64,4.48-3.67,9.47-6.43,15.01-8.13.76-.23,1.65-.32,2.41-.16.57.12,1.05.74,1.62,1.18Z" fill-rule="evenodd"/><path d="M470.51,237.06c-.6.89-.87,1.62-1.39,2.01-2.86,2.15-5.77,4.27-9.37,5.04-.58.12-1.4-.09-1.86-.47-.25-.2-.11-1.16.15-1.61,1.84-3.26,4.63-5.41,8.13-6.65.65-.23,1.52-.43,2.08-.17.82.37,1.45,1.16,2.26,1.86Z" fill-rule="evenodd"/><path d="M480.66,243.43c-.23.43-.52,1.2-1,1.83-2.12,2.84-5.04,4.74-7.98,6.58-.46.29-1.61.22-1.89-.13-.4-.52-.67-1.67-.36-2.13,2.08-3.17,4.23-6.32,7.91-7.86,1.78-.75,3.19-.14,3.33,1.71Z" fill-rule="evenodd"/><path d="M703.5,313.45c0,.55.14,1.21-.04,1.77-.15.5-.61,1.19-1.01,1.25-.45.06-1.24-.37-1.44-.8-.72-1.59-1.4-3.22-1.83-4.9-2.27-8.79-5.45-17.23-9.44-25.37-1.06-2.18-.92-3.47.2-4.16,1.21-.75,2.72-.23,4,1.89,1.59,2.62,3.01,5.37,4.23,8.19,3.05,7.03,4.87,14.38,5.31,22.13Z" fill-rule="evenodd"/><path d="M710.32,300.91c-.1.14-.33.87-.75,1.01-.43.14-1.32-.12-1.55-.49-.8-1.3-1.46-2.69-2.05-4.1-1.26-3.02-2.44-6.07-3.65-9.11-.19-.48-.31-.98-.42-1.48-.25-1.21-.03-2.3,1.23-2.81,1.23-.51,2.35-.06,2.88,1.06,1.18,2.48,2.44,4.99,3.16,7.63.69,2.54.75,5.24,1.15,8.3Z" fill-rule="evenodd"/><path d="M713.73,284.55c.39-.49.8-1.52,1.47-1.72.7-.22,1.96.07,2.42.61,1.86,2.19,2.24,4.98,2.34,7.73.04,1.16-1.43,1.75-2.26.9-1.95-1.98-3.39-4.31-3.96-7.52Z" fill-rule="evenodd"/></svg>