<?xml version="1.0" encoding="UTF-8"?><svg id="Layer_1" xmlns="http://www.w3.org/2000/svg" viewBox="0 0 990.1 953.88"><path d="M498.85,852.84c-.28,1.03-.8,2.06-.81,3.1-.09,7.09.04,14.18-.11,21.26-.21,10.04-.75,20.07-.85,30.11-.1,9.48-4.59,16.49-11.87,21.83-2.2,1.61-5.28,2.09-8.02,2.87-23.07,6.52-46.48,6.56-70.13,4.32-19-1.79-37.69-4.83-55.44-11.89-23.83-9.48-45.5-22.49-63.25-41.33-14.89-15.8-23.23-34.84-27.15-56-.9-4.89-2.03-9.75-3.08-14.61-.12-.56-.21-1.24-.58-1.6-.7-.68-1.65-1.65-2.39-1.57-.66.07-1.68,1.42-1.67,2.19.06,3.43.24,6.89.74,10.29,1.7,11.75,3.47,23.46,9,34.27,2.46,4.82,4.26,10.02,5.93,15.19,2.13,6.56-2.05,11.87-8.97,11.24-16.09-1.45-30.77-6.77-43.69-16.67-18.03-13.82-32.68-30.95-46.81-48.48-8.58-10.65-16.76-21.72-24.07-33.27-5.74-9.08-9.73-19.26-14.73-28.82-16.96-32.42-28.44-66.9-37.64-102.12-2.95-11.3-3.74-23.21-5.03-34.9-2.37-21.45-3-42.95-2.14-64.56,1.35-33.59,7.19-66.16,19.49-97.52,14.34-36.56,33.56-70.21,58.25-100.83,15.22-18.88,32.03-36.11,49.91-52.38,5.03-4.57,10.19-9.05,15.68-13.05,4.46-3.24,9.32-6.07,14.32-8.4,7.02-3.27,14.3-5.99,21.54-8.79,16.35-6.31,33.24-6.8,50.61-6.01,20.73.95,39.55,7.5,58.14,15.67,6.48,2.85,13.09,5.43,19.55,8.33,1.85.83,3.57,2.18,5.07,3.59,1.61,1.52,1.18,3.59-.96,5.1-1.88,1.32-4.12,2.18-5.81,3.68-5.58,4.94-11.28,9.8-16.39,15.21-9.22,9.77-17.49,20.35-23.8,32.29-1.96,3.7-3.35,7.69-4.95,11.57-.25.6-.22,1.32-.31,1.98.25.14.49.28.74.42.64-.66,1.48-1.22,1.92-1.99,9.35-16.48,21.26-30.89,35.34-43.53,6.05-5.42,12.75-9.8,20.42-12.59,5.94-2.16,11.91-4.25,17.8-6.52,16.33-6.26,32.18-3.86,47.78,2.6,2.81,1.16,5.47,2.76,8.07,4.38,11.37,7.12,17.62,17.45,18.33,30.8.42,7.83-.06,15.71.11,23.56.08,4.19.65,8.37,1.08,12.55.08.75.58,1.45,1.22,2.94.81-1.47,1.43-2.18,1.61-3,2.84-12.38,4.04-24.87,3.69-37.62-.27-9.64,2.34-18.73,8.5-26.53,12.98-16.45,29.97-24.81,50.86-25.53,16.31-.57,32.61-.27,48.72,2.32,6.47,1.04,12.85,3.12,19.04,5.37,10.52,3.81,21.05,7.7,31.21,12.37,5.73,2.64,11.4,6.19,15.92,10.54,11.93,11.48,24.63,22.13,35.48,34.79,21.09,24.58,35.86,52.62,47.01,82.73,5.63,15.23,10.44,30.77,15.69,46.15.3.87,1.31,1.51,1.99,2.25.16-.93.59-1.91.43-2.77-4.87-26.65-14.58-51.68-25.62-76.27-9.21-20.53-22.03-38.77-35.79-56.38-5.06-6.47-10.78-12.44-16.34-18.5-3.31-3.59-7.22-6.65-10.33-10.4-9.92-11.96-22.63-19.64-37.03-24.76-10.1-3.59-20.29-6.94-30.43-10.41-.99-.34-1.98-.7-2.97-1.06-2.21-.81-2.62-2.15-.95-3.85,2.01-2.04,3.89-4.34,6.24-5.91,18.47-12.35,36.87-24.89,57.75-32.96,10.7-4.13,21.36-8.43,32.8-10.33,13.75-2.29,27.14-.81,40.32,3.15,14.18,4.25,26.86,11.11,38.69,20.22,14.27,10.99,27.22,23.32,39.67,36.17,6.2,6.42,11.31,14.01,16.29,21.48,9.57,14.35,19.08,28.74,27.9,43.55,19.23,32.31,31.39,67.41,40.48,103.77,5.17,20.65,7.99,41.47,8.89,62.73,1.77,41.32-3.85,81.78-12.48,122.01-4.44,20.65-9.76,41.08-16.96,60.85-5.32,14.59-12.18,28.84-20.12,42.19-12.71,21.35-27.81,41.09-45.79,58.43-.69.66-1.38,1.6-2.2,1.78-1.23.25-2.67.16-3.84-.26-.31-.12-.33-2.11.07-2.98,1.7-3.72,3.42-7.46,5.49-10.98,8.71-14.87,15.6-30.46,20.13-47.12,3.13-11.53,6.82-22.91,10.1-34.4.79-2.74.97-5.66,1.37-8.5.11-.75.3-1.67,0-2.27-.66-1.25-1.62-2.34-2.46-3.5-.83,1.01-2.08,1.91-2.4,3.07-1.94,7.01-3.68,14.07-5.44,21.12-4.38,17.5-10.02,34.57-17.55,50.96-8.93,19.42-20.82,37.03-34.04,53.75-5.67,7.17-13.85,10.78-21.89,14.33-1.89.84-5.25.48-6.9-.74-2.12-1.57-1.66-4.69-.69-7.23,4.36-11.51,7.15-23.45,9.02-35.57,1.06-6.89,1.36-13.89,1.98-20.85.06-.66.18-1.5-.14-1.97-.65-.96-1.47-2.26-2.43-2.47-1.71-.38-2.46.97-2.62,2.63-.3,3.14-.47,6.31-1.04,9.41-3.71,20.18-10.03,39.53-19.71,57.64-2.38,4.48-6.1,8.33-9.56,12.14-12.79,14.1-26.23,27.79-42.79,37.2-26.07,14.8-53.06,27.84-82.52,34.91-10.05,2.41-19.86,5.79-29.89,8.23-9.29,2.26-18.67,4.7-28.15,5.56-10.14.92-20.44.11-30.68,0-.73,0-1.49-.33-2.18-.65-3.39-1.57-6.79-3.09-10.11-4.79-5.28-2.71-10.92-4.51-14.32-10.38-4.53-7.8-6.16-15.93-5.92-24.73.24-8.51.56-17.03.36-25.54-.1-4.75-1.16-9.48-1.87-14.21-.11-.77-.62-1.48-.94-2.23-.32-.02-.65-.04-.97-.06ZM676.85,632.94c-.37.07-.73.14-1.09.21-.16,1.22-.45,2.44-.45,3.66.02,12.36.02,24.71.13,37.07.12,12.15,1.24,24.35-1.53,36.36-.85,3.7-1.96,7.43-3.55,10.87-1.9,4.13-3.52,4.13-6.28.57-1-1.29-1.88-2.66-2.84-3.98-7.07-9.69-14.89-11.97-26.12-7.65-7.67,2.95-13.82,8.16-19.95,13.37-4.89,4.15-7.18,9.59-7.53,15.9-.17,2.87-.36,5.74-.39,8.62-.09,7.48-3.89,12.38-10.5,15.39-1.3.59-2.59,1.26-3.92,1.77-11.4,4.28-23.21,6.46-35.38,6.88-5.07.18-8.69-1.29-10.98-6.33-4.04-8.88-11.59-13.08-21.09-13.53-3.95-.19-8.06.28-11.94,1.17-9.97,2.3-12.86,6.93-12.34,17.13.26,5.09-.23,10.3-1.01,15.35-.91,5.94-4.92,9.08-10.84,9.76-1.42.16-2.86.29-4.3.27-14.56-.22-29.12-.36-43.67-.79-5.54-.16-11.1-.81-16.15-3.52-4.62-2.48-7.51-6.11-7.89-11.52-.22-3.06-.4-6.13-.94-9.14-1.86-10.33-10.72-16.27-20.94-14.23-4.79.95-7.92,4.07-10.51,7.89-2.85,4.2-5.47,8.56-8.48,12.64-3.5,4.73-8.26,6.37-13.98,4.54-11.83-3.77-23-9-33.58-15.49-6.96-4.28-9.97-10.55-9.3-18.7.35-4.3.59-8.61.66-12.92.17-10.33-5.32-18.35-14.38-21.21-7.62-2.4-13.26-.47-17.7,6.12-1.39,2.07-2.76,4.15-4.07,6.26-1.2,1.94-2.62,1.84-4.35.75-2.86-1.8-3.85-4.65-3.65-7.67.51-7.62,1.28-15.22,2.14-22.81.43-3.72,1.31-7.38,1.98-11.07-.34-.16-.68-.32-1.02-.49-.65.96-1.56,1.83-1.9,2.88-1.27,3.99-2.41,8.03-3.5,12.08-1.38,5.15-2.55,10.37-4.02,15.5-2.21,7.74-6.66,9.85-13.62,6.09-7.15-3.86-14.22-7.95-20.98-12.46-3.6-2.4-6.64-5.74-9.63-8.94-2.13-2.27-2.54-5.18-1.88-8.34.75-3.55,1.31-7.16,1.62-10.78,1.12-13.32-6.22-22.97-19.31-25.78-7.57-1.63-15.06-.78-22.55.46-4.25.7-8.46,1.68-12.71,2.34-2.74.42-5.55.67-7.95-1.34-9.28-7.74-9.5-23.38-.36-31.14,3.64-3.1,7.76-5.73,11.06-9.15,3.21-3.32,6.27-7.07,8.29-11.17,3.52-7.13.01-16.87-6.56-19.87-.96-.44-2.28-.08-3.43-.09.2,1.13.25,2.31.64,3.37.97,2.64,2.58,5.14,3.07,7.85.95,5.21-1.83,9.31-5.32,12.74-3.69,3.62-7.62,7-11.62,10.28-7.92,6.49-11.36,14.69-10.05,24.88,1.14,8.86,3.93,16.74,12.04,21.84,1.1.69,2.08,2.78,1.91,4.07-1.24,9.68,3.37,16.12,11.03,21.06,3.7,2.39,7.45,4.71,11.03,7.28,7.12,5.1,11.31,12.19,12.82,20.72,1.07,6.03,1.6,12.14,2.33,18.23.65,5.42.7,11.16,4.93,15.25,3.77,3.63,7.92,6.89,12.15,9.99,2.91,2.13,6.21,1.88,9.12-.3,2.37-1.78,4.71-3.65,6.76-5.77,2.28-2.35,4.71-2.88,7.79-2.07,8.03,2.12,15.56,5.38,22.64,9.66,1.54.93,2.92,2.17,4.24,3.41,2.69,2.53,3.57,5.6,2.33,9.15-.94,2.71-2.05,5.37-2.94,8.1-2.65,8.13-.28,16.58,5.81,20.95,9.02,6.49,13.48,5.88,20.32-2.92,1.32-1.69,2.83-2.66,4.9-2.27,4.4.84,8.94,1.38,13.13,2.88,12.46,4.44,16.72,10.68,16.97,23.84,0,.19.02.38.01.57-.68,10.94,4.44,18.63,13.41,24.3,9.91,6.26,20.74,9.77,32.28,11.28,9.89,1.3,15.79-1.76,20.37-10.69,1.65-3.23,3.06-6.6,4.5-9.94,1.04-2.41,2.74-3.75,5.39-3.28,10.46,1.87,15.83,5.03,16.44,14.7.38,5.92,3.61,10.45,8.7,13.07,4.97,2.56,10.24,4.94,15.65,6.17,10.8,2.45,19.09-3.43,21.36-14.3.55-2.62,1.18-5.24,1.56-7.89,1.48-10.36,7.76-16.29,17.48-19.06,11.63-3.31,23.49-4.46,35.54-3.81,1.53.08,3.06.32,4.56.61,8.29,1.62,12.44,6.08,14.34,15.36,1.59,7.72,5.56,11.5,13.39,12.31,2.93.31,5.97.41,8.88.01,20.46-2.78,39.41-10.32,57.67-19.52,8.8-4.43,14.43-12.09,16.23-21.89,1.2-6.47,1.6-13.08,2.14-19.65.39-4.68,1.73-8.77,5.31-12.01,7.23-6.54,15.52-10.77,25.23-12.15,7.73-1.09,13.93.98,18.33,7.82,1.96,3.04,4.3,5.89,6.8,8.51,6.84,7.17,12.95,8.51,21.67,3.77,6.59-3.59,12.88-7.93,18.8-12.58,12.01-9.41,20.57-21.85,28.79-34.49,6.67-10.27,14.54-19.49,23.65-27.67,4.56-4.1,9.09-8.23,13.57-12.42,4.27-4,7.39-8.96,7.64-14.73.3-6.92.05-14.01-1.12-20.81-1.94-11.18-3.4-22.33-2.72-33.69.1-1.66.64-3.38,1.35-4.91,3.5-7.56,7.34-14.97,10.59-22.63,1.38-3.26,2.22-6.99,2.26-10.52.07-6.01-3.48-10.53-7.55-14.67-2.81-2.85-5.66-5.76-7.87-9.05-2.49-3.69-1.8-6.92,1.3-10.14,2.26-2.35,4.52-4.7,6.93-6.89,3.32-3,4.55-6.33,3.06-10.77-1.65-4.9-2.77-9.97-4.36-14.88-.29-.89-1.69-1.7-2.73-1.97-.59-.16-1.97.71-2.15,1.35-.25.94.2,2.11.48,3.14.12.41.62.71.91,1.08,3.89,5.02,3.59,13.51-.75,18.11-2.56,2.71-5.18,5.4-7.96,7.88-4.91,4.37-6,9.57-3.86,15.61,1.87,5.3,5.22,9.49,9.44,13.14,7.16,6.22,7.81,9.19,3.64,17.76-3.61,7.4-7.4,14.72-11.34,21.94-4.45,8.15-10.5,15.03-18.73,19.4-7.67,4.08-15.51,8.11-23.72,10.8-6.8,2.24-14.23,2.66-21.42,3.6-12.2,1.58-18.03,7.98-18.08,20.3-.01,3.35.28,6.71.17,10.06-.16,5.17-.41,10.33-.84,15.48-.47,5.61-3.47,9.57-8.86,11.22-7.04,2.14-14.14,4.1-21.29,5.79-5.11,1.21-7.35-1.58-5.69-6.52,3.92-11.63,6.28-23.56,5.41-35.85-1.09-15.26-2.59-30.49-3.97-45.73-.13-1.38-.72-2.72-1.1-4.07ZM671.85,614.81c.3-.12.61-.24.92-.35,0-1.13.15-2.29-.03-3.39-1.02-6.21-1.97-12.43-3.21-18.59-1.46-7.3-3.41-14.51-4.73-21.84-.75-4.17-.09-8.46,3.95-10.92,11.08-6.74,22.96-11.53,35.91-13.08,8.66-1.04,17.39-1.39,26.02-2.58,11.9-1.64,16.96-6.89,18.64-18.76,1.62-11.45.16-22.72-2.23-33.94-6.17-28.99-20.1-54.29-37.25-77.98-7.93-10.95-17.67-20.07-29.58-26.85-21.32-12.14-42.33-10.31-60.91,5.67-7.43,6.39-13.25,14.07-18.09,22.52-9.06,15.78-16.08,32.38-20.51,50.07-5.62,22.46-8.77,45.31-10.13,68.37-1.06,18.01-.65,36.01,3.4,53.77,2.32,10.16,6.02,19.8,10.67,29.05,5.48,10.85,17.04,13.01,26.32,5.21,6.32-5.32,10.9-12.04,15.19-19,6.52-10.57,14.21-20.21,23.3-28.69,1.33-1.25,3.15-2.08,4.87-2.8,1.53-.65,2.7-.03,3.27,1.72,4.36,13.32,10.34,26.12,12.92,40.02.16.84.84,1.58,1.27,2.37ZM283.55,663.88c.39-.01.78-.02,1.17-.03.19-.79.44-1.56.57-2.36,2.28-13.46,6.4-26.32,11.92-38.82,3.11-7.03,11.39-10.99,19.13-8,11,4.25,21.95,8.58,31.13,16.35,4.6,3.9,9.29,7.72,14.17,11.26,3.7,2.68,7.57,5.27,11.69,7.18,9.76,4.54,18.09,1.41,23.06-8.2,2.97-5.74,4.04-11.98,4.44-18.31,1.38-21.33,2.12-42.66-.44-63.98-2.31-19.25-5.95-38.21-12.23-56.57-5.49-16.07-12.85-31.18-24.44-43.86-8.51-9.31-18.28-16.64-31.16-18.69-5.64-.9-6.04-1.31-6.11-7.12,0-.67.08-1.34.11-2.01.62-12.38,3.17-24.45,6.03-36.46.42-1.76.72-3.56,1.07-5.34-.23-.08-.46-.16-.69-.23-.35.49-.86.93-1.05,1.48-2.76,8.13-5.91,16.15-8.08,24.44-1.81,6.91-2.52,14.12-3.58,21.21-.4,2.65-1.31,4.25-4.3,4.71-2.7.41-5.35,1.48-7.9,2.55-16.18,6.77-29.03,17.94-39.4,31.71-19.41,25.77-32.73,54.63-41.43,85.64-2.88,10.27-3.5,20.76-1.28,31.29,2.26,10.7,8.44,16.02,19.4,16.45,4.59.18,9.2-.22,13.79-.13,10.71.2,21.43.45,32.13.94,1.22.06,3.03,1.61,3.36,2.8.46,1.66.24,3.84-.5,5.42-6.45,13.65-10.73,27.83-11.14,43.02-.03,1.21.35,2.42.53,3.63ZM550.43,677.93c-.76-5.68-1.08-11.18-2.27-16.47-4.79-21.21-14.18-40.38-26.64-58.09-3.76-5.34-8.13-10.17-13.86-13.59-11.08-6.61-23.09-5.48-32.04,3.78-4.21,4.36-7.88,9.42-10.99,14.64-8.65,14.47-14.16,30.31-19.01,46.38-2.27,7.54-3.79,15.25-3.44,23.19.29,6.6,3.36,11.44,9.45,14.26,10.84,5,21.97,7,33.75,3.68,3.67-1.03,5.52.17,5.81,4.03.68,8.97,1.02,17.96,1.64,26.93.07,1.07,1.02,2.07,1.56,3.11.51-.98,1.41-1.95,1.47-2.95.28-4.59.02-9.22.51-13.78.66-6.06,1.78-12.07,2.84-18.08.36-2,1.75-2.85,3.91-3.01,7.15-.53,13.81,1.48,20.56,3.36,4.67,1.29,9.49,2.43,14.3,2.71,6.09.36,10.02-2.95,11.26-8.92.77-3.71.83-7.58,1.19-11.17ZM489.44,572.51c.51,0,1.03-.01,1.54-.02.18-1.64.44-3.27.54-4.91.68-11.56.73-23.19,2.15-34.65,1.52-12.28,2.79-24.5,2.71-36.9-.09-14.17.17-28.35.53-42.51.31-12.25,1.02-24.49,1.43-36.74.04-1.02-.86-2.08-1.31-3.11-.64.89-1.75,1.75-1.83,2.69-.72,8.68-1.28,17.37-1.87,26.06-.7,10.22-1.25,20.46-2.12,30.67-.81,9.64-1.43,19.23-.89,28.95.51,9.14.49,18.44-.61,27.51-1.35,11.09-1.64,22.14-1.38,33.24.08,3.25.72,6.48,1.11,9.72ZM692.71,253.96c0,.05,0,.11,0,.16-2.01,0-4.04-.14-6.03.03-3.03.26-6.07.65-9.07,1.17-.67.12-1.21,1.03-1.8,1.58.67.56,1.28,1.26,2.04,1.64.55.27,1.32.13,1.99.16,6.4.2,12.83.24,19.22.64,5.75.36,11.35,1.55,16.57,4.2,15.9,8.08,28.14,20.38,39.05,34.1,7.71,9.7,13.25,20.77,18.84,31.79.7,1.38,3.06,3.4,3.65,3.1,2.38-1.17.94-3.29.19-4.93-7.15-15.53-15.43-30.33-27.24-42.93-8.6-9.17-17.42-18.05-28.36-24.5-4.83-2.85-9.9-5.06-15.55-5.48-4.48-.33-8.98-.5-13.47-.74ZM835.99,730.96c-.67-1.09-1.37-2.22-2.08-3.36-1.21.88-2.48,1.7-3.6,2.69-.36.32-.35,1.06-.5,1.62-.76,2.66-1.4,5.35-2.31,7.97-2.09,6.05-4.32,12.06-6.45,18.1-4.74,13.45-9.57,26.83-17.73,38.72-1.73,2.51-3.31,5.17-4.58,7.94-.47,1.03.15,2.56.28,3.86,1.37-.24,2.83-.26,4.09-.78.78-.32,1.36-1.32,1.86-2.13,1.98-3.26,4.29-6.41,5.79-9.89,7.22-16.87,14.32-33.79,21.22-50.8,1.75-4.31,2.62-8.98,4.02-13.91ZM311.02,283.19c-1.88-2.34-3.71-2.18-5.64-1.72-7.06,1.7-13.52,4.7-19.6,8.66-10.52,6.85-18.86,15.98-26.52,25.69-4.41,5.59-7.85,11.95-11.61,18.04-.43.7-.04,1.9-.02,2.87.92-.42,2.1-.61,2.71-1.3,2.04-2.28,3.92-4.71,5.77-7.15,13.71-18.03,30.08-32.89,50.77-42.61,1.34-.63,2.56-1.52,4.14-2.47ZM714.39,244.83c-2.95.14-5.92.2-8.86.48-.68.06-1.28.91-1.91,1.39.55.59.98,1.5,1.64,1.71,2.72.88,5.5,1.56,8.28,2.28,6.52,1.7,13.72,1.33,19.38,5.64,5.45,4.16,10.6,8.71,15.81,13.18,1.65,1.42,2.97,3.22,4.63,4.62.63.53,1.78.45,2.7.66-.03-.96.31-2.19-.16-2.84-2.65-3.71-5.15-7.64-8.35-10.83-9.15-9.14-18.38-18.44-33.16-16.3ZM721.35,286.73c-.39-.52-.86-1.51-1.63-2.11-5.88-4.51-12.18-8.37-19.42-10.2-2.62-.66-5.49-.56-8.22-.37-.86.06-1.62,1.51-2.43,2.33.86.64,1.63,1.53,2.59,1.86,4.96,1.7,10.06,3.02,14.92,4.92,3.63,1.42,6.99,3.52,10.46,5.33,1.96,1.02,3.62.45,3.73-1.75ZM109.15,492.09c1.14,7.67,3.93,14.64,7.17,21.45.25.53,1.37.65,2.09.95.33-.81,1.04-1.67.94-2.41-1.02-7.25-2.17-14.49-3.3-21.73-.09-.56-.21-1.26-.58-1.59-.79-.72-1.79-1.77-2.65-1.72-1,.07-2.19.98-2.82,1.86-.61.86-.6,2.15-.85,3.18ZM873.23,649.21c-.1-.02-.21-.03-.32-.05,0-.67.23-1.45-.04-1.98-.63-1.23-1.49-2.35-2.27-3.51-.96.97-2.33,1.78-2.79,2.94-.67,1.74-.76,3.73-.99,5.62-.71,5.77-1.51,11.53-1.94,17.33-.09,1.13,1.34,2.38,2.06,3.57.98-1,2.61-1.87,2.83-3.02,1.33-6.93,2.34-13.93,3.46-20.9ZM312.01,300c-.88.11-1.36.13-1.83.24-7.78,1.89-12.81,7.63-18.05,13.03-.43.45-.37,2.17.05,2.47.68.49,2.15.73,2.77.31,6.07-4.11,12.06-8.35,17.99-12.66.59-.43.98-1.67.82-2.39-.11-.51-1.32-.78-1.75-1ZM124.52,486.96c.1,0,.19-.01.28-.02-.17-1.32-.27-2.66-.54-3.97-.3-1.49-.68-2.98-1.16-4.42-1.19-3.57-2.84-5.03-4.96-4.52-2.2.53-3.41,2.91-2.25,6.52,1.57,4.96,3.78,9.72,5.85,14.51.24.56,1.33.75,2.03,1.11.36-.7,1.01-1.4,1.02-2.1.04-2.37-.16-4.74-.26-7.1ZM131.69,475.66c-.39-3.96-.63-7.1-1.04-10.22-.26-1.98-.56-3.99-1.25-5.84-.31-.84-1.63-1.85-2.45-1.81-.8.03-1.75,1.2-2.24,2.08-.42.77-.55,1.91-.36,2.79.95,4.37,1.95,8.75,3.18,13.05.22.76,1.69,1.68,2.49,1.6.76-.07,1.39-1.36,1.66-1.65ZM838.07,331.62c-.32.22-1.48.58-1.71,1.25-.27.84-.13,2.4.45,2.83,3.46,2.59,7.07,4.98,10.73,7.3.2.13,1.77-1.01,1.74-1.54-.13-4.52-6.14-9.98-11.21-9.84ZM142.53,455.1c-.28-2.7-.41-5.98-1.08-9.14-.22-1.06-1.7-2.36-2.78-2.55-.75-.14-2.54,1.36-2.61,2.24-.39,4.62.14,9.17,2.99,13.07.35.48,1.38.82,1.98.68.58-.13,1.21-.88,1.44-1.5.24-.67.05-1.5.05-2.81ZM848.71,354.14c-2.16-.04-3.27,1.56-2.57,3.67,1.1,3.27,6.75,7.3,10.28,7.36,1.6.03,2.33-.68,2.09-2.27-.46-3.13-6.73-8.71-9.8-8.77ZM148.93,429.39c.79,2.1,1.48,4.25,2.43,6.27.28.61,1.29,1.07,2.02,1.19.38.06,1.22-.7,1.32-1.19.45-2.32.97-4.68.94-7.02-.03-2.15-.35-4.92-3.35-4.76-3.27.18-2.72,3.09-3.37,5.52ZM898.46,458.76c-.05-2.78-2.06-5.01-4.52-4.98-2.17.02-3.79,1.64-3.82,3.83-.04,2.7,2.16,4.82,4.98,4.81,2.45,0,3.39-1.39,3.35-3.66ZM885.84,428.75c-.45.32-2.14.97-2.17,1.7-.08,1.63.15,3.96,1.21,4.79,1.46,1.14,3.8,1.18,5.77,1.63.14.03.42-.35.55-.58,1.43-2.65-1.53-7.5-5.36-7.53ZM863.15,379.84c-.46.53-1.81,1.44-2.07,2.6-.47,2,3.39,5.31,5.98,5.03,1.07-.11,2.6-1.3,2.89-2.29.56-1.95-3.29-5.26-6.79-5.34ZM170.33,409.63c.01-2.23-.56-3.9-2.98-3.8-2.4.1-3.03,1.93-2.7,3.85.3,1.74.99,3.48,1.84,5.04.76,1.39,2.59,1.05,3.03-.53.43-1.54.57-3.16.81-4.56ZM873.24,398.54c-.48.59-1.79,1.51-2.08,2.69-.46,1.86,2.87,4.92,4.93,4.48,1.06-.23,2.41-1.54,2.66-2.6.47-1.88-2.53-4.58-5.52-4.57ZM185.65,389.99c-.19-1.93-.75-3.78-3.2-3.88-2.09-.09-3.16,1.19-3.16,3.22,0,2.12.82,3.77,3.21,3.96,2.24.18,2.99-1.25,3.16-3.29ZM897.63,477.49c-.64,1.06-1.68,2.06-1.84,3.19-.27,1.87,2.15,3.87,4.25,3.52.82-.14,1.9-1.22,2.08-2.04.35-1.59-2.32-4.29-4.49-4.66ZM200.74,365.55c-.45-.02-.89-.04-1.34-.06-.8,1.07-2.05,2.04-2.29,3.23-.37,1.83.92,3.35,2.75,3.02,1.1-.2,2.56-1.71,2.74-2.8.16-1-1.18-2.25-1.86-3.39Z" fill="#fe9520" fill-rule="evenodd"/><path d="M112.81,774.73c-1.24-.82-2.55-1.54-3.7-2.47-15.14-12.32-26.76-27.51-36.62-44.25-5.68-9.65-11.63-19.18-18.08-28.33-20.61-29.21-31.32-61.93-35.95-97.07-6.03-45.78-5.28-91.52-.86-137.37,2.88-29.87,9.89-58.64,22.67-85.69,17.74-37.55,41.67-70.71,73.16-98.17,9.48-8.27,19.13-16.19,30.03-22.59,13.73-8.06,28.74-11.33,44.36-12.71,25.89-2.29,51.71-1.35,77.44,2.02,14.13,1.85,28.18,4.33,42.26,6.58,1.09.17,2.1.82,3.15,1.25-.06.26-.11.52-.17.78-.58.1-1.17.32-1.73.28-16.48-1.24-32.21,2.03-47.51,7.85-5.64,2.15-11.24,4.37-16.85,6.59-12.59,4.97-23.69,12.29-34.33,20.64-40.73,31.98-69.24,73.55-93.73,118.32-17.86,32.64-31.22,66.96-38.04,103.69-4.78,25.71-5.57,51.57-3.62,77.58,2.42,32.31,7.95,64.06,18.04,94.86,7.42,22.67,17.05,44.49,27.23,66.06,1.81,3.84,2.95,8.04,4.01,12.18.4,1.56-.27,3.4-.46,5.11-.38.18-.76.36-1.13.53-2.21-2-4.79-3.71-6.54-6.04-4.99-6.66-9.98-13.36-14.35-20.43-8.28-13.44-15.74-27.34-21.6-42.04-.18-.45-.27-1.03-.6-1.28-.95-.72-2.01-1.3-3.03-1.94-.27,1.12-1.06,2.43-.72,3.31,2.22,5.79,4.14,11.81,7.18,17.16,9.5,16.71,19.48,33.14,29.19,49.72.93,1.58,1.26,3.51,1.86,5.27-.32.2-.63.4-.95.59ZM225.13,256.26c-1.54-.75-2.42-1.54-3.26-1.51-2.47.1-4.95.42-7.39.83-18.23,3.12-33.54,12.68-48.7,22.43-12.38,7.96-22.41,18.59-31.79,29.75-4.78,5.68-8.64,12.14-12.81,18.32-.42.62-.13,1.71-.17,2.58.8-.32,1.81-.44,2.37-1,1.68-1.7,3.28-3.5,4.76-5.38,21.31-27.01,47.39-47.49,80.16-58.9,4.61-1.61,9.15-3.41,13.69-5.19.89-.35,1.67-1.01,3.15-1.94ZM179.67,255.49c-1.31.5-2.42.82-3.43,1.34-11.92,6.1-23,13.39-32.34,23.1-1.99,2.07-3.97,4.16-5.79,6.37-.42.51-.2,1.55-.27,2.34.86.04,1.73.15,2.59.09.32-.02.62-.42.92-.65,11.96-9.56,24.04-18.97,37.15-26.94.89-.55,1.82-1.16,2.46-1.96.46-.59.8-1.65.58-2.28-.21-.61-1.22-.94-1.87-1.39ZM53.86,632.87c.25,1.25.35,2,.54,2.74,2.54,9.89,5.04,19.81,7.68,29.68,1.75,6.55,3.51,13.15,7.58,18.75.69.95,2.22,1.27,3.36,1.88.08-1.21.54-2.55.17-3.61-3.8-11.1-7.86-22.11-11.58-33.24-1.69-5.06-2.69-10.35-4.19-15.47-.29-.98-1.47-1.71-2.24-2.55-.51.69-1.01,1.37-1.33,1.81ZM45.6,397.47c.49,6.4,2.77,12.36,5.6,18.14.87,1.78,2.71,2.62,4.3,1.59,1.08-.7,1.94-2.59,1.92-3.92-.04-2.15-.76-4.31-1.44-6.4-1.35-4.17-2.7-8.35-4.42-12.37-.46-1.08-2.42-2.39-3.38-2.18-1.01.23-1.71,2.11-2.41,3.34-.25.45-.12,1.12-.17,1.79ZM49.57,437.62c-.3-1.31-.4-1.98-.6-2.61-1.87-5.73-3.74-11.46-5.63-17.17-.49-1.48-1.11-3.36-2.99-2.64-1.09.42-2.25,2.13-2.37,3.35-.71,7.35,2.18,13.87,5.36,20.22.44.88,2.53,1.55,3.64,1.32,1.08-.22,1.89-1.74,2.59-2.46ZM30.62,447.59c.8,5.88,2.8,10.6,5.95,14.72.74.97,2.95,1.6,4.1,1.22.87-.29,1.69-2.51,1.54-3.74-.43-3.38-1.26-6.74-2.2-10.02-.43-1.5-1.18-3.31-2.37-4.11-1.41-.95-3.51-1.44-5.19-1.2-.84.12-1.38,2.29-1.83,3.13ZM62.85,392.13c-1.88-5-3.44-9.62-5.41-14.05-.46-1.04-2.36-2.06-3.5-1.96-.78.07-2.18,2.27-1.96,3.2,1.17,4.87,2.63,9.69,4.36,14.4.3.81,2.51,1.49,3.62,1.25,1.06-.23,1.84-1.74,2.89-2.83ZM61.52,366.45c.4,1.62.51,3.64,1.41,5.22.59,1.04,2.36,2.01,3.51,1.91.85-.07,2.22-1.99,2.15-2.99-.18-2.51-.89-5.02-1.74-7.41-.3-.85-1.74-1.99-2.43-1.85-.92.19-1.76,1.4-2.35,2.35-.42.67-.35,1.64-.55,2.76ZM70.73,350.94c.09,1.16.08,1.74.19,2.3.39,1.96,1.28,3.52,3.58,3.23,2.12-.27,2.81-1.89,2.62-3.77-.2-1.88-.55-3.77-1.16-5.55-.24-.7-1.36-1.5-2.08-1.51-.73,0-1.81.77-2.13,1.47-.61,1.36-.79,2.91-1.02,3.83ZM89.96,335.08c-1.02-1.27-1.97-3.51-3.09-3.59-2.56-.21-2.8,2.3-2.97,4.29-.16,1.84.65,3.28,2.66,3.28,2.18,0,2.83-1.55,3.39-3.98Z" fill="#fe9520" fill-rule="evenodd"/><path d="M968.65,421.68c-1.15,22.96-2.34,45.93-3.41,68.89-.44,9.47-.22,18.99-.99,28.43-2.03,25.2-4.02,50.42-11.24,74.88-3.23,10.95-8.21,21.03-13.97,30.79-.5.84-1.82,1.19-2.75,1.76-.44-1.14-1.39-2.34-1.24-3.4,1.33-9.29,3.03-18.53,4.28-27.83,3.94-29.6,6.67-59.33,3-89.11-2-16.31-5.36-32.5-9.02-48.54-5.06-22.15-12.05-43.77-20.1-65.03-10.93-28.86-26.96-54.79-45.41-79.3-9.5-12.62-19.07-25.23-29.45-37.13-15.38-17.62-33.83-31.85-54.19-43.11-14.87-8.22-30.54-15.19-47.72-17.59-14.34-2.01-28.25.07-41.94,4.36-14.5,4.55-27.69,11.67-40.08,20.35-13.43,9.4-26.91,18.68-41.45,26.33-8.92,4.69-18.42,7.53-28.12,9.68-4.97,1.11-10.29.86-15.45.83-1.34,0-3.04-1.25-3.85-2.43-.35-.52.9-2.53,1.85-3.43,1.29-1.23,2.88-2.24,4.5-3.01,27.09-12.89,53.09-27.76,79.03-42.8,21.85-12.68,44.24-24.48,66.76-35.95,12.56-6.39,26.07-10.8,40.11-12.76,21.41-2.98,41.25,2.44,60.01,12.51,12.25,6.58,24.18,13.62,34.55,23.09,5.36,4.9,11.33,9.14,16.99,13.71,16.37,13.18,30.33,28.67,43.39,45.04,6.24,7.81,11.54,16.2,16.11,25.11,7.74,15.08,15.83,29.98,23.69,44.99,9.21,17.61,13.28,36.68,15.07,56.24.74,8.07.12,16.26.12,24.4.3,0,.6.01.9.02ZM718.81,202.12c.15.32.29.64.44.96,2.46-.17,4.99-.02,7.36-.56,10.96-2.49,21.98-4.14,33.28-3.99,10.79.14,21.14,1.84,30.83,6.78,5.21,2.65,10.44,5.23,15.68,7.82,1.59.79,3.41,1.61,4.59-.35,1.22-2.04-.48-3.21-1.97-4.08-15.1-8.9-30.49-16.86-48.6-17.65-13.74-.59-26.66,1.96-38.68,8.7-1.08.61-1.95,1.57-2.93,2.37ZM907.34,307.65c-1.1.5-2.32.68-2.6,1.29-.31.67.08,1.81.48,2.6.37.73,1.1,1.31,1.73,1.88,3.49,3.11,6.9,6.32,10.55,9.22.96.76,3.08,1.21,3.95.67,1.75-1.08,1.01-2.94-.2-4.19-2.98-3.08-5.99-6.15-9.19-8.99-1.29-1.14-3.12-1.66-4.73-2.48ZM841.36,231.68c-1.1-1.46-1.71-2.74-2.71-3.51-4.47-3.41-9-6.76-13.66-9.9-.75-.5-2.33.23-3.52.4.3,1.09.25,2.65.98,3.2,4.55,3.45,9.26,6.69,13.98,9.94.76.52,1.74.89,2.65.95.62.04,1.28-.58,2.28-1.08ZM930.25,344.73c-.05-.2-.02-.57-.2-.74-3.04-2.91-6.07-5.84-9.23-8.61-.34-.3-1.86.12-2.22.63-.45.63-.55,1.81-.29,2.58,1.36,3.88,4.49,6.32,7.65,8.56,1.88,1.32,4.33-.2,4.28-2.43ZM898.48,287.23c-.61-.09-1.27-.41-1.71-.21-.88.39-2.09.91-2.34,1.65-.25.74.26,2.34.9,2.66,3.36,1.67,6.85,3.1,10.36,4.45.26.1,1.61-1.31,1.48-1.73-1.3-4.38-4.34-7.32-8.7-6.81ZM888.3,269.41c2.81-.07,4.12-1.51,3.11-3.01-1.03-1.51-2.46-3.28-4.04-3.7-1.42-.38-3.93.44-4.82,1.6-1.31,1.7.55,3.16,2.06,3.95,1.3.69,2.86.91,3.68,1.16ZM941.7,384.16c2.15.02,3.64-1.91,2.42-3.61-1.27-1.76-3.23-3.07-5.08-4.3-.34-.23-2.02.67-2.26,1.33-.87,2.47,2.32,6.55,4.92,6.57Z" fill="#fe9520" fill-rule="evenodd"/><path d="M289.31,159.2c6.41,1.05,14.52,1.97,22.41,3.78,6.89,1.58,13.58,4.07,20.3,6.3,6.79,2.26,12.92,5.79,18.58,10.16,4.09,3.17,8.01,6.58,12.27,9.5,12.87,8.82,22.9,20.25,31.45,33.16,3.8,5.75,7.83,11.36,11.97,16.87,4.15,5.52,6.76,11.74,9.11,18.13,2.33,6.38,1.27,12.67-.81,18.77-1.8,5.29-7.35,8.48-12.83,7.34-4.73-.98-9.46-2.32-13.94-4.11-13.5-5.42-26.88-11.13-40.31-16.73-.53-.22-1.1-.41-1.55-.75-12.92-9.7-28.19-13.61-43.46-17.27-21.39-5.13-43.13-7.97-65.14-8.54-18.68-.49-37.37-1.28-56,.91-3.71.44-7.4,1.04-11.1,1.52-1.03.13-2.11.22-3.13.07-3.99-.6-5.3-3.14-3.11-6.5,4.86-7.46,9.6-15.03,14.9-22.17,17.03-22.95,39.78-37.23,67.54-43.67,5.97-1.38,11.93-2.88,17.98-3.82,7.66-1.19,15.4-1.86,24.86-2.95ZM229.6,197.4c-2.78.15-5.2.1-7.55.46-3.48.54-6.95,1.22-10.33,2.19-.86.25-1.97,1.87-1.86,2.72.11.86,1.51,2.02,2.49,2.19,1.95.33,4,.21,5.99.01,10.81-1.05,21.62-1.53,32.31.86,8.21,1.84,16.34,4.02,24.53,5.93.82.19,1.83-.41,2.75-.64-.52-.77-.87-1.95-1.59-2.26-15.03-6.57-30.68-10.66-46.74-11.45ZM247.77,184.98c-1.04.21-2.75.25-4.15.92-.92.44-1.99,1.84-1.92,2.73.07.81,1.47,1.92,2.47,2.16,9.82,2.38,19.66,4.66,29.53,6.82,1.42.31,3-.12,4.51-.22-.92-1.29-1.57-3.03-2.82-3.79-8.28-5.07-17.38-7.73-27.62-8.63ZM274.61,174.3c-.91.78-2.17,1.35-2.4,2.19-.23.88.23,2.61.9,2.96,3.36,1.72,6.88,3.15,10.41,4.53.48.19,1.63-.31,1.86-.78.25-.5.02-1.6-.41-2.03-1.6-1.62-3.26-3.25-5.13-4.53-1.45-.99-3.25-1.47-5.23-2.33Z" fill="#fe9520" fill-rule="evenodd"/><path d="M571.27,259.54c-4.93-.05-7.3-2.19-8.18-5.87-1.22-5.11-2.75-10.15-3.97-15.25-.33-1.39-.46-3.13.1-4.35.98-2.13,2.2-4.41,3.95-5.89,14.57-12.31,26.86-26.79,39.37-41.03,8.77-9.98,18.37-19.02,28.85-27.13,22.74-17.57,48.67-22.65,76.74-19.58,15.95,1.74,31.76,3.97,47,9.16,4.1,1.4,7.91,3.75,11.73,5.88,1.18.66,2.19,1.91,2.87,3.12.79,1.43.69,2.74-1.55,2.95-18.04,1.77-34.5,8.53-50.54,16.42-32.71,16.08-63.74,35.07-94.71,54.23-14.72,9.11-30.25,16.9-45.48,25.16-2.22,1.2-4.82,1.71-6.18,2.18ZM714.6,150.88c-1.88.69-3.69,1.09-5.23,1.97-7.96,4.56-15.9,9.15-23.72,13.95-2.83,1.73-5.39,3.95-7.87,6.18-.61.55-.43,1.98-.6,3,1.04.08,2.08.24,3.12.2.41-.01.81-.47,1.22-.72,10.08-5.83,20.18-11.65,30.26-17.5,1.48-.86,3.04-1.68,4.29-2.83.62-.56.98-1.91.76-2.72-.17-.64-1.39-1-2.24-1.54ZM691.48,149.55c-1.91-.15-3.21-.62-4.22-.26-5.46,1.93-10.3,4.93-14.3,9.13-.71.75-.84,2.05-1.23,3.09,1.11-.03,2.48.34,3.3-.16,4.93-3.02,9.75-6.22,14.57-9.41.5-.33.8-.99,1.88-2.38Z" fill="#fe9520" fill-rule="evenodd"/><path d="M469.09,173.51c-.12,12.03-4.33,22.79-9.22,33.37-6.73,14.53-16.47,27.14-25.87,39.94-1.12,1.52-2.64,2.78-4.14,3.95-2.76,2.15-4.58,1.99-6.93-.67-1.32-1.5-2.44-3.2-3.51-4.89-7.76-12.2-15.18-24.63-23.29-36.59-15.48-22.83-35.33-40.64-61.06-51.43-1.5-.63-3.04-2.51-3.38-4.07-.2-.9,1.73-2.73,3.08-3.45,17.81-9.63,36.59-16.58,56.53-20.38,14.99-2.86,30-4.02,45.09-1.08,2.48.48,4.96,1.5,7.16,2.75,4.48,2.56,8.73,5.51,13.14,8.18,5.81,3.52,8.31,9.24,9.65,15.37,1.36,6.24,1.88,12.66,2.76,19ZM387.04,143.77c-1.08.82-2.81,1.52-2.87,2.34-.1,1.26.65,2.9,1.58,3.88,5.63,5.99,11.58,11.69,17.08,17.8,3.51,3.89,6.34,8.39,9.66,12.47.67.82,2.18.96,3.31,1.42.11-1.05.54-2.18.29-3.12-3.79-14.08-12.97-24.24-24.28-32.74-1.24-.93-2.93-1.27-4.76-2.03ZM412.14,151c2.56,4.69,5.11,9.45,7.81,14.13.28.47,1.8.78,2.2.48.59-.47,1.03-1.6.91-2.36-.39-2.54-.7-5.18-1.7-7.51-1.1-2.56-2.81-4.91-4.51-7.14-.42-.55-2-.64-2.84-.34-.66.24-1,1.38-1.87,2.74Z" fill="#fe9520" fill-rule="evenodd"/><path d="M571.35,126.21c20.53.53,35.91,4.44,49.54,13.99,3.8,2.67,4.77,5.2,3.54,8.48-.37,1-1.17,1.92-1.94,2.69-7.66,7.63-15.61,14.98-22.99,22.87-11.3,12.11-22.18,24.62-33.33,36.87-1.71,1.87-3.89,3.4-6.05,4.75-4.69,2.92-9.37,1.22-10.67-4.21-1.88-7.8-3.72-15.68-4.64-23.63-1.42-12.26-2.03-24.62-3.01-36.94-.15-1.81-.47-3.61-.75-5.41-.99-6.18,1.76-11.77,7.58-13.83,8.64-3.07,17.4-5.97,22.72-5.63ZM565.31,160.95c.42.55.89,1.77,1.65,1.98.75.21,1.86-.48,2.65-1.01.49-.34.71-1.11.97-1.72,2.61-6.14,5.29-12.26,7.77-18.46.76-1.89,2.52-4.46-.24-5.81-2.77-1.36-4.25,1.36-5.06,3.35-2.63,6.52-4.93,13.18-7.34,19.8-.16.44-.2.93-.4,1.87ZM581.93,152.36c.56,1.27.68,2.21,1.18,2.49.47.27,1.67.09,1.96-.31,2.5-3.55,4.95-7.14,7.2-10.86.36-.59-.1-2.33-.66-2.63-.65-.35-2.29-.02-2.71.58-2.48,3.53-4.73,7.22-6.97,10.73Z" fill="#fe9520" fill-rule="evenodd"/><path d="M352.51,68.69c2.56-3.9,5.38-5.51,8.86-6.01,12.01-1.7,23.93-.87,35.65,1.96,7.42,1.79,14.76,4.01,22.01,6.43,10.46,3.48,19.11,10.16,27.37,17.12,6.79,5.72,13.03,12.12,19.18,18.54,8.23,8.61,11.91,19.7,15.76,30.63,4.11,11.67,7.51,23.44,7.72,35.99.15,8.77-.1,17.4-3.56,25.64-.66,1.58-1.17,3.26-1.47,4.94-.13.74.46,1.61.72,2.42.73-.46,1.9-.77,2.12-1.4,1.71-5.16,3.97-10.28,4.7-15.59,2.49-18.14-.5-35.6-6.21-53.02-9.5-28.92-28.89-49.17-54-64.71-10.04-6.21-21.67-8.49-33.03-11.23-9.61-2.32-19.33-3.94-29.28-3.46-2.29.11-4.63.2-6.83.75-2.72.68-4.22-.17-5.2-3.6,2.58-.32,5.04-.99,7.45-.88,10.32.48,20.63,1.21,30.94,1.81,1.04.06,2.09-.16,3.64-.29-4.17-3.16-30.39-5.38-40.65-3.88,1.57-5.93,3.27-11.95,4.73-18.03.92-3.83.21-7.6-1.4-11.19-1.73-3.88-1.16-4.97,3.02-5.29,20.37-1.53,39.67,3.08,58.13,11.07,22.13,9.58,42.47,22.48,60.1,38.84,21.47,19.92,39.05,42.85,45.04,72.54,2.04,10.11,3.1,20.44,4.3,30.7,1.05,9.04,1.6,18.13,2.53,27.18,1.3,12.65,5.93,24.27,10.93,35.84,3.94,9.11,7.32,18.48,10.57,27.87,1.89,5.46-.12,11.1-5.03,14.3-4.95,3.22-10.05,6.46-15.51,8.58-11.16,4.33-20.01,11.46-27.63,20.44-1.85,2.18-3.84,4.27-5.93,6.22-2.45,2.28-5.42,2.48-8.11.47-3.36-2.52-6.65-5.18-9.77-8-.73-.66-1.08-2.32-.86-3.37.72-3.54,1.64-7.05,2.73-10.49,1.17-3.64,2.7-7.15,3.93-10.76.37-1.07.29-2.3.41-3.46-.27-.11-.53-.22-.8-.32-.59.72-1.24,1.41-1.75,2.18-3.09,4.61-6.02,9.33-9.27,13.82-1.32,1.81-3.17,3.35-5.05,4.62-2.03,1.37-3.59.55-3.73-1.91-.08-1.42.2-3.16.99-4.29,12.26-17.55,21.86-36.43,28.84-56.65,2.72-7.86,6.09-15.55,8.05-23.59,2.99-12.27,1.71-24.72-.65-37.02-.17-.89-1.47-1.57-2.24-2.35-.39.95-1.2,1.94-1.11,2.85.48,5.24,1.54,10.44,1.7,15.68.32,10.85-.7,21.52-5.12,31.7-4.42,10.18-8.37,20.56-12.68,30.8-5,11.88-11.73,22.81-18.95,33.43-1.44,2.12-3.22,4.04-5.03,5.87-1.68,1.69-3.84,1.3-4.45-.9-.76-2.75-1.28-5.7.93-8.16,12.58-14.01,19.72-31.13,27.36-47.95,5.27-11.6,9.87-23.51,11.8-36.16,1.53-10.07,1.39-20.24-.23-30.33-.22-1.32-1.03-2.55-1.56-3.82-.37.07-.74.15-1.12.22-.08,1.05-.23,2.1-.24,3.15-.09,8.9.25,17.83-.31,26.71-.69,10.9-4.15,21.16-8.75,31.04-7.78,16.77-15.65,33.5-26.7,48.46-3.06,4.15-6.44,8.1-9.95,11.88-2.38,2.57-5.55,4.21-9.17,4.1-1.29-.04-3.21-.77-3.65-1.73-.44-.97.24-2.92,1.06-3.91,6.66-8.03,13.93-15.61,20.13-23.97,8.66-11.67,17.14-23.58,21.19-37.88.33-1.15.08-2.46.1-3.69-1.1.83-2.76,1.44-3.23,2.54-9.43,22.51-25.64,40.24-41.08,58.52-1.98,2.34-3.98,4.67-6.1,6.88-.59.6-2.26,1.2-2.4,1.02-.73-.95-1.62-2.21-1.51-3.27.15-1.56.97-3.09,1.73-4.53,4.16-7.89,8.47-15.63,14.52-22.34,11.38-12.6,20.6-26.78,27.83-42.06,7.79-16.47,11.96-34.03,10.29-52.39-1.36-15-5.8-28.92-15.34-41.14-7.4-9.48-15.21-18.49-23.88-26.78-12.62-12.06-27.99-18.25-44.94-21.49-12.87-2.47-25.73-2.02-38.65-1.51-1.45.05-2.93-.55-4.93-.95ZM497.52,152.25c-.14-1.45-.16-2.22-.3-2.97-3.54-19.43-11.58-37.03-24.22-51.93-15.89-18.71-36.11-31.75-59.25-40.1-2.59-.93-5.32-1.5-8.03-2.03-.76-.15-1.65.44-2.49.69.63.57,1.22,1.19,1.91,1.69.37.27.91.28,1.35.46,7.01,2.76,14.36,4.9,20.93,8.47,8.21,4.45,16.05,9.71,23.55,15.29,9.68,7.2,19,14.92,25.48,25.4,8.6,13.9,15.85,28.35,18.55,44.71.14.85.99,1.59,1.51,2.37.43-.85.85-1.7,1.02-2.04Z" fill="#a5cd39" fill-rule="evenodd"/><path d="M359.98,30.63c-.39,5.76-3.05,11.99-5.8,18.19-.86,1.92-2,3.71-2.8,5.65-3.86,9.28-10.62,15.74-19.44,20.26-5.09,2.61-9.93.53-11.38-4.93-1.42-5.35-.31-10.53,1.54-15.46,4.93-13.15,13.41-23.52,25.5-30.75,1.8-1.07,4.16-1.53,6.3-1.63,4.15-.2,6.2,2.53,6.07,8.67Z" fill="#a5cd39" fill-rule="evenodd"/><path d="M339.42,822.07c.13,2.96.23,5.92.41,8.88.25,4.22,2.13,7.85,5.81,9.65,7.27,3.56,14.69,6.91,22.31,9.62,6.4,2.27,11.55-.46,16.09-7.32,1.84-2.79,3.53-5.68,5.31-8.51,1.99-3.17,4.86-5.09,8.59-4.73,6.73.64,13.52,1.22,20.11,2.61,5.43,1.15,8.83,5.48,11.54,10.14.95,1.65,1.74,3.41,2.45,5.18,1.84,4.55,5.21,7.07,10.05,7.3,4.97.24,8.95-1.82,11.48-6.16,2.35-4.04,4.7-8.1,6.69-12.32,3.33-7.05,9.35-10.39,16.22-13.11,12.43-4.93,25.5-6.21,38.61-7.4,6.52-.6,13.06-.78,18.96,2.77,1.59.95,2.97,2.34,4.21,3.73.41.45.08,1.56.09,2.36-.78-.06-1.74.14-2.31-.23-5.49-3.61-11.72-4.77-18.07-4.99-12.11-.44-24.11.51-35.79,4.04-13.49,4.07-21.45,12.77-22.73,27.12-.22,2.47-.68,4.93-1.24,7.35-1.42,6.08-5.91,9.43-11.88,7.86-5.29-1.39-10.34-3.82-15.32-6.17-2.87-1.35-4.12-4.26-4.24-7.4-.32-8.56-5-13.82-12.65-16.72-3.11-1.18-6.37-2.1-9.64-2.71-6.23-1.18-10.54,1.13-13.38,6.84-1.61,3.26-3.13,6.57-4.67,9.87-2.29,4.91-6.12,6.72-11.44,6.1-11.34-1.31-21.8-4.88-31.25-11.39-5.8-3.99-9.03-9.22-8.55-16.46.13-1.91-.04-3.83,0-5.75.14-10.12-4.52-17.69-13.25-22.18-5.7-2.93-12.17-4.35-18.26-6.57-1.07-.39-1.93-1.38-2.88-2.1,1.04-.61,2.02-1.44,3.15-1.77.84-.25,1.95-.1,2.78.25,7.13,2.94,14.41,5.59,21.27,9.07,7.27,3.69,11.01,10.09,11.24,18.35.05,1.63,0,3.26,0,4.88h.16Z" fill="#d17532" fill-rule="evenodd"/><path d="M534.84,813.85c-6.36-.29-12.42-.96-18.46-.72-5.31.2-10.57,1.51-15.87,2.14-8.66,1.04-16.88,3.63-25.2,6.13-9.22,2.77-14.86,8.82-18.82,17.09-1.36,2.83-2.78,5.65-4.4,8.34-2.35,3.91-8.47,6.18-12.59,4.38-1.65-.72-2.98-2.59-4.01-4.21-1.79-2.81-2.98-6.01-4.88-8.73-3.49-5.02-8.04-8.54-14.41-9.46-6.98-1.01-13.85-2.81-21.01-1.51-3.04.55-5.3,2.13-6.98,4.58-2.06,3-3.83,6.19-6,9.09-1.7,2.27-3.53,4.64-5.83,6.2-1.6,1.09-4.41,1.75-6.12,1.12-7.85-2.9-15.63-6.07-23.19-9.66-3.46-1.64-4.73-5.26-4.88-9.18-.21-5.43-.3-10.9-1.02-16.28-1.02-7.71-5.77-13.07-12.49-16.45-5.6-2.81-11.55-4.93-17.32-7.41-1.83-.78-3.59-1.71-5.38-2.58.08-.44.15-.87.23-1.3,2.19-.1,4.51-.71,6.54-.19,3.59.9,7.14,2.23,10.46,3.87,5.31,2.62,10.49,5.53,15.62,8.52,6.19,3.61,9.09,9.03,8.6,16.29-.28,4.19-.72,8.47-.17,12.58.38,2.86,1.78,6,3.69,8.16,5.22,5.9,11.51,10.11,20.04,8.94,3.89-.53,6.68-2.88,8.75-5.96,2.02-3,3.81-6.2,5.39-9.46,2.23-4.58,5.66-6.57,10.77-6.49,9.05.13,17.92,1.17,26.65,3.63,6.47,1.82,11.07,5.78,14.46,11.46,1.11,1.86,2.41,3.72,3.98,5.2,2.98,2.82,6.12,2.55,8.61-.76,2.48-3.28,4.91-6.64,6.89-10.23,3.19-5.8,7.83-9.81,14.09-11.47,15.06-3.99,30.16-7.89,45.36-11.3,5.71-1.28,11.66-.48,16.98,2.58,1.4.8,2.52,1.79,1.95,3.06Z" fill="#d17532" fill-rule="evenodd"/><path d="M800.2,678.89c-.03,8.37-2.92,14.98-9.56,20.36-15.07,12.23-27.48,26.87-38.01,43.17-7.42,11.48-15.98,22.11-26.67,30.68-5.17,4.15-11.24,7.19-17.05,10.5-1.15.65-3.65.83-4.29.11-1.53-1.7-.27-3.69,1.15-5.02,4.42-4.11,8.91-8.13,13.47-12.09,5.64-4.89,11.91-9.19,16.95-14.63,7.27-7.83,13.68-16.45,20.45-24.75,7.76-9.49,15.27-19.19,23.31-28.43,7.94-9.15,11.48-19.21,8.85-31.25-.98-4.48-1.63-9.08.18-13.56.42-1.05.86-2.26,1.67-2.95.91-.77,2.31-1.52,3.38-1.37.8.11,1.85,1.59,2.01,2.59,1.49,8.86,2.8,17.75,4.17,26.63Z" fill="#d17532" fill-rule="evenodd"/><path d="M785.84,676.11c.24,8.07-3.41,14.57-8.38,20.3-11.33,13.02-21.96,26.55-31.66,40.84-6.51,9.59-15.55,16.86-24.3,24.33-6.27,5.35-12.47,10.75-18.71,16.14-1.86,1.61-4.24,1.67-5.23-.04-1.14-1.98-.12-3.55,1.57-4.6,15.75-9.84,27.53-23.66,38.36-38.38,10.62-14.43,21.13-28.93,31.56-43.5,3.28-4.58,6.59-9.3,7.3-15.1.34-2.71.08-5.54-.25-8.27-.41-3.36,1.54-7.42,4.58-8.79,1.8-.82,2.94-.46,3.2,1.7.63,5.12,1.3,10.24,1.95,15.37Z" fill="#d17532" fill-rule="evenodd"/><path d="M665.93,761.47c-1.46.48-2.27.86-3.13,1-10.82,1.84-19.6,7.24-27.12,15.07-3.99,4.15-5.93,8.98-6.07,14.73-.15,5.91-.06,11.91-1.08,17.7-1.73,9.9-7.3,17.11-17.02,20.68-3.77,1.39-7.51,2.88-11.26,4.29-.65.24-1.37.31-2.06.46-.11-.21-.22-.42-.33-.63.74-.62,1.4-1.36,2.22-1.83,10.55-5.92,15.55-15.12,16.07-27,.1-2.3.31-4.6.23-6.88-.27-8.15,2.79-14.76,8.49-20.56,7.32-7.46,15.41-13.7,24.95-18.06,4.31-1.97,11.69-1.77,16.12,1.04Z" fill="#d17532" fill-rule="evenodd"/><path d="M563.34,845.8c.84-.54,1.67-1.11,2.52-1.62,7.76-4.71,15.71-9.12,23.23-14.19,9.93-6.71,14.83-16.15,13.73-28.39-.25-2.75-.4-5.57-.09-8.31.55-4.96,2.93-9.09,6.95-12.1,3.13-2.34,6.39-4.54,9.69-6.65.65-.41,1.74-.11,2.63-.14-.21.76-.19,1.79-.68,2.25-7.65,7.08-9.29,16.16-8.8,25.98.38,7.45-.79,14.48-5.36,20.63-.74,1-1.46,2.09-2.44,2.81-11.26,8.28-22.71,16.24-36.7,19.37-1.47.33-2.97.57-4.46.85-.08-.16-.15-.32-.23-.48Z" fill="#d17532" fill-rule="evenodd"/><path d="M171.07,668.6c1.36.2,2.92.03,4.05.65,10.83,5.88,20.6,13.12,29.17,22.04,7.53,7.83,9.66,17.29,9.63,27.67-.01,4.96.24,9.93.5,14.9.19,3.73,2.07,6.46,5.38,8.24,2.36,1.27,4.8,2.42,6.96,3.97.97.71,1.34,2.27,1.97,3.44-1.19.37-2.44,1.17-3.57,1.03-7.52-.91-12.62-6.17-13.49-13.7-.85-7.3-1.29-14.67-2.54-21.91-1.94-11.22-8.06-20.14-16.9-27.11-6-4.73-12.42-8.92-18.48-13.58-1.48-1.14-2.29-3.15-3.42-4.76.25-.29.5-.58.74-.87Z" fill="#d17532" fill-rule="evenodd"/><path d="M223.8,754.6c-1.89,2.46-4.07,1.85-6.15.66-7.88-4.54-12.27-11.04-12.33-20.5-.03-5.61-.88-11.27-1.9-16.8-2.08-11.3-8.15-20.09-17.75-26.41-3.36-2.21-6.82-4.26-10.08-6.62-1.84-1.34-3.35-3.14-5.01-4.73.17-.42.34-.84.51-1.27,1.28,0,2.88-.5,3.8.08,13.54,8.57,26.71,17.7,31.24,34.29,1.66,6.11,2.15,12.61,2.54,18.98.6,9.77,4.61,16.97,13.81,20.91.34.15.64.39.93.64.13.11.17.33.39.77Z" fill="#d17532" fill-rule="evenodd"/><path d="M287.93,796.6c-1.39-.19-2.99,0-4.11-.63-3.24-1.84-4.35-5.32-3.41-9.52.96-4.28,2.04-8.54,2.89-12.84.98-4.96-.04-9.37-3.6-13.25-5.3-5.75-12.27-8.64-19.14-11.73-2.26-1.02-4.63-1.78-6.88-2.8-.78-.35-1.39-1.11-2.07-1.68.14-.27.28-.54.42-.81,1.17.18,2.38.24,3.51.56,9.97,2.88,18.94,7.72,26.97,14.22,7.34,5.94,8.68,11.44,5.57,20.36-.63,1.8-1.26,3.61-1.72,5.46-1.01,4.07-.64,7.97,1.79,11.54-.07.38-.14.76-.21,1.13Z" fill="#d17532" fill-rule="evenodd"/><path d="M271.52,791.07c.83-2.72,1.49-5.5,2.51-8.14,4.82-12.52,3.06-18.79-8.54-25.74-6.1-3.66-12.91-6.15-19.41-9.14-.69-.32-1.52-.37-2.15-.77-.38-.24-.72-.97-.63-1.37.08-.34.87-.77,1.27-.71,1.21.2,2.46.45,3.56.98,8.24,3.95,16.64,7.61,24.59,12.08,6.81,3.82,9.51,9.1,7.03,17.11-1.32,4.25-1.85,8.76-2.52,13.18-.61,4,.76,7.34,4.01,9.84.45.35,1.01.71,1.22,1.19.3.69.56,1.58.36,2.24-.1.32-1.32.55-1.96.42-5.56-1.12-8.85-5.27-9.33-11.18Z" fill="#d17532" fill-rule="evenodd"/><path d="M597.75,814.34c-.27,1.08-.22,2.44-.87,3.2-2.39,2.81-4.65,5.95-7.63,8.02-7.29,5.06-14.98,9.57-22.47,14.35-2.58,1.64-5.1,3.35-7.56,5.15-2.22,1.62-4.61,2.33-7.28,1.71-2.29-.53-2.77-1.91-1.24-3.69.59-.68,1.51-1.12,2.35-1.54,9.74-4.9,19.51-9.71,29.22-14.68,5.62-2.87,10.36-6.85,14.04-12.03.2-.28.52-.47.78-.71.23.08.46.15.68.23Z" fill="#d17532" fill-rule="evenodd"/><path d="M677.91,394.67c1.97,1.08,3.31,1.73,4.56,2.53,7.75,4.93,13.71,11.67,18.77,19.18,10.57,15.67,20.36,31.82,25.7,50.13,2.02,6.92,3.52,14.1,4.28,21.26.74,6.99.31,14.11.25,21.17-.02,1.48-.74,2.95-1.1,4.44-1.73,7.09-5.92,11.37-13.31,12.86-15.68,3.16-30.9,7.96-45.85,13.58-19.58,7.37-35.8,19.32-48,36.44-5.55,7.79-10.68,15.88-16.27,23.63-2.55,3.53-5.7,6.66-8.73,9.81-1.44,1.49-3.32,1.33-4.99.11-1.8-1.33-2.27-2.97-.41-4.52,7.41-6.21,12-14.63,17.41-22.38,10.27-14.73,22.44-27.38,37.78-36.86,15.35-9.47,32.26-14.91,49.56-19.38,3.99-1.03,7.92-2.24,11.91-3.22,10.52-2.6,15.9-9.63,17.51-20,1.83-11.84.1-23.48-3.78-34.53-9.42-26.91-22.23-51.93-43.77-71.51-.35-.32-.7-.66-.98-1.04-.15-.21-.18-.52-.53-1.7Z" fill="#d17532" fill-rule="evenodd"/><path d="M735.89,480.44c2.42,9.53,5.76,18.78,3.78,29.1-1.97,10.23-7.02,17.73-16.64,21.63-4.29,1.73-9.01,2.43-13.57,3.44-19.82,4.39-38.4,11.69-55.17,23.29-11.55,7.99-20.16,18.74-28,30.17-2.44,3.55-4.43,7.42-6.99,10.87-4.06,5.43-8.38,10.66-12.7,15.89-.75.9-1.99,1.84-3.06,1.92-1.33.1-2.73-.68-4.08-1.08.55-1.08.97-2.27,1.7-3.21,2.12-2.7,4.55-5.18,6.54-7.97,6.65-9.36,12.87-19.03,19.77-28.2,13.96-18.55,32.55-30.49,54.78-36.82,10.94-3.11,21.84-6.44,32.95-8.75,11.85-2.47,18.13-9.82,19.51-21.06.95-7.69.03-15.61-.05-23.42-.02-1.93,0-3.86,0-5.79.41,0,.83,0,1.24,0Z" fill="#d17532" fill-rule="evenodd"/><path d="M742.19,519.37c1.93,10.82-5.56,17.93-17.4,16.11,3.15-2.71,6.3-5.11,9.05-7.9,2.71-2.74,5-5.89,7.48-8.86.29.21.58.42.87.64Z" fill="#d17532" fill-rule="evenodd"/><path d="M239.64,583.72c2.42-.72,4.14-1.67,5.87-1.67,15.12.06,30.26-.24,45.35.61,16.45.93,31.81,5.99,46.09,14.48,10.05,5.98,20.03,11.92,28.85,19.73,4.42,3.92,9.61,7,15.57,8.29,1.3.28,2.67.2,3.97.5,1.35.32,2.95.59,3.89,1.47.8.75,1.13,2.35,1.03,3.54-.03.46-1.86,1.19-2.79,1.08-5.9-.71-11.35-2.88-16.15-6.28-6.87-4.86-13.46-10.12-20.23-15.13-16.08-11.88-34.17-18.82-53.81-22.21-16.7-2.89-33.51-2.91-50.35-2.73-5.03.05-5.03.19-7.28-1.69Z" fill="#d17532" fill-rule="evenodd"/><path d="M262.45,588.21c18.95.03,37.54,2.54,55.57,8.54,14.46,4.81,26.9,13.07,38.78,22.44,6.2,4.89,12.89,9.24,19.71,13.23,3,1.75,6.88,1.98,10.34,2.97.64.18,1.2.62,1.79.95-.47.65-.96,1.87-1.39,1.85-2.5-.1-5.35.17-7.41-.93-4.78-2.56-9.28-5.67-13.69-8.84-8.38-6.03-16.44-12.49-24.94-18.34-9.9-6.81-21.37-9.92-32.89-12.68-19.97-4.79-40.2-6.07-60.64-4.15-2.66.25-5.35.51-8.01.43-1.13-.03-2.24-.91-3.35-1.4.99-.85,1.91-2.31,3-2.46,5.29-.73,10.63-1.18,15.97-1.58,2.38-.18,4.78-.03,7.18-.03Z" fill="#d17532" fill-rule="evenodd"/><path d="M242.29,596.97c1.85-.41,3.68-1.03,5.55-1.19,28.11-2.55,55.47.75,81.97,10.65,9.11,3.4,16.49,9.56,24.16,15.23,5.07,3.75,9.71,8.11,14.87,11.72,4.18,2.93,8.86,5.14,13.3,7.71.52.3.93.8,1.38,1.21-.55.43-1.14,1.27-1.63,1.22-1.67-.19-3.55-.32-4.93-1.15-3.92-2.36-8.17-4.52-11.34-7.71-21.35-21.5-47.42-31.98-77.26-34.47-13.47-1.13-26.89-2.6-40.44-1.99-1.81.08-3.62.01-5.43.01-.06-.41-.13-.82-.2-1.24Z" fill="#d17532" fill-rule="evenodd"/><path d="M534.83,647.43c1.42,4.25,3.08,8.43,4.17,12.76,1.06,4.24-1.93,9.96-6.08,12.43-3.85,2.29-8.01,3.72-12.54,3.54-7.35-.29-14.7-.74-22.05-1.15-6.38-.35-12.57.56-18.63,2.59-5.9,1.98-11.82,3.76-18.2,3.12-5-.5-7.53-2.29-8.13-6.46-.14-1.01.15-2.33.75-3.11.29-.38,1.86-.06,2.68.31,5.56,2.5,11.37,2.78,17.17,1.52,11.93-2.61,23.88-2.78,35.95-1.22,2.95.38,6.19.18,9.05-.64,9.7-2.78,13.68-8.44,13.83-18.54.02-1.71.49-3.41.76-5.11.43-.01.85-.03,1.27-.04Z" fill="#d17532" fill-rule="evenodd"/><path d="M459.56,684.13c.8-.16,1.62-.52,2.4-.45,6.35.63,12.37-1,18.28-2.91,9.76-3.15,19.64-2.23,29.58-1.44,6.45.51,13.05,1.74,19.29-.91,3.38-1.43,6.45-3.57,9.65-5.39.7-.4,1.39-.8,2.55-1.48.63,4.79,1.14,9-1.08,13.01-1.5,2.72-3.45,3.56-7.1,2.85-5.35-1.04-10.68-2.23-16.01-3.37-10.32-2.2-20.47-2.11-30.61,1.26-7.74,2.58-15.71,3.48-23.74,1.1-1.12-.33-2.19-.88-3.29-1.33.02-.31.05-.63.07-.94Z" fill="#d17532" fill-rule="evenodd"/><path d="M224.73,326.1c.16-5.5,3.39-11.54,8.29-16.79,13-13.92,29.07-23.02,46.72-29.65,11.07-4.16,22.45-6.74,34.3-6.94,6.98-.12,13.6,1.66,19.41,5.31,9.47,5.95,18.63,12.41,27.83,18.79,1.94,1.35,3.63,3.13,5.22,4.91,4.61,5.17,4.49,11.78-.36,16.78-2.12,2.19-4.39,4.26-6.8,6.12-5.48,4.27-9.15,9.91-12.65,15.77-2.59,4.34-5.09,8.85-8.38,12.64-7.06,8.12-15.28,9.12-24.68,3.75-5.88-3.35-11.58-7.18-17.76-9.85-12.67-5.48-26.01-7.36-39.85-6-7.11.7-14.3,1.6-21.42-.23-6.95-1.79-9.84-5.51-9.88-14.62Z" fill="#feb520" fill-rule="evenodd"/><path d="M281.51,260.11c-1.24,1.36-2.13,2.43-3.12,3.4-1.08,1.06-2.11,2.33-3.42,2.98-3.07,1.52-6.19,3.1-9.47,4.01-18.24,5.06-34.51,14.02-49.59,25.2-9.48,7.03-18.51,14.68-27.83,21.94-1.93,1.5-4.1,2.88-6.38,3.7-3.98,1.43-7.72.5-10.22-3.03-2.35-3.31-5.55-5.12-9.14-6.56-3.55-1.42-7.18-2.68-10.57-4.42-5.81-2.98-10.02-7.45-12.21-13.81-3.07-8.89.69-15.68,6.4-21.83,6.52-7.04,15.16-10.48,24.07-13.24,11.78-3.65,23.94-4.96,36.2-5.21,9.09-.19,18.22-.6,27.27.07,14.64,1.08,29.23,2.92,43.83,4.55,3.01.33,3.88,1.17,4.19,2.25Z" fill="#feb520" fill-rule="evenodd"/><path d="M695.19,301.03c-7.91-.46-15.29-3.07-22.62-5.77-7.5-2.75-14.92-5.62-22.86-7.05-6.29-1.13-7.85-4.61-5.12-10.47,4.09-8.78,10.6-15.66,18.07-21.56,17.15-13.57,36.6-21.64,58.49-23.61,19.71-1.78,38.04,2.35,54.88,12.77,2.01,1.25,3.91,2.77,5.56,4.46,3.42,3.49,2.36,7.6-2.41,8.58-3.8.79-7.77.96-11.67,1-9.71.1-19.32.74-28.51,4.14-11.07,4.1-19.93,10.75-24.92,21.84-1.17,2.6-2.55,5.14-4.07,7.56-3.4,5.43-8.26,8.33-14.83,8.11Z" fill="#feb520" fill-rule="evenodd"/><path d="M434.78,316.13c13.62-.06,25.55,1.87,35.66,9.63,8.23,6.31,15.39,13.82,17.8,24.26,1.08,4.69,1.06,9.99.12,14.72-2.02,10.16-9.66,14.67-20.13,11.73-9.09-2.55-17.95-5.96-26.73-9.46-16.37-6.52-33.16-8.77-50.66-6.53-4.77.61-9.77.41-14.56-.23-10.33-1.38-10.62-10.24-5.04-15.9,4.6-4.67,9.56-9.15,14.95-12.85,15.64-10.72,30.34-15.02,48.59-15.37Z" fill="#feb520" fill-rule="evenodd"/><path d="M626.45,314.74c-26.31-.24-49.47,8.89-70.75,23.69-7.15,4.96-14.31,9.92-21.67,14.55-2.86,1.8-6.17,3.12-9.45,3.93-4.89,1.21-8.77-.75-12.08-4.63-5.25-6.14-5.16-12.93-3.65-20.24,2.7-13.03,9.99-22.48,21.02-29.81,13.79-9.16,28.72-13.52,45.16-13.44,13.59.07,27.19-.13,40.56,2.96,7.66,1.77,15.08,4.23,21.81,8.32,2.3,1.4,4.44,3.35,6.09,5.49,2.46,3.19,1.27,6.65-2.55,7.98-1.95.68-4.08,1-6.15,1.15-2.77.19-5.56.05-8.33.05Z" fill="#feb520" fill-rule="evenodd"/><path d="M319.7,176.37c-22.4-.42-43.08,5.64-62.68,16.29-15.45,8.4-28.39,19.64-40.06,32.63-4.86,5.41-10.18,10.65-17.46,12.6-4.93,1.32-10.13,2-15.24,2.21-6.34.27-9.82-4-9.22-10.38.72-7.66,4.83-13.67,9.8-19.06,22.34-24.24,50.01-38.63,82.37-44.34,11.92-2.1,23.89-3.66,35.98-2.67,8.36.69,16.68,2.08,24.99,3.35,1.93.29,3.95,1.06,5.53,2.17,1.14.8,2.47,2.78,2.17,3.79-.39,1.3-2.17,2.69-3.59,3.04-2.27.56-4.75.32-7.14.37-1.82.04-3.64,0-5.45,0Z" fill="#feb520" fill-rule="evenodd"/><path d="M422.69,131.49c3.75.56,9.06,1.12,14.26,2.26,2.11.46,4.22,1.87,5.86,3.35,3.91,3.52,3.35,8.72-1.05,11.66-5.68,3.8-12.22,4.82-18.8,5.46-18.09,1.77-36.02,4.31-53.52,9.47-5.76,1.7-11.71,2.95-17.81,1.6-1.02-.22-2.07-.39-3.06-.72-4.8-1.64-6.1-5.52-2.69-9.32,2.13-2.36,4.84-4.43,7.67-5.88,16.33-8.33,33.47-14.28,51.78-16.36,5.22-.59,10.48-.92,17.35-1.52Z" fill="#feb520" fill-rule="evenodd"/><path d="M799.71,210.76c-.36,2.45-.5,4.96-1.09,7.35-1.99,8.09-9.41,11.54-16.9,7.89-4.12-2-8.11-4.27-12.2-6.34-5.12-2.58-10.44-4.62-16.25-4.95-10.73-.59-12.54-8.46-11.22-15.5,1.57-8.35,7.08-13.14,15-15.25,8.83-2.35,17.48-2.11,26.13,1.51,10.81,4.52,16.23,13.33,16.52,25.28Z" fill="#feb520" fill-rule="evenodd"/><path d="M680.77,146.08c16.44.8,30.92,1.86,44.49,7.79,2.39,1.04,4.69,2.6,6.62,4.38,2.87,2.65,2.61,6.19-.89,7.79-7.08,3.25-14.33,6.22-21.72,8.67-2.48.82-5.72.1-8.42-.65-10.29-2.84-20.45-6.2-30.77-8.9-5.42-1.42-11.1-1.84-16.66-2.76-1.4-.23-2.79-.61-4.15-1.03-2.06-.63-3.99-1.92-3.77-4.11.18-1.78,1.27-3.84,2.61-5.06,3.66-3.32,8.58-3.53,13.15-4.15,7.09-.97,14.24-1.46,19.51-1.97Z" fill="#feb520" fill-rule="evenodd"/><path d="M597.79,158.23c-7.47-.82-13.54-1.54-19.62-2.14-8.18-.81-16.38-1.48-24.56-2.33-3.48-.37-6.64-1.56-9.07-4.35-4.14-4.77-2.92-10.91,3.06-12.84,4.39-1.42,9.05-2.48,13.64-2.73,13.21-.71,26.4-.31,39.17,3.78,2.44.78,4.87,1.77,7.06,3.07,6.68,3.94,6.65,11.34-.3,14.89-3.18,1.63-7.01,2.02-9.37,2.65Z" fill="#feb520" fill-rule="evenodd"/><path d="M13.23,484c.05.91.14,1.82.14,2.72,0,6.23-.34,12.47.03,18.68.41,6.95,1.37,13.87,2.23,20.79.86,6.97,1.67,13.95,2.91,20.86,1.39,7.73,3.15,15.4,4.89,23.07,4.79,21.14,11.78,41.6,20.19,61.53,2.91,6.89,6.79,13.54,11.24,19.54,3.24,4.37,7.94,7.59,13.96,8.41,7.96,1.09,13.98,5.63,18.36,12.27,6.48,9.82,12.83,19.72,19.33,29.52,7.99,12.03,16.06,23.99,24.13,35.96,6.92,10.26,16.03,17.92,27.19,23.34,6.52,3.16,13.01,6.58,19,10.63,8.95,6.06,15.6,14.47,21.63,23.37,5.35,7.89,10.3,16.15,16.46,23.37,5.03,5.88,10.99,11.11,17.94,15.06,8.26,4.7,17.32,6.53,26.38,8.55,7.38,1.65,13.69,5.41,19.39,10.25,11.51,9.77,23.11,19.4,35.83,27.61,7.53,4.86,15.79,8.08,24.02,11.43,11.04,4.5,22.47,7.55,34.21,9.43,6.74,1.08,13.52,1.87,20.27,2.92,8.22,1.28,16.4,2.81,24.63,4.03,5.08.75,10.24,1.03,15.33,1.69,14.17,1.85,26.97-2.73,39.57-8.28,3.61-1.59,7.27-3.16,10.68-5.12,1.69-.97,3.13-2.65,4.25-4.31,3-4.45,5.95-8.96,8.59-13.64,2.33-4.14,4.93-4.34,8.07-.82,1.95,2.19,4.69,3.66,7.09,5.45,7.74,5.78,16.23,10.08,25.55,12.66,7.07,1.96,14.16,2.98,21.54,1.48,8.88-1.79,17.93-2.82,26.75-4.82,8.53-1.93,16.84-4.87,25.32-7.03,16.09-4.1,31.16-10.75,46.09-17.81,6.43-3.04,12.74-6.32,19.19-9.3,21.19-9.79,40.33-22.9,59.26-36.38,6.07-4.33,12.32-8.42,18.35-12.82,1.97-1.44,3.39-3.59,5.18-5.3,5.09-4.85,9.61-10.16,13.52-16.02,1.48-2.2,3.14-4.46,5.24-5.95,1.29-.92,3.58-.46,5.41-.59.16-.01.34.16.5.26,6.89,4.67,13.41,2.09,19.36-1.66,10.59-6.66,21.14-13.45,31.14-20.95,5.33-4,9.46-9.61,14.14-14.47,5.95-6.17,11.97-12.27,17.85-18.5,1.86-1.95,3.64-4.06,5.01-6.35,3.23-5.35,6.26-10.82,9.24-16.31,4.25-7.82,8.41-15.7,12.54-23.58,1.92-3.64,3.55-7.44,5.56-11.03,3.32-5.94,7.17-11.6,10.19-17.68,3.38-6.77,6.03-13.88,9.06-20.82,2.88-6.57,4.89-13.37,5.24-20.54.54-10.83,5.55-19.68,11.69-28.19,2.19-3.02,3.26-6.83,5.12-10.12,7.74-13.7,13.07-28.38,17.38-43.42,2.9-10.13,4.98-20.53,10.27-29.81,1.38-2.4,2.7-4.93,5.82-5.64,2.24-.51,3.64.64,3.76,2.52.24,3.92.08,7.86-.07,11.79-.12,3.02-.73,6.04-.68,9.05.1,6.29.66,12.58.72,18.87.05,5.51-.25,11.02-.52,16.52-.95,18.24-3.72,36.19-11.1,53-4.81,10.95-10.74,21.42-16.08,32.14-2,3.99-3.76,8.09-5.59,12.16-4.33,9.61-8.7,19.21-12.94,28.86-2.04,4.63-3.64,9.46-5.8,14.04-4.31,9.13-8.83,18.16-13.35,27.19-7.45,14.91-17,28.49-27.09,41.68-4.98,6.53-10.51,12.64-15.84,18.9-3.55,4.17-7.1,8.34-10.82,12.35-2.26,2.43-4.94,4.48-7.31,6.82-2.04,2-3.76,4.33-5.88,6.23-15.68,14.07-32.21,26.97-51.32,36.17-23.25,11.19-44.26,25.93-65.2,40.83-19.35,13.75-38.55,27.81-59.71,38.69-12.19,6.26-24.73,12.03-37.59,16.71-9.28,3.38-19.29,4.81-29.07,6.69-6.13,1.18-12.41,1.77-18.64,2.31-8.95.77-17.91,1.72-26.87,1.73-10.76,0-20.4-4.23-29.83-9.23-5.06-2.68-10.63-4.92-16.23-5.92-5.65-1.02-11.62-.48-17.43-.21-5.21.24-10.41.94-15.58,1.66-5.19.72-10.33,1.79-15.5,2.58-6.19.95-12.4,1.78-18.6,2.64-4.16.58-8.31,1.29-12.5,1.64-4.32.36-8.68.31-13.02.49-5.43.22-10.86.8-16.28.68-18.36-.39-36.21-3.5-53.33-10.41-11.73-4.73-22.02-11.68-31.71-19.72-4.31-3.57-9.08-6.61-13.74-9.76-10.82-7.31-23.24-10.72-35.44-14.8-3.98-1.33-7.37-.5-11.08.05-3.66.56-7.46.36-11.06,1.14-7.11,1.53-13.29-1.36-19.61-3.57-8.87-3.12-14.72-10.13-20.72-16.8-6.42-7.14-12.54-14.56-18.88-21.77-4.85-5.51-9.6-11.14-14.86-16.25-6.06-5.89-13.08-10.84-18.85-16.97-7.17-7.61-15.71-13.39-23.71-19.89-5.43-4.42-11.09-8.55-16.55-12.93-1.44-1.16-2.52-2.77-3.72-4.2-10.65-12.77-21.23-25.61-31.97-38.31-10.4-12.29-20.22-25.03-28.69-38.72-4.49-7.25-8.2-14.97-12.26-22.48-6.65-12.32-11.08-25.53-15.1-38.85-2.53-8.39-4.42-17.01-6-25.63-1.09-5.95-1.01-12.11-1.75-18.14-1.3-10.6-1.39-21.22-.99-31.85.21-5.73.08-11.56,1.07-17.17,1.25-7.05-.88-13.69-1.21-20.51-.41-8.47-.56-16.96-.53-25.44.01-3.95.64-7.91,1.13-11.84.12-.92.79-1.77,1.2-2.66.29.1.58.21.87.31Z" fill="#d17532" fill-rule="evenodd"/><path d="M404.23,283.89c-6.61.76-12.7-2.14-18.95-4.33-12.24-4.3-24.76-7.91-36.65-13.01-10.56-4.53-20.4-10.72-30.59-16.11-.92-.49-2.13-.64-3.18-.59-3.39.17-6.77.69-10.15.66-1.1-.01-2.73-1.1-3.09-2.08-.28-.77.81-2.3,1.63-3.19,3.72-4.02,9.38-3.51,13.92-5.74,6.14-3.01,11.56-6.94,16.98-11.04,11.81-8.95,23.59-18.22,38.62-21.21,7.66-1.52,15.31-2.82,22.2-6.72,3.17-1.79,6.37-3.54,9.32-5.64,7.28-5.19,15.47-8.2,24.02-10.27,6.65-1.62,13.37-3.23,20.15-3.94,6.35-.67,12.82-.22,19.24-.06.84.02,1.98,1.11,2.37,1.98.34.75-.09,1.92-.36,2.85-.44,1.47-.95,2.94-1.59,4.34-1.07,2.36-2.09,4.77-3.44,6.97-1.55,2.5-3.38,4.64-2.99,8.04.2,1.75-1.13,3.72-1.91,5.53-3.78,8.81-9.23,16.55-15.11,24.06-4.38,5.58-8.73,11.23-12.54,17.21-2.17,3.42-3.08,7.61-4.81,11.34-2.05,4.43-4.18,8.84-6.64,13.05-3.56,6.11-9.12,8.65-16.44,7.89Z" fill="#d17532" fill-rule="evenodd"/><path d="M538.06,185.76c.92-.58,1.77-1.46,2.77-1.7,8.65-2.09,17.5-2.05,26.28-1.69,5.43.22,10.84,1.48,15.54,4.57,2.01,1.32,3.97,1.34,6.23.87,1.81-.38,3.75-.08,5.62-.21,2.84-.19,5.69-.8,8.51-.71,16.89.54,32.13,5.94,45.55,16.21,2.67,2.04,4.82,4.76,7.27,7.1.65.63,1.46,1.17,2.31,1.53,7.16,3.07,11.5,11.32,10.68,18.48-.42,3.68-3.42,5.77-5.95,7.59-6.82,4.91-14.05,9.26-21.1,13.86-.75.48-1.39,1.13-2.05,1.73-4.34,3.99-8.45,8.25-13.04,11.93-5.37,4.3-11.89,6.47-18.56,7.72-7.87,1.47-15.84,2.47-23.79,3.49-3.06.39-6.19.24-9.29.43-3.03.19-6.05.54-9.09.74-2.44.16-3.35-.78-3.44-3.5-.19-5.82,1.06-11.76-.68-17.45-1.49-4.87-3.73-9.51-5.23-14.38-1.56-5.06-4.65-9.69-4.48-15.27.01-.51-.28-1.2-.66-1.52-3.11-2.56-3.37-6.41-4.44-9.85-1.73-5.55-3.38-11.13-4.79-16.77-.54-2.16-.43-4.51-.43-6.78,0-2.58.36-5.26-3.76-5.37,0-.35,0-.7,0-1.05Z" fill="#d17532" fill-rule="evenodd"/><path d="M59.46,580.24c0,3.8.1,6.84-.02,9.87-.16,3.93-3.44,8.08-6.94,9.02-4.34,1.16-9.08-.46-11.24-4.55-2.69-5.11-5.88-10.17-4.66-16.5.4-2.08-.08-4.31.24-6.41.83-5.31,5.58-9.42,10.88-9.17,1.72.09,3.81.98,4.99,2.22,4.3,4.51,5.97,10.26,6.75,15.53Z" fill="#d17532" fill-rule="evenodd"/><path d="M907,565.08c-1.07,4.35-1.63,8.77-3.28,12.75-1.9,4.56-7.16,6.36-11.88,1.97-4.12-3.83-5.5-8.45-6.11-13.47-.46-3.84-.5-7.83-.06-11.67.67-5.89,7.65-10.44,13.03-8.32,2.11.84,4.22,3.28,5.04,5.47,1.57,4.18,2.21,8.71,3.27,13.27Z" fill="#d17532" fill-rule="evenodd"/><path d="M941.54,437.62c-.33-3.53.27-6.35,2.95-7.99,3.55-2.17,7.32-1.48,9.45,2.17,2.06,3.53,1.87,9.63-1.1,11.43-2.42,1.45-4.94,2.63-7.8,1.3-2.32-1.09-3.47-3.65-3.5-6.91Z" fill="#d17532" fill-rule="evenodd"/><path d="M42.43,544.45c-3.69,0-6.66-3.55-6.69-8-.02-3.31,2.46-6.38,5.1-6.48,5.83-.21,7.12,3.59,7.54,8.05.39,4.05-2.05,6.43-5.96,6.42Z" fill="#d17532" fill-rule="evenodd"/><path d="M547.85,235.32c2.73,7.25,5.22,14.63,8.27,21.76,2.16,5.05,1.45,10.26,1.29,15.31-.06,2.35-2.58,5-4.6,6.86-5.98,5.52-12.84,9.58-20.93,11.39-7.78,1.74-14.74,5.48-20.77,10.49-3.18,2.64-5.56,6.46-7.69,10.11-3.83,6.55-8.66,7.09-14.4,3.44-3.3-2.09-6.45-4.44-9.61-6.75-6.23-4.57-13.12-7.81-20.49-9.97-8.09-2.38-16.22-4.65-24.38-6.78-1.81-.47-3.87-.5-5.72-.17-6.02,1.07-10.46-4.02-8.03-10.6,1.64-4.43,4-8.67,6.54-12.67,11.15-17.51,22.55-34.86,33.72-52.36,6.32-9.89,10.42-20.78,12.56-32.26.95-5.07.79-10.41.58-15.61-.41-10.34-2.31-20.54-7.19-29.67-5.39-10.1-11.72-19.7-17.79-29.42-1.94-3.1-3.97-6.32-6.63-8.74-3.76-3.42-7.92-6.56-12.34-9.08-12.56-7.18-25.93-12.62-39.88-16.48-4.11-1.14-8.47-1.4-12.73-1.96-3.04-.4-6.13-.99-9.16-.84-3.71.19-7.39,1.01-11.06,1.67-4.37.78-8.7,1.59-13.08-.08-.61-.23-1.61.16-2.26.55-4.22,2.57-8.58,4.52-13.73,4.12-1.62-.12-3.36.84-4.94.59-4.63-.72-8.36-4.98-8.9-9.76-.25-2.24-.27-4.53-.64-6.75-.53-3.18.75-5.06,3.74-6,.72-.22,1.37-.66,2.29-1.1-2.79-5.22-.73-9.73,1.99-14.3,1.79.76,2.62,1.27,2.02,3.29-1.75,5.87,5.1,12.29,11.15,10.74,7.66-1.96,15.3-4.05,23.04-5.63,3.55-.73,7.32-.37,10.98-.49,32.38-1.06,60.47,10.61,85.83,29.61,19.22,14.4,32.97,33.41,43.79,54.68,4.61,9.06,8.95,18.22,11,28.25,1.18,5.8,2.35,11.62,3.11,17.48.51,3.97.27,8.04.45,12.06.23,5.41.97,10.84.7,16.22-.31,6.19-1.46,12.34-2.3,18.5-.68,4.95-1.27,9.93-2.18,14.83-1.11,6.01-2.62,11.96-3.75,17.97-.66,3.49.44,6.59,2.81,9.32,2.11,2.42,4.41,2.51,7.36,1.72,7.22-1.95,14.59-3.33,21.79-5.37,5.26-1.5,7.75-5.8,8.46-10.95.79-5.67,1.16-11.4,1.72-17.18Z" fill="#86b125" fill-rule="evenodd"/><path d="M536.84,246.95c-.03,4.76-2.85,7.9-7.07,7.87-3.2-.03-5.5-3.03-5.49-7.17.01-5.02,2.24-7.58,6.58-7.57,3.68,0,6.01,2.69,5.98,6.88Z" fill="#86b125" fill-rule="evenodd"/><path d="M532.99,224.33c-.12,3.09-1.31,4.48-3.96,4.19-2-.21-3.48-1.37-3.53-3.57-.04-2.75,1.63-4.47,4.09-4.46,2.61.01,3.7,1.32,3.4,3.84Z" fill="#86b125" fill-rule="evenodd"/><path d="M.17,527.52c0-9.4.2-17.26-.04-25.11-.74-24.18,1.66-47.99,7.14-71.57,4.49-19.32,8.88-38.61,15.96-57.22,13.57-35.68,35.18-65.89,61.89-92.77,11.31-11.38,23.69-21.51,36.6-30.98,10.54-7.73,19.1-17.31,27.34-27.35,8.44-10.29,17.13-20.42,26.36-30,22.58-23.43,50.54-36.76,82.34-42.61,15.87-2.92,31.83-4.63,47.95-5.07,6.6-.18,12.79-2.05,18.75-4.93,25.46-12.31,52.3-20.27,80.19-24.66,11.02-1.74,22.13-1.9,33.17.39,1.2.25,2.51.01,3.77,0-.21-1.38-.12-2.9-.67-4.12-3.89-8.56-10.31-14.8-18.13-19.87-12.02-7.8-25.25-12.24-39.38-13.04-7.72-.43-15.61,1.1-23.36,2.23-8.33,1.21-16.53,3.5-24.88,4.33-5.4.54-11.06-.25-16.45-1.27-4.17-.79-6.19-4.61-7.51-8.43-2.96-8.52-2.61-17.13-.44-25.76,4.08-16.18,13.56-28.92,26.84-38.27,13.19-9.28,28.16-12.96,44.71-10.86,16.96,2.15,32.36,8.16,47.59,15.35,32.84,15.53,61.7,36.33,85.33,64.03,6.26,7.34,11.66,15.43,17.33,23.26,1.61,2.23,3.54,3.18,6.22,3.43,10.95,1.04,21.89,2.26,32.84,3.39,3.91.4,7.81.86,11.73,1.09,9.93.57,19.26,3.46,28.08,7.75,15.48,7.54,31.51,9.92,48.59,7.54,23.6-3.29,47.05-1.28,70.23,3.85,7.57,1.67,15.05,3.75,22.5,5.87,10.11,2.87,19.24,7.66,28.22,13.19,19.17,11.79,38.82,22.78,58.31,34.01,31.58,18.2,59.54,40.42,80.35,70.87,8.7,12.73,18.3,24.86,26.73,37.76,19.32,29.62,31.79,62.11,39.29,96.63,4.66,21.47,5.07,43.11,3.82,64.91-.62,10.81-.89,21.64-1.23,32.46-.63,20.54-4.27,40.75-6.49,61.12-2.16,19.91-6.02,39.38-12.35,58.34-2.04,6.12-4.99,11.99-7.93,17.76-4.78,9.37-10.48,18.31-14.72,27.91-5.92,13.38-11,27.14-16.22,40.83-8.93,23.45-19.4,46.11-34.55,66.28-9.84,13.09-20.07,25.89-30.15,38.8-18.22,23.33-40.71,41.31-67.9,53.1-18.33,7.95-34.94,18.64-51.07,30.27-31.47,22.67-65.12,41.41-101.38,55.36-20.79,8-42.27,13.01-64.41,15.27-7.9.81-15.8,1.69-23.72,2.3-11.07.86-21.76-1.06-32.13-4.9-2.06-.76-4.19-1.36-6.26-2.1-8.72-3.15-17.46-3.27-26.56-1.36-14.23,2.99-28.54,5.77-42.94,7.75-15.54,2.14-31.21,1.11-46.73-.82-13.48-1.68-27.12-3.04-40.26-6.28-12.67-3.12-24.96-8.06-37.08-13.02-5.75-2.35-10.76-6.53-16-10.06-2.21-1.49-4.27-3.28-6.14-5.18-11.51-11.66-25.85-16.64-41.8-18.12-5.33-.49-10.61-1.51-15.9-2.42-13.22-2.29-24.31-8.9-34.72-17.02-15.09-11.77-28.15-25.7-41.88-38.9-9.88-9.5-19.56-19.19-29.41-28.72-6.25-6.05-13.31-10.93-21.37-14.31-8.91-3.74-16.51-9.34-22.65-16.78-10.69-12.92-22.05-25.37-31.67-39.04-12.27-17.44-23.35-35.76-34.39-54.03-3.66-6.07-6.01-13.04-8.27-19.83-4.15-12.43-8.38-24.9-11.52-37.61-4.93-19.96-6.77-40.42-7.8-60.93-.72-14.54-1.21-29.09-1.74-42.12ZM498.85,852.84c.33.02.65.04.97.06.32.74.83,1.46.94,2.23.71,4.73,1.77,9.46,1.87,14.21.2,8.5-.12,17.03-.36,25.54-.25,8.79,1.38,16.92,5.92,24.73,3.41,5.87,9.04,7.67,14.32,10.38,3.32,1.7,6.72,3.22,10.11,4.79.68.32,1.44.64,2.18.65,10.23.1,20.53.92,30.68,0,9.48-.86,18.85-3.3,28.15-5.56,10.03-2.45,19.84-5.82,29.89-8.23,29.46-7.08,56.45-20.12,82.52-34.91,16.57-9.4,30.01-23.1,42.79-37.2,3.46-3.81,7.18-7.66,9.56-12.14,9.67-18.11,15.99-37.46,19.71-57.64.57-3.09.74-6.27,1.04-9.41.16-1.66.91-3.01,2.62-2.63.96.22,1.78,1.51,2.43,2.47.32.47.2,1.31.14,1.97-.62,6.96-.92,13.96-1.98,20.85-1.87,12.12-4.66,24.05-9.02,35.57-.97,2.54-1.43,5.67.69,7.23,1.64,1.22,5,1.58,6.9.74,8.04-3.56,16.22-7.16,21.89-14.33,13.23-16.72,25.12-34.33,34.04-53.75,7.53-16.39,13.17-33.46,17.55-50.96,1.76-7.05,3.5-14.12,5.44-21.12.32-1.16,1.58-2.05,2.4-3.07.84,1.16,1.8,2.25,2.46,3.5.31.6.12,1.52,0,2.27-.41,2.84-.59,5.76-1.37,8.5-3.28,11.49-6.97,22.87-10.1,34.4-4.53,16.66-11.42,32.26-20.13,47.12-2.06,3.52-3.79,7.26-5.49,10.98-.4.87-.38,2.87-.07,2.98,1.18.43,2.61.52,3.84.26.82-.17,1.51-1.11,2.2-1.78,17.98-17.34,33.08-37.08,45.79-58.43,7.94-13.35,14.8-27.6,20.12-42.19,7.2-19.77,12.52-40.2,16.96-60.85,8.63-40.23,14.25-80.69,12.48-122.01-.9-21.26-3.72-42.07-8.89-62.73-9.09-36.35-21.25-71.46-40.48-103.77-8.82-14.81-18.33-29.21-27.9-43.55-4.98-7.47-10.08-15.07-16.29-21.48-12.44-12.86-25.39-25.19-39.67-36.17-11.83-9.11-24.51-15.97-38.69-20.22-13.18-3.96-26.58-5.44-40.32-3.15-11.44,1.9-22.11,6.2-32.8,10.33-20.88,8.07-39.28,20.61-57.75,32.96-2.35,1.57-4.23,3.87-6.24,5.91-1.67,1.7-1.26,3.04.95,3.85.99.37,1.98.72,2.97,1.06,10.14,3.47,20.33,6.82,30.43,10.41,14.41,5.12,27.11,12.79,37.03,24.76,3.11,3.74,7.02,6.8,10.33,10.4,5.56,6.05,11.28,12.02,16.34,18.5,13.76,17.61,26.59,35.85,35.79,56.38,11.04,24.59,20.74,49.62,25.62,76.27.16.87-.27,1.85-.43,2.77-.68-.74-1.69-1.38-1.99-2.25-5.25-15.38-10.05-30.91-15.69-46.15-11.15-30.1-25.93-58.15-47.01-82.73-10.85-12.66-23.55-23.31-35.48-34.79-4.52-4.35-10.19-7.91-15.92-10.54-10.16-4.67-20.69-8.57-31.21-12.37-6.18-2.24-12.56-4.32-19.04-5.37-16.12-2.59-32.41-2.88-48.72-2.32-20.89.72-37.87,9.08-50.86,25.53-6.16,7.81-8.77,16.89-8.5,26.53.35,12.75-.85,25.24-3.69,37.62-.18.82-.81,1.53-1.61,3-.63-1.49-1.14-2.19-1.22-2.94-.43-4.18-.99-8.36-1.08-12.55-.17-7.85.3-15.72-.11-23.56-.72-13.36-6.97-23.69-18.33-30.8-2.6-1.62-5.26-3.22-8.07-4.38-15.6-6.46-31.45-8.87-47.78-2.6-5.9,2.26-11.87,4.36-17.8,6.52-7.68,2.79-14.37,7.16-20.42,12.59-14.09,12.64-25.99,27.04-35.34,43.53-.44.78-1.28,1.33-1.92,1.99-.25-.14-.5-.28-.74-.42.1-.66.06-1.38.31-1.98,1.6-3.88,2.99-7.87,4.95-11.57,6.31-11.94,14.58-22.52,23.8-32.29,5.11-5.41,10.81-10.27,16.39-15.21,1.69-1.5,3.94-2.35,5.81-3.68,2.14-1.51,2.58-3.58.96-5.1-1.5-1.41-3.22-2.75-5.07-3.59-6.46-2.9-13.07-5.48-19.55-8.33-18.59-8.16-37.41-14.72-58.14-15.67-17.37-.79-34.26-.31-50.61,6.01-7.23,2.79-14.52,5.52-21.54,8.79-5,2.33-9.86,5.15-14.32,8.4-5.49,3.99-10.65,8.47-15.68,13.05-17.88,16.26-34.69,33.5-49.91,52.38-24.69,30.63-43.91,64.28-58.25,100.83-12.3,31.36-18.14,63.93-19.49,97.52-.86,21.6-.23,43.1,2.14,64.56,1.29,11.69,2.07,23.6,5.03,34.9,9.2,35.23,20.69,69.7,37.64,102.12,5,9.57,8.99,19.74,14.73,28.82,7.31,11.55,15.49,22.61,24.07,33.27,14.13,17.54,28.78,34.67,46.81,48.48,12.92,9.9,27.6,15.21,43.69,16.67,6.92.63,11.09-4.69,8.97-11.24-1.67-5.17-3.47-10.37-5.93-15.19-5.53-10.81-7.3-22.52-9-34.27-.49-3.4-.68-6.85-.74-10.29-.01-.77,1.01-2.12,1.67-2.19.73-.09,1.69.89,2.39,1.57.37.36.47,1.04.58,1.6,1.05,4.87,2.17,9.72,3.08,14.61,3.91,21.17,12.26,40.2,27.15,56,17.75,18.84,39.43,31.85,63.25,41.33,17.75,7.06,36.44,10.1,55.44,11.89,23.65,2.24,47.07,2.2,70.13-4.32,2.74-.77,5.82-1.26,8.02-2.87,7.28-5.34,11.78-12.35,11.87-21.83.1-10.04.64-20.07.85-30.11.15-7.09.03-14.17.11-21.26.02-1.03.53-2.07.81-3.1ZM112.81,774.73c.32-.2.63-.39.95-.59-.6-1.76-.93-3.7-1.86-5.27-9.71-16.58-19.69-33.02-29.19-49.72-3.04-5.35-4.96-11.37-7.18-17.16-.34-.88.45-2.19.72-3.31,1.02.64,2.08,1.21,3.03,1.94.33.25.42.84.6,1.28,5.86,14.7,13.31,28.6,21.6,42.04,4.36,7.07,9.36,13.77,14.35,20.43,1.75,2.33,4.33,4.05,6.54,6.04.38-.18.76-.36,1.13-.53.18-1.71.86-3.55.46-5.11-1.07-4.14-2.2-8.33-4.01-12.18-10.18-21.57-19.81-43.4-27.23-66.06-10.08-30.8-15.62-62.55-18.04-94.86-1.95-26.01-1.16-51.86,3.62-77.58,6.82-36.73,20.18-71.05,38.04-103.69,24.49-44.77,53.01-86.34,93.73-118.32,10.64-8.35,21.74-15.67,34.33-20.64,5.61-2.21,11.22-4.44,16.85-6.59,15.31-5.82,31.04-9.09,47.51-7.85.57.04,1.15-.18,1.73-.28.05-.26.11-.52.17-.78-1.05-.43-2.06-1.07-3.15-1.25-14.08-2.26-28.13-4.73-42.26-6.58-25.72-3.36-51.54-4.3-77.44-2.02-15.62,1.38-30.63,4.65-44.36,12.71-10.89,6.4-20.55,14.32-30.03,22.59-31.49,27.46-55.43,60.62-73.16,98.17-12.78,27.05-19.78,55.82-22.67,85.69-4.42,45.85-5.17,91.59.86,137.37,4.63,35.14,15.34,67.86,35.95,97.07,6.46,9.14,12.4,18.68,18.08,28.33,9.86,16.73,21.49,31.93,36.62,44.25,1.15.93,2.46,1.65,3.7,2.47ZM968.65,421.68c-.3,0-.6-.01-.9-.02,0-8.14.62-16.34-.12-24.4-1.8-19.56-5.86-38.63-15.07-56.24-7.86-15.02-15.94-29.92-23.69-44.99-4.57-8.91-9.87-17.29-16.11-25.11-13.06-16.36-27.02-31.86-43.39-45.04-5.67-4.57-11.63-8.81-16.99-13.71-10.37-9.48-22.31-16.51-34.55-23.09-18.76-10.07-38.6-15.49-60.01-12.51-14.04,1.95-27.56,6.36-40.11,12.76-22.52,11.47-44.91,23.27-66.76,35.95-25.94,15.04-51.94,29.91-79.03,42.8-1.62.77-3.21,1.78-4.5,3.01-.95.9-2.19,2.91-1.85,3.43.81,1.18,2.51,2.42,3.85,2.43,5.17.03,10.48.28,15.45-.83,9.7-2.15,19.2-4.99,28.12-9.68,14.54-7.65,28.02-16.93,41.45-26.33,12.38-8.68,25.57-15.8,40.08-20.35,13.69-4.29,27.6-6.37,41.94-4.36,17.17,2.4,32.85,9.37,47.72,17.59,20.37,11.26,38.81,25.5,54.19,43.11,10.37,11.89,19.95,24.51,29.45,37.13,18.45,24.51,34.49,50.45,45.41,79.3,8.05,21.27,15.04,42.88,20.1,65.03,3.66,16.04,7.02,32.23,9.02,48.54,3.67,29.78.94,59.51-3,89.11-1.25,9.3-2.95,18.54-4.28,27.83-.15,1.06.8,2.26,1.24,3.4.93-.57,2.25-.92,2.75-1.76,5.76-9.76,10.74-19.84,13.97-30.79,7.22-24.46,9.21-49.67,11.24-74.88.77-9.44.55-18.96.99-28.43,1.07-22.96,2.26-45.93,3.41-68.89ZM352.51,68.69c2,.4,3.48,1,4.93.95,12.92-.51,25.78-.95,38.65,1.51,16.95,3.25,32.32,9.43,44.94,21.49,8.67,8.29,16.48,17.3,23.88,26.78,9.53,12.22,13.98,26.14,15.34,41.14,1.67,18.37-2.51,35.92-10.29,52.39-7.23,15.28-16.45,29.45-27.83,42.06-6.05,6.7-10.36,14.45-14.52,22.34-.75,1.43-1.57,2.97-1.73,4.53-.1,1.06.78,2.32,1.51,3.27.14.19,1.82-.41,2.4-1.02,2.12-2.2,4.12-4.54,6.1-6.88,15.44-18.28,31.65-36.01,41.08-58.52.46-1.1,2.13-1.7,3.23-2.54-.02,1.24.23,2.54-.1,3.69-4.05,14.3-12.53,26.21-21.19,37.88-6.21,8.37-13.47,15.94-20.13,23.97-.82.99-1.49,2.95-1.06,3.91.44.96,2.36,1.69,3.65,1.73,3.63.12,6.79-1.52,9.17-4.1,3.51-3.79,6.89-7.73,9.95-11.88,11.04-14.96,18.92-31.69,26.7-48.46,4.59-9.88,8.06-20.14,8.75-31.04.56-8.87.22-17.8.31-26.71,0-1.05.16-2.1.24-3.15.38-.07.75-.15,1.12-.22.53,1.27,1.34,2.5,1.56,3.82,1.62,10.09,1.76,20.27.23,30.33-1.93,12.66-6.52,24.56-11.8,36.16-7.64,16.82-14.77,33.94-27.36,47.95-2.21,2.46-1.68,5.41-.93,8.16.61,2.2,2.78,2.6,4.45.9,1.81-1.83,3.59-3.75,5.03-5.87,7.22-10.62,13.96-21.55,18.95-33.43,4.31-10.23,8.25-20.62,12.68-30.8,4.42-10.17,5.44-20.85,5.12-31.7-.16-5.24-1.22-10.44-1.7-15.68-.09-.91.72-1.9,1.11-2.85.77.78,2.06,1.45,2.24,2.35,2.36,12.3,3.65,24.75.65,37.02-1.95,8.04-5.33,15.73-8.05,23.59-6.98,20.22-16.58,39.1-28.84,56.65-.79,1.12-1.06,2.87-.99,4.29.14,2.46,1.7,3.28,3.73,1.91,1.88-1.27,3.73-2.8,5.05-4.62,3.25-4.49,6.18-9.21,9.27-13.82.52-.77,1.16-1.45,1.75-2.18.27.11.53.22.8.32-.12,1.16-.04,2.39-.41,3.46-1.24,3.61-2.77,7.13-3.93,10.76-1.1,3.44-2.01,6.95-2.73,10.49-.21,1.05.13,2.7.86,3.37,3.12,2.82,6.41,5.48,9.77,8,2.69,2.01,5.67,1.81,8.11-.47,2.09-1.95,4.08-4.04,5.93-6.22,7.62-8.98,16.47-16.11,27.63-20.44,5.47-2.12,10.57-5.36,15.51-8.58,4.91-3.2,6.92-8.84,5.03-14.3-3.25-9.39-6.63-18.76-10.57-27.87-5-11.57-9.62-23.2-10.93-35.84-.93-9.05-1.48-18.15-2.53-27.18-1.2-10.26-2.26-20.59-4.3-30.7-5.98-29.69-23.56-52.61-45.04-72.54-17.63-16.36-37.97-29.26-60.1-38.84-18.46-7.99-37.76-12.6-58.13-11.07-4.18.31-4.75,1.4-3.02,5.29,1.61,3.6,2.32,7.36,1.4,11.19-1.46,6.08-3.16,12.1-4.73,18.03,10.26-1.5,36.48.72,40.65,3.88-1.55.13-2.6.35-3.64.29-10.31-.6-20.62-1.32-30.94-1.81-2.41-.11-4.87.55-7.45.88.98,3.43,2.48,4.28,5.2,3.6,2.21-.55,4.55-.64,6.83-.75,9.95-.48,19.67,1.15,29.28,3.46,11.35,2.74,22.98,5.02,33.03,11.23,25.11,15.54,44.51,35.78,54,64.71,5.72,17.42,8.71,34.87,6.21,53.02-.73,5.32-2.99,10.44-4.7,15.59-.21.63-1.39.94-2.12,1.4-.26-.81-.85-1.68-.72-2.42.29-1.68.8-3.36,1.47-4.94,3.46-8.24,3.71-16.86,3.56-25.64-.21-12.54-3.61-24.32-7.72-35.99-3.85-10.94-7.53-22.02-15.76-30.63-6.15-6.42-12.39-12.82-19.18-18.54-8.26-6.96-16.91-13.64-27.37-17.12-7.25-2.41-14.59-4.64-22.01-6.43-11.72-2.83-23.64-3.66-35.65-1.96-3.48.5-6.29,2.1-8.86,6.01ZM289.31,159.2c-9.46,1.1-17.2,1.76-24.86,2.95-6.04.94-12.01,2.44-17.98,3.82-27.76,6.44-50.51,20.72-67.54,43.67-5.3,7.14-10.04,14.71-14.9,22.17-2.19,3.36-.88,5.9,3.11,6.5,1.02.15,2.1.06,3.13-.07,3.7-.47,7.39-1.08,11.1-1.52,18.63-2.19,37.32-1.4,56-.91,22.01.57,43.75,3.41,65.14,8.54,15.27,3.66,30.54,7.57,43.46,17.27.45.34,1.01.53,1.55.75,13.43,5.6,26.81,11.32,40.31,16.73,4.48,1.79,9.21,3.13,13.94,4.11,5.48,1.14,11.02-2.06,12.83-7.34,2.08-6.11,3.14-12.4.81-18.77-2.35-6.39-4.97-12.61-9.11-18.13-4.14-5.52-8.17-11.12-11.97-16.87-8.55-12.91-18.57-24.34-31.45-33.16-4.26-2.92-8.18-6.34-12.27-9.5-5.66-4.37-11.79-7.9-18.58-10.16-6.72-2.23-13.41-4.72-20.3-6.3-7.9-1.81-16.01-2.73-22.41-3.78ZM571.27,259.54c1.37-.47,3.96-.98,6.18-2.18,15.23-8.26,30.76-16.06,45.48-25.16,30.96-19.16,62-38.16,94.71-54.23,16.04-7.89,32.5-14.65,50.54-16.42,2.24-.22,2.34-1.52,1.55-2.95-.68-1.21-1.69-2.46-2.87-3.12-3.82-2.13-7.63-4.48-11.73-5.88-15.23-5.19-31.05-7.42-47-9.16-28.08-3.07-54,2-76.74,19.58-10.48,8.1-20.08,17.14-28.85,27.13-12.51,14.25-24.8,28.73-39.37,41.03-1.74,1.48-2.97,3.76-3.95,5.89-.56,1.22-.43,2.96-.1,4.35,1.21,5.11,2.75,10.14,3.97,15.25.88,3.68,3.25,5.82,8.18,5.87ZM469.09,173.51c-.88-6.34-1.4-12.76-2.76-19-1.34-6.13-3.84-11.85-9.65-15.37-4.42-2.67-8.66-5.62-13.14-8.18-2.2-1.25-4.68-2.27-7.16-2.75-15.09-2.94-30.1-1.78-45.09,1.08-19.94,3.8-38.72,10.76-56.53,20.38-1.34.72-3.28,2.55-3.08,3.45.34,1.56,1.88,3.43,3.38,4.07,25.73,10.79,45.58,28.6,61.06,51.43,8.11,11.96,15.53,24.39,23.29,36.59,1.07,1.69,2.19,3.39,3.51,4.89,2.35,2.66,4.17,2.82,6.93.67,1.51-1.17,3.03-2.43,4.14-3.95,9.4-12.81,19.13-25.41,25.87-39.94,4.9-10.58,9.1-21.34,9.22-33.37ZM571.35,126.21c-5.32-.34-14.08,2.55-22.72,5.63-5.82,2.07-8.58,7.65-7.58,13.83.29,1.79.61,3.59.75,5.41.99,12.32,1.59,24.67,3.01,36.94.92,7.95,2.76,15.83,4.64,23.63,1.3,5.44,5.98,7.13,10.67,4.21,2.17-1.35,4.34-2.88,6.05-4.75,11.16-12.25,22.04-24.76,33.33-36.87,7.38-7.89,15.33-15.24,22.99-22.87.78-.77,1.57-1.69,1.94-2.69,1.23-3.28.26-5.81-3.54-8.48-13.63-9.54-29.01-13.46-49.54-13.99ZM359.98,30.63c.12-6.14-1.93-8.86-6.07-8.67-2.14.1-4.5.55-6.3,1.63-12.09,7.22-20.58,17.59-25.5,30.75-1.85,4.94-2.96,10.11-1.54,15.46,1.44,5.45,6.29,7.53,11.38,4.93,8.81-4.52,15.58-10.97,19.44-20.26.81-1.94,1.95-3.73,2.8-5.65,2.75-6.2,5.41-12.43,5.8-18.19Z" fill-rule="evenodd"/><path d="M676.85,632.94c.38,1.36.97,2.69,1.1,4.07,1.38,15.24,2.88,30.47,3.97,45.73.86,12.29-1.49,24.22-5.41,35.85-1.67,4.94.58,7.73,5.69,6.52,7.16-1.7,14.26-3.65,21.29-5.79,5.39-1.65,8.39-5.61,8.86-11.22.43-5.15.69-10.32.84-15.48.11-3.34-.18-6.7-.17-10.06.05-12.32,5.88-18.72,18.08-20.3,7.19-.94,14.62-1.36,21.42-3.6,8.21-2.7,16.06-6.72,23.72-10.8,8.23-4.38,14.28-11.25,18.73-19.4,3.95-7.22,7.74-14.54,11.34-21.94,4.17-8.57,3.52-11.54-3.64-17.76-4.22-3.66-7.57-7.84-9.44-13.14-2.14-6.05-1.04-11.24,3.86-15.61,2.78-2.48,5.4-5.17,7.96-7.88,4.34-4.6,4.64-13.09.75-18.11-.29-.37-.8-.67-.91-1.08-.28-1.03-.73-2.2-.48-3.14.18-.64,1.56-1.5,2.15-1.35,1.04.27,2.44,1.08,2.73,1.97,1.59,4.92,2.71,9.99,4.36,14.88,1.49,4.44.26,7.78-3.06,10.77-2.41,2.18-4.67,4.54-6.93,6.89-3.1,3.22-3.79,6.45-1.3,10.14,2.22,3.3,5.07,6.2,7.87,9.05,4.07,4.14,7.63,8.65,7.55,14.67-.05,3.53-.88,7.26-2.26,10.52-3.25,7.66-7.09,15.07-10.59,22.63-.7,1.53-1.24,3.24-1.35,4.91-.69,11.35.78,22.5,2.72,33.69,1.17,6.81,1.42,13.89,1.12,20.81-.25,5.77-3.37,10.73-7.64,14.73-4.48,4.19-9.01,8.32-13.57,12.42-9.11,8.18-16.99,17.4-23.65,27.67-8.22,12.65-16.78,25.08-28.79,34.49-5.92,4.65-12.2,8.98-18.8,12.58-8.72,4.74-14.83,3.41-21.67-3.77-2.5-2.62-4.85-5.47-6.8-8.51-4.4-6.84-10.6-8.91-18.33-7.82-9.72,1.38-18,5.61-25.23,12.15-3.58,3.24-4.92,7.33-5.31,12.01-.54,6.57-.94,13.18-2.14,19.65-1.81,9.8-7.43,17.46-16.23,21.89-18.26,9.2-37.21,16.74-57.67,19.52-2.91.39-5.95.29-8.88-.01-7.82-.81-11.8-4.59-13.39-12.31-1.9-9.28-6.05-13.74-14.34-15.36-1.5-.3-3.03-.53-4.56-.61-12.05-.65-23.91.51-35.54,3.81-9.73,2.76-16,8.69-17.48,19.06-.38,2.65-1.01,5.27-1.56,7.89-2.28,10.87-10.56,16.75-21.36,14.3-5.42-1.23-10.68-3.61-15.65-6.17-5.09-2.62-8.33-7.15-8.7-13.07-.62-9.67-5.99-12.83-16.44-14.7-2.65-.47-4.35.87-5.39,3.28-1.44,3.34-2.85,6.71-4.5,9.94-4.57,8.92-10.47,11.98-20.37,10.69-11.54-1.51-22.37-5.02-32.28-11.28-8.97-5.66-14.08-13.35-13.41-24.3.01-.19,0-.38-.01-.57-.25-13.16-4.51-19.4-16.97-23.84-4.18-1.49-8.72-2.04-13.13-2.88-2.06-.4-3.58.58-4.9,2.27-6.84,8.8-11.3,9.4-20.32,2.92-6.09-4.37-8.46-12.81-5.81-20.95.89-2.73,1.99-5.39,2.94-8.1,1.24-3.55.36-6.62-2.33-9.15-1.32-1.24-2.7-2.48-4.24-3.41-7.09-4.28-14.62-7.54-22.64-9.66-3.09-.82-5.52-.29-7.79,2.07-2.05,2.12-4.39,4-6.76,5.77-2.9,2.18-6.21,2.43-9.12.3-4.22-3.1-8.38-6.36-12.15-9.99-4.24-4.08-4.28-9.83-4.93-15.25-.73-6.09-1.26-12.21-2.33-18.23-1.51-8.53-5.69-15.62-12.82-20.72-3.58-2.57-7.33-4.89-11.03-7.28-7.66-4.94-12.27-11.38-11.03-21.06.16-1.29-.81-3.38-1.91-4.07-8.1-5.1-10.89-12.98-12.04-21.84-1.32-10.19,2.13-18.39,10.05-24.88,4-3.28,7.94-6.66,11.62-10.28,3.49-3.43,6.27-7.52,5.32-12.74-.49-2.71-2.1-5.2-3.07-7.85-.39-1.05-.44-2.24-.64-3.37,1.15.01,2.47-.35,3.43.09,6.58,3,10.08,12.73,6.56,19.87-2.02,4.1-5.08,7.86-8.29,11.17-3.31,3.42-7.42,6.05-11.06,9.15-9.14,7.76-8.92,23.4.36,31.14,2.41,2.01,5.21,1.76,7.95,1.34,4.25-.66,8.46-1.64,12.71-2.34,7.48-1.23,14.98-2.08,22.55-.46,13.09,2.81,20.43,12.46,19.31,25.78-.3,3.61-.87,7.23-1.62,10.78-.66,3.16-.25,6.07,1.88,8.34,3,3.19,6.03,6.54,9.63,8.94,6.76,4.51,13.83,8.6,20.98,12.46,6.96,3.76,11.41,1.65,13.62-6.09,1.46-5.13,2.63-10.34,4.02-15.5,1.09-4.05,2.22-8.08,3.5-12.08.33-1.05,1.25-1.92,1.9-2.88.34.17.68.33,1.02.49-.67,3.69-1.56,7.35-1.98,11.07-.87,7.59-1.64,15.19-2.14,22.81-.2,3.01.79,5.87,3.65,7.67,1.73,1.09,3.15,1.19,4.35-.75,1.31-2.12,2.68-4.2,4.07-6.26,4.45-6.58,10.08-8.52,17.7-6.12,9.06,2.86,14.56,10.88,14.38,21.21-.07,4.31-.3,8.62-.66,12.92-.67,8.15,2.34,14.42,9.3,18.7,10.58,6.49,21.75,11.73,33.58,15.49,5.72,1.82,10.48.18,13.98-4.54,3.02-4.08,5.63-8.44,8.48-12.64,2.6-3.82,5.73-6.93,10.51-7.89,10.22-2.04,19.08,3.91,20.94,14.23.55,3.01.72,6.08.94,9.14.38,5.41,3.26,9.03,7.89,11.52,5.06,2.72,10.62,3.36,16.15,3.52,14.55.43,29.12.57,43.67.79,1.43.02,2.87-.1,4.3-.27,5.92-.68,9.93-3.82,10.84-9.76.77-5.06,1.26-10.26,1.01-15.35-.52-10.2,2.37-14.83,12.34-17.13,3.87-.89,7.98-1.36,11.94-1.17,9.5.46,17.05,4.65,21.09,13.53,2.29,5.04,5.92,6.51,10.98,6.33,12.17-.43,23.97-2.6,35.38-6.88,1.33-.51,2.62-1.18,3.92-1.77,6.61-3.01,10.42-7.91,10.5-15.39.03-2.88.22-5.75.39-8.62.36-6.31,2.65-11.75,7.53-15.9,6.13-5.21,12.28-10.42,19.95-13.37,11.22-4.32,19.04-2.04,26.12,7.65.97,1.32,1.84,2.69,2.84,3.98,2.76,3.56,4.37,3.56,6.28-.57,1.59-3.44,2.7-7.16,3.55-10.87,2.77-12.01,1.64-24.21,1.53-36.36-.12-12.36-.12-24.72-.13-37.07,0-1.22.29-2.45.45-3.66.36-.07.72-.14,1.09-.21ZM339.42,822.07h-.16c0-1.63.04-3.26,0-4.88-.23-8.26-3.97-14.66-11.24-18.35-6.85-3.48-14.13-6.13-21.27-9.07-.84-.35-1.95-.5-2.78-.25-1.13.34-2.11,1.16-3.15,1.77.95.72,1.81,1.7,2.88,2.1,6.08,2.22,12.55,3.64,18.26,6.57,8.73,4.48,13.38,12.06,13.25,22.18-.03,1.92.14,3.84,0,5.75-.48,7.24,2.74,12.47,8.55,16.46,9.44,6.51,19.9,10.08,31.25,11.39,5.32.61,9.15-1.19,11.44-6.1,1.54-3.3,3.05-6.61,4.67-9.87,2.84-5.71,7.16-8.02,13.38-6.84,3.27.61,6.53,1.53,9.64,2.71,7.65,2.89,12.33,8.16,12.65,16.72.12,3.14,1.37,6.04,4.24,7.4,4.98,2.35,10.03,4.77,15.32,6.17,5.97,1.57,10.46-1.78,11.88-7.86.56-2.42,1.02-4.88,1.24-7.35,1.28-14.34,9.24-23.05,22.73-27.12,11.68-3.53,23.68-4.48,35.79-4.04,6.35.23,12.57,1.38,18.07,4.99.57.37,1.53.17,2.31.23-.01-.81.32-1.91-.09-2.36-1.25-1.39-2.63-2.78-4.21-3.73-5.9-3.55-12.44-3.37-18.96-2.77-13.11,1.2-26.17,2.48-38.61,7.4-6.86,2.72-12.89,6.06-16.22,13.11-2,4.22-4.35,8.28-6.69,12.32-2.53,4.35-6.51,6.4-11.48,6.16-4.84-.23-8.21-2.75-10.05-7.3-.72-1.77-1.5-3.53-2.45-5.18-2.71-4.66-6.1-8.99-11.54-10.14-6.59-1.39-13.38-1.97-20.11-2.61-3.73-.35-6.6,1.57-8.59,4.73-1.78,2.83-3.47,5.72-5.31,8.51-4.54,6.86-9.69,9.59-16.09,7.32-7.62-2.71-15.04-6.06-22.31-9.62-3.68-1.8-5.56-5.43-5.81-9.65-.18-2.96-.28-5.92-.41-8.88ZM534.84,813.85c.58-1.28-.55-2.26-1.95-3.06-5.32-3.06-11.27-3.86-16.98-2.58-15.2,3.41-30.3,7.31-45.36,11.3-6.26,1.66-10.9,5.67-14.09,11.47-1.98,3.59-4.41,6.95-6.89,10.23-2.49,3.31-5.64,3.58-8.61.76-1.57-1.48-2.87-3.34-3.98-5.2-3.38-5.68-7.99-9.64-14.46-11.46-8.73-2.46-17.6-3.49-26.65-3.63-5.11-.08-8.54,1.91-10.77,6.49-1.58,3.26-3.37,6.45-5.39,9.46-2.07,3.07-4.86,5.42-8.75,5.96-8.52,1.17-14.81-3.04-20.04-8.94-1.91-2.16-3.31-5.3-3.69-8.16-.55-4.11-.11-8.39.17-12.58.48-7.26-2.42-12.68-8.6-16.29-5.12-2.99-10.3-5.9-15.62-8.52-3.33-1.64-6.87-2.96-10.46-3.87-2.03-.52-4.35.09-6.54.19-.08.43-.16.87-.23,1.3,1.79.86,3.55,1.8,5.38,2.58,5.77,2.47,11.72,4.59,17.32,7.41,6.72,3.37,11.47,8.74,12.49,16.45.71,5.38.81,10.84,1.02,16.28.15,3.92,1.43,7.53,4.88,9.18,7.56,3.59,15.33,6.76,23.19,9.66,1.72.63,4.52-.02,6.12-1.12,2.3-1.56,4.14-3.93,5.83-6.2,2.17-2.9,3.95-6.09,6-9.09,1.68-2.45,3.94-4.03,6.98-4.58,7.16-1.3,14.03.5,21.01,1.51,6.38.93,10.92,4.45,14.41,9.46,1.9,2.72,3.09,5.92,4.88,8.73,1.04,1.62,2.36,3.49,4.01,4.21,4.12,1.8,10.24-.47,12.59-4.38,1.62-2.69,3.04-5.51,4.4-8.34,3.96-8.27,9.6-14.32,18.82-17.09,8.32-2.5,16.54-5.09,25.2-6.13,5.3-.63,10.56-1.94,15.87-2.14,6.03-.23,12.1.43,18.46.72ZM800.2,678.89c-1.37-8.88-2.68-17.77-4.17-26.63-.16-1-1.21-2.47-2.01-2.59-1.07-.15-2.47.6-3.38,1.37-.81.69-1.25,1.9-1.67,2.95-1.81,4.49-1.15,9.08-.18,13.56,2.63,12.05-.91,22.11-8.85,31.25-8.04,9.24-15.56,18.94-23.31,28.43-6.77,8.29-13.18,16.92-20.45,24.75-5.04,5.44-11.3,9.74-16.95,14.63-4.56,3.95-9.05,7.98-13.47,12.09-1.42,1.33-2.68,3.32-1.15,5.02.64.71,3.14.54,4.29-.11,5.8-3.3,11.88-6.35,17.05-10.5,10.69-8.57,19.25-19.21,26.67-30.68,10.53-16.3,22.94-30.95,38.01-43.17,6.64-5.39,9.53-11.99,9.56-20.36ZM785.84,676.11c-.66-5.12-1.33-10.24-1.95-15.37-.26-2.17-1.4-2.52-3.2-1.7-3.04,1.37-4.99,5.43-4.58,8.79.33,2.73.59,5.56.25,8.27-.72,5.79-4.02,10.52-7.3,15.1-10.42,14.57-20.93,29.08-31.56,43.5-10.83,14.72-22.61,28.54-38.36,38.38-1.69,1.05-2.71,2.61-1.57,4.6.99,1.72,3.37,1.65,5.23.04,6.24-5.38,12.45-10.79,18.71-16.14,8.75-7.47,17.79-14.74,24.3-24.33,9.71-14.29,20.33-27.82,31.66-40.84,4.97-5.72,8.62-12.22,8.38-20.3ZM665.93,761.47c-4.43-2.82-11.81-3.01-16.12-1.04-9.54,4.36-17.62,10.6-24.95,18.06-5.7,5.8-8.77,12.4-8.49,20.56.08,2.29-.14,4.59-.23,6.88-.51,11.88-5.52,21.08-16.07,27-.82.47-1.48,1.21-2.22,1.83.11.21.22.43.33.63.69-.15,1.41-.21,2.06-.46,3.76-1.41,7.49-2.9,11.26-4.29,9.72-3.57,15.29-10.78,17.02-20.68,1.02-5.79.93-11.79,1.08-17.7.15-5.75,2.09-10.57,6.07-14.73,7.51-7.83,16.3-13.23,27.12-15.07.86-.14,1.67-.53,3.13-1ZM563.34,845.8c.08.16.15.32.23.48,1.49-.28,2.99-.51,4.46-.85,13.99-3.14,25.44-11.09,36.7-19.37.98-.72,1.7-1.81,2.44-2.81,4.56-6.15,5.73-13.18,5.36-20.63-.5-9.81,1.15-18.89,8.8-25.98.49-.46.47-1.49.68-2.25-.89.03-1.98-.27-2.63.14-3.29,2.11-6.55,4.3-9.69,6.65-4.02,3.01-6.4,7.14-6.95,12.1-.31,2.74-.15,5.56.09,8.31,1.1,12.24-3.81,21.69-13.73,28.39-7.52,5.07-15.48,9.48-23.23,14.19-.86.52-1.69,1.09-2.52,1.62ZM171.07,668.6c-.24.29-.49.58-.74.87,1.12,1.61,1.93,3.62,3.42,4.76,6.06,4.66,12.48,8.85,18.48,13.58,8.84,6.96,14.96,15.88,16.9,27.11,1.25,7.23,1.69,14.6,2.54,21.91.87,7.53,5.98,12.79,13.49,13.7,1.13.13,2.38-.67,3.57-1.03-.64-1.17-1-2.73-1.97-3.44-2.16-1.56-4.61-2.71-6.96-3.97-3.31-1.77-5.19-4.5-5.38-8.24-.26-4.96-.52-9.93-.5-14.9.03-10.38-2.1-19.84-9.63-27.67-8.58-8.92-18.35-16.16-29.17-22.04-1.13-.61-2.69-.45-4.05-.65ZM223.8,754.6c-.22-.45-.26-.66-.39-.77-.29-.24-.59-.49-.93-.64-9.2-3.94-13.21-11.14-13.81-20.91-.39-6.37-.88-12.87-2.54-18.98-4.53-16.59-17.7-25.72-31.24-34.29-.91-.58-2.51-.08-3.8-.08-.17.42-.34.84-.51,1.27,1.66,1.59,3.17,3.39,5.01,4.73,3.25,2.35,6.72,4.41,10.08,6.62,9.61,6.32,15.67,15.11,17.75,26.41,1.02,5.54,1.87,11.2,1.9,16.8.06,9.46,4.45,15.96,12.33,20.5,2.07,1.19,4.25,1.8,6.15-.66ZM287.93,796.6c.07-.37.14-.75.21-1.13-2.44-3.57-2.8-7.47-1.79-11.54.45-1.85,1.09-3.66,1.72-5.46,3.1-8.91,1.76-14.42-5.57-20.36-8.03-6.5-17-11.34-26.97-14.22-1.13-.32-2.34-.38-3.51-.56-.14.27-.28.54-.42.81.68.57,1.29,1.33,2.07,1.68,2.26,1.02,4.63,1.78,6.88,2.8,6.87,3.09,13.84,5.98,19.14,11.73,3.56,3.87,4.58,8.28,3.6,13.25-.85,4.3-1.92,8.56-2.89,12.84-.94,4.2.16,7.68,3.41,9.52,1.13.64,2.73.45,4.11.63ZM271.52,791.07c.48,5.91,3.78,10.05,9.33,11.18.63.13,1.86-.1,1.96-.42.2-.66-.06-1.55-.36-2.24-.21-.48-.77-.84-1.22-1.19-3.25-2.5-4.62-5.84-4.01-9.84.68-4.43,1.2-8.93,2.52-13.18,2.48-8.01-.21-13.29-7.03-17.11-7.95-4.47-16.35-8.13-24.59-12.08-1.1-.53-2.35-.78-3.56-.98-.4-.06-1.18.37-1.27.71-.1.4.25,1.13.63,1.37.62.4,1.46.45,2.15.77,6.5,2.99,13.31,5.48,19.41,9.14,11.6,6.95,13.35,13.22,8.54,25.74-1.02,2.65-1.68,5.43-2.51,8.14ZM597.75,814.34c-.22-.08-.45-.15-.68-.23-.27.23-.58.43-.78.71-3.68,5.18-8.41,9.16-14.04,12.03-9.7,4.96-19.47,9.78-29.22,14.68-.84.42-1.76.86-2.35,1.54-1.53,1.78-1.05,3.17,1.24,3.69,2.67.62,5.06-.09,7.28-1.71,2.46-1.8,4.98-3.51,7.56-5.15,7.5-4.78,15.18-9.28,22.47-14.35,2.98-2.06,5.24-5.2,7.63-8.02.65-.76.6-2.12.87-3.2Z" fill-rule="evenodd"/><path d="M671.85,614.81c-.43-.79-1.11-1.53-1.27-2.37-2.59-13.9-8.56-26.7-12.92-40.02-.57-1.75-1.74-2.37-3.27-1.72-1.72.72-3.54,1.55-4.87,2.8-9.1,8.48-16.78,18.12-23.3,28.69-4.29,6.95-8.87,13.68-15.19,19-9.28,7.81-20.85,5.65-26.32-5.21-4.65-9.25-8.35-18.89-10.67-29.05-4.04-17.75-4.46-35.75-3.4-53.77,1.36-23.06,4.52-45.91,10.13-68.37,4.43-17.69,11.45-34.29,20.51-50.07,4.84-8.45,10.67-16.13,18.09-22.52,18.58-15.98,39.59-17.81,60.91-5.67,11.91,6.77,21.64,15.9,29.58,26.85,17.15,23.69,31.09,48.99,37.25,77.98,2.39,11.22,3.85,22.49,2.23,33.94-1.68,11.88-6.74,17.12-18.64,18.76-8.63,1.19-17.36,1.54-26.02,2.58-12.95,1.55-24.82,6.33-35.91,13.08-4.04,2.46-4.7,6.75-3.95,10.92,1.32,7.33,3.27,14.54,4.73,21.84,1.23,6.16,2.19,12.38,3.21,18.59.18,1.1.03,2.26.03,3.39-.31.12-.62.24-.92.35ZM677.91,394.67c.35,1.18.38,1.49.53,1.7.28.38.63.72.98,1.04,21.53,19.59,34.35,44.6,43.77,71.51,3.87,11.05,5.61,22.68,3.78,34.53-1.61,10.37-6.99,17.4-17.51,20-3.99.99-7.93,2.19-11.91,3.22-17.3,4.47-34.21,9.9-49.56,19.38-15.34,9.48-27.51,22.13-37.78,36.86-5.4,7.74-10,16.16-17.41,22.38-1.86,1.55-1.39,3.2.41,4.52,1.67,1.23,3.55,1.39,4.99-.11,3.03-3.15,6.18-6.27,8.73-9.81,5.59-7.75,10.72-15.84,16.27-23.63,12.2-17.12,28.42-29.07,48-36.44,14.95-5.63,30.18-10.43,45.85-13.58,7.39-1.49,11.58-5.77,13.31-12.86.36-1.48,1.07-2.96,1.1-4.44.06-7.06.5-14.18-.25-21.17-.76-7.16-2.26-14.34-4.28-21.26-5.34-18.32-15.13-34.46-25.7-50.13-5.06-7.51-11.02-14.25-18.77-19.18-1.25-.79-2.59-1.44-4.56-2.53ZM735.89,480.44c-.41,0-.83,0-1.24,0,0,1.93-.02,3.86,0,5.79.08,7.81,1,15.73.05,23.42-1.38,11.24-7.65,18.59-19.51,21.06-11.11,2.32-22.01,5.64-32.95,8.75-22.23,6.33-40.82,18.27-54.78,36.82-6.9,9.17-13.12,18.84-19.77,28.2-1.99,2.79-4.42,5.27-6.54,7.97-.73.94-1.15,2.13-1.7,3.21,1.36.4,2.76,1.18,4.08,1.08,1.08-.08,2.32-1.02,3.06-1.92,4.32-5.23,8.64-10.46,12.7-15.89,2.57-3.44,4.56-7.32,6.99-10.87,7.84-11.43,16.45-22.18,28-30.17,16.77-11.6,35.35-18.9,55.17-23.29,4.56-1.01,9.28-1.7,13.57-3.44,9.62-3.9,14.67-11.4,16.64-21.63,1.98-10.32-1.36-19.58-3.78-29.1ZM742.19,519.37c-.29-.21-.58-.42-.87-.64-2.48,2.97-4.78,6.11-7.48,8.86-2.75,2.79-5.9,5.18-9.05,7.9,11.84,1.81,19.33-5.3,17.4-16.11Z" fill-rule="evenodd"/><path d="M283.55,663.88c-.19-1.21-.57-2.43-.53-3.63.4-15.19,4.69-29.37,11.14-43.02.75-1.58.96-3.77.5-5.42-.33-1.19-2.15-2.74-3.36-2.8-10.7-.49-21.42-.74-32.13-.94-4.59-.09-9.2.31-13.79.13-10.95-.43-17.14-5.75-19.4-16.45-2.22-10.53-1.6-21.02,1.28-31.29,8.69-31.01,22.02-59.87,41.43-85.64,10.37-13.77,23.23-24.94,39.4-31.71,2.55-1.07,5.2-2.14,7.9-2.55,2.99-.46,3.9-2.05,4.3-4.71,1.06-7.1,1.76-14.31,3.58-21.21,2.16-8.28,5.31-16.31,8.08-24.44.18-.55.69-.99,1.05-1.48.23.08.47.16.69.23-.35,1.78-.65,3.58-1.07,5.34-2.86,12.01-5.41,24.08-6.03,36.46-.03.67-.12,1.34-.11,2.01.06,5.81.46,6.22,6.11,7.12,12.88,2.05,22.65,9.38,31.16,18.69,11.59,12.68,18.95,27.79,24.44,43.86,6.28,18.36,9.92,37.32,12.23,56.57,2.56,21.32,1.82,42.65.44,63.98-.4,6.33-1.47,12.57-4.44,18.31-4.97,9.62-13.3,12.74-23.06,8.2-4.12-1.92-8-4.5-11.69-7.18-4.88-3.54-9.57-7.36-14.17-11.26-9.18-7.77-20.13-12.1-31.13-16.35-7.75-2.99-16.03.97-19.13,8-5.52,12.5-9.64,25.36-11.92,38.82-.14.8-.38,1.57-.57,2.36-.39,0-.78.02-1.17.03ZM239.64,583.72c2.25,1.88,2.25,1.74,7.28,1.69,16.84-.18,33.65-.16,50.35,2.73,19.64,3.4,37.73,10.33,53.81,22.21,6.77,5,13.36,10.26,20.23,15.13,4.8,3.4,10.24,5.58,16.15,6.28.92.11,2.75-.62,2.79-1.08.1-1.18-.23-2.79-1.03-3.54-.94-.88-2.54-1.15-3.89-1.47-1.29-.3-2.67-.22-3.97-.5-5.96-1.29-11.14-4.37-15.57-8.29-8.82-7.81-18.8-13.75-28.85-19.73-14.28-8.5-29.64-13.56-46.09-14.48-15.08-.85-30.23-.55-45.35-.61-1.73,0-3.45.95-5.87,1.67ZM262.45,588.21c-2.4,0-4.8-.15-7.18.03-5.33.4-10.67.85-15.97,1.58-1.09.15-2,1.6-3,2.46,1.12.49,2.22,1.37,3.35,1.4,2.66.07,5.35-.18,8.01-.43,20.44-1.92,40.67-.64,60.64,4.15,11.52,2.76,22.99,5.87,32.89,12.68,8.49,5.85,16.56,12.31,24.94,18.34,4.41,3.17,8.91,6.28,13.69,8.84,2.06,1.1,4.91.83,7.41.93.44.02.93-1.2,1.39-1.85-.59-.32-1.16-.77-1.79-.95-3.46-.98-7.34-1.21-10.34-2.97-6.82-3.99-13.5-8.34-19.71-13.23-11.88-9.37-24.32-17.63-38.78-22.44-18.03-6-36.62-8.51-55.57-8.54ZM242.29,596.97c.07.41.14.82.2,1.24,1.81,0,3.62.07,5.43-.01,13.54-.61,26.97.86,40.44,1.99,29.84,2.49,55.92,12.97,77.26,34.47,3.17,3.19,7.42,5.35,11.34,7.71,1.39.83,3.26.96,4.93,1.15.49.05,1.08-.79,1.63-1.22-.45-.41-.87-.91-1.38-1.21-4.44-2.56-9.12-4.78-13.3-7.71-5.16-3.61-9.79-7.98-14.87-11.72-7.67-5.67-15.05-11.83-24.16-15.23-26.5-9.9-53.86-13.2-81.97-10.65-1.87.17-3.7.79-5.55,1.19Z" fill-rule="evenodd"/><path d="M550.43,677.93c-.36,3.6-.42,7.46-1.19,11.17-1.24,5.97-5.17,9.29-11.26,8.92-4.8-.29-9.63-1.42-14.3-2.71-6.75-1.87-13.41-3.89-20.56-3.36-2.16.16-3.55,1.01-3.91,3.01-1.06,6-2.18,12.02-2.84,18.08-.5,4.56-.24,9.19-.51,13.78-.06,1.01-.96,1.97-1.47,2.95-.54-1.03-1.48-2.04-1.56-3.11-.62-8.97-.96-17.96-1.64-26.93-.29-3.86-2.13-5.06-5.81-4.03-11.78,3.32-22.91,1.32-33.75-3.68-6.09-2.81-9.17-7.66-9.45-14.26-.35-7.94,1.17-15.65,3.44-23.19,4.85-16.07,10.36-31.91,19.01-46.38,3.11-5.22,6.78-10.28,10.99-14.64,8.94-9.26,20.95-10.39,32.04-3.78,5.73,3.41,10.1,8.25,13.86,13.59,12.46,17.71,21.85,36.88,26.64,58.09,1.2,5.29,1.52,10.79,2.27,16.47ZM534.83,647.43c-.42.01-.85.02-1.27.04-.27,1.7-.74,3.4-.76,5.11-.15,10.11-4.13,15.76-13.83,18.54-2.85.82-6.09,1.02-9.05.64-12.07-1.55-24.02-1.39-35.95,1.22-5.79,1.26-11.6.98-17.17-1.52-.82-.37-2.39-.69-2.68-.31-.61.78-.9,2.09-.75,3.11.6,4.18,3.13,5.96,8.13,6.46,6.38.64,12.31-1.14,18.2-3.12,6.06-2.03,12.25-2.94,18.63-2.59,7.35.41,14.7.86,22.05,1.15,4.52.18,8.69-1.25,12.54-3.54,4.15-2.47,7.14-8.19,6.08-12.43-1.09-4.33-2.75-8.51-4.17-12.76ZM459.56,684.13c-.02.31-.05.62-.07.94,1.09.45,2.16,1,3.29,1.33,8.04,2.38,16.01,1.47,23.74-1.1,10.14-3.37,20.3-3.47,30.61-1.26,5.33,1.14,10.65,2.34,16.01,3.37,3.65.71,5.6-.13,7.1-2.85,2.21-4.01,1.7-8.22,1.08-13.01-1.16.68-1.85,1.09-2.55,1.48-3.2,1.82-6.27,3.95-9.65,5.39-6.24,2.65-12.84,1.43-19.29.91-9.94-.79-19.82-1.71-29.58,1.44-5.92,1.91-11.93,3.54-18.28,2.91-.78-.07-1.6.29-2.4.45Z" fill-rule="evenodd"/><path d="M489.44,572.51c-.39-3.24-1.03-6.47-1.11-9.72-.26-11.1.03-22.15,1.38-33.24,1.1-9.07,1.12-18.37.61-27.51-.54-9.73.08-19.31.89-28.95.86-10.21,1.42-20.45,2.12-30.67.59-8.69,1.15-17.38,1.87-26.06.08-.94,1.19-1.8,1.83-2.69.46,1.04,1.35,2.09,1.31,3.11-.41,12.25-1.12,24.49-1.43,36.74-.36,14.17-.62,28.34-.53,42.51.08,12.39-1.19,24.61-2.71,36.9-1.42,11.47-1.47,23.1-2.15,34.65-.1,1.64-.36,3.27-.54,4.91-.51,0-1.03.01-1.54.02Z" fill-rule="evenodd"/><path d="M692.71,253.96c4.49.24,8.99.41,13.47.74,5.66.42,10.73,2.63,15.55,5.48,10.94,6.45,19.76,15.33,28.36,24.5,11.81,12.6,20.09,27.39,27.24,42.93.75,1.64,2.19,3.76-.19,4.93-.59.29-2.95-1.72-3.65-3.1-5.59-11.01-11.12-22.08-18.84-31.79-10.91-13.72-23.16-26.02-39.05-34.1-5.22-2.65-10.82-3.84-16.57-4.2-6.39-.41-12.82-.44-19.22-.64-.66-.02-1.44.12-1.99-.16-.76-.38-1.37-1.08-2.04-1.64.59-.55,1.12-1.46,1.8-1.58,3-.52,6.04-.91,9.07-1.17,2-.17,4.02-.03,6.03-.03,0-.05,0-.11,0-.16Z" fill-rule="evenodd"/><path d="M835.99,730.96c-1.39,4.93-2.26,9.61-4.02,13.91-6.9,17.01-14,33.93-21.22,50.8-1.49,3.48-3.81,6.63-5.79,9.89-.5.81-1.08,1.81-1.86,2.13-1.25.52-2.72.55-4.09.78-.13-1.3-.75-2.83-.28-3.86,1.27-2.77,2.85-5.43,4.58-7.94,8.16-11.88,12.99-25.27,17.73-38.72,2.13-6.04,4.36-12.05,6.45-18.1.9-2.61,1.54-5.31,2.31-7.97.16-.55.15-1.3.5-1.62,1.13-.98,2.39-1.8,3.6-2.69.71,1.14,1.41,2.28,2.08,3.36Z" fill-rule="evenodd"/><path d="M311.02,283.19c-1.58.95-2.8,1.85-4.14,2.47-20.69,9.72-37.06,24.58-50.77,42.61-1.85,2.44-3.73,4.87-5.77,7.15-.61.69-1.8.88-2.71,1.3-.01-.97-.41-2.17.02-2.87,3.75-6.09,7.2-12.45,11.61-18.04,7.66-9.71,16-18.84,26.52-25.69,6.08-3.96,12.54-6.96,19.6-8.66,1.92-.47,3.76-.63,5.64,1.72Z" fill-rule="evenodd"/><path d="M714.39,244.83c14.78-2.14,24.01,7.16,33.16,16.3,3.2,3.2,5.69,7.12,8.35,10.83.47.65.13,1.87.16,2.84-.92-.2-2.06-.12-2.7-.66-1.66-1.4-2.98-3.2-4.63-4.62-5.21-4.46-10.36-9.02-15.81-13.18-5.66-4.3-12.86-3.94-19.38-5.64-2.78-.72-5.56-1.4-8.28-2.28-.66-.22-1.1-1.12-1.64-1.71.64-.49,1.23-1.33,1.91-1.39,2.94-.29,5.9-.34,8.86-.48Z" fill-rule="evenodd"/><path d="M721.35,286.73c-.11,2.2-1.76,2.77-3.73,1.75-3.47-1.81-6.83-3.91-10.46-5.33-4.86-1.91-9.97-3.22-14.92-4.92-.96-.33-1.73-1.22-2.59-1.86.81-.81,1.57-2.27,2.43-2.33,2.72-.18,5.6-.29,8.22.37,7.24,1.83,13.54,5.69,19.42,10.2.77.6,1.24,1.59,1.63,2.11Z" fill-rule="evenodd"/><path d="M109.15,492.09c.25-1.03.24-2.33.85-3.18.62-.89,1.82-1.8,2.82-1.86.86-.05,1.86,1,2.65,1.72.37.34.49,1.03.58,1.59,1.13,7.24,2.28,14.47,3.3,21.73.1.74-.61,1.6-.94,2.41-.72-.31-1.83-.43-2.09-.95-3.23-6.81-6.03-13.78-7.17-21.45Z" fill-rule="evenodd"/><path d="M873.23,649.21c-1.12,6.97-2.13,13.97-3.46,20.9-.22,1.14-1.85,2.02-2.83,3.02-.72-1.19-2.15-2.44-2.06-3.57.43-5.79,1.23-11.56,1.94-17.33.24-1.89.32-3.88.99-5.62.46-1.17,1.83-1.97,2.79-2.94.78,1.16,1.64,2.27,2.27,3.51.27.53.04,1.31.04,1.98.11.02.22.03.32.05Z" fill-rule="evenodd"/><path d="M312.01,300c.43.22,1.64.49,1.75,1,.16.72-.23,1.96-.82,2.39-5.93,4.31-11.92,8.55-17.99,12.66-.62.42-2.09.17-2.77-.31-.42-.3-.48-2.02-.05-2.47,5.24-5.4,10.27-11.15,18.05-13.03.47-.11.95-.13,1.83-.24Z" fill-rule="evenodd"/><path d="M124.52,486.96c.11,2.37.3,4.74.26,7.1-.01.7-.66,1.4-1.02,2.1-.7-.36-1.79-.55-2.03-1.11-2.07-4.79-4.27-9.55-5.85-14.51-1.15-3.61.05-5.99,2.25-6.52,2.12-.51,3.77.94,4.96,4.52.48,1.44.86,2.93,1.16,4.42.27,1.31.37,2.65.54,3.97-.1,0-.19.02-.28.02Z" fill-rule="evenodd"/><path d="M131.69,475.66c-.27.29-.9,1.58-1.66,1.65-.8.08-2.27-.84-2.49-1.6-1.23-4.3-2.23-8.67-3.18-13.05-.19-.88-.06-2.01.36-2.79.49-.88,1.44-2.05,2.24-2.08.82-.04,2.14.97,2.45,1.81.69,1.85.99,3.86,1.25,5.84.41,3.12.65,6.26,1.04,10.22Z" fill-rule="evenodd"/><path d="M838.07,331.62c5.07-.15,11.08,5.32,11.21,9.84.03.52-1.54,1.67-1.74,1.54-3.66-2.31-7.27-4.71-10.73-7.3-.58-.43-.72-1.99-.45-2.83.23-.67,1.39-1.03,1.71-1.25Z" fill-rule="evenodd"/><path d="M142.53,455.1c0,1.3.19,2.14-.05,2.81-.23.62-.86,1.37-1.44,1.5-.6.14-1.63-.2-1.98-.68-2.85-3.9-3.38-8.45-2.99-13.07.07-.88,1.86-2.38,2.61-2.24,1.08.19,2.56,1.5,2.78,2.55.66,3.16.8,6.44,1.08,9.14Z" fill-rule="evenodd"/><path d="M848.71,354.14c3.07.05,9.34,5.64,9.8,8.77.24,1.59-.49,2.3-2.09,2.27-3.53-.06-9.18-4.09-10.28-7.36-.71-2.11.41-3.71,2.57-3.67Z" fill-rule="evenodd"/><path d="M148.93,429.39c.65-2.43.09-5.34,3.37-5.52,3.01-.16,3.32,2.62,3.35,4.76.03,2.34-.49,4.7-.94,7.02-.09.49-.93,1.25-1.32,1.19-.74-.12-1.74-.58-2.02-1.19-.96-2.02-1.64-4.17-2.43-6.27Z" fill-rule="evenodd"/><path d="M898.46,458.76c.03,2.27-.9,3.65-3.35,3.66-2.83,0-5.03-2.11-4.98-4.81.03-2.19,1.65-3.82,3.82-3.83,2.46-.02,4.47,2.2,4.52,4.98Z" fill-rule="evenodd"/><path d="M885.84,428.75c3.83.03,6.79,4.88,5.36,7.53-.13.23-.42.61-.55.58-1.97-.46-4.31-.49-5.77-1.63-1.05-.83-1.28-3.16-1.21-4.79.03-.73,1.72-1.38,2.17-1.7Z" fill-rule="evenodd"/><path d="M863.15,379.84c3.51.08,7.36,3.39,6.79,5.34-.29,1-1.82,2.18-2.89,2.29-2.59.27-6.45-3.04-5.98-5.03.26-1.16,1.62-2.07,2.07-2.6Z" fill-rule="evenodd"/><path d="M170.33,409.63c-.24,1.4-.38,3.02-.81,4.56-.43,1.57-2.26,1.92-3.03.53-.85-1.56-1.54-3.3-1.84-5.04-.33-1.92.3-3.75,2.7-3.85,2.42-.1,2.99,1.57,2.98,3.8Z" fill-rule="evenodd"/><path d="M873.24,398.54c2.99,0,5.99,2.69,5.52,4.57-.26,1.06-1.61,2.37-2.66,2.6-2.06.45-5.39-2.62-4.93-4.48.29-1.18,1.59-2.11,2.08-2.69Z" fill-rule="evenodd"/><path d="M185.65,389.99c-.17,2.05-.91,3.48-3.16,3.29-2.39-.19-3.2-1.84-3.21-3.96,0-2.02,1.08-3.31,3.16-3.22,2.45.11,3.01,1.95,3.2,3.88Z" fill-rule="evenodd"/><path d="M897.63,477.49c2.17.37,4.84,3.07,4.49,4.66-.18.82-1.26,1.91-2.08,2.04-2.1.36-4.53-1.64-4.25-3.52.16-1.13,1.2-2.13,1.84-3.19Z" fill-rule="evenodd"/><path d="M200.74,365.55c.68,1.14,2.02,2.39,1.86,3.39-.18,1.1-1.63,2.61-2.74,2.8-1.83.33-3.12-1.2-2.75-3.02.24-1.18,1.49-2.16,2.29-3.23.45.02.89.04,1.34.06Z" fill-rule="evenodd"/><path d="M225.13,256.26c-1.49.93-2.26,1.59-3.15,1.94-4.54,1.78-9.08,3.58-13.69,5.19-32.77,11.42-58.86,31.9-80.16,58.9-1.48,1.88-3.07,3.68-4.76,5.38-.56.56-1.57.68-2.37,1,.04-.87-.24-1.96.17-2.58,4.17-6.18,8.03-12.64,12.81-18.32,9.39-11.16,19.42-21.79,31.79-29.75,15.16-9.75,30.46-19.32,48.7-22.43,2.45-.42,4.92-.74,7.39-.83.85-.03,1.73.76,3.26,1.51Z" fill-rule="evenodd"/><path d="M179.67,255.49c.65.45,1.65.78,1.87,1.39.22.63-.12,1.7-.58,2.28-.64.8-1.56,1.41-2.46,1.96-13.11,7.98-25.18,17.38-37.15,26.94-.3.24-.6.63-.92.65-.86.06-1.73-.05-2.59-.09.08-.79-.15-1.83.27-2.34,1.83-2.21,3.8-4.3,5.79-6.37,9.34-9.71,20.42-17,32.34-23.1,1.01-.52,2.12-.83,3.43-1.34Z" fill-rule="evenodd"/><path d="M53.86,632.87c.32-.44.82-1.13,1.33-1.81.77.84,1.95,1.57,2.24,2.55,1.5,5.12,2.5,10.41,4.19,15.47,3.71,11.12,7.77,22.14,11.58,33.24.36,1.06-.1,2.4-.17,3.61-1.14-.61-2.68-.94-3.36-1.88-4.07-5.6-5.83-12.19-7.58-18.75-2.64-9.87-5.13-19.79-7.68-29.68-.19-.74-.3-1.49-.54-2.74Z" fill-rule="evenodd"/><path d="M45.6,397.47c.05-.67-.08-1.34.17-1.79.7-1.23,1.4-3.11,2.41-3.34.95-.21,2.91,1.09,3.38,2.18,1.72,4.02,3.07,8.2,4.42,12.37.67,2.08,1.39,4.25,1.44,6.4.03,1.34-.84,3.23-1.92,3.92-1.59,1.03-3.42.19-4.3-1.59-2.83-5.77-5.1-11.73-5.6-18.14Z" fill-rule="evenodd"/><path d="M49.57,437.62c-.7.72-1.51,2.24-2.59,2.46-1.12.23-3.2-.43-3.64-1.32-3.18-6.34-6.07-12.87-5.36-20.22.12-1.23,1.28-2.94,2.37-3.35,1.89-.72,2.51,1.16,2.99,2.64,1.89,5.72,3.76,11.44,5.63,17.17.2.63.3,1.3.6,2.61Z" fill-rule="evenodd"/><path d="M30.62,447.59c.46-.84,1-3.02,1.83-3.13,1.68-.24,3.78.25,5.19,1.2,1.19.8,1.93,2.61,2.37,4.11.94,3.29,1.76,6.64,2.2,10.02.16,1.23-.67,3.45-1.54,3.74-1.14.38-3.35-.25-4.1-1.22-3.15-4.12-5.16-8.84-5.95-14.72Z" fill-rule="evenodd"/><path d="M62.85,392.13c-1.04,1.09-1.83,2.6-2.89,2.83-1.11.24-3.32-.45-3.62-1.25-1.73-4.7-3.19-9.52-4.36-14.4-.22-.92,1.17-3.13,1.96-3.2,1.14-.1,3.04.93,3.5,1.96,1.97,4.43,3.53,9.05,5.41,14.05Z" fill-rule="evenodd"/><path d="M61.52,366.45c.2-1.12.14-2.09.55-2.76.59-.95,1.43-2.15,2.35-2.35.68-.14,2.12,1,2.43,1.85.85,2.38,1.56,4.9,1.74,7.41.07,1-1.3,2.92-2.15,2.99-1.15.1-2.92-.88-3.51-1.91-.9-1.58-1.01-3.61-1.41-5.22Z" fill-rule="evenodd"/><path d="M70.73,350.94c.23-.93.41-2.48,1.02-3.83.32-.71,1.4-1.48,2.13-1.47.73,0,1.84.81,2.08,1.51.61,1.78.97,3.67,1.16,5.55.19,1.88-.5,3.5-2.62,3.77-2.31.3-3.2-1.27-3.58-3.23-.11-.56-.1-1.14-.19-2.3Z" fill-rule="evenodd"/><path d="M89.96,335.08c-.56,2.43-1.21,3.99-3.39,3.98-2.01,0-2.82-1.44-2.66-3.28.17-1.99.41-4.5,2.97-4.29,1.12.09,2.06,2.33,3.09,3.59Z" fill-rule="evenodd"/><path d="M718.81,202.12c.97-.8,1.85-1.77,2.93-2.37,12.02-6.74,24.94-9.29,38.68-8.7,18.11.78,33.5,8.75,48.6,17.65,1.48.88,3.19,2.05,1.97,4.08-1.18,1.97-3,1.14-4.59.35-5.23-2.59-10.47-5.17-15.68-7.82-9.69-4.95-20.04-6.64-30.83-6.78-11.3-.15-22.32,1.5-33.28,3.99-2.37.54-4.9.39-7.36.56-.15-.32-.29-.64-.44-.96Z" fill-rule="evenodd"/><path d="M907.34,307.65c1.61.82,3.44,1.34,4.73,2.48,3.2,2.84,6.21,5.91,9.19,8.99,1.2,1.24,1.95,3.11.2,4.19-.87.54-2.99.09-3.95-.67-3.66-2.9-7.06-6.1-10.55-9.22-.64-.57-1.36-1.15-1.73-1.88-.4-.79-.79-1.93-.48-2.6.27-.61,1.5-.79,2.6-1.29Z" fill-rule="evenodd"/><path d="M841.36,231.68c-1,.5-1.66,1.12-2.28,1.08-.92-.06-1.9-.43-2.65-.95-4.72-3.24-9.43-6.49-13.98-9.94-.73-.54-.68-2.1-.98-3.2,1.19-.16,2.77-.9,3.52-.4,4.66,3.13,9.19,6.49,13.66,9.9,1,.77,1.61,2.05,2.71,3.51Z" fill-rule="evenodd"/><path d="M930.25,344.73c.05,2.23-2.4,3.75-4.28,2.43-3.17-2.24-6.3-4.68-7.65-8.56-.26-.76-.16-1.95.29-2.58.36-.51,1.87-.93,2.22-.63,3.16,2.77,6.19,5.7,9.23,8.61.17.16.15.54.2.74Z" fill-rule="evenodd"/><path d="M898.48,287.23c4.37-.51,7.41,2.43,8.7,6.81.13.42-1.22,1.83-1.48,1.73-3.51-1.35-7-2.78-10.36-4.45-.64-.31-1.15-1.92-.9-2.66.25-.74,1.46-1.26,2.34-1.65.44-.2,1.1.12,1.71.21Z" fill-rule="evenodd"/><path d="M888.3,269.41c-.82-.25-2.38-.47-3.68-1.16-1.52-.79-3.38-2.25-2.06-3.95.88-1.16,3.4-1.97,4.82-1.6,1.58.42,3.01,2.19,4.04,3.7,1,1.49-.3,2.93-3.11,3.01Z" fill-rule="evenodd"/><path d="M941.7,384.16c-2.6-.02-5.79-4.1-4.92-6.57.23-.67,1.92-1.56,2.26-1.33,1.85,1.23,3.81,2.54,5.08,4.3,1.22,1.7-.27,3.63-2.42,3.61Z" fill-rule="evenodd"/><path d="M497.52,152.25c-.17.34-.59,1.19-1.02,2.04-.52-.79-1.37-1.52-1.51-2.37-2.69-16.36-9.95-30.8-18.55-44.71-6.48-10.49-15.8-18.21-25.48-25.4-7.5-5.58-15.34-10.84-23.55-15.29-6.57-3.57-13.92-5.7-20.93-8.47-.44-.18-.98-.19-1.35-.46-.68-.49-1.27-1.12-1.91-1.69.84-.25,1.73-.84,2.49-.69,2.71.53,5.45,1.1,8.03,2.03,23.14,8.35,43.37,21.39,59.25,40.1,12.65,14.9,20.68,32.51,24.22,51.93.14.75.16,1.52.3,2.97Z" fill-rule="evenodd"/><path d="M229.6,197.4c16.06.79,31.71,4.89,46.74,11.45.72.31,1.07,1.49,1.59,2.26-.92.23-1.93.84-2.75.64-8.19-1.91-16.33-4.09-24.53-5.93-10.69-2.39-21.49-1.91-32.31-.86-1.98.19-4.04.31-5.99-.01-.98-.17-2.38-1.33-2.49-2.19-.11-.85,1-2.47,1.86-2.72,3.38-.97,6.85-1.65,10.33-2.19,2.36-.36,4.77-.3,7.55-.46Z" fill-rule="evenodd"/><path d="M247.77,184.98c10.24.89,19.33,3.56,27.62,8.63,1.25.76,1.89,2.5,2.82,3.79-1.51.09-3.09.52-4.51.22-9.87-2.17-19.71-4.44-29.53-6.82-1-.24-2.4-1.36-2.47-2.16-.07-.89.99-2.29,1.92-2.73,1.4-.68,3.11-.72,4.15-.92Z" fill-rule="evenodd"/><path d="M274.61,174.3c1.98.86,3.79,1.34,5.23,2.33,1.87,1.28,3.53,2.92,5.13,4.53.43.43.66,1.53.41,2.03-.23.48-1.38.97-1.86.78-3.52-1.38-7.04-2.82-10.41-4.53-.68-.34-1.14-2.08-.9-2.96.23-.85,1.49-1.41,2.4-2.19Z" fill-rule="evenodd"/><path d="M714.6,150.88c.84.54,2.07.9,2.24,1.54.22.81-.15,2.16-.76,2.72-1.25,1.14-2.81,1.96-4.29,2.83-10.08,5.85-20.18,11.67-30.26,17.5-.42.24-.81.7-1.22.72-1.04.04-2.09-.12-3.12-.2.17-1.02-.01-2.46.6-3,2.48-2.22,5.03-4.45,7.87-6.18,7.82-4.79,15.77-9.38,23.72-13.95,1.54-.89,3.36-1.29,5.23-1.97Z" fill-rule="evenodd"/><path d="M691.48,149.55c-1.08,1.39-1.38,2.05-1.88,2.38-4.82,3.19-9.64,6.39-14.57,9.41-.82.5-2.19.13-3.3.16.4-1.04.53-2.34,1.23-3.09,4-4.2,8.84-7.2,14.3-9.13,1.01-.36,2.32.11,4.22.26Z" fill-rule="evenodd"/><path d="M387.04,143.77c1.83.76,3.52,1.1,4.76,2.03,11.32,8.5,20.49,18.66,24.28,32.74.25.95-.18,2.08-.29,3.12-1.13-.46-2.64-.59-3.31-1.42-3.32-4.08-6.16-8.58-9.66-12.47-5.5-6.11-11.45-11.81-17.08-17.8-.92-.98-1.68-2.61-1.58-3.88.06-.82,1.8-1.52,2.87-2.34Z" fill-rule="evenodd"/><path d="M412.14,151c.87-1.36,1.21-2.5,1.87-2.74.84-.3,2.41-.22,2.84.34,1.71,2.23,3.42,4.58,4.51,7.14,1,2.32,1.31,4.97,1.7,7.51.12.75-.33,1.89-.91,2.36-.39.31-1.92,0-2.2-.48-2.7-4.67-5.25-9.43-7.81-14.13Z" fill-rule="evenodd"/><path d="M565.31,160.95c.19-.94.24-1.43.4-1.87,2.41-6.61,4.71-13.27,7.34-19.8.81-2,2.29-4.71,5.06-3.35,2.77,1.35,1,3.92.24,5.81-2.48,6.2-5.16,12.31-7.77,18.46-.26.61-.48,1.38-.97,1.72-.79.54-1.9,1.22-2.65,1.01-.76-.22-1.23-1.44-1.65-1.98Z" fill-rule="evenodd"/><path d="M581.93,152.36c2.24-3.51,4.49-7.2,6.97-10.73.42-.6,2.06-.93,2.71-.58.56.3,1.02,2.04.66,2.63-2.25,3.71-4.7,7.31-7.2,10.86-.29.4-1.49.58-1.96.31-.5-.28-.62-1.22-1.18-2.49Z" fill-rule="evenodd"/></svg>