<?xml version="1.0" encoding="UTF-8"?><svg id="Layer_1" xmlns="http://www.w3.org/2000/svg" viewBox="0 0 959.19 906.1"><path d="M505.37,708.47c2.91,7.67,5.48,15.07,8.49,22.28,8.84,21.12,16.48,42.77,27.15,63.08,6.27,11.92,13.3,23.44,20.01,35.14,1.82,3.18,3.79,6.28,5.52,9.51,5.54,10.35,12.75,19.35,21.62,27.01,1.61,1.39,2.64,2.89,2.31,5.13-.33,2.23-1.32,4.02-3.47,4.8-10.34,3.77-20.71,7.43-31.65,9.18-9.42,1.52-18.91,2.19-28.4,2.78-11.47.7-22.78-.72-33.95-3.21-19.08-4.24-37.25-11.06-54.56-20.05-37.68-19.59-70.5-45.51-99.68-76.3-18.7-19.73-35.4-40.93-49.96-63.85-16.38-25.8-29.48-53.25-40.05-81.87-7.18-19.45-12.89-39.39-16.31-59.9-2.5-14.98-4.03-30.07-4.75-45.23-.93-19.73-.89-39.46.77-59.15,2.14-25.34,6.17-50.37,12.34-75.06,7.16-28.62,16.38-56.54,27.61-83.82,7.55-18.34,15.29-36.58,23.87-54.47,14.47-30.15,33.56-57.07,56.73-81.05,18.86-19.52,40.78-34.9,65.57-46.08,1.54-.69,3.1-1.33,4.59-2.11,2.89-1.51,5.76-1.17,8.63-.04,2.29.9,2.68,1.55,2.7,4.01.05,4.95.09,9.91.16,14.87.45,33.05,2.63,65.98,7.28,98.72.79,5.59,1.92,11.13,2.79,16.7.29,1.85.52,3.76.33,5.61-.14,1.39-.67,2.98-1.56,4.02-14.47,16.87-26.3,35.54-36.95,54.94-10.69,19.47-20.37,39.48-28.42,60.21-10.7,27.55-18.25,55.96-22.24,85.28-.8,5.89-1.63,11.79-2.24,17.7-.3,2.84-.23,5.74-.16,8.61.08,3.53,1.81,6.45,3.84,9.18,1.22,1.63,3.07,2.26,5,2.17,2.17-.09,4.36-.32,6.47-.82,3.85-.92,7.68-1.99,11.47-3.14,11.4-3.47,23.01-5.88,34.75-7.93,13.28-2.32,26.45-5.27,39.66-7.93,1.84-.37,3.7-.71,5.56-.97,1.8-.25,3.16.5,3.71,2.25.47,1.5.83,3.05,1.03,4.61,1.87,14.65,3.63,29.31,5.55,43.95.98,7.47,2.17,14.91,3.39,22.34.26,1.6-.07,2.88-.77,4.25-5.36,10.42-11.51,20.36-17.95,30.14-4.09,6.21-8.09,12.48-12.08,18.75-4,6.28-8.1,12.49-13.45,17.74-1.2,1.18-2.49,2.27-3.74,3.4-2.58,2.33-5.41,2.8-8.47,1.05-3-1.73-6.14-3.29-8.93-5.32-9.37-6.84-18.77-13.65-27.87-20.84-14.97-11.82-28.38-25.35-41.63-39.04-15.68-16.19-30.32-33.27-44.44-50.81-12.57-15.61-22.47-32.88-31.4-50.74-.93-1.86-1.85-3.73-2.82-5.57-.36-.7-.75-1.48-1.35-1.92-.56-.42-1.52-.76-2.1-.56-.57.2-1.15,1.08-1.26,1.75-.14.83.05,1.79.33,2.61.85,2.43,1.7,4.87,2.77,7.21,4.21,9.32,8.94,18.36,14.18,27.14,1.1,1.85,2.09,3.87,2.66,5.93,5.27,19.09,13.17,37.15,20.99,55.27,12.48,28.9,28.69,55.63,45.97,81.84,15.67,23.76,33.43,45.81,53.06,66.35,13.88,14.52,29.53,27.04,46,38.52,6.03,4.2,12.46,7.74,19.19,10.72,1.36.6,2.74,1.18,4.16,1.6,4.5,1.36,8.7.65,12.3-2.38,1.88-1.58,3.58-3.44,5.04-5.42,1.7-2.3,3.24-4.77,4.51-7.33,7.21-14.46,14.32-28.97,21.47-43.46.29-.6.63-1.17,1.07-1.98ZM485.14,835.22c-.31.09-.61.17-.91.26-.05.69-.33,1.48-.1,2.06.6,1.45,1.35,2.86,2.21,4.17,3.67,5.6,8.53,10.13,13.36,14.67,9.53,8.97,19.45,17.45,30.78,24.11.68.4,1.33.91,2.07,1.14.54.16,1.19-.05,2.5-.15-.96-1.15-1.4-1.89-2.03-2.39-1.53-1.25-3.14-2.41-4.75-3.56-3.62-2.59-7.5-4.87-10.85-7.76-10.8-9.32-21.1-19.17-30.06-30.32-.65-.81-1.48-1.49-2.23-2.23ZM507.16,850.99c.31,2.51,2.17,3.86,3.66,5.32,8.5,8.33,17.52,16.04,27.49,22.6.74.49,1.5,1.07,2.33,1.25.63.14,1.54-.12,2.02-.55.25-.22.03-1.36-.33-1.79-.62-.75-1.49-1.29-2.27-1.88-5.37-4.06-10.83-8-16.08-12.2-4.79-3.84-9.34-7.96-14.01-11.94-.71-.61-1.3-1.59-2.81-.81ZM566.71,872.96c-.18-.33-.38-.91-.75-1.35-1.05-1.3-2.09-2.64-3.27-3.83-6.04-6.11-12.78-11.53-17.96-18.48-.23-.31-.5-.66-.84-.82-.41-.19-1-.39-1.32-.22-.33.18-.64.82-.59,1.19.11.76.34,1.57.76,2.21,1.13,1.73,2.21,3.56,3.63,5.04,4.92,5.14,9.95,10.17,15,15.19.97.96,2.14,1.77,3.33,2.45,1.11.63,2.1-.02,2.01-1.38ZM401.82,245.18c.77,4.72,2.13,9.36,3.96,13.87.82,2.03,1.88,2.83,2.91,2.31,1.56-.79,1.4-2.26,1.08-3.64-1.02-4.33-2.08-8.65-3.18-12.96-.19-.74-.58-1.51-1.08-2.08-1.08-1.21-2.73-.87-3.34.64-.21.54-.21,1.16-.33,1.86ZM489.97,873.63c-.38-.43-.77-1.18-1.39-1.57-5.98-3.69-12-7.34-18.02-10.99-.33-.2-.75-.42-1.1-.38-.53.05-1.17.2-1.52.55-.21.21-.09,1.01.15,1.33.53.7,1.15,1.41,1.88,1.87,5.46,3.4,10.95,6.75,16.46,10.08.58.35,1.27.61,1.94.71.92.15,1.5-.34,1.59-1.6ZM307.53,270.69c-.25-.38-.5-1.22-1.06-1.57-.97-.61-1.69.18-2.17.95-.62,1-1.15,2.08-1.68,3.14-2.44,4.95-3.06,10.41-4.2,15.71-.12.58.48,1.33.74,2,.45-.31,1.15-.52,1.32-.94,2.18-5.41,4.3-10.84,6.38-16.28.31-.82.39-1.73.67-3.02ZM312,284.48h.77c1.14-2.15,2.5-4.22,3.38-6.47,1.07-2.74,1.84-5.61,2.51-8.48.14-.61-.54-1.85-1.12-2.07-.55-.21-1.58.38-2.2.87-.5.4-.71,1.16-1.03,1.77-2.05,3.96-2.45,8.3-2.83,12.63-.05.56.34,1.16.52,1.74ZM331.79,269.48c-.04-.59,0-1.19-.13-1.76-.43-1.94-2.3-2.6-3.83-1.39-2.33,1.84-3.29,8.24-1.61,10.77.67,1,1.86,1.18,2.41.2,1.38-2.46,3.28-4.74,3.15-7.82ZM366.48,262.6c-.18-1.21-.13-2.37-.57-3.31-.31-.67-1.28-1.41-1.96-1.43-.68-.02-1.79.71-1.99,1.34-.92,2.84-.68,5.71.81,8.31.83,1.44,2.38,1.23,2.86-.35.46-1.5.59-3.1.86-4.56ZM415.13,244.96c.22,1.74.28,3.03.59,4.26.14.57.72,1.35,1.21,1.43.43.07,1.28-.59,1.46-1.09,1.02-2.81,1.5-5.73.88-8.71-.12-.56-.82-1.41-1.21-1.39-.64.03-1.6.54-1.8,1.09-.58,1.54-.84,3.2-1.13,4.41ZM378.01,257.41c-.3-.89-.59-2.26-1.24-3.43-.3-.54-1.41-1.09-1.95-.93-.7.2-1.66,1.1-1.67,1.71-.01,1.41.28,2.92.84,4.22.43,1.02,1.29,2.23,2.69,1.91,1.59-.37,1.01-1.9,1.32-3.48Z" fill="#fe9520" fill-rule="evenodd"/><path d="M726.27,645.69c-.91-.52-1.78-.94-2.58-1.48-4.52-3.05-9.08-6.05-13.53-9.2-17.31-12.27-34.56-24.62-51.88-36.88-4.04-2.86-8.23-5.53-12.43-8.17-1.84-1.15-3.79-2.16-5.8-2.99-3.47-1.42-6.64-.79-9.22,2.01-8.46,9.19-16.96,18.34-25.3,27.65-6.02,6.72-11.65,13.8-17.74,20.44-3.6,3.93-7.61,7.53-11.71,10.94-4.22,3.5-5.98,3.45-10.73.54-2.7-1.66-5.36-3.42-7.86-5.37-7.66-5.98-15.39-11.87-22.79-18.16-12.24-10.39-24.42-20.88-36.28-31.7-7.24-6.6-14.4-13.35-20.55-21.05-2.93-1.69-2.96-4.64-3.27-7.49-1.99-18.53-4-37.07-5.96-55.6-.24-2.26-.3-4.55-.26-6.82.02-1.27.25-2.58.64-3.79,1.05-3.22,3.07-5.28,6.55-6.19,17.09-4.44,34.39-7.85,51.68-11.4,18.54-3.81,36.85-8.69,54.69-15.15,1.68-.61,3.44-.97,5.12-1.55,1.97-.68,3.95-1.34,5.82-2.23,4.7-2.23,6.68-6.12,6.09-11.17-.32-2.73-.93-5.5-1.86-8.09-3.44-9.53-7.72-18.67-13.33-27.17-6.06-9.19-11.91-18.51-17.87-27.75-6.74-10.43-14.56-20.06-22.33-29.7-13.4-16.63-28.36-31.83-43.8-46.55-9.97-9.5-19.79-19.19-31.32-26.92-5.23-3.5-10.65-6.54-16.64-8.46-1.59-.51-2.46-1.45-3.14-2.86-2.05-4.24-2.99-8.79-4.05-13.33-2.7-11.53-3.3-23.33-4.42-35.06-2.26-23.8-3.19-47.68-3.08-71.59.02-5.15.6-10.31.48-15.46-.14-5.72,2.44-10.09,6.04-14.08,5.31-5.88,12.3-8.67,19.88-9.82,9.86-1.5,19.75-1.34,29.54.97,6.08,1.43,12.24,2.52,18.27,4.13,4.09,1.1,8.2,2.46,11.99,4.33,19.61,9.72,38.27,20.97,54.89,35.32,14.41,12.45,28.47,25.27,39.85,40.73,8.64,11.73,17.67,23.19,26.25,34.96,4.07,5.6,7.8,11.5,11.18,17.54,12.35,22.07,24.15,44.45,33.21,68.12,3.01,7.85,5.63,15.9,7.65,24.05,1.4,5.65.88,11.57-.61,17.34-1.46,5.65-2.62,11.39-3.79,17.12-4.05,19.81-8.39,39.57-11.98,59.48-5.43,30.14-10.05,60.43-12.81,90.96-.33,3.65-.57,7.33-.55,10.99.05,7.31,3.11,10.26,10.36,9.52,4.6-.47,9.2-1.49,13.63-2.8,7.69-2.29,15.25-5.02,22.88-7.52,1.59-.52,3.24-.99,4.89-1.2,2.22-.28,3.3.42,4.21,2.49.43.99.81,2.05.97,3.12.92,6.17,1.83,12.34,2.6,18.53.55,4.42.92,8.87,1.29,13.31.24,2.86.4,5.73.47,8.61.28,11.39.57,22.79.75,34.19.13,8.83-.28,17.64-1.96,26.34-.05.26-.21.51-.43.99ZM596.69,209.07c-.31-.65-.57-1.19-.82-1.72-4.33-9.14-10.65-16.88-17.15-24.51-.76-.89-1.74-1.64-2.74-2.24-.47-.28-1.46-.28-1.83.04-.38.34-.5,1.25-.37,1.83.14.63.67,1.19,1.08,1.75,1.29,1.76,2.59,3.5,3.9,5.25,3.9,5.24,7.77,10.51,11.74,15.71,1.26,1.64,2.76,3.11,4.22,4.58.26.26.92.27,1.34.17.27-.06.43-.56.64-.86ZM533.71,220.87c1.67.05,2.36-1.27,1.56-2.81-2.04-3.89-4.97-7.06-8.39-9.79-.83-.66-1.84-.88-2.7-.07-.9.85-.62,1.85.06,2.65,2.55,2.99,5.14,5.96,7.78,8.88.5.56,1.27.86,1.7,1.14ZM595.01,194.9c-.11-.95.04-1.79-.3-2.32-1.89-2.98-3.87-5.92-5.9-8.81-.49-.7-1.23-1.33-2-1.69-.52-.25-1.46-.21-1.88.12-.41.33-.51,1.19-.53,1.82-.02.45.27.95.52,1.36,2.31,3.73,5.57,6.57,8.84,9.4.12.1.37.05,1.25.13ZM532.84,204.51c-.54.31-1.33.51-1.46.91-.2.66-.26,1.69.12,2.15,2.27,2.75,4.68,5.38,7.05,8.05.13.15.31.34.47.35.73.04,1.59.24,2.14-.07.37-.21.39-1.19.4-1.82,0-.36-.24-.77-.49-1.06-2.1-2.5-4.2-4.99-6.38-7.43-.43-.48-1.17-.69-1.84-1.08ZM514.9,227.88c-.63-1.92-4.39-7.03-5.56-7.52-.62-.26-1.74-.35-2.07,0-.37.41-.42,1.69-.06,2.08,1.71,1.85,3.56,3.58,5.48,5.23.39.34,1.25.14,2.22.21Z" fill="#fe9520" fill-rule="evenodd"/><path d="M330.08,880.39c-37.26-.35-73.46-6.63-107.97-20.86-28.19-11.63-55.48-25.21-80.27-43.14-17.21-12.45-33.33-26.28-46.74-42.95-4.97-6.18-10.07-12.27-14.89-18.57-23.25-30.38-40.69-63.79-51.7-100.48-4.2-13.99-6.67-28.36-9.07-42.74-2.96-17.74-4.54-35.59-4.43-53.58.21-33.65,5.79-66.46,15.1-98.76,8.58-29.78,20.43-58.16,35.28-85.3,10.15-18.55,21.75-36.2,34.38-53.16,10.9-14.64,22.28-28.89,35-42.03,13.91-14.36,29.39-26.88,45.24-39,21.84-16.69,45.42-30.44,70.14-42.37,9.69-4.68,19.58-8.65,30.09-11,1.43-.32,2.93-.43,4.39-.37,1.3.06,1.95.97,1.53,2.29-.29.93-.61,1.9-1.16,2.68-.97,1.37-2.03,2.71-3.23,3.88-13.35,13.08-25.08,27.57-36.73,42.12-4.53,5.65-8.92,11.4-13.45,17.05-12.82,16.03-23.3,33.54-32.4,51.87-9.12,18.38-18.41,36.7-26.75,55.44-14.64,32.91-27.49,66.53-36.3,101.54-5.89,23.4-9.89,47.14-11.86,71.21-1.05,12.85-1.85,25.71-1.74,38.62.21,27.07,4.83,53.42,12.32,79.39,8.79,30.5,22.47,58.62,40.02,84.94,14.62,21.93,30.92,42.51,50.1,60.64,23.96,22.65,50.99,40.9,80.73,55.16,15.82,7.59,31.58,15.32,47.95,21.71,1.16.45,2.68.73,2.76,2.34.09,1.74-1.41,2.3-2.68,2.76-1.09.4-2.3.61-3.46.63-6.74.05-13.48.03-20.22.03ZM310.04,877.43c.4-.26,1.29-.51,1.55-1.06.49-1.04-.39-1.61-1.27-1.94-.74-.28-1.5-.49-2.26-.71-10.18-2.99-20.14-6.59-29.74-11.11-10.31-4.85-20.56-9.82-30.83-14.73-1.43-.68-2.87-1.36-4.33-1.96-.98-.41-2.24-1.12-2.96.06-.86,1.41.6,2.12,1.5,2.75,1.78,1.25,3.62,2.43,5.52,3.5,19.1,10.72,39.38,18.57,60.41,24.54.66.19,1.33.37,2.41.66ZM263.63,866.01c-.87-.57-1.73-1.31-2.73-1.78-8.87-4.17-17.5-8.82-25.79-14.04-9.62-6.07-19.08-12.39-28.62-18.6-.58-.37-1.14-.89-1.78-1.04-.57-.14-1.51-.06-1.79.31-.3.39-.21,1.32.05,1.84.34.68.95,1.27,1.56,1.76,2.15,1.74,4.3,3.49,6.55,5.12,13.84,10.03,28.91,17.9,44.35,25.12,1.88.87,3.86,1.52,5.79,2.3.91.37,1.73.51,2.41-.99ZM175,261.85c-1.6-.98-2.77-.04-3.78.8-3.49,2.91-7.01,5.81-10.31,8.93-6.55,6.2-12.76,12.71-17.14,20.72-.43.78-1.03,1.52-1.24,2.35-.16.64.19,1.41.31,2.11.61-.19,1.37-.21,1.81-.6.8-.71,1.41-1.65,2.12-2.47,3.81-4.42,7.51-8.94,11.48-13.2,4.51-4.85,9.28-9.45,13.91-14.2,1.21-1.24,2.6-2.43,2.84-4.44ZM162.66,296.02c.43-.29,1.06-.59,1.5-1.07,2.49-2.67,5.05-5.29,7.38-8.1,4.43-5.32,8.71-10.76,13.06-16.15.31-.39.78-.72.9-1.16.17-.59.08-1.26.11-1.89-.64,0-1.45-.25-1.88.05-1.69,1.19-3.34,2.47-4.86,3.88-5.38,5.04-9.65,10.99-13.82,17.01-1.24,1.79-2.3,3.69-3.39,5.58-.49.86-.23,1.51.99,1.85ZM231.81,840.98c-.32-.39-.66-1.02-1.18-1.4-1.6-1.16-3.23-2.28-4.92-3.31-8.66-5.24-16.82-11.16-24.32-17.95-.51-.46-1.05-.96-1.67-1.21-.47-.19-1.36-.22-1.59.06-.35.45-.56,1.31-.36,1.81.27.68.95,1.23,1.51,1.77,8.36,7.96,18.03,14.17,27.65,20.43.9.58,1.92,1.04,2.95,1.35,1.01.29,1.71-.22,1.92-1.56ZM193.3,273.4c-2.06-.97-3.1.07-3.74,1.08-1.91,2.98-3.66,6.06-5.34,9.18-.28.52.12,1.4.2,2.1.69-.24,1.66-.26,2.01-.74,2.04-2.78,3.99-5.63,5.84-8.53.54-.85.67-1.97,1.03-3.08Z" fill="#fe9520" fill-rule="evenodd"/><path d="M398.52,881.32c-.88-.1-1.53-.09-2.13-.27-23.13-7.16-45.98-15.08-67.76-25.77-13.08-6.42-26.24-12.7-39.1-19.56-31.94-17.05-59.64-39.38-82.62-67.48-15.09-18.46-29.11-37.63-40.83-58.44-13.62-24.21-23.06-49.99-29.61-76.91-7.53-30.97-8.87-62.3-6.09-93.96,4.18-47.6,16.47-93.19,33.54-137.65,12.56-32.72,27.51-64.34,43.61-95.45,10.2-19.71,22.26-38.2,36.23-55.43,10.37-12.78,20.64-25.66,31.49-38.02,10.86-12.38,22.6-23.96,35.81-33.89,13.69-10.28,28.41-18.86,44.15-25.62,3.53-1.52,7.3-2.5,11.03-3.46,1.47-.38,3.17-.25,4.69.05,1.94.38,2.36,1.85.95,3.26-1.46,1.46-3.17,2.7-4.79,4-10.46,8.39-20.4,17.29-29.34,27.33-23.41,26.27-42.32,55.45-56.84,87.46-15.58,34.33-30.07,69.09-40.61,105.36-10.32,35.53-17.42,71.68-19.6,108.67-1.58,26.67-1.02,53.31,1.86,79.9,2.01,18.6,6.19,36.69,11.17,54.7,6.83,24.69,16.62,48.21,28.09,70.97,16.93,33.59,37.49,64.85,62.81,92.86,12.79,14.14,25.93,27.91,40.39,40.32,18.41,15.8,38.29,29.53,59.39,41.53,13.04,7.43,26.44,14.04,40.62,19.02,1,.35,2.06.86,2.78,1.6,1.46,1.5.89,3.39-1.16,3.76-2.04.36-4.15.57-6.21.49-6.93-.26-13.86-.65-20.78-1.05-3.07-.18-6.14-.4-9.18-.86-2.62-.4-5.28-.91-7.76-1.81-12.27-4.45-23.63-10.75-34.59-17.75-7.68-4.9-15.1-10.22-22.64-15.34-2.21-1.5-4.43-3-6.72-4.37-.46-.28-1.25.01-1.9.04.05.71-.16,1.65.22,2.09.88,1.05,1.98,1.94,3.09,2.77,11.33,8.55,23.11,16.42,35.35,23.61,1.22.71,2.66,1.28,3,3.31ZM409.64,875.13c-.38-1.23-.39-1.86-.71-2.16-.65-.6-1.44-1.04-2.21-1.49-18.44-10.72-36.11-22.6-53.17-35.39-.55-.42-1.11-.89-1.74-1.1-.49-.16-1.33-.18-1.61.12-.39.43-.66,1.27-.52,1.81.19.71.75,1.39,1.3,1.93.93.89,1.92,1.73,2.98,2.45,8.28,5.63,16.52,11.3,24.88,16.79,8.61,5.66,17.35,11.13,26.74,15.44,1.12.51,2.28.91,4.05,1.6ZM235.12,320.25c.49-.46,1.08-.82,1.38-1.34.54-.94.92-1.97,1.35-2.97,5.77-13.38,11.63-26.72,19.15-39.26,1.5-2.5,2.57-5.25,3.81-7.82-1.33-1.08-2.15-.46-2.79.33-1.18,1.46-2.49,2.89-3.34,4.53-5.09,9.86-10.2,19.71-15.03,29.71-2.02,4.17-3.41,8.66-4.96,13.05-.39,1.11-1,2.45.42,3.78ZM228.65,308.27c.95-1.18,1.72-1.89,2.18-2.76,2.74-5.15,5.42-10.33,8.09-15.52,2.36-4.57,4.7-9.14,7-13.74.57-1.14.99-2.37,1.35-3.6.11-.39-.07-1.13-.36-1.29-.43-.24-1.17-.31-1.6-.1-.59.29-1.1.85-1.49,1.4-1.16,1.6-2.47,3.15-3.32,4.91-4.24,8.82-8.35,17.71-12.48,26.58-.29.62-.54,1.34-.49,1.99.05.56.54,1.09,1.11,2.15ZM267.57,269.8q-2.58,1.23-3.97,3.86c-3.33,6.34-7.85,19.3-7.49,21.59,1.59.31,2-.92,2.45-1.97,2.81-6.64,5.61-13.29,8.35-19.96.37-.92.38-1.98.66-3.52ZM235.19,277.51c-.03-1.84-1.41-2.69-2.62-1.71-.97.78-1.89,1.83-2.37,2.97-1.63,3.8-3.08,7.69-4.51,11.57-.19.52-.1,1.51.26,1.8.85.7,1.48-.12,1.86-.79,2.31-4.03,4.58-8.07,6.82-12.14.33-.59.43-1.3.56-1.71ZM342.36,829.32c-.27-.34-.63-.94-1.12-1.37-4.16-3.65-8.35-7.27-12.54-10.89-.84-.72-1.82-1.56-2.84-.58-1.07,1.03-.15,1.96.6,2.78.07.07.14.14.21.21,3.77,3.34,7.53,6.71,11.34,10,.73.63,1.65,1.11,2.57,1.44.97.36,1.87-.39,1.79-1.59ZM346.09,842.75c-.2-.64-.2-1.01-.38-1.18-1.81-1.67-3.61-3.36-5.52-4.9-.38-.31-1.25-.01-1.9,0,.06.72-.17,1.77.22,2.11,1.86,1.59,3.86,3.05,5.9,4.42.31.21,1.08-.27,1.68-.45Z" fill="#fe9520" fill-rule="evenodd"/><path d="M731.14,644.8c.58-5.21,1.26-10.4,1.7-15.62.47-5.73.88-11.46,1-17.2.16-7.93.2-15.87-.04-23.8-.21-6.83-.75-13.66-1.41-20.46-.71-7.3-1.79-14.55-2.56-21.84-.27-2.54-.23-5.14-.1-7.71.15-2.94.92-3.68,3.76-4.56,8.43-2.6,16.86-5.18,25.27-7.85,2.35-.75,4.62-1.78,6.89-2.77,4.51-1.97,6.79-5.58,7.41-10.36.85-6.59-.11-13.05-1.45-19.48-2.29-10.9-6.02-21.36-9.73-31.83-7.07-19.95-15.75-39.18-25.61-57.89-4.25-8.08-8.91-15.9-14.19-23.38-3.2-4.53-5.88-9.42-9.04-13.99-1.96-2.84-4.29-5.43-6.58-8.01-2.07-2.33-2.78-5.2-3.56-8.05-2.32-8.51-4.23-17.15-6.99-25.51-5.01-15.18-11.62-29.73-18.95-43.92-4.46-8.63-9.23-17.1-13.81-25.67-7.74-14.49-17.51-27.62-27.42-40.65-6.06-7.97-12.22-15.87-18.49-23.67-7.71-9.61-16.44-18.31-25.57-26.53-9.13-8.22-18.59-16.09-28.21-23.73-10.82-8.59-22.68-15.64-34.87-22.13-.35-.19-.72-.34-1.06-.55-1.8-1.1-2.14-2.72-.51-4.08,1.23-1.03,2.84-2.06,4.38-2.22,5.7-.58,11.45-1.09,17.18-1.11,14.39-.05,28.72,1.34,43.04,2.61,6.95.62,13.64,2.49,20.35,4.26,22.51,5.92,44.41,13.36,64.56,25.32,13.02,7.72,25.12,16.63,36.09,27.07,9.78,9.3,19.33,18.79,27.85,29.3,3.23,3.99,5.51,8.37,7.34,13.14,3.17,8.24,6.01,16.58,8.14,25.14,1.17,4.7,1.93,9.51,3.15,14.2,3.41,13.1,4.79,26.51,6.22,39.91,1.37,12.91,2.64,25.84,3.85,38.77,1.13,12.04,2.05,24.1,3.22,36.14,1.16,11.94,2.49,23.86,3.82,35.79.24,2.15.68,4.32,1.3,6.4,1.59,5.3,4.99,8.73,10.66,9.44,2.06.25,4.15.49,6.22.44,6.84-.18,13.67-.5,20.5-.76.98-.03,1.99-.11,2.95.03,2.56.38,4.75,1.32,5.69,4.07.63,1.86,1.59,3.63,2.11,5.52,3.02,11.03,4.65,22.31,5.96,33.64.96,8.36,1.9,16.74,2.65,25.13.46,5.13.57,10.29.76,15.44.04,1.07-.18,2.17-.43,3.22-2.9,12.26-6.36,24.36-10.34,36.32-2,6.02-3.38,12.23-5.24,18.28-1.9,6.15-4.06,12.22-6.13,18.32-.21.61-.6,1.15-1.16,2.2-.64-1.37-1.09-2.31-1.52-3.26-3.34-7.41-6.63-14.84-10.03-22.23-.82-1.79-1.83-3.55-3.03-5.1-2.65-3.41-6.21-3.41-9.07-.15-.78.89-1.48,1.88-2.08,2.9-6.14,10.42-12.3,20.83-18.35,31.3-10.97,18.98-21.86,37.99-32.8,56.98-1.02,1.76-2.21,3.43-3.31,5.14-.14-.12-.28-.24-.41-.35ZM654.28,166.12c-3.84-6.58-8.77-11.33-14.33-15.5-.39-.29-.86-.66-1.3-.66-.73,0-1.71.05-2.11.5-.4.45-.45,1.49-.24,2.14.22.7.83,1.34,1.4,1.86,3.67,3.32,7.35,6.62,11.09,9.86.88.76,1.97,1.35,3.05,1.81.58.24,1.34.02,2.44,0ZM653.6,144.08c-1.82-.09-2.77,1.19-2.19,2.58.26.62.7,1.21,1.19,1.68,3.16,3,6.3,6.02,9.55,8.92,1.25,1.11,2.7,2.01,4.16,2.84.46.27,1.23,0,1.85-.02-.13-.52-.13-1.12-.41-1.55-.64-.98-1.42-1.87-2.11-2.82-2.86-3.97-6.25-7.41-10.04-10.47-.68-.55-1.51-.89-2-1.17ZM641.29,163.9c-.08-.16-.17-.44-.34-.67-.98-1.34-1.88-2.77-2.99-3.98-1.66-1.81-3.41-3.54-5.26-5.15-.77-.67-1.92-.68-2.68.22-.84.99-.22,1.88.48,2.62,1.71,1.78,3.41,3.58,5.25,5.24,1.17,1.05,2.52,1.92,3.87,2.74.8.49,1.75-.09,1.68-1.01ZM671.5,151.62c-.93-1.63-1.68-3.09-2.56-4.46-.47-.73-1.08-1.45-1.81-1.9-.56-.35-1.52-.55-2.08-.31-.97.43-.86,1.38-.43,2.28,1.13,2.38,3.24,3.61,5.46,4.68.3.15.83-.16,1.42-.3Z" fill="#fe9520" fill-rule="evenodd"/><path d="M399.79,256.38c-6.83-.02-12.22-1.53-17.48-3.67-.82-.34-1.63-.71-2.46-1.05-3.64-1.48-7.34-1.75-10.93,0-3.99,1.95-8.02,3.89-11.78,6.24-11.52,7.22-22,15.8-32.1,24.88-6.18,5.55-12.33,11.16-19.33,15.7-2.75,1.78-5.62,3.3-8.86,4.04-5.01,1.15-8.22-.75-8.9-5.87-.35-2.57-.1-5.33.45-7.88,1.23-5.83,3.63-11.27,6.22-16.62,4.62-9.55,9.51-18.95,15.88-27.47,1.99-2.66,4.54-4.92,6.96-7.23,1.08-1.02,2.51-1.72,4.1-1.19,2.11.71,4.1.1,6.1-.37,4.72-1.11,8.77-3.62,12.62-6.43,4.95-3.62,9.77-7.42,14.71-11.05,3.36-2.47,6.99-4.48,10.9-5.97,6.46-2.46,13.1-2.59,19.83-1.49,4.29.7,8.58,1.4,12.85,2.19,2.84.53,5.56.14,7.99-1.28,3.15-1.84,6.23-3.84,9.14-6.03,3.04-2.28,6.23-3.72,10.1-3.67,2.39.03,3.9,1.13,4.92,3.17,1.66,3.34,2.04,6.96,2.31,10.6.39,5.17-.83,10.03-3.11,14.63-2.81,5.68-5.78,11.24-10.13,15.97-5.7,6.2-12.4,10.05-19.96,9.83Z" fill="#feb520" fill-rule="evenodd"/><path d="M489.57,173.01c10.13.1,18.46.95,26.77,2.3,7.98,1.29,16.03,2.21,24.07,3.12,2.54.28,5.14.12,7.7-.06,2.91-.21,5.68-1.11,7.87-3.08,2.35-2.11,4.59-4.36,6.7-6.71,2.5-2.79,4.75-5.81,7.24-8.61,2.32-2.62,4.01-2.95,7.09-1.42,4.82,2.39,9.2,5.46,12.85,9.43,2.94,3.2,5.67,6.6,8.49,9.9.26.3.54.59.75.92,1.22,1.9.7,3-1.5,3.15-1.09.08-2.18-.03-3.27.03-3.12.19-5.98,1.27-7.6,3.96-1.08,1.78-1.34,4.08-1.87,6.17-.72,2.86-1.03,5.88-2.08,8.61-2.41,6.2-7.22,10.01-13.34,12.27-5.15,1.9-10.54,2.62-15.97,2.85-4.63.2-9.29.23-13.92,0-5.61-.29-11.2-.96-16.81-1.42-4.13-.34-8.27-.6-12.41-.9-4.03-.29-8.08-.95-12.1-.8-9.02.34-17.92,1.39-25.68,6.79-2.33,1.62-4.99,2.81-7.57,4.04-1.04.5-2.27.72-3.44.82-4.92.43-7.51-1.32-8.66-6.11-2.57-10.64-1.54-20.79,4.35-30.24,1.82-2.92,4.43-5.05,7.15-7.02,5-3.61,10.29-6.74,16.54-7.54,3.42-.43,6.91-.38,8.65-.46Z" fill="#feb520" fill-rule="evenodd"/><path d="M227.26,250.21c-1.08,1.5-2.16,3-3.24,4.49-3.62,4.95-7.26,9.88-10.87,14.85-2.03,2.8-4.08,5.6-6,8.47-3.07,4.6-5.93,9.36-9.1,13.89-2.61,3.72-5.36,7.37-8.39,10.75-2.4,2.68-5.44,4.48-9.34,4.51-2.93.02-6.6-3.17-6.21-6.28.33-2.64.24-5.34.24-8.01,0-3.26-1.23-4.3-4.46-3.57-2.21.5-4.36,1.28-6.48,2.07-2.32.86-4.58,1.87-6.86,2.83-5.32,2.22-10.82,3.72-16.5,4.69-2.89.49-5.03-.52-6.73-2.68-1.3-1.66-1.16-3.64-.34-5.36,1.27-2.67,2.62-5.36,4.36-7.72,9.05-12.33,20.56-21.86,33.97-29.14,4.03-2.19,8.42-3.39,12.85-4.46,2.61-.62,4.93.38,6.99,1.78,2.2,1.49,4.24,3.24,6.3,4.93,2.27,1.86,4.7,3.5,7.76,2.99,2.51-.42,5.06-1.04,7.38-2.06,3.24-1.43,6.28-3.32,9.41-5.01,1.55-.84,3.1-1.68,4.65-2.53.21.19.41.37.61.56Z" fill="#feb520" fill-rule="evenodd"/><path d="M594.34,149.9c2.39.33,4.15.54,5.91.81,3.75.58,7.49.54,11.2-.19,3.24-.63,5.64-2.28,6.53-5.68.3-1.14.85-2.23,1.13-3.38,1.32-5.46,5.15-6.78,9.1-6.87,4.78-.12,9.5.54,14.01,2.08,7.01,2.39,13.95,5.02,20.88,7.64,2.68,1.01,5.3,2.2,7.88,3.45,1.23.59,2.4,1.4,3.43,2.3,2.84,2.5,2.57,5.84-.83,7.47-2.46,1.19-5.17,2.06-7.86,2.56-6.98,1.3-14.03,2.22-21.03,3.47-7.36,1.32-13.56,4.7-18.27,10.68-.93,1.17-2.36,2.08-3.74,2.73-1.58.75-3.29.66-4.75-.58-3.09-2.61-6.18-5.22-9.27-7.82-4.54-3.82-9.08-7.62-13.6-11.47-.89-.76-1.87-1.55-2.44-2.54-.49-.85-.91-2.24-.54-2.98.44-.89,1.75-1.34,2.25-1.69Z" fill="#feb520" fill-rule="evenodd"/><path d="M228.84,288.44c.39-1.6.65-3.12,1.13-4.56,1.87-5.58,4.91-10.57,7.96-15.55,3.72-6.08,8.21-11.62,12.82-17.03,1.39-1.63,3.16-3,4.91-4.26,1.76-1.27,3.13-.79,4.06,1.16.34.71.52,1.49.81,2.22.97,2.48,2.78,3.68,5.47,3.78,3.17.11,6.14-.58,8.83-2.12,3.85-2.2,7.57-4.65,11.34-6.99.88-.55,1.83-1.81,2.79-.81.54.56.55,2.1.21,2.96-1.3,3.3-2.66,6.59-4.31,9.71-3.75,7.07-7.51,14.15-11.6,21.03-2.36,3.97-5.28,7.63-8.1,11.3-2.82,3.66-8.11,4.8-12.24,2.67-1.47-.76-2.9-1.78-4-3-2.76-3.05-6.05-3.89-9.92-2.97-3.25.77-6.49,1.56-10.17,2.46Z" fill="#feb520" fill-rule="evenodd"/><path d="M131.2,275.5c1.73-2.1,3.21-4.49,5.26-6.22,7.2-6.1,13.31-13.29,20.17-19.72,3.53-3.31,7.14-6.55,10.77-9.76,1.03-.91,2.2-1.7,3.41-2.37.78-.43,1.75-.51,2.63-.75.11.18.21.35.32.53-.37.51-.66,1.09-1.1,1.53-4.34,4.32-8.67,8.65-13.07,12.91-1.84,1.78-3.7,3.58-5.78,5.07-6.54,4.67-12.7,9.77-18.34,15.49-1.24,1.26-2.42,2.59-3.63,3.89-.21-.2-.43-.4-.64-.6Z" fill="#feb520" fill-rule="evenodd"/><path d="M205.3,302.28c3.91-6.6,7.83-13.2,11.74-19.81.15.05.29.1.45.15-.17.54-.29,1.09-.51,1.61-1.79,4.37-3.67,8.71-5.37,13.12-.57,1.47-1.39,2.55-2.74,3.32-1.1.62-2.15,1.32-3.22,1.99-.11-.13-.23-.26-.34-.39Z" fill="#feb520" fill-rule="evenodd"/><path d="M283.56,275.5c-1.2,4.73-2.4,9.47-3.62,14.28-.84-1.62-1.66-3.23-2.59-5.02,1.92-3.02,3.95-6.21,5.97-9.39.08.05.16.09.25.14Z" fill="#feb520" fill-rule="evenodd"/><path d="M312.12,226.32c-.52,4.33-4.04,6.32-6.84,9.38.39-4.81,1.72-8.4,6.84-9.38Z" fill="#feb520" fill-rule="evenodd"/><path d="M251.63,236.6c-1.82,2-3.64,4-5.45,6-.14-.08-.27-.16-.4-.23,1.06-1.86,2.02-3.8,3.25-5.54.37-.53,1.51-.52,2.29-.75.1.18.21.35.31.52Z" fill="#feb520" fill-rule="evenodd"/><path d="M575.04,149.21c.54-.11,1.08-.22,1.62-.33.05.25.1.51.15.76-.56.09-1.11.17-1.67.26-.04-.23-.07-.46-.11-.7Z" fill="#feb520" fill-rule="evenodd"/><path d="M866.08,262.51c4.81,4.74,9.36,9.27,13.18,14.47,2.57,3.52,4.96,7.18,7.63,10.63,8.49,10.99,14.58,23.36,20.73,35.69,8.34,16.7,15.6,33.85,21.12,51.71,2.92,9.47,6.22,18.84,8.84,28.38,3.33,12.17,5.08,24.66,6.1,37.23,1.11,13.74,2.57,27.46,3.23,41.21,1.18,24.51.38,48.93-4.05,73.19-4.56,24.98-12.53,48.73-24.12,71.29-1.54,2.99-3.21,5.93-4.95,8.81-.52.87-1.4,1.69-2.31,2.13-1.19.58-2.14-.33-1.89-1.67.15-.77.48-1.51.73-2.26,6.72-20.16,12.66-40.52,15.47-61.64,1.36-10.21,2.41-20.49,3.07-30.76.76-11.67,1.07-23.37,1.3-35.07.27-13.49-.39-26.95-2.18-40.35-.43-3.23-.82-6.47-1.25-9.7-.05-.37-.24-.72-.54-1.6-.32.97-.62,1.45-.63,1.95-.06,5.24-.12,10.49-.09,15.74.08,14.47.51,28.93-.23,43.41-.96,18.73-2.45,37.4-5.61,55.9-5.63,32.97-15.97,64.33-31.24,94.18-15.22,29.75-35.38,55.64-59.21,78.83-4.19,4.07-8.74,7.77-13.15,11.61-.7.61-1.54,1.07-2.28,1.58-1.44-1.27-.65-2.19-.1-3.08,3.17-5.15,6.28-10.34,9.54-15.43,10.23-15.96,19.76-32.31,26.74-50.01,3.25-8.23,5.38-16.79,6.87-25.51.32-1.87.63-3.89-.77-5.53-1.58.25-1.55,1.41-1.77,2.3-3.68,14.74-8.21,29.22-14.71,42.97-3.97,8.42-8.44,16.62-13.16,24.64-5.63,9.56-11.71,18.86-17.73,28.19-1.55,2.4-3.53,4.53-5.44,6.67-1.97,2.22-4.08,4.33-6.17,6.45-.69.7-1.42,1.41-2.26,1.91-5.28,3.14-10.6,6.23-15.91,9.32-.51.3-1.06.6-1.63.71-1.99.39-3.27-1.09-2.59-3.02.26-.73.66-1.45,1.14-2.06,11.96-15.26,19.59-32.79,26.47-50.7,3.34-8.69,6.82-17.35,8.95-26.46.18-.77.91-1.46,1.48-2.1,1.12-1.25,2.5-2.3,3.42-3.67,8.97-13.32,17.89-26.68,26.78-40.05,1.37-2.06,2.66-4.2,3.78-6.4,7.36-14.5,14.95-28.89,20.47-44.24.46-1.28,1.01-2.53,1.51-3.79.21-.02.43-.03.64-.05.48,1.21,1.06,2.39,1.43,3.63,1.96,6.44,3.87,12.9,5.79,19.35.14.48.26.96.39,1.43.4,1.42,1.09,2.6,2.7,2.81,1.71.22,2.82-.71,3.57-2.14.37-.7.7-1.43.98-2.17,10.01-26.56,18.9-53.46,24.84-81.26,2.2-10.27,4.46-20.54,6.29-30.88,2.14-12.11,3.71-24.31,4.37-36.6.68-12.67,1.81-25.32,1.69-38.03-.17-17.28-1.46-34.44-4.37-51.49-.8-4.67-.87-9.46-1.24-14.19-.11-1.38-.02-2.78-.14-4.16-.1-1.1-.35-2.35-1.81-2.24-1.19.09-1.51,1.11-1.52,2.21,0,.4,0,.79-.03,1.19-.75,9.18-1.25,18.39-2.34,27.52-.96,7.96-2.45,15.87-3.99,23.74-.74,3.77-2.2,7.4-3.22,11.12-2.55,9.26-4.53,18.73-7.66,27.79-8.66,25.03-18.2,49.72-30.54,73.23-.45.86-.95,1.7-1.63,2.91-.72-.85-1.33-1.43-1.78-2.11-4.38-6.49-8.76-12.99-13.1-19.5-2.19-3.3-4.09-6.8-7.1-9.5-.48-.43-.66-1.39-.66-2.11.01-13.22-1.41-26.33-3.51-39.35-1.76-10.95-3.94-21.82-5.81-32.75-.4-2.33-.44-4.74-.36-7.11.1-3.24,1.21-4.45,4.47-4.79,8.97-.96,17.95-1.77,26.92-2.71,3.55-.37,7.08-.84,10.61-1.41,1.75-.28,3.49-.78,5.17-1.35,7.7-2.59,10.45-6.56,9.33-14.6-.71-5.07-1.82-10.19-3.54-15-2.3-6.42-4.84-12.86-8.18-18.78-10.93-19.33-22.12-38.55-35-56.66-16.8-23.61-35.11-46.06-55.07-67.09-6.4-6.74-13.21-13.12-21.05-18.32-2.25-1.49-4.22-3.69-5.73-5.96-18.76-28.04-42.1-51.51-70-70.46-.41-.28-1-.47-1.18-.86-.3-.64-.64-1.55-.39-2.08.26-.54,1.17-.97,1.85-1.07.63-.1,1.35.25,2,.48,4.48,1.61,9.02,3.05,13.39,4.91,30.68,13.05,58.68,30.51,84.69,51.34,14.19,11.37,27.56,23.58,40.26,36.58,13.77,14.1,25.57,29.76,36.83,45.88,8.35,11.96,16.42,24.1,22.56,37.39,3.86,8.36,7.46,16.86,11.18,25.29.32.72.52,1.55,1.01,2.13.36.43,1.11.53,1.69.77.23-.6.61-1.19.64-1.8.03-.56-.32-1.13-.51-1.7-8.37-25.19-20.34-48.6-35.03-70.67-.66-.98-1.27-2.01-1.76-3.08-.5-1.08-.76-2.24.46-3.69Z" fill="#fe9520" fill-rule="evenodd"/><path d="M513.65,711.78c.91.59,1.43.86,1.86,1.23,14.07,11.82,29.1,22.31,44.56,32.19,14.72,9.41,29.95,17.88,46.03,24.76,1.54.66,3.14,1.24,4.76,1.68,3.72,1.01,6.91-.02,9.33-2.98,1.31-1.6,2.49-3.36,3.44-5.19,3.26-6.23,6.54-12.47,9.55-18.82,5.64-11.91,11.07-23.93,16.66-35.86,1.72-3.67,3.66-7.24,5.61-11.07.76.44,1.38.68,1.85,1.11.96.85,1.9,1.74,2.72,2.73,16.27,19.6,33.19,38.66,48.76,58.83,1.19,1.54,1.95,3.17,2.37,5.05.97,4.32,1.14,8.57-.12,12.91-3.33,11.43-6.81,22.79-12.14,33.5-5.94,11.94-12.7,23.43-21.87,33.15-7.01,7.43-15.27,13.46-24.49,18.15-12.06,6.13-24.92,7.71-38.14,7.04-5.69-.29-11.18-2.01-15.72-5.67-3.46-2.79-6.9-5.69-9.86-8.99-13.78-15.33-25.36-32.21-35.01-50.43-8.44-15.96-16.36-32.16-23.31-48.82-4.5-10.78-8.44-21.81-12.64-32.72-1.17-3.05-2.38-6.09-3.54-9.15-.26-.69-.38-1.45-.68-2.64ZM648.71,855.81c.24.07.48.15.72.22.58-.71,1.34-1.35,1.71-2.16,1.56-3.41,3.08-6.84,4.48-10.33,6.34-15.77,8.74-32.19,7.88-49.12-.09-1.76-.47-3.52-.86-5.25-.1-.46-.85-1.15-1.17-1.09-.55.11-1.28.65-1.44,1.16-.35,1.11-.52,2.32-.52,3.5-.01,4.26.24,8.52.08,12.77-.2,5.22-.4,10.49-1.16,15.65-1.39,9.55-4.6,18.6-8.29,27.5-.68,1.63-1.18,3.35-1.62,5.07-.16.64.11,1.38.18,2.08ZM670.24,810.77c-.43.58-.88.98-1.05,1.48-.39,1.12-.75,2.27-.94,3.43-1.35,8.32-3.05,16.55-6.14,24.43-.18.45-.4.98-.31,1.43.15.81.29,1.92.84,2.28,1.05.67,1.88-.24,2.32-1.16.73-1.51,1.35-3.08,1.95-4.65,2.91-7.56,4.39-15.41,4.63-23.49.04-1.21.44-2.62-1.3-3.74ZM680.75,821.58c-.19-1.17-.17-1.91-.44-2.52-.28-.65-.84-1.18-1.28-1.76-.55.48-1.42.88-1.58,1.46-.66,2.47-1.18,4.99-1.6,7.51-.15.89.23,1.96,1.33,1.95.63,0,1.57-.59,1.8-1.14.77-1.91,1.29-3.92,1.77-5.5Z" fill="#fe9520" fill-rule="evenodd"/><path d="M795.76,655.78c.39.98.64,1.49.8,2.04,2.99,10.48,5.96,20.96,8.97,31.43.71,2.47.67,4.79-.28,7.24-5.87,15.05-11.32,30.26-17.54,45.15-7.02,16.8-17.58,31.44-29.61,45.02-5.72,6.45-11.66,12.7-17.53,19.02-1.01,1.09-2.07,2.15-3.22,3.08-8.89,7.13-17.78,14.25-26.73,21.31-4.16,3.29-9.02,5.33-13.75,7.62-2.84,1.37-4.6-.82-4.07-3.23.25-1.13.71-2.28,1.33-3.26,8.87-13.88,15.31-28.83,20.06-44.58,2.17-7.19,4.09-14.53,8.03-21.04,2.67-4.41,5.42-8.77,8.36-12.99,10.25-14.72,20.63-29.35,30.88-44.08,3.73-5.37,7.27-10.87,10.81-16.38,7.5-11.67,14.94-23.38,22.42-35.07.21-.32.49-.6,1.07-1.29ZM762.81,738.05c-.94,1.12-1.72,1.73-2.06,2.53-.89,2.09-1.73,4.22-2.34,6.41-3.24,11.54-8.48,22.17-14.58,32.42-2.94,4.93-6.35,9.58-8.51,14.95-.4,1-1.74,2.22-.31,3.11,1.4.87,1.96-.78,2.7-1.61,4.1-4.65,6.91-10.15,10.04-15.42,6.75-11.36,12.57-23.15,15.46-36.18.4-1.82.89-3.62-.4-6.21Z" fill="#fe9520" fill-rule="evenodd"/><path d="M531.3,357.32c4.28,3.44,13.36,14.17,15.71,18.53-15.86,8.87-31.73,17.74-47.76,26.71-9.97-12.21-20.1-24.6-30.36-37.15,2.76-3.05,6.87-4.94,9.25-8.52-.91-1.55-1.89-.89-2.7-.46-2.18,1.17-4.32,2.42-6.46,3.66-1.02.6-2.01,1.25-3.36,2.08-2.84-2.95-5.67-5.9-8.49-8.83,12.72-10.57,25.24-20.99,37.89-31.5,3.92,3.53,7.81,7.03,11.98,10.78-1.18.95-2.19,1.84-3.26,2.62-4.88,3.56-9.78,7.09-14.67,10.64-.56.41-1.27.73-1.62,1.27-.36.57-.65,1.48-.45,2.05.31.88,1.24.86,2.02.45.79-.41,1.54-.9,2.29-1.38,5.7-3.57,11.37-7.21,17.12-10.71,2.53-1.54,2.62-1.44,4.81.53,5.6,5.04,10.8,10.46,15.81,16.44-.68.56-1.21,1.09-1.83,1.49-7.63,4.98-15.29,9.9-22.88,14.93-1.8,1.19-3.46,2.64-5.06,4.1-.72.65-2.06,1.38-1.09,2.65.91,1.2,2.05.25,2.95-.19,1.86-.92,3.71-1.9,5.41-3.07,7.75-5.32,15.45-10.72,23.17-16.08.49-.34.98-.66,1.6-1.06Z" fill="#d17532" fill-rule="evenodd"/><path d="M576.17,418.45c-17.79,6.6-35.33,13.1-53.1,19.69-4.75-7.34-9.46-14.61-14.1-21.8,16.3-8.83,32.4-17.56,48.77-26.43,6.39,9.08,12.99,18.07,18.43,28.54Z" fill="#d17532" fill-rule="evenodd"/><path d="M798.68,293.4c5.45-3.29,10.94-6.6,16.74-10.1,13.88,17.15,26.82,35.09,37.38,55.13-8.36,3.84-17.01,6.82-25.77,10.32-3.67-8.03-7.27-15.93-10.99-24.08.62-.55,1.24-1.13,1.9-1.67,2.08-1.68,4.19-3.33,6.25-5.04.61-.5,1.24-1.06,1.6-1.73.28-.51.42-1.46.13-1.83-.31-.4-1.24-.55-1.82-.44-.75.14-1.44.63-2.13,1.02-2.67,1.5-5.33,3.02-8.14,4.62-5.05-8.72-10.03-17.34-15.15-26.19Z" fill="#d17532" fill-rule="evenodd"/><path d="M744.51,435.32c2.17,3.42,13.12,33.1,13.67,37.16-10.25,3.34-20.56,6.71-31.19,10.18-3.4-10.84-6.82-21.74-10.32-32.9,9.86-3.63,18.5-9.45,27.83-14.44Z" fill="#d17532" fill-rule="evenodd"/><path d="M492.27,319.02c-13.01,10.58-25.59,20.81-38.17,31.04-5.74-4.54-11.3-8.94-17.08-13.51,5.89-5.49,11.97-10.95,17.82-16.65,5.88-5.72,11.54-11.68,17.46-17.71,6.69,5.64,13.25,11.17,19.96,16.82Z" fill="#d17532" fill-rule="evenodd"/><path d="M577.87,421.22c3.93,5.03,8.13,14.36,8.43,18.68-2.89,1.03-5.84,2.12-8.83,3.13-8.54,2.9-17.06,5.84-25.64,8.62-5.27,1.71-10.63,3.14-15.94,4.74-1.15.34-2.08.5-2.78-.77-2.38-4.32-4.8-8.62-7.41-13.28,17.34-7.55,34.88-13.96,52.16-21.12Z" fill="#d17532" fill-rule="evenodd"/><path d="M875.58,381.66c-11.62,1.84-22.92,3.64-34.19,5.43-2.73-8.06-5.36-15.8-8.04-23.71,9.4-3.29,18.71-6.54,28.29-9.89,5.31,8.85,10.11,18.12,13.94,28.17Z" fill="#d17532" fill-rule="evenodd"/><path d="M767.04,250.63c4.41-3.4,8.71-6.71,13.01-10.03,3.04,2.36,25.82,29.74,27.79,33.46-5.14,3.42-10.3,6.84-15.51,10.31-8.48-11.32-16.89-22.54-25.29-33.74Z" fill="#d17532" fill-rule="evenodd"/><path d="M716.42,380.89c5.66,7.99,10.49,16.23,14.75,24.92-8.58,5.15-16.95,10.17-25.39,15.23-.01,0-.26-.08-.32-.23-2.71-7.12-5.42-14.25-8.09-21.38-.24-.64-.26-1.36-.42-2.03-.33-1.33.08-2.26,1.3-2.96,6.23-3.57,11.62-8.27,17.08-12.86.22-.19.49-.31,1.09-.69Z" fill="#d17532" fill-rule="evenodd"/><path d="M897.98,478.89c4.65-2.34,9.56-4.81,14.78-7.44-.2,2.73-.27,5.27-.59,7.78-1.65,13.27-3.39,26.52-6.15,39.62-.47,2.2-1.42,3.14-3.6,3.51-3.69.64-7.32,1.6-11.35,2.51,1.52-7.86,3.23-15.33,4.36-22.89,1.14-7.61,1.71-15.31,2.55-23.09Z" fill="#d17532" fill-rule="evenodd"/><path d="M737.11,516.82c-1.85-2.17-5.52-13.62-6.16-19.57,10.61-3.21,21.24-6.43,32.28-9.77,1.74,6.06,3.28,12.19,3.33,18.49-9.99,3.68-19.69,7.26-29.44,10.85Z" fill="#d17532" fill-rule="evenodd"/><path d="M714.72,444.38c-2.48-6.48-4.8-12.55-7.08-18.51,8.71-5.06,17.25-10,26.12-15.15,2.99,6.54,5.99,13.08,9.08,19.83-9.15,5.08-19.24,7.77-28.11,13.83Z" fill="#d17532" fill-rule="evenodd"/><path d="M891.76,576.66c-5.23.25-10.44.5-16.03.77,3.71-12.71,7.34-25.13,11.01-37.69,4.99-.7,9.87-1.37,14.74-2.05.58,4.01-6.7,33.05-9.72,38.97Z" fill="#d17532" fill-rule="evenodd"/><path d="M461.07,293.11c-2.69,2.4-4.93,4.34-7.1,6.36-8.35,7.75-16.65,15.55-25.03,23.27-2.55,2.35-5.28,4.49-7.94,6.71-1.73,1.44-2.4,1.46-3.84.18-1.42-1.26-1.64-2.2-.52-3.9,3.06-4.63,6.07-9.3,9.35-13.77,5.09-6.95,10.23-13.86,15.63-20.57,4.45-5.54,6.4-5.75,12.72-2.34,2.15,1.16,4.2,2.52,6.74,4.06Z" fill="#d17532" fill-rule="evenodd"/><path d="M729.58,706.41c.59-.77,1.02-1.42,1.54-1.98,6.43-6.89,12.36-14.19,17.55-22.05,1.38-2.1,2.86-2.58,5.19-2.02,4.7,1.12,9.45,2.04,14.4,3.09-.32.77-.46,1.33-.77,1.78-5.42,8.04-10.87,16.07-16.29,24.11-.67,1-1.38,1.5-2.7,1.23-5.81-1.22-11.65-2.34-17.46-3.52-.44-.09-.85-.37-1.46-.65Z" fill="#d17532" fill-rule="evenodd"/><path d="M812.06,651.66c2.07-3.37,3.94-6.38,5.77-9.42,2.34-3.91,4.65-7.83,6.94-11.76.63-1.08,1.32-1.85,2.68-2.04,6.85-.94,13.68-1.95,20.54-2.94-.56,3.64-13.51,26.29-17.55,30.69-5.99-1.48-12.02-2.96-18.38-4.52Z" fill="#d17532" fill-rule="evenodd"/><path d="M877.34,386.38c1.32,3.82,2.43,7.5,2.52,11.38.07,2.89-.98,4.44-3.98,5.11-3.94.88-7.97,1.43-11.99,1.82-5.31.52-10.65.76-15.98,1.1-2.19.15-3.03-.25-3.46-2.3-.78-3.74-1.31-7.53-1.95-11.34,11.7-1.94,23.16-3.84,34.84-5.77Z" fill="#d17532" fill-rule="evenodd"/><path d="M536.71,460.08c17.46-3.49,33.91-10.07,50.96-16.28.51,3.13,1.05,6.21,1.51,9.3.19,1.25-.48,2.08-1.6,2.56-1.27.55-2.51,1.25-3.84,1.57-12.53,3.02-25.06,5.97-37.6,8.94-2.34.55-4.32-.58-6.11-1.76-1.35-.89-2.36-2.29-3.52-3.47.07-.29.14-.57.21-.86Z" fill="#d17532" fill-rule="evenodd"/><path d="M732.6,735.98c-5.35,7.37-10.45,14.39-15.66,21.57-.45-.42-.84-.7-1.12-1.06-3.79-4.83-7.57-9.68-11.34-14.54-1.92-2.48-2.9-5.17-1.75-8.31,1.13-3.1,3.22-4.34,6.43-3.57,5.77,1.4,11.52,2.92,17.28,4.37,1.91.49,3.82.95,6.16,1.54Z" fill="#d17532" fill-rule="evenodd"/><path d="M517.42,648.25c1.01-.37,2.01-.77,3.02-1.1,6.2-2.07,12.41-4.07,18.58-6.21,1.39-.48,2.39-.32,3.54.55,4.91,3.69,9.87,7.29,14.81,10.93,1.11.82,2.3,1.61,2.31,3.43-.44.22-.91.63-1.43.69-5.9.6-11.8,1.21-17.72,1.68-5.95.47-11.34-1.37-16.34-4.46-2.41-1.49-4.7-3.17-7.05-4.77.09-.24.18-.49.26-.73Z" fill="#d17532" fill-rule="evenodd"/><path d="M680.69,625.28c-6.61,2.53-13.11,5.05-19.65,7.48-.55.2-1.44.05-1.94-.29-5.64-3.81-11.24-7.69-17.11-11.74.74-.51,1.15-.87,1.62-1.1,5.43-2.62,10.88-5.2,16.29-7.86,1.25-.62,2.24-.92,3.5.05,5.57,4.27,11.22,8.45,16.82,12.67.2.15.29.46.48.79Z" fill="#d17532" fill-rule="evenodd"/><path d="M491.13,596.68c-5.96,4.7-11.67,9.21-17.59,13.88-.64-.58-1.32-1.11-1.89-1.73-1.82-1.96-3.61-3.94-5.37-5.94-2.33-2.66-2.53-4.08-.84-7.22,1.93-3.57,3.97-7.07,5.95-10.61.95-1.7,1.85-3.42,2.9-5.38,5.71,5.77,11.17,11.28,16.85,17.01Z" fill="#d17532" fill-rule="evenodd"/><path d="M506.03,412.22c-1.35-1.84-2.62-3.56-4.06-5.51,16.67-8.24,32.17-17.99,48.39-27.12,1.7,2.18,3.44,4.39,5.44,6.96-16.72,8.62-33.06,17.05-49.77,25.68Z" fill="#d17532" fill-rule="evenodd"/><path d="M747.05,715.36c-3.76,5.49-7.18,10.47-10.57,15.46-.59.86-1.3,1.12-2.29.79-.85-.28-1.73-.43-2.58-.7-6.51-2.06-13.01-4.13-19.78-6.29.39-.61.65-1.22,1.08-1.65,3.54-3.47,7.15-6.87,10.66-10.37,1.01-1,2.05-.94,3.27-.71,4.87.93,9.74,1.82,14.62,2.68,1.63.29,3.29.46,5.6.77Z" fill="#d17532" fill-rule="evenodd"/><path d="M637.94,617.89c-3.63-2.44-7.1-4.71-10.51-7.09-1.76-1.23-2.1-4.02-.61-5.8,2.6-3.12,5.35-6.11,8.04-9.15.99-1.12,2.13-1.36,3.45-.6.17.1.37.15.54.26,5.98,3.85,11.96,7.71,18.45,11.89-6.5,4.01-13.09,6.64-19.36,10.48Z" fill="#d17532" fill-rule="evenodd"/><path d="M676.09,643.76c6.73-2.69,12.89-5.1,19-7.63,1.37-.56,2.25-.02,3.24.67,4.15,2.87,8.3,5.74,12.48,8.57,1.88,1.27,3.88,2.38,5.76,3.65.75.51,1.34,1.24,2.3,2.16-1.02.38-1.54.73-2.05.74-7.22.05-14.44.21-21.65,0-2.4-.07-4.85-.89-7.12-1.77-4.13-1.59-7.91-3.9-11.97-6.39Z" fill="#d17532" fill-rule="evenodd"/><path d="M499.98,635.56c-3.19-2.82-6.59-5.82-10.31-9.11,6.16-4.73,12.36-8.89,18.5-13.52,4.83,4.07,9.56,8.06,14.76,12.44-7.84,3.48-15.22,6.75-22.96,10.19Z" fill="#d17532" fill-rule="evenodd"/><path d="M833.89,613.56c3.04-5.9,5.29-12.03,8.93-17.47.62-.93,2.08-1.77,3.19-1.81,5.42-.18,10.84-.08,16.41-.08-.05.38-.02.78-.15,1.11-1.88,4.58-3.83,9.14-5.65,13.74-.66,1.66-1.62,2.52-3.45,2.71-6,.63-12,1.39-18,2.08-.27.03-.56-.12-1.27-.28Z" fill="#d17532" fill-rule="evenodd"/><path d="M809.07,655.51c6.61,1.23,12.92,2.41,19.61,3.66-5.42,9.23-11,17.93-17.3,26.57-.37-.87-.67-1.38-.8-1.91-1.39-5.88-2.66-11.79-4.14-17.65-1.01-3.99.91-7.08,2.63-10.67Z" fill="#d17532" fill-rule="evenodd"/><path d="M623.06,744.5c-8.02-1.33-15.71-2.6-23.72-3.93.29-.55.61-1.32,1.07-1.98,1.46-2.11,2.58-4.75,4.57-6.11,1.89-1.29,4.7-1.23,7.11-1.75,5.7-1.23,11.41-2.46,17.11-3.67.65-.14,1.32-.17,2.42-.3-2.95,6.12-5.74,11.88-8.57,17.74Z" fill="#d17532" fill-rule="evenodd"/><path d="M486.51,623.36c-3.33-3.12-6.49-6.08-9.94-9.31,5.94-4.78,11.67-9.38,17.64-14.19,3.37,3.2,6.77,6.44,10.46,9.94-6.17,4.61-12.08,9.02-18.16,13.56Z" fill="#d17532" fill-rule="evenodd"/><path d="M590.33,752.64c1.5-1.97,2.8-3.57,4-5.25.81-1.13,1.89-.9,2.96-.78,5.7.64,11.41,1.3,17.12,1.96,1.94.22,3.89.45,6.14.71-.31.88-.46,1.51-.75,2.08-1.37,2.75-2.69,5.53-4.19,8.2-2.36,4.21-2.66,4.36-6.93,2.36-5.11-2.39-10.12-5.01-15.16-7.55-.96-.48-1.89-1.04-3.18-1.75Z" fill="#d17532" fill-rule="evenodd"/><path d="M464.5,295.9c1.57,1.25,3.02,2.4,4.67,3.71-.58.69-1,1.32-1.54,1.83-10.99,10.32-22.02,20.58-32.94,30.97-1.71,1.63-3.15,2.11-5.18.83-.89-.56-1.97-.84-3.31-1.39,13.48-11.41,26.08-23.32,38.3-35.95Z" fill="#d17532" fill-rule="evenodd"/><path d="M912.24,420.82c2.46.89,2.5,2.51,2.5,4.09,0,6.33,0,12.67-.1,19-.05,3.16-.22,6.33-.51,9.48-.08.87-.56,2.01-1.24,2.47-3.68,2.47-7.47,4.76-11.61,7.36,3.72-14.37,7.3-28.24,10.97-42.41Z" fill="#d17532" fill-rule="evenodd"/><path d="M762.54,661.2c1.39-2.15,2.54-3.96,3.71-5.75.49-.75,1.1-1.43,1.48-2.23,1.6-3.43,4.38-4.18,7.85-3.74,2.94.37,5.92.52,8.87.8,2.28.22,3.14,1.29,2.84,3.54-.09.68-.27,1.39-.61,1.96-1.43,2.37-2.89,4.73-4.47,7.01-.38.55-1.3,1.13-1.9,1.07-5.77-.64-11.55-1.32-17.77-2.66Z" fill="#d17532" fill-rule="evenodd"/><path d="M701.84,360.95c3.73,2.39,10,10.98,12.16,16.46-5.76,4.24-11.56,8.51-17.75,13.07.01-3.56,1.18-6.7,1.57-9.92.39-3.24.97-6.46,1.46-9.69.5-3.32,1.1-6.62,2.55-9.91Z" fill="#d17532" fill-rule="evenodd"/><path d="M476.3,745.87c-5.3-2.17-10.48-4.28-16.03-6.54,2.81-3.26,5.34-6.24,7.94-9.17.34-.38,1.04-.58,1.58-.6,4.54-.14,9.08-.22,13.62-.32.39,0,.78.08,1.16.12-.21,2-5.26,12.08-8.28,16.5Z" fill="#d17532" fill-rule="evenodd"/><path d="M473.68,751.14c-1.76,3.46-3.75,6.58-6.73,8.98-1.28,1.03-2.84,1.23-4.22.57-4.36-2.1-8.68-4.3-12.93-6.63-1.47-.8-1.61-2.57-.46-3.83,1.53-1.68,3.18-3.26,4.88-4.78.42-.37,1.31-.55,1.84-.38,5.8,1.94,11.57,3.97,17.62,6.06Z" fill="#d17532" fill-rule="evenodd"/><path d="M504.72,639.34c7.4-3.71,14.43-7.25,21.84-10.97,3,2.53,6.29,5.3,9.88,8.33-.93.43-1.48.74-2.07.93-6.97,2.17-13.97,4.28-20.93,6.51-1.38.44-2.42.34-3.52-.6-1.63-1.41-3.36-2.71-5.21-4.19Z" fill="#d17532" fill-rule="evenodd"/><path d="M618.41,711.18c3.42-5.1,6.66-9.88,12.61-11.93,4.3-1.48,8.51-3.2,12.78-4.78,1-.37,2.05-.59,3.56-1.01-.1,1.11.02,1.91-.26,2.51-1.47,3.13-2.97,6.26-4.62,9.3-.42.77-1.34,1.6-2.16,1.78-6.95,1.54-13.92,2.94-20.9,4.36-.17.03-.37-.08-1.02-.23Z" fill="#d17532" fill-rule="evenodd"/><path d="M886.53,595.2c-3.66.91-7.15,1.78-10.62,2.64-3.09-5.3-4.53-10.4-1.4-15.84,5.21-.37,10.39-.74,15.62-1.1.08.37.24.67.18.91-1.24,4.46-2.51,8.91-3.78,13.4Z" fill="#d17532" fill-rule="evenodd"/><path d="M778.69,668c-2.45,3.67-4.68,7.02-6.91,10.38-.7,1.05-1.69.82-2.66.56-3.92-1.03-7.83-2.07-11.74-3.11-1.02-.27-2.04-.55-3.45-.93,1.93-3.05,3.63-5.81,5.44-8.49.3-.44,1.2-.77,1.76-.7,5.66.68,11.32,1.46,17.57,2.29Z" fill="#d17532" fill-rule="evenodd"/><path d="M855.45,342.79c1.38,2.34,2.62,4.45,4.09,6.94-9.21,3.61-18.62,5.91-28.02,9.54-.96-2.23-1.86-4.34-2.91-6.79,9.48-2.03,17.96-5.79,26.84-9.69Z" fill="#d17532" fill-rule="evenodd"/><path d="M638.97,712.54c-1.42,2.75-2.56,5.15-3.91,7.43-.39.66-1.35,1.16-2.14,1.39-1.9.55-3.85.92-5.79,1.31-5.34,1.07-10.69,2.12-16.03,3.18-.65.13-1.31.22-2.68.45,2.04-3.12,3.72-5.76,5.49-8.33.29-.42.98-.67,1.53-.79,7.36-1.59,14.73-3.15,22.1-4.71.27-.06.56.02,1.43.07Z" fill="#d17532" fill-rule="evenodd"/><path d="M728.04,486.81c11.11-2.31,21.31-6.11,31.78-10.29.58,1.64,1.11,3.14,1.67,4.7-10.85,3.38-21.39,6.66-32.25,10.04-.34-1.24-.71-2.62-1.2-4.45Z" fill="#d17532" fill-rule="evenodd"/><path d="M847.65,522.65c-4.6,3.26-8.93,6.34-13.85,9.84,1.85-7.72,3.55-14.81,5.42-22.58,1.64,2.54,2.94,4.59,4.27,6.61,1.31,1.98,2.66,3.93,4.16,6.13Z" fill="#d17532" fill-rule="evenodd"/><path d="M782.41,584.18c-1.02-1.43-2.19-3.09-3.29-4.63,6.78-3.67,13.34-7.22,20.17-10.92.74,1.51,1.54,3.14,2.37,4.85-6.42,3.57-12.61,7.01-19.25,10.71Z" fill="#d17532" fill-rule="evenodd"/><path d="M853.76,615.24c-.98,1.95-1.64,3.69-2.69,5.14-.47.65-1.72.89-2.65,1.02-4.79.67-9.59,1.23-14.39,1.86-1.64.22-3.27.51-5.54.88,1.18-2.2,2.05-3.91,3.02-5.55.21-.35.79-.61,1.23-.67,6.82-.89,13.64-1.75,21.01-2.68Z" fill="#d17532" fill-rule="evenodd"/><path d="M803.62,577.76c1.08,2.21,2.21,4.28,3.11,6.45.65,1.57-.26,2.76-2.49,3.19-3.5.67-7.03,1.18-10.55,1.73-2.28.36-4.54.43-6.69-.61-.26-.13-.49-.32-1.02-.66,5.84-3.34,11.53-6.6,17.64-10.1Z" fill="#d17532" fill-rule="evenodd"/><path d="M497.82,705.33c-.75,1.69-1.36,3.33-2.18,4.86-3.64,6.77-1.43,5.38-9.02,5.7-2.17.09-4.34.19-6.53.29.67-3.04,5.56-8.18,9.67-9.73,2.39-.9,4.72-3.18,8.05-1.11Z" fill="#d17532" fill-rule="evenodd"/><path d="M664.41,635.25c1.43-.34,2.89-.59,4.29-1.02,5.01-1.53,10.04-2.99,14.97-4.75,1.79-.65,3.15-.81,4.6.49.71.65,1.57,1.14,2.66,1.92-.85.42-1.4.75-1.98.97-5.82,2.19-11.65,4.39-17.49,6.52-.65.24-1.62.31-2.17-.01-1.76-1.03-3.39-2.27-5.08-3.43.07-.22.13-.45.2-.67Z" fill="#d17532" fill-rule="evenodd"/><path d="M764.83,247.57c-.72-2.74-1.31-5.02-1.93-7.3-.29-1.06.25-1.66,1.05-2.21,2.61-1.8,5.19-3.63,8.12-5.68,1.68,1.62,3.4,3.28,5.29,5.1-4.18,3.36-8.09,6.51-12.52,10.08Z" fill="#d17532" fill-rule="evenodd"/><path d="M781.83,571.43c3.15-5.74,6.16-11.56,10.2-17.41,1.72,2.47,2.97,4.74,3.54,7.31.14.65-.24,1.61-.69,2.19-1.09,1.39-2.18,2.87-3.58,3.88-2.16,1.54-4.57,2.74-6.91,4-.63.33-1.42.36-2.14.53-.14-.16-.27-.33-.41-.49Z" fill="#d17532" fill-rule="evenodd"/><path d="M887.86,535.71c.55-2.05.87-3.7,1.46-5.23.23-.61,1-1.27,1.63-1.41,4.23-.94,8.49-1.74,12.9-2.62.46,2.21-.37,4.16-.9,6.1-.14.5-1.19.96-1.89,1.08-4.18.72-8.39,1.34-13.21,2.08Z" fill="#d17532" fill-rule="evenodd"/><path d="M766.39,510.43c-.31,3.15-1.12,5.4-3.46,6.48-5.13,2.38-10.39,4.47-16.16,4.62-1.45.04-2.9-.32-4.71-.54,1.35-1.87,3.22-1.61,4.64-2.26,1.62-.74,3.33-1.26,4.99-1.92,1.56-.63,3.1-1.31,4.64-1.99,1.63-.71,3.26-1.45,4.89-2.17,1.52-.67,3.05-1.31,5.16-2.23Z" fill="#d17532" fill-rule="evenodd"/><path d="M913.43,460.15c0,1.19-.05,1.87,0,2.54.23,2.47-.92,3.97-3.06,5.16-3.45,1.9-6.76,4.08-10.14,6.12-.74.45-1.54.81-2.33,1.22-.88-2.4-.09-5.53,1.9-6.79,4.33-2.73,8.74-5.32,13.61-8.26Z" fill="#d17532" fill-rule="evenodd"/><path d="M854.65,532.44c.92,1.59,1.83,2.77,2.33,4.11.64,1.72.05,2.61-1.72,3-3.95.87-7.92,1.68-11.89,2.45-.53.1-1.13-.18-2.19-.37,2.17-2.35,4.67-3.13,6.72-4.56,2.1-1.46,4.23-2.89,6.76-4.62Z" fill="#d17532" fill-rule="evenodd"/><path d="M768.77,229.36c-2.44,1.83-4.69,3.52-7.29,5.47-1.02-3.12-2.04-5.77-2.71-8.51-.25-1.01.32-2.22.5-3.31,2.91.21,5.85,2.22,9.5,6.35Z" fill="#d17532" fill-rule="evenodd"/><path d="M833.12,538.42c5.63-4.3,11.03-8.43,16.65-12.73.81,1.17,1.52,2.2,2.35,3.4-.76.54-1.35,1.03-2,1.41-4.76,2.83-9.54,5.65-14.32,8.46-1.05.63-1.06.61-2.69-.55Z" fill="#d17532" fill-rule="evenodd"/><path d="M876.74,602.11c2.73-.62,5.19-1.17,7.68-1.74-.01,2.27-2.83,10.22-4.65,12.88-1.04-3.81-2.01-7.38-3.03-11.14Z" fill="#d17532" fill-rule="evenodd"/><path d="M795.01,287.98c5.26-3.51,10.4-6.95,15.78-10.54.68.79,1.35,1.57,1.96,2.28-.16.38-.19.64-.32.71-4.96,2.85-9.93,5.67-14.89,8.53-1.08.62-2,.98-2.53-.98Z" fill="#d17532" fill-rule="evenodd"/><path d="M489.4,720.94c-.88,3.11-1.13,3.46-3.18,3.39-4.04-.14-8.08-.4-12.6-.62.58-.66.92-1.42,1.34-1.48,4.76-.65,9.53-1.16,14.44-1.29Z" fill="#d17532" fill-rule="evenodd"/><path d="M90.13,762.31c-3.41-3.28-6.64-6.34-9.82-9.44-9.19-8.99-16.96-19.1-23.22-30.32-1.92-3.44-3.28-7.19-4.92-10.8-.52-1.15-.4-2.09.99-3.06.75.5,1.74.95,2.41,1.68.86.93,1.56,2.05,2.16,3.18,4.84,9.14,10.57,17.67,17.52,25.33,7.87,8.67,16.28,16.74,25.89,23.54,10.59,7.5,21.26,14.89,32.65,21.16,13.77,7.58,28.17,13.48,43.81,16.07,11.56,1.92,23.17,2.77,34.87,2.43,4.46-.13,8.89-.83,13.06-2.5,3.66-1.47,7.25-1.55,11.01-.39,7.94,2.44,15.91,4.8,23.89,7.11,10.27,2.98,20.7,5.26,31.34,6.43,6.77.74,13.56,1.44,20.36,1.82,7.94.45,15.78-.68,23.57-2.14,6.02-1.12,12.06-2.19,18.11-3.08,3.87-.57,7.68.13,11.42,1.23,12.15,3.55,24.33,7.01,36.46,10.61,10.55,3.13,21.35,4.99,32.24,6.37,9.41,1.19,18.8,2.51,28.23,3.42,8.86.86,17.77,1.06,26.67.31,9.65-.8,19.38-1.1,28.84-3.22,10.12-2.27,20.11-5.16,30.14-7.83,2.29-.61,4.55-1.37,6.79-2.17,5.05-1.78,10.11-1.58,15.2-.28,7.77,1.97,15.61,3.68,23.6,4.28,7.1.54,14.24.71,21.36.61,10.08-.13,20.14-.71,30.14-2.1,9.89-1.38,19.27-4.38,28.31-8.54,7.66-3.53,15.14-7.4,21.85-12.55,3.45-2.64,6.53-5.75,9.89-8.52,1.35-1.12,2.93-2.02,4.51-2.81,6.46-3.21,13.09-6.1,19.43-9.55,7.38-4.01,14.54-8.45,21.76-12.76,7.43-4.44,14.06-9.93,20.26-15.94,4.34-4.2,8.55-8.53,12.83-12.8,1.98-1.97,4.12-3.69,6.76-4.73,9.99-3.92,19.27-9.24,28.52-14.6,9.17-5.31,18.22-10.82,27.31-16.27,12.63-7.57,24.21-16.5,34.54-27.01,1.59-1.62,3.1-3.34,4.81-4.83,1.83-1.6,3.19-1.73,4.56-.82,1.54,1.02,2.16,2.84,1.1,5.02-2.17,4.44-4.45,8.83-6.96,13.08-8.24,13.96-18.53,26.4-28.9,38.77-6.86,8.19-13.5,16.58-21.23,24.01-6.19,5.96-13.05,10.95-20.61,14.94-8.06,4.26-16.26,8.24-24.31,12.51-7.97,4.23-15.47,9.19-22.68,14.65-7.89,5.98-16.01,11.65-24.02,17.47-10.57,7.68-21.08,15.46-31.72,23.06-4.18,2.99-8.51,5.81-12.97,8.37-11.32,6.52-22.7,12.95-34.16,19.22-10.55,5.77-21.59,10.41-33.54,12.42-3.5.59-7.06,1.02-10.6,1.08-12.17.22-23.93,2.42-35.46,6.32-11.52,3.9-23.18,7.42-34.8,11.03-11.74,3.65-23.79,5.05-36.05,4.48-6.7-.32-13.38-1.15-20.09-1.46-4.04-.18-8.11.05-12.15.36-5.21.41-10.4,1.12-15.61,1.63-2.07.2-4.15.28-6.23.28-7.73-.03-15.48.11-23.19-.26-5.81-.28-11.62-.99-17.36-1.95-10.72-1.79-21.4-3.85-32.07-5.89-14.15-2.69-28.4-3.83-42.81-3.42-12.97.36-25.95.67-38.92.53-7.39-.08-14.78-.94-22.15-1.73-9.73-1.05-19.4-2.6-28.88-5.11-16.87-4.46-33.35-10.02-49.24-17.28-11.8-5.39-23.59-10.83-34.59-17.75-9.3-5.86-18.48-11.91-26.96-18.96-6.32-5.24-12.78-10.32-19.08-15.58-7.25-6.04-13.62-12.97-19.75-20.12-4.12-4.81-8.19-9.65-12.23-14.53-.94-1.13-1.76-2.39-2.47-3.69-1.48-2.71-1.82-5.43.59-8.07Z" fill="#d17532" fill-rule="evenodd"/><path d="M297.57,35.69c2.22-1.93,2.26-2,4.29-.59,6.84,4.75,13.61,9.6,20.47,14.32,3.67,2.53,7.45,4.9,11.2,7.3.78.5,1.64,1.21,2.8.21-1.01-1.9-2.67-3.1-4.33-4.29-8.6-6.2-17.23-12.38-25.8-18.62-1.26-.92-2.44-2.05-3.36-3.3-1.36-1.84-1.44-3.79.15-5.71,3.48-4.2,7.5-7.72,12.76-9.37,2-.63,4.39-.84,6.43-.42,3.76.77,7.6,1.7,11.04,3.34,16.04,7.66,31.46,16.4,45.74,27.09,9.8,7.33,18.73,15.58,27.27,24.32,6.09,6.24,12.56,12.11,18.78,18.23,6.36,6.26,12.62,12.62,18.91,18.94.18.19.24.5.43.93-6.13,2.48-10.94,6.71-15.63,11.15-2.62,2.49-5.74,4.2-9.22,5.27-1.8.56-3.55,1.28-5.34,1.84-3.21,1.01-4.62.03-4.82-3.32-.28-5-1.43-9.8-3.4-14.39-.52-1.22-.92-2.66-2.65-3.03-1.3,1.15-.72,2.54-.58,3.85.54,5.12,1.1,10.24,1.61,15.36.1.98-.01,1.98-.06,2.97-.03.49-.06,1.01-.24,1.45-.47,1.11-1.32,1.75-2.56,1.59-1.18-.16-1.59-.95-1.64-2.1-.17-3.86-.47-7.72-.58-11.59-.24-8.54-3.52-16.2-6.87-23.82-.28-.63-.96-1.08-1.5-1.65-1.38,1.09-.93,2.12-.63,3.15.94,3.23,1.96,6.45,2.77,9.72.68,2.78,1.31,5.61,1.6,8.45.55,5.22.86,10.47,1.22,15.71.07.98.05,1.99-.09,2.97-.22,1.43-1.18,2.11-2.49,1.91-1.35-.2-1.35-1.22-1.35-2.25-.02-2.47-.04-4.95-.09-7.43-.25-11.87-3.43-23.07-7.67-34.04-1.52-3.92-3.69-7.47-6.72-10.42-.71-.68-1.5-1.32-2.36-1.77-.41-.22-1.26-.18-1.56.11-.28.27-.1,1.02-.07,1.56.01.16.22.31.36.46,6.48,7.05,9.36,15.76,11.32,24.85,2.02,9.35,2.3,18.87,2.49,28.39.01.69.1,1.49-.21,2.04-.45.79-1.22,1.93-1.87,1.94-.89.02-2.14-.67-2.61-1.44-.58-.93-.7-2.27-.69-3.43.04-8.67-1.25-17.21-2.61-25.72-1.49-9.28-5.3-17.61-11.44-24.8-6.29-7.37-13.94-13.22-21.68-18.94-.77-.57-1.74-1-2.67-1.19-1.36-.27-2.09.82-1.4,2.01.39.66.98,1.25,1.59,1.74,2.79,2.22,5.58,4.46,8.45,6.57,5.06,3.72,9.63,7.95,13.61,12.81,4.75,5.81,7.75,12.53,8.79,19.9,1.19,8.43,1.87,16.94,2.59,25.43.16,1.83-.27,3.75-.69,5.56-.38,1.62-1.48,2.78-3.24,3.13-2.49.51-4.01-.75-3.94-3.3.27-9.04-.13-18.03-1.49-26.98-.85-5.6-2.85-10.72-6-15.38-3.9-5.76-8.2-11.19-13.34-15.93-2.84-2.62-5.63-5.3-8.34-8.06-8.4-8.58-18.61-14.77-28.33-21.61-4.05-2.85-8.16-5.63-12.13-8.59-1.02-.76-1.61-2.09-2.37-3.13Z" fill="#a5cd39" fill-rule="evenodd"/><path d="M291.68,51.72c2.49-.13,4.24,1.05,6,2.08,4.7,2.75,9.5,5.37,14,8.42,13.13,8.9,26.03,17.98,35.71,30.99,7.18,9.64,11.03,20.06,10.37,32.04-.25,4.54-.79,9.07-1.24,13.59-.49,4.9-7.18,6.65-10.51,3.83.3-.83.71-1.72.96-2.66.82-3.15,2.06-6.27,2.31-9.47.99-12.94-1.88-25-9.05-35.92-3.71-5.63-8.55-10.17-14.19-13.77-3.83-2.45-7.9-4.52-11.9-6.69-4.69-2.56-9.55-4.84-14.09-7.64-2.48-1.52-4.63-3.69-6.61-5.87-2.2-2.42-2.51-5.48-1.76-8.93Z" fill="#a5cd39" fill-rule="evenodd"/><path d="M294.68,41.83c2.17.12,3.74,1.18,5.28,2.23,8.68,5.92,17.52,11.62,25.93,17.9,5.94,4.43,11.35,9.58,16.91,14.51,6.33,5.61,12,11.81,16.41,19.1,2.71,4.47,4.44,9.21,5.24,14.4,1.43,9.26,1.73,18.54,1.18,27.87-.05.9-.28,2.1-.88,2.61-1.39,1.18-3.43.03-3.58-1.95-.07-.96.21-1.96.4-2.93,2.3-11.39,1.42-22.46-3.22-33.19-1.87-4.32-4.47-8.17-7.41-11.79-6.4-7.88-13.68-14.76-21.74-21.01-9.83-7.63-20.59-13.76-30.84-20.69-1.14-.77-2.32-1.55-3.27-2.53-1.33-1.38-1.31-2.08-.42-4.51Z" fill="#a5cd39" fill-rule="evenodd"/><path d="M485.14,835.22c.75.74,1.58,1.41,2.23,2.23,8.97,11.15,19.26,21,30.06,30.32,3.35,2.9,7.23,5.18,10.85,7.76,1.61,1.15,3.21,2.32,4.75,3.56.63.51,1.07,1.25,2.03,2.39-1.31.1-1.97.32-2.5.15-.74-.23-1.39-.74-2.07-1.14-11.34-6.67-21.26-15.14-30.78-24.11-4.83-4.55-9.69-9.07-13.36-14.67-.86-1.31-1.6-2.73-2.21-4.17-.24-.57.05-1.37.1-2.06.3-.08.6-.17.91-.26Z" fill-rule="evenodd"/><path d="M507.16,850.99c1.51-.78,2.1.2,2.81.81,4.67,3.98,9.22,8.11,14.01,11.94,5.25,4.2,10.72,8.14,16.08,12.2.79.59,1.66,1.13,2.27,1.88.36.43.57,1.57.33,1.79-.48.43-1.39.69-2.02.55-.83-.18-1.59-.76-2.33-1.25-9.97-6.56-18.98-14.27-27.49-22.6-1.49-1.46-3.35-2.8-3.66-5.32Z" fill-rule="evenodd"/><path d="M566.71,872.96c.09,1.36-.89,2.01-2.01,1.38-1.19-.68-2.36-1.49-3.33-2.45-5.05-5.02-10.08-10.05-15-15.19-1.42-1.48-2.5-3.31-3.63-5.04-.42-.64-.65-1.45-.76-2.21-.05-.38.26-1.02.59-1.19.32-.16.91.03,1.32.22.33.16.6.51.84.82,5.18,6.95,11.92,12.38,17.96,18.48,1.18,1.19,2.22,2.52,3.27,3.83.36.45.57,1.02.75,1.35Z" fill-rule="evenodd"/><path d="M401.82,245.18c.12-.7.12-1.32.33-1.86.61-1.52,2.26-1.85,3.34-.64.51.56.89,1.34,1.08,2.08,1.11,4.31,2.16,8.63,3.18,12.96.32,1.38.49,2.85-1.08,3.64-1.03.52-2.09-.28-2.91-2.31-1.83-4.51-3.18-9.15-3.96-13.87Z" fill-rule="evenodd"/><path d="M489.97,873.63c-.09,1.26-.67,1.75-1.59,1.6-.67-.1-1.36-.36-1.94-.71-5.5-3.33-10.99-6.68-16.46-10.08-.74-.46-1.35-1.17-1.88-1.87-.24-.32-.36-1.12-.15-1.33.34-.35.98-.49,1.52-.55.35-.04.77.19,1.1.38,6.02,3.65,12.03,7.29,18.02,10.99.62.39,1.02,1.14,1.39,1.57Z" fill-rule="evenodd"/><path d="M307.53,270.69c-.27,1.28-.35,2.2-.67,3.02-2.09,5.44-4.2,10.87-6.38,16.28-.17.42-.87.63-1.32.94-.26-.67-.86-1.41-.74-2,1.14-5.31,1.75-10.76,4.2-15.71.53-1.06,1.05-2.13,1.68-3.14.48-.77,1.19-1.56,2.17-.95.56.35.82,1.19,1.06,1.57Z" fill-rule="evenodd"/><path d="M312,284.48c-.19-.58-.57-1.18-.52-1.74.38-4.33.79-8.67,2.83-12.63.32-.61.53-1.38,1.03-1.77.62-.49,1.65-1.09,2.2-.87.58.23,1.26,1.46,1.12,2.07-.67,2.87-1.44,5.74-2.51,8.48-.88,2.25-2.24,4.32-3.38,6.47h-.77Z" fill-rule="evenodd"/><path d="M331.79,269.48c.13,3.08-1.78,5.36-3.15,7.82-.55.98-1.74.79-2.41-.2-1.68-2.53-.73-8.93,1.61-10.77,1.53-1.21,3.4-.55,3.83,1.39.13.57.09,1.17.13,1.76Z" fill-rule="evenodd"/><path d="M366.48,262.6c-.26,1.47-.4,3.06-.86,4.56-.48,1.57-2.03,1.79-2.86.35-1.49-2.6-1.73-5.47-.81-8.31.21-.63,1.32-1.36,1.99-1.34.69.02,1.65.76,1.96,1.43.44.94.39,2.11.57,3.31Z" fill-rule="evenodd"/><path d="M415.13,244.96c.29-1.21.56-2.87,1.13-4.41.2-.54,1.16-1.05,1.8-1.09.39-.02,1.09.84,1.21,1.39.62,2.97.14,5.89-.88,8.71-.18.51-1.03,1.17-1.46,1.09-.48-.08-1.06-.86-1.21-1.43-.31-1.23-.37-2.52-.59-4.26Z" fill-rule="evenodd"/><path d="M378.01,257.41c-.31,1.58.28,3.11-1.32,3.48-1.4.32-2.26-.89-2.69-1.91-.56-1.31-.85-2.81-.84-4.22,0-.61.97-1.51,1.67-1.71.54-.16,1.65.39,1.95.93.65,1.17.94,2.54,1.24,3.43Z" fill-rule="evenodd"/><path d="M596.69,209.07c-.21.3-.37.8-.64.86-.41.11-1.08.1-1.34-.17-1.47-1.47-2.97-2.94-4.22-4.58-3.97-5.19-7.83-10.47-11.74-15.71-1.3-1.75-2.61-3.49-3.9-5.25-.41-.56-.93-1.11-1.08-1.75-.13-.58-.01-1.49.37-1.83.37-.32,1.36-.32,1.83-.04,1.01.6,1.99,1.35,2.74,2.24,6.49,7.62,12.82,15.37,17.15,24.51.25.53.51,1.07.82,1.72Z" fill-rule="evenodd"/><path d="M533.71,220.87c-.43-.28-1.2-.58-1.7-1.14-2.64-2.92-5.22-5.89-7.78-8.88-.68-.8-.96-1.81-.06-2.65.86-.81,1.87-.59,2.7.07,3.42,2.72,6.35,5.9,8.39,9.79.81,1.54.12,2.86-1.56,2.81Z" fill-rule="evenodd"/><path d="M595.01,194.9c-.87-.09-1.13-.03-1.25-.13-3.27-2.83-6.53-5.67-8.84-9.4-.25-.41-.54-.91-.52-1.36.02-.63.12-1.49.53-1.82.41-.33,1.36-.37,1.88-.12.76.37,1.51,1,2,1.69,2.03,2.89,4.01,5.82,5.9,8.81.34.54.2,1.38.3,2.32Z" fill-rule="evenodd"/><path d="M532.84,204.51c.68.38,1.41.59,1.84,1.08,2.17,2.43,4.27,4.93,6.38,7.43.25.29.5.7.49,1.06-.01.64-.03,1.61-.4,1.82-.55.31-1.41.1-2.14.07-.16,0-.34-.2-.47-.35-2.37-2.67-4.78-5.29-7.05-8.05-.38-.46-.32-1.49-.12-2.15.13-.4.92-.59,1.46-.91Z" fill-rule="evenodd"/><path d="M514.9,227.88c-.97-.07-1.82.13-2.22-.21-1.91-1.65-3.77-3.38-5.48-5.23-.36-.39-.31-1.67.06-2.08.33-.36,1.45-.27,2.07,0,1.17.49,4.93,5.61,5.56,7.52Z" fill-rule="evenodd"/><path d="M310.04,877.43c-1.07-.29-1.74-.47-2.41-.66-21.03-5.98-41.31-13.82-60.41-24.54-1.9-1.07-3.73-2.25-5.52-3.5-.9-.64-2.36-1.34-1.5-2.75.72-1.18,1.97-.47,2.96-.06,1.46.6,2.9,1.28,4.33,1.96,10.28,4.91,20.53,9.87,30.83,14.73,9.6,4.52,19.56,8.11,29.74,11.11.76.22,1.53.43,2.26.71.88.34,1.75.91,1.27,1.94-.26.56-1.15.8-1.55,1.06Z" fill-rule="evenodd"/><path d="M263.63,866.01c-.68,1.5-1.5,1.36-2.41.99-1.93-.78-3.91-1.43-5.79-2.3-15.43-7.23-30.5-15.1-44.35-25.12-2.24-1.62-4.39-3.38-6.55-5.12-.61-.49-1.22-1.08-1.56-1.76-.26-.52-.35-1.46-.05-1.84.29-.36,1.22-.44,1.79-.31.64.15,1.2.67,1.78,1.04,9.53,6.21,18.99,12.53,28.62,18.6,8.29,5.23,16.92,9.87,25.79,14.04.99.47,1.86,1.2,2.73,1.78Z" fill-rule="evenodd"/><path d="M175,261.85c-.23,2.01-1.63,3.2-2.84,4.44-4.62,4.75-9.4,9.35-13.91,14.2-3.97,4.27-7.67,8.79-11.48,13.2-.71.82-1.31,1.76-2.12,2.47-.44.39-1.19.41-1.81.6-.12-.71-.46-1.47-.31-2.11.2-.84.81-1.57,1.24-2.35,4.38-8.01,10.59-14.52,17.14-20.72,3.3-3.12,6.81-6.02,10.31-8.93,1-.84,2.18-1.78,3.78-.8Z" fill-rule="evenodd"/><path d="M162.66,296.02c-1.23-.34-1.49-1-.99-1.85,1.09-1.88,2.15-3.79,3.39-5.58,4.17-6.02,8.45-11.97,13.82-17.01,1.51-1.41,3.17-2.68,4.86-3.88.42-.3,1.24-.05,1.88-.05-.02.63.06,1.3-.11,1.89-.13.44-.59.77-.9,1.16-4.35,5.39-8.63,10.82-13.06,16.15-2.33,2.81-4.89,5.43-7.38,8.1-.44.47-1.08.77-1.5,1.07Z" fill-rule="evenodd"/><path d="M231.81,840.98c-.21,1.34-.91,1.85-1.92,1.56-1.03-.31-2.05-.77-2.95-1.35-9.62-6.26-19.29-12.47-27.65-20.43-.57-.54-1.24-1.09-1.51-1.77-.2-.5.01-1.37.36-1.81.23-.28,1.11-.25,1.59-.06.62.25,1.16.75,1.67,1.21,7.51,6.8,15.67,12.71,24.32,17.95,1.69,1.02,3.32,2.15,4.92,3.31.52.38.86,1.01,1.18,1.4Z" fill-rule="evenodd"/><path d="M193.3,273.4c-.35,1.12-.48,2.23-1.03,3.08-1.85,2.91-3.8,5.76-5.84,8.53-.35.48-1.33.51-2.01.74-.08-.71-.48-1.59-.2-2.1,1.68-3.11,3.43-6.2,5.34-9.18.64-1,1.67-2.05,3.74-1.08Z" fill-rule="evenodd"/><path d="M409.64,875.13c-1.77-.69-2.93-1.09-4.05-1.6-9.39-4.31-18.13-9.78-26.74-15.44-8.36-5.5-16.61-11.17-24.88-16.79-1.06-.72-2.06-1.56-2.98-2.45-.56-.53-1.11-1.22-1.3-1.93-.14-.54.13-1.38.52-1.81.27-.3,1.11-.29,1.61-.12.63.21,1.19.69,1.74,1.1,17.06,12.79,34.73,24.67,53.17,35.39.77.45,1.57.89,2.21,1.49.32.29.33.93.71,2.16Z" fill-rule="evenodd"/><path d="M235.12,320.25c-1.43-1.32-.82-2.67-.42-3.78,1.55-4.39,2.94-8.87,4.96-13.05,4.83-9.99,9.94-19.85,15.03-29.71.85-1.65,2.16-3.07,3.34-4.53.64-.79,1.46-1.41,2.79-.33-1.24,2.57-2.31,5.32-3.81,7.82-7.52,12.54-13.38,25.87-19.15,39.26-.43,1-.81,2.04-1.35,2.97-.3.52-.89.88-1.38,1.34Z" fill-rule="evenodd"/><path d="M228.65,308.27c-.57-1.06-1.07-1.59-1.11-2.15-.05-.65.21-1.37.49-1.99,4.13-8.87,8.24-17.75,12.48-26.58.85-1.76,2.16-3.31,3.32-4.91.4-.55.9-1.11,1.49-1.4.43-.21,1.17-.14,1.6.1.28.16.47.9.36,1.29-.36,1.23-.78,2.46-1.35,3.6-2.3,4.6-4.65,9.17-7,13.74-2.67,5.19-5.35,10.37-8.09,15.52-.46.87-1.23,1.58-2.18,2.76Z" fill-rule="evenodd"/><path d="M267.57,269.8c-.27,1.53-.28,2.6-.66,3.52-2.74,6.67-5.54,13.32-8.35,19.96-.45,1.06-.86,2.28-2.45,1.97-.36-2.28,4.16-15.25,7.49-21.59q1.39-2.63,3.97-3.86Z" fill-rule="evenodd"/><path d="M235.19,277.51c-.13.41-.24,1.12-.56,1.71-2.24,4.06-4.52,8.11-6.82,12.14-.39.67-1.01,1.49-1.86.79-.36-.29-.45-1.28-.26-1.8,1.43-3.89,2.88-7.77,4.51-11.57.48-1.13,1.41-2.18,2.37-2.97,1.21-.98,2.59-.14,2.62,1.71Z" fill-rule="evenodd"/><path d="M342.36,829.32c.07,1.21-.83,1.95-1.79,1.59-.91-.33-1.84-.8-2.57-1.44-3.81-3.29-7.56-6.66-11.34-10-.07-.06-.14-.14-.21-.21-.75-.82-1.67-1.75-.6-2.78,1.02-.98,2.01-.14,2.84.58,4.19,3.62,8.37,7.24,12.54,10.89.49.43.85,1.03,1.12,1.37Z" fill-rule="evenodd"/><path d="M346.09,842.75c-.6.18-1.37.66-1.68.45-2.04-1.37-4.03-2.82-5.9-4.42-.39-.34-.17-1.39-.22-2.11.64-.02,1.52-.32,1.9,0,1.91,1.54,3.71,3.23,5.52,4.9.19.17.18.54.38,1.18Z" fill-rule="evenodd"/><path d="M654.28,166.12c-1.1.02-1.87.24-2.44,0-1.08-.45-2.17-1.04-3.05-1.81-3.74-3.23-7.42-6.54-11.09-9.86-.57-.52-1.18-1.16-1.4-1.86-.2-.66-.16-1.69.24-2.14.41-.45,1.39-.49,2.11-.5.43,0,.91.37,1.3.66,5.56,4.17,10.5,8.92,14.33,15.5Z" fill-rule="evenodd"/><path d="M653.6,144.08c.49.28,1.32.62,2,1.17,3.8,3.05,7.19,6.5,10.04,10.47.68.95,1.47,1.84,2.11,2.82.27.43.28,1.03.41,1.55-.63.02-1.39.28-1.85.02-1.45-.83-2.91-1.73-4.16-2.84-3.25-2.9-6.39-5.92-9.55-8.92-.49-.47-.93-1.06-1.19-1.68-.58-1.39.37-2.67,2.19-2.58Z" fill-rule="evenodd"/><path d="M641.29,163.9c.07.93-.87,1.51-1.68,1.01-1.35-.82-2.7-1.69-3.87-2.74-1.83-1.65-3.54-3.46-5.25-5.24-.7-.73-1.32-1.63-.48-2.62.76-.9,1.91-.89,2.68-.22,1.85,1.61,3.6,3.34,5.26,5.15,1.12,1.22,2.01,2.64,2.99,3.98.17.23.26.51.34.67Z" fill-rule="evenodd"/><path d="M671.5,151.62c-.59.14-1.12.45-1.42.3-2.22-1.07-4.33-2.31-5.46-4.68-.43-.9-.54-1.85.43-2.28.56-.25,1.52-.04,2.08.31.72.45,1.33,1.18,1.81,1.9.88,1.37,1.64,2.82,2.56,4.46Z" fill-rule="evenodd"/><path d="M648.71,855.81c-.07-.7-.35-1.44-.18-2.08.44-1.72.94-3.44,1.62-5.07,3.68-8.9,6.9-17.95,8.29-27.5.76-5.17.96-10.43,1.16-15.65.16-4.25-.09-8.51-.08-12.77,0-1.17.17-2.38.52-3.5.16-.51.88-1.05,1.44-1.16.32-.06,1.07.63,1.17,1.09.39,1.73.77,3.49.86,5.25.86,16.93-1.54,33.35-7.88,49.12-1.4,3.48-2.92,6.91-4.48,10.33-.37.81-1.13,1.45-1.71,2.16-.24-.07-.48-.15-.72-.22Z" fill-rule="evenodd"/><path d="M670.24,810.77c1.74,1.12,1.34,2.53,1.3,3.74-.24,8.08-1.72,15.93-4.63,23.49-.6,1.57-1.23,3.14-1.95,4.65-.44.92-1.27,1.83-2.32,1.16-.55-.36-.69-1.47-.84-2.28-.09-.44.13-.97.31-1.43,3.08-7.88,4.78-16.11,6.14-24.43.19-1.16.55-2.31.94-3.43.17-.5.63-.89,1.05-1.48Z" fill-rule="evenodd"/><path d="M680.75,821.58c-.49,1.57-1,3.59-1.77,5.5-.23.55-1.17,1.13-1.8,1.14-1.1.02-1.48-1.05-1.33-1.95.42-2.53.94-5.04,1.6-7.51.16-.59,1.03-.98,1.58-1.46.44.58,1,1.12,1.28,1.76.27.61.25,1.35.44,2.52Z" fill-rule="evenodd"/><path d="M762.81,738.05c1.29,2.59.8,4.39.4,6.21-2.9,13.03-8.72,24.82-15.46,36.18-3.12,5.27-5.94,10.77-10.04,15.42-.74.83-1.3,2.48-2.7,1.61-1.43-.89-.1-2.11.31-3.11,2.16-5.36,5.58-10.02,8.51-14.95,6.1-10.25,11.34-20.87,14.58-32.42.61-2.18,1.45-4.32,2.34-6.41.34-.8,1.12-1.41,2.06-2.53Z" fill-rule="evenodd"/><path d="M300.03,26.99c-.18-1.41-.42-2.48-.43-3.54,0-1.21.71-2.08,1.88-2.38,1.31-.33,2,.44,2.41,1.61,1.37,3.96,4.8,5.91,8.02,8.01,11.28,7.36,22.72,14.48,33.85,22.05,9.98,6.79,19.85,13.79,29.36,21.22,8.33,6.51,16.11,13.72,24.1,20.67,4.41,3.83,8.7,7.76,14.2,10.1,4.53,1.92,9.21,2.21,13.97,1.84,3.04-.23,6.05-.91,9.08-1.31,1.27-.17,2.57-.26,3.85-.15,3.94.33,5.68,4.03,3.49,7.36-1.4,2.12-3.39,3.58-5.58,4.79-3.9,2.16-7.83,4.26-11.69,6.47-6.18,3.54-12.4,7.02-18.46,10.76-5.9,3.64-12.21,6.03-19.01,7.24-11.87,2.11-23.76,4.1-35.58,6.39-6.83,1.32-11.09-2.01-12.8-7.96-.65-2.26-1.09-4.65-1.2-6.99-.67-13.88-6.43-25.48-15.41-35.79-5.64-6.47-12.3-11.73-19.13-16.83-4.2-3.14-8.31-6.43-11.58-10.59-3.27-4.18-4.93-8.91-5.14-14.25-.4-9.68,3.27-17.96,8.54-25.72.44-.64,1.05-1.18,1.63-1.71.51-.46,1.09-.84,1.65-1.27Z" fill="#86b125" fill-rule="evenodd"/><path d="M959,487.46c.38,18.64.4,34.3-1.7,49.89-2.48,18.42-6.67,36.46-12.06,54.24-6.31,20.81-15.42,40.36-26.81,58.84-3.07,4.96-6.81,9.51-10.17,14.29-6.34,8.99-12.78,17.92-18.9,27.07-7.84,11.72-16.68,22.68-25.22,33.87-10.94,14.33-24.11,26.56-36.74,39.29-6.61,6.66-14.55,11.59-22.34,16.72-10.78,7.1-22.08,13.25-33.44,19.36-3.9,2.1-7.59,4.69-11.09,7.43-11.57,9.04-23,18.23-34.49,27.37-9.05,7.2-18.73,13.34-29.47,17.72-6.2,2.53-11.57,6.49-17.17,10.04-7.86,4.99-15.74,9.97-23.76,14.7-9.55,5.64-20,8.16-31.07,7.6-13.81-.69-27.02,1.77-39.93,6.52-4.83,1.78-9.8,3.2-14.75,4.63-10.92,3.16-22.08,4.89-33.46,4.73-8.62-.12-17.25-.4-25.85-.94-7.07-.44-14.07-.25-21.04.88-4.9.79-9.78,1.65-14.68,2.38-2.45.36-4.92.61-7.39.74-7.92.4-15.85.67-23.77,1.08-12.94.66-25.74-.36-38.48-2.7-13.68-2.51-27.52-3.59-41.37-4.61-3.04-.22-6.15.09-9.2.38-11.69,1.11-23.33,1.39-34.98-.66-4.67-.82-9.46-.98-14.21-1.3-9.43-.65-18.72-2.1-27.8-4.76-15.51-4.54-31.07-8.92-46.47-13.78-7.16-2.26-14.14-5.21-20.98-8.35-16.32-7.5-32.02-16.2-47.4-25.49-5.77-3.48-11.64-6.83-17.23-10.59-28.56-19.16-53.07-42.65-74.74-69.3-16.67-20.5-29.38-43.2-40.16-67.19-13.06-29.07-21.58-59.39-26.35-90.83-.32-2.14-.92-4.25-1.5-6.35-.46-1.67-1.46-3.22-.23-5.05.35-.52-.02-1.54-.1-2.33-2.61-24.61-2.97-49.29-1.89-73.97.77-17.69,4.38-35,8.13-52.26,3.57-16.44,9.06-32.25,15.54-47.73,5.25-12.53,10.49-25.07,16.01-37.48,2.65-5.96,5.62-11.83,8.97-17.43,12.31-20.61,25.39-40.72,39.75-59.98,6.06-8.12,12.48-15.91,19.59-23.13,5.01-5.09,9.83-10.36,14.87-15.41,4.2-4.21,8.4-8.45,12.94-12.28,15.92-13.42,32.06-26.59,49.5-38.04,4.97-3.26,10-6.49,15.23-9.29,14.87-7.94,29.82-15.73,44.81-23.43,10.64-5.46,21.94-9.18,33.56-11.93,7.64-1.81,15.15-4.02,22.29-7.32,3.51-1.62,6.93-3.42,10.36-5.2,9.02-4.68,14.41-12.49,18.39-21.48,4.45-10.05,3.99-19.92-1.65-29.36-5.91-9.91-13-18.77-23.57-24.14-2.64-1.34-5.41-2.44-8.17-3.55-2.94-1.18-5.96-2.16-8.9-3.36-7.23-2.96-10.77-8.71-11.96-16.17-.99-6.19-.47-12.29,1.49-18.21,3.82-11.53,9.7-21.91,17.84-30.96.6-.66,1.24-1.28,1.87-1.91,8.24-8.24,17.87-10.9,29.15-7.55,5.54,1.65,10.87,3.74,15.98,6.42,5.09,2.67,10.18,5.36,15.3,7.97,14.13,7.19,26.75,16.63,39.36,26.1,9.01,6.77,16.68,14.9,24.16,23.28,7.74,8.67,16.27,16.53,26.24,22.68,4.37,2.69,8.98,4.61,14.09,5.27,8.76,1.14,17.4,2.76,25.9,5.31,8.71,2.62,17.63,3.83,26.73,1.86,2.23-.49,4.5-.77,6.72-1.29,16.88-4,33.85-3.39,50.85-.96,7.56,1.08,15.11,2.22,22.67,3.26,11.55,1.58,22.73,4.51,33.49,9.07,1.72.73,3.59,1.14,5.43,1.52,11.37,2.31,22.77,4.45,34.11,6.87,9.32,1.99,18.42,4.77,27.4,7.95,23.5,8.3,45.55,19.47,66.37,33.15,5.05,3.32,10.33,6.3,15.36,9.65,13.21,8.82,25.66,18.61,37.67,29.01,10.18,8.83,20.89,17.04,31.36,25.55,15.94,12.96,29.79,27.91,41.83,44.52,5.35,7.39,10.81,14.73,15.64,22.45,14.15,22.59,25.92,46.33,34.28,71.74,6.77,20.57,13.12,41.23,15.94,62.75,1.69,12.87,2.69,25.83,3.84,38.77.77,8.69,1.25,17.41,1.65,23.15ZM505.37,708.47c-.44.81-.77,1.39-1.07,1.98-7.15,14.49-14.26,29.01-21.47,43.46-1.28,2.56-2.81,5.03-4.51,7.33-1.46,1.97-3.17,3.84-5.04,5.42-3.59,3.02-7.8,3.74-12.3,2.38-1.42-.43-2.8-1.01-4.16-1.6-6.73-2.97-13.16-6.52-19.19-10.72-16.46-11.48-32.11-24-46-38.52-19.63-20.54-37.39-42.59-53.06-66.35-17.28-26.2-33.49-52.94-45.97-81.84-7.82-18.12-15.72-36.18-20.99-55.27-.57-2.07-1.55-4.08-2.66-5.93-5.23-8.79-9.97-17.83-14.18-27.14-1.06-2.34-1.91-4.78-2.77-7.21-.29-.82-.47-1.78-.33-2.61.11-.67.69-1.55,1.26-1.75.58-.2,1.54.14,2.1.56.6.45.99,1.23,1.35,1.92.98,1.84,1.89,3.71,2.82,5.57,8.93,17.87,18.83,35.14,31.4,50.74,14.12,17.54,28.77,34.62,44.44,50.81,13.25,13.69,26.66,27.21,41.63,39.04,9.1,7.19,18.5,14,27.87,20.84,2.79,2.03,5.92,3.6,8.93,5.32,3.06,1.76,5.89,1.28,8.47-1.05,1.25-1.13,2.54-2.22,3.74-3.4,5.35-5.25,9.45-11.45,13.45-17.74,3.99-6.27,7.99-12.54,12.08-18.75,6.44-9.78,12.58-19.72,17.95-30.14.7-1.37,1.03-2.65.77-4.25-1.22-7.43-2.41-14.88-3.39-22.34-1.92-14.64-3.69-29.3-5.55-43.95-.2-1.55-.55-3.11-1.03-4.61-.55-1.75-1.91-2.5-3.71-2.25-1.86.26-3.72.6-5.56.97-13.22,2.66-26.39,5.61-39.66,7.93-11.74,2.05-23.35,4.47-34.75,7.93-3.79,1.15-7.61,2.23-11.47,3.14-2.11.5-4.3.73-6.47.82-1.94.08-3.79-.54-5-2.17-2.03-2.73-3.76-5.65-3.84-9.18-.07-2.87-.14-5.76.16-8.61.62-5.92,1.44-11.81,2.24-17.7,3.98-29.32,11.54-57.73,22.24-85.28,8.05-20.73,17.73-40.74,28.42-60.21,10.65-19.4,22.48-38.07,36.95-54.94.89-1.04,1.42-2.63,1.56-4.02.19-1.84-.04-3.76-.33-5.61-.88-5.58-2-11.12-2.79-16.7-4.64-32.74-6.83-65.67-7.28-98.72-.07-4.96-.11-9.92-.16-14.87-.03-2.46-.41-3.11-2.7-4.01-2.87-1.13-5.74-1.47-8.63.04-1.49.78-3.06,1.42-4.59,2.11-24.79,11.18-46.71,26.56-65.57,46.08-23.18,23.98-42.26,50.9-56.73,81.05-8.58,17.89-16.32,36.14-23.87,54.47-11.23,27.28-20.46,55.2-27.61,83.82-6.17,24.69-10.21,49.71-12.34,75.06-1.66,19.69-1.7,39.42-.77,59.15.71,15.16,2.25,30.25,4.75,45.23,3.42,20.51,9.13,40.45,16.31,59.9,10.57,28.62,23.67,56.07,40.05,81.87,14.55,22.92,31.26,44.12,49.96,63.85,29.18,30.79,61.99,56.72,99.68,76.3,17.31,8.99,35.48,15.81,54.56,20.05,11.17,2.48,22.48,3.91,33.95,3.21,9.5-.58,18.98-1.26,28.4-2.78,10.94-1.76,21.31-5.42,31.65-9.18,2.15-.78,3.14-2.57,3.47-4.8.33-2.24-.7-3.74-2.31-5.13-8.88-7.66-16.09-16.66-21.62-27.01-1.73-3.23-3.7-6.33-5.52-9.51-6.7-11.7-13.74-23.22-20.01-35.14-10.67-20.31-18.31-41.96-27.15-63.08-3.02-7.21-5.58-14.61-8.49-22.28ZM726.27,645.69c.21-.49.38-.73.43-.99,1.68-8.7,2.09-17.51,1.96-26.34-.17-11.4-.46-22.8-.75-34.19-.07-2.87-.23-5.74-.47-8.61-.37-4.45-.74-8.89-1.29-13.31-.77-6.19-1.68-12.37-2.6-18.53-.16-1.07-.53-2.13-.97-3.12-.91-2.07-1.98-2.77-4.21-2.49-1.65.21-3.3.68-4.89,1.2-7.63,2.5-15.19,5.23-22.88,7.52-4.43,1.32-9.03,2.34-13.63,2.8-7.25.74-10.31-2.21-10.36-9.52-.03-3.66.22-7.34.55-10.99,2.75-30.53,7.37-60.82,12.81-90.96,3.59-19.9,7.93-39.67,11.98-59.48,1.17-5.73,2.33-11.46,3.79-17.12,1.49-5.78,2.01-11.7.61-17.34-2.02-8.15-4.64-16.2-7.65-24.05-9.06-23.67-20.85-46.04-33.21-68.12-3.38-6.04-7.1-11.95-11.18-17.54-8.58-11.78-17.61-23.23-26.25-34.96-11.38-15.46-25.43-28.28-39.85-40.73-16.62-14.35-35.28-25.6-54.89-35.32-3.79-1.88-7.89-3.24-11.99-4.33-6.03-1.61-12.19-2.7-18.27-4.13-9.79-2.32-19.68-2.47-29.54-.97-7.57,1.15-14.57,3.94-19.88,9.82-3.6,3.98-6.17,8.35-6.04,14.08.12,5.14-.46,10.3-.48,15.46-.1,23.91.82,47.79,3.08,71.59,1.11,11.72,1.72,23.52,4.42,35.06,1.06,4.53,2,9.09,4.05,13.33.69,1.41,1.55,2.35,3.14,2.86,5.99,1.92,11.41,4.96,16.64,8.46,11.53,7.72,21.36,17.41,31.32,26.92,15.44,14.71,30.39,29.92,43.8,46.55,7.77,9.64,15.59,19.27,22.33,29.7,5.97,9.24,11.82,18.56,17.87,27.75,5.61,8.5,9.88,17.64,13.33,27.17.93,2.59,1.54,5.35,1.86,8.09.59,5.05-1.4,8.94-6.09,11.17-1.87.89-3.86,1.55-5.82,2.23-1.68.58-3.44.95-5.12,1.55-17.84,6.46-36.15,11.34-54.69,15.15-17.29,3.55-34.59,6.96-51.68,11.4-3.48.9-5.5,2.97-6.55,6.19-.39,1.21-.62,2.52-.64,3.79-.03,2.28.02,4.56.26,6.82,1.96,18.54,3.98,37.07,5.96,55.6.31,2.85.34,5.79,3.27,7.49,6.15,7.7,13.31,14.45,20.55,21.05,11.86,10.82,24.04,21.31,36.28,31.7,7.4,6.29,15.14,12.18,22.79,18.16,2.49,1.95,5.15,3.71,7.86,5.37,4.75,2.91,6.51,2.96,10.73-.54,4.11-3.41,8.12-7.01,11.71-10.94,6.09-6.65,11.72-13.72,17.74-20.44,8.34-9.3,16.84-18.45,25.3-27.65,2.58-2.8,5.75-3.43,9.22-2.01,2.01.82,3.97,1.83,5.8,2.99,4.19,2.64,8.38,5.31,12.43,8.17,17.32,12.26,34.57,24.61,51.88,36.88,4.45,3.15,9,6.15,13.53,9.2.79.54,1.67.96,2.58,1.48ZM330.08,880.39c6.74,0,13.48.03,20.22-.03,1.16-.01,2.37-.23,3.46-.63,1.28-.46,2.78-1.02,2.68-2.76-.08-1.61-1.6-1.88-2.76-2.34-16.37-6.38-32.12-14.12-47.95-21.71-29.73-14.26-56.76-32.51-80.73-55.16-19.18-18.13-35.48-38.71-50.1-60.64-17.56-26.32-31.23-54.45-40.02-84.94-7.48-25.97-12.1-52.32-12.32-79.39-.1-12.91.69-25.76,1.74-38.62,1.97-24.07,5.97-47.81,11.86-71.21,8.81-35.01,21.66-68.63,36.3-101.54,8.33-18.74,17.63-37.06,26.75-55.44,9.1-18.34,19.59-35.84,32.4-51.87,4.52-5.65,8.92-11.4,13.45-17.05,11.65-14.55,23.38-29.05,36.73-42.12,1.2-1.17,2.25-2.51,3.23-3.88.55-.78.88-1.75,1.16-2.68.41-1.33-.24-2.24-1.53-2.29-1.46-.06-2.96.05-4.39.37-10.51,2.34-20.4,6.32-30.09,11-24.71,11.94-48.3,25.68-70.14,42.37-15.85,12.12-31.33,24.64-45.24,39-12.72,13.13-24.09,27.38-35,42.03-12.64,16.96-24.23,34.61-34.38,53.16-14.85,27.13-26.7,55.52-35.28,85.3-9.31,32.3-14.9,65.1-15.1,98.76-.11,17.99,1.48,35.85,4.43,53.58,2.4,14.38,4.87,28.76,9.07,42.74,11,36.68,28.44,70.09,51.7,100.48,4.82,6.3,9.91,12.39,14.89,18.57,13.41,16.67,29.52,30.51,46.74,42.95,24.79,17.92,52.08,31.51,80.27,43.14,34.51,14.23,70.71,20.51,107.97,20.86ZM398.52,881.32c-.34-2.02-1.78-2.59-3-3.31-12.24-7.18-24.01-15.06-35.35-23.61-1.1-.83-2.21-1.72-3.09-2.77-.37-.45-.16-1.38-.22-2.09.64-.03,1.44-.32,1.9-.04,2.29,1.37,4.51,2.87,6.72,4.37,7.54,5.12,14.96,10.44,22.64,15.34,10.96,7.01,22.32,13.3,34.59,17.75,2.48.9,5.14,1.41,7.76,1.81,3.04.46,6.11.68,9.18.86,6.93.41,13.85.79,20.78,1.05,2.07.08,4.17-.13,6.21-.49,2.05-.37,2.63-2.26,1.16-3.76-.72-.74-1.78-1.25-2.78-1.6-14.18-4.98-27.57-11.6-40.62-19.02-21.09-12-40.98-25.73-59.39-41.53-14.47-12.42-27.61-26.19-40.39-40.32-25.32-28.01-45.88-59.27-62.81-92.86-11.47-22.76-21.27-46.28-28.09-70.97-4.98-18-9.16-36.1-11.17-54.7-2.88-26.59-3.43-53.24-1.86-79.9,2.18-36.99,9.28-73.14,19.6-108.67,10.53-36.27,25.03-71.03,40.61-105.36,14.52-32.01,33.43-61.19,56.84-87.46,8.95-10.04,18.89-18.94,29.34-27.33,1.62-1.3,3.32-2.53,4.79-4,1.41-1.4.99-2.87-.95-3.26-1.52-.3-3.22-.43-4.69-.05-3.73.96-7.51,1.95-11.03,3.46-15.73,6.77-30.46,15.34-44.15,25.62-13.21,9.93-24.95,21.51-35.81,33.89-10.85,12.36-21.12,25.24-31.49,38.02-13.97,17.23-26.03,35.72-36.23,55.43-16.1,31.1-31.05,62.72-43.61,95.45-17.07,44.46-29.36,90.05-33.54,137.65-2.78,31.66-1.44,62.99,6.09,93.96,6.55,26.92,15.99,52.7,29.61,76.91,11.72,20.82,25.74,39.99,40.83,58.44,22.98,28.1,50.68,50.43,82.62,67.48,12.85,6.86,26.01,13.14,39.1,19.56,21.78,10.69,44.63,18.61,67.76,25.77.6.18,1.25.17,2.13.27ZM731.14,644.8c.13.12.27.24.41.35,1.11-1.71,2.3-3.38,3.31-5.14,10.94-18.99,21.83-38,32.8-56.98,6.05-10.47,12.21-20.87,18.35-31.3.6-1.02,1.3-2,2.08-2.9,2.86-3.27,6.42-3.26,9.07.15,1.21,1.55,2.21,3.31,3.03,5.1,3.4,7.38,6.69,14.82,10.03,22.23.43.95.88,1.89,1.52,3.26.56-1.05.95-1.59,1.16-2.2,2.07-6.1,4.22-12.17,6.13-18.32,1.87-6.05,3.25-12.27,5.24-18.28,3.98-11.96,7.44-24.06,10.34-36.32.25-1.05.47-2.15.43-3.22-.19-5.15-.31-10.31-.76-15.44-.75-8.39-1.69-16.76-2.65-25.13-1.3-11.33-2.94-22.62-5.96-33.64-.52-1.89-1.48-3.66-2.11-5.52-.93-2.75-3.13-3.69-5.69-4.07-.97-.14-1.97-.06-2.95-.03-6.84.25-13.67.58-20.5.76-2.07.06-4.16-.18-6.22-.44-5.68-.71-9.07-4.13-10.66-9.44-.63-2.08-1.06-4.24-1.3-6.4-1.33-11.93-2.66-23.85-3.82-35.79-1.17-12.04-2.09-24.1-3.22-36.14-1.22-12.93-2.48-25.86-3.85-38.77-1.43-13.4-2.81-26.81-6.22-39.91-1.22-4.69-1.98-9.5-3.15-14.2-2.13-8.56-4.97-16.89-8.14-25.14-1.84-4.78-4.11-9.15-7.34-13.14-8.52-10.51-18.07-20-27.85-29.3-10.98-10.44-23.08-19.35-36.09-27.07-20.15-11.96-42.05-19.4-64.56-25.32-6.71-1.77-13.4-3.64-20.35-4.26-14.32-1.27-28.65-2.66-43.04-2.61-5.73.02-11.48.52-17.18,1.11-1.54.15-3.15,1.18-4.38,2.22-1.63,1.37-1.29,2.98.51,4.08.34.21.7.36,1.06.55,12.19,6.49,24.05,13.54,34.87,22.13,9.62,7.64,19.08,15.51,28.21,23.73,9.13,8.22,17.86,16.92,25.57,26.53,6.27,7.81,12.43,15.71,18.49,23.67,9.91,13.03,19.67,26.16,27.42,40.65,4.58,8.57,9.34,17.04,13.81,25.67,7.33,14.2,13.94,28.74,18.95,43.92,2.76,8.36,4.67,17,6.99,25.51.78,2.85,1.49,5.72,3.56,8.05,2.29,2.59,4.63,5.18,6.58,8.01,3.15,4.56,5.84,9.45,9.04,13.99,5.28,7.47,9.94,15.3,14.19,23.38,9.86,18.71,18.54,37.94,25.61,57.89,3.71,10.47,7.45,20.92,9.73,31.83,1.35,6.42,2.3,12.89,1.45,19.48-.62,4.78-2.89,8.39-7.41,10.36-2.27.99-4.54,2.02-6.89,2.77-8.41,2.68-16.84,5.26-25.27,7.85-2.85.88-3.61,1.62-3.76,4.56-.13,2.57-.17,5.17.1,7.71.77,7.29,1.86,14.55,2.56,21.84.66,6.8,1.2,13.63,1.41,20.46.25,7.92.2,15.87.04,23.8-.12,5.74-.53,11.48-1,17.2-.43,5.22-1.12,10.42-1.7,15.62ZM866.08,262.51c-1.21,1.45-.96,2.61-.46,3.69.49,1.07,1.11,2.1,1.76,3.08,14.7,22.06,26.66,45.47,35.03,70.67.19.56.54,1.14.51,1.7-.03.61-.41,1.2-.64,1.8-.58-.25-1.33-.35-1.69-.77-.49-.58-.69-1.41-1.01-2.13-3.72-8.43-7.32-16.93-11.18-25.29-6.14-13.29-14.21-25.43-22.56-37.39-11.25-16.11-23.06-31.77-36.83-45.88-12.69-13-26.06-25.22-40.26-36.58-26-20.83-54-38.29-84.69-51.34-4.37-1.86-8.92-3.3-13.39-4.91-.65-.24-1.37-.58-2-.48-.68.11-1.59.53-1.85,1.07-.25.53.09,1.44.39,2.08.18.39.77.58,1.18.86,27.9,18.95,51.24,42.42,70,70.46,1.52,2.26,3.48,4.47,5.73,5.96,7.83,5.2,14.65,11.58,21.05,18.32,19.97,21.03,38.27,43.47,55.07,67.09,12.88,18.11,24.08,37.33,35,56.66,3.34,5.92,5.89,12.36,8.18,18.78,1.72,4.82,2.83,9.93,3.54,15,1.12,8.04-1.62,12.01-9.33,14.6-1.69.57-3.42,1.07-5.17,1.35-3.52.57-7.06,1.04-10.61,1.41-8.97.94-17.95,1.75-26.92,2.71-3.25.35-4.36,1.55-4.47,4.79-.07,2.36-.04,4.78.36,7.11,1.87,10.93,4.05,21.8,5.81,32.75,2.1,13.02,3.52,26.12,3.51,39.35,0,.72.18,1.68.66,2.11,3.01,2.7,4.9,6.21,7.1,9.5,4.34,6.52,8.72,13.01,13.1,19.5.46.68,1.06,1.26,1.78,2.11.68-1.2,1.18-2.04,1.63-2.91,12.35-23.51,21.88-48.2,30.54-73.23,3.13-9.06,5.11-18.52,7.66-27.79,1.03-3.72,2.48-7.35,3.22-11.12,1.54-7.87,3.04-15.78,3.99-23.74,1.1-9.14,1.59-18.35,2.34-27.52.03-.39.03-.79.03-1.19,0-1.09.33-2.12,1.52-2.21,1.46-.11,1.71,1.14,1.81,2.24.12,1.38.03,2.78.14,4.16.37,4.73.44,9.52,1.24,14.19,2.92,17.05,4.21,34.21,4.37,51.49.12,12.71-1,25.36-1.69,38.03-.66,12.29-2.23,24.49-4.37,36.6-1.83,10.34-4.09,20.61-6.29,30.88-5.94,27.8-14.82,54.7-24.84,81.26-.28.74-.61,1.47-.98,2.17-.75,1.42-1.86,2.36-3.57,2.14-1.61-.21-2.3-1.4-2.7-2.81-.13-.48-.25-.96-.39-1.43-1.92-6.45-3.83-12.91-5.79-19.35-.38-1.24-.95-2.42-1.43-3.63-.21.02-.43.03-.64.05-.51,1.26-1.05,2.51-1.51,3.79-5.52,15.35-13.11,29.74-20.47,44.24-1.12,2.2-2.41,4.34-3.78,6.4-8.89,13.37-17.81,26.73-26.78,40.05-.92,1.37-2.3,2.42-3.42,3.67-.57.64-1.3,1.32-1.48,2.1-2.13,9.11-5.61,17.76-8.95,26.46-6.88,17.9-14.51,35.44-26.47,50.7-.48.62-.89,1.33-1.14,2.06-.68,1.94.6,3.41,2.59,3.02.57-.11,1.12-.41,1.63-.71,5.31-3.09,10.63-6.18,15.91-9.32.84-.5,1.57-1.21,2.26-1.91,2.08-2.12,4.19-4.22,6.17-6.45,1.91-2.14,3.89-4.27,5.44-6.67,6.02-9.33,12.1-18.62,17.73-28.19,4.72-8.02,9.2-16.23,13.16-24.64,6.49-13.75,11.02-28.22,14.71-42.97.22-.88.19-2.05,1.77-2.3,1.4,1.64,1.09,3.66.77,5.53-1.48,8.71-3.62,17.28-6.87,25.51-6.98,17.69-16.51,34.04-26.74,50.01-3.26,5.09-6.37,10.28-9.54,15.43-.56.9-1.35,1.81.1,3.08.74-.51,1.58-.97,2.28-1.58,4.41-3.84,8.96-7.54,13.15-11.61,23.83-23.19,43.98-49.07,59.21-78.83,15.27-29.85,25.61-61.21,31.24-94.18,3.16-18.5,4.65-37.16,5.61-55.9.74-14.48.31-28.94.23-43.41-.03-5.25.03-10.5.09-15.74,0-.49.3-.98.63-1.95.3.88.49,1.23.54,1.6.43,3.23.82,6.47,1.25,9.7,1.79,13.39,2.45,26.85,2.18,40.35-.23,11.69-.55,23.4-1.3,35.07-.66,10.28-1.71,20.55-3.07,30.76-2.81,21.12-8.75,41.48-15.47,61.64-.25.75-.59,1.49-.73,2.26-.25,1.34.7,2.25,1.89,1.67.91-.44,1.79-1.26,2.31-2.13,1.75-2.88,3.42-5.82,4.95-8.81,11.59-22.56,19.55-46.31,24.12-71.29,4.43-24.26,5.23-48.67,4.05-73.19-.66-13.76-2.12-27.47-3.23-41.21-1.01-12.58-2.77-25.06-6.1-37.23-2.62-9.55-5.92-18.91-8.84-28.38-5.52-17.86-12.77-35.01-21.12-51.71-6.16-12.33-12.25-24.7-20.73-35.69-2.67-3.45-5.06-7.11-7.63-10.63-3.81-5.21-8.36-9.74-13.18-14.47ZM513.65,711.78c.3,1.19.41,1.94.68,2.64,1.16,3.06,2.36,6.1,3.54,9.15,4.2,10.91,8.14,21.94,12.64,32.72,6.95,16.65,14.87,32.86,23.31,48.82,9.64,18.22,21.23,35.1,35.01,50.43,2.96,3.29,6.4,6.2,9.86,8.99,4.54,3.66,10.03,5.38,15.72,5.67,13.22.66,26.08-.91,38.14-7.04,9.22-4.69,17.48-10.72,24.49-18.15,9.16-9.71,15.92-21.21,21.87-33.15,5.33-10.7,8.81-22.07,12.14-33.5,1.26-4.33,1.09-8.59.12-12.91-.42-1.88-1.18-3.51-2.37-5.05-15.58-20.17-32.49-39.23-48.76-58.83-.82-.99-1.76-1.88-2.72-2.73-.47-.43-1.09-.67-1.85-1.11-1.95,3.83-3.89,7.39-5.61,11.07-5.59,11.93-11.02,23.95-16.66,35.86-3.01,6.35-6.29,12.59-9.55,18.82-.96,1.83-2.14,3.59-3.44,5.19-2.42,2.96-5.61,3.98-9.33,2.98-1.62-.44-3.22-1.01-4.76-1.68-16.08-6.88-31.32-15.35-46.03-24.76-15.46-9.88-30.49-20.37-44.56-32.19-.43-.37-.95-.63-1.86-1.23ZM297.57,35.69c.76,1.04,1.35,2.37,2.37,3.13,3.97,2.96,8.08,5.74,12.13,8.59,9.72,6.84,19.94,13.02,28.33,21.61,2.7,2.76,5.5,5.44,8.34,8.06,5.14,4.74,9.44,10.17,13.34,15.93,3.15,4.67,5.15,9.78,6,15.38,1.36,8.95,1.76,17.94,1.49,26.98-.08,2.55,1.45,3.8,3.94,3.3,1.75-.35,2.86-1.51,3.24-3.13.43-1.81.85-3.73.69-5.56-.73-8.49-1.4-17-2.59-25.43-1.04-7.37-4.04-14.09-8.79-19.9-3.98-4.86-8.55-9.09-13.61-12.81-2.88-2.11-5.66-4.35-8.45-6.57-.61-.48-1.2-1.07-1.59-1.74-.69-1.2.04-2.28,1.4-2.01.94.19,1.9.62,2.67,1.19,7.74,5.72,15.38,11.57,21.68,18.94,6.14,7.18,9.95,15.52,11.44,24.8,1.37,8.51,2.65,17.05,2.61,25.72,0,1.16.12,2.49.69,3.43.48.77,1.73,1.46,2.61,1.44.65-.01,1.41-1.16,1.87-1.94.31-.55.22-1.35.21-2.04-.19-9.52-.46-19.04-2.49-28.39-1.97-9.09-4.85-17.8-11.32-24.85-.14-.15-.35-.3-.36-.46-.04-.54-.21-1.29.07-1.56.29-.29,1.15-.33,1.56-.11.86.46,1.66,1.09,2.36,1.77,3.04,2.95,5.2,6.49,6.72,10.42,4.24,10.96,7.43,22.17,7.67,34.04.05,2.47.07,4.95.09,7.43,0,1.03,0,2.04,1.35,2.25,1.31.2,2.27-.48,2.49-1.91.15-.97.16-1.98.09-2.97-.37-5.24-.67-10.48-1.22-15.71-.3-2.85-.92-5.67-1.6-8.45-.8-3.27-1.83-6.48-2.77-9.72-.3-1.03-.74-2.06.63-3.15.53.57,1.22,1.02,1.5,1.65,3.35,7.63,6.63,15.28,6.87,23.82.11,3.86.41,7.72.58,11.59.05,1.15.46,1.94,1.64,2.1,1.24.16,2.1-.48,2.56-1.59.18-.44.22-.96.24-1.45.05-.99.16-1.99.06-2.97-.51-5.12-1.08-10.24-1.61-15.36-.14-1.31-.72-2.7.58-3.85,1.72.37,2.12,1.82,2.65,3.03,1.97,4.59,3.11,9.39,3.4,14.39.19,3.35,1.6,4.33,4.82,3.32,1.8-.56,3.54-1.29,5.34-1.84,3.47-1.07,6.6-2.79,9.22-5.27,4.69-4.44,9.5-8.67,15.63-11.15-.19-.43-.25-.74-.43-.93-6.29-6.32-12.55-12.68-18.91-18.94-6.22-6.12-12.68-11.99-18.78-18.23-8.54-8.74-17.47-16.98-27.27-24.32-14.28-10.69-29.69-19.43-45.74-27.09-3.44-1.64-7.28-2.57-11.04-3.34-2.04-.42-4.42-.21-6.43.42-5.26,1.65-9.28,5.17-12.76,9.37-1.6,1.93-1.51,3.87-.15,5.71.92,1.25,2.1,2.38,3.36,3.3,8.57,6.25,17.19,12.42,25.8,18.62,1.65,1.19,3.32,2.39,4.33,4.29-1.16,1-2.02.29-2.8-.21-3.75-2.4-7.53-4.77-11.2-7.3-6.86-4.72-13.63-9.57-20.47-14.32-2.02-1.41-2.07-1.34-4.29.59ZM795.76,655.78c-.58.69-.86.96-1.07,1.29-7.47,11.69-14.91,23.4-22.42,35.07-3.54,5.5-7.08,11.01-10.81,16.38-10.24,14.73-20.63,29.35-30.88,44.08-2.94,4.22-5.69,8.59-8.36,12.99-3.94,6.51-5.87,13.85-8.03,21.04-4.75,15.75-11.19,30.7-20.06,44.58-.63.98-1.09,2.13-1.33,3.26-.53,2.41,1.23,4.6,4.07,3.23,4.73-2.29,9.59-4.33,13.75-7.62,8.94-7.06,17.84-14.18,26.73-21.31,1.15-.93,2.21-2,3.22-3.08,5.87-6.32,11.81-12.57,17.53-19.02,12.03-13.58,22.59-28.22,29.61-45.02,6.22-14.89,11.67-30.11,17.54-45.15.95-2.44.99-4.77.28-7.24-3.01-10.47-5.97-20.95-8.97-31.43-.16-.54-.41-1.06-.8-2.04ZM531.3,357.32c-.61.4-1.11.72-1.6,1.06-7.72,5.36-15.42,10.76-23.17,16.08-1.7,1.17-3.55,2.16-5.41,3.07-.89.44-2.03,1.38-2.95.19-.97-1.27.37-2,1.09-2.65,1.6-1.46,3.26-2.9,5.06-4.1,7.6-5.03,15.26-9.95,22.88-14.93.62-.4,1.15-.93,1.83-1.49-5.01-5.98-10.21-11.4-15.81-16.44-2.18-1.97-2.27-2.07-4.81-.53-5.75,3.5-11.42,7.13-17.12,10.71-.76.47-1.5.96-2.29,1.38-.78.41-1.72.44-2.02-.45-.2-.58.09-1.48.45-2.05.34-.55,1.06-.86,1.62-1.27,4.89-3.54,9.79-7.08,14.67-10.64,1.08-.79,2.08-1.67,3.26-2.62-4.17-3.75-8.06-7.25-11.98-10.78-12.64,10.51-25.17,20.92-37.89,31.5,2.82,2.93,5.65,5.88,8.49,8.83,1.35-.84,2.34-1.49,3.36-2.08,2.14-1.25,4.28-2.49,6.46-3.66.82-.43,1.8-1.09,2.7.46-2.37,3.57-6.49,5.47-9.25,8.52,10.26,12.56,20.39,24.94,30.36,37.15,16.03-8.96,31.9-17.83,47.76-26.71-2.35-4.36-11.43-15.1-15.71-18.53ZM576.17,418.45c-5.45-10.47-12.04-19.46-18.43-28.54-16.38,8.87-32.47,17.59-48.77,26.43,4.65,7.19,9.36,14.46,14.1,21.8,17.78-6.59,35.31-13.09,53.1-19.69ZM798.68,293.4c5.12,8.85,10.1,17.47,15.15,26.19,2.81-1.59,5.47-3.12,8.14-4.62.69-.39,1.38-.88,2.13-1.02.59-.11,1.51.05,1.82.44.29.37.15,1.32-.13,1.83-.36.67-1,1.23-1.6,1.73-2.06,1.7-4.17,3.35-6.25,5.04-.66.54-1.28,1.12-1.9,1.67,3.72,8.15,7.33,16.05,10.99,24.08,8.76-3.5,17.41-6.48,25.77-10.32-10.56-20.04-23.5-37.98-37.38-55.13-5.8,3.5-11.29,6.81-16.74,10.1ZM744.51,435.32c-9.33,4.99-17.97,10.81-27.83,14.44,3.5,11.16,6.92,22.06,10.32,32.9,10.63-3.47,20.94-6.84,31.19-10.18-.56-4.06-11.5-33.74-13.67-37.16ZM492.27,319.02c-6.71-5.66-13.27-11.18-19.96-16.82-5.93,6.03-11.58,11.98-17.46,17.71-5.85,5.69-11.93,11.16-17.82,16.65,5.77,4.56,11.33,8.96,17.08,13.51,12.58-10.23,25.16-20.46,38.17-31.04ZM577.87,421.22c-17.28,7.16-34.83,13.57-52.16,21.12,2.6,4.66,5.03,8.96,7.41,13.28.7,1.27,1.63,1.11,2.78.77,5.31-1.6,10.67-3.03,15.94-4.74,8.58-2.78,17.1-5.72,25.64-8.62,2.99-1.01,5.94-2.1,8.83-3.13-.3-4.31-4.5-13.65-8.43-18.68ZM291.68,51.72c-.75,3.45-.44,6.51,1.76,8.93,1.98,2.18,4.13,4.35,6.61,5.87,4.54,2.8,9.4,5.09,14.09,7.64,4,2.17,8.07,4.24,11.9,6.69,5.64,3.6,10.48,8.14,14.19,13.77,7.17,10.91,10.05,22.98,9.05,35.92-.25,3.2-1.48,6.33-2.31,9.47-.25.94-.66,1.83-.96,2.66,3.33,2.82,10.03,1.08,10.51-3.83.45-4.53.99-9.05,1.24-13.59.65-11.99-3.19-22.4-10.37-32.04-9.69-13.01-22.59-22.1-35.71-30.99-4.5-3.05-9.3-5.67-14-8.42-1.76-1.03-3.52-2.21-6-2.08ZM875.58,381.66c-3.83-10.05-8.63-19.32-13.94-28.17-9.57,3.34-18.89,6.6-28.29,9.89,2.68,7.91,5.3,15.65,8.04,23.71,11.28-1.79,22.57-3.58,34.19-5.43ZM767.04,250.63c8.4,11.2,16.81,22.42,25.29,33.74,5.21-3.46,10.36-6.89,15.51-10.31-1.97-3.72-24.75-31.1-27.79-33.46-4.3,3.32-8.59,6.63-13.01,10.03ZM716.42,380.89c-.6.37-.87.5-1.09.69-5.46,4.59-10.85,9.29-17.08,12.86-1.22.7-1.63,1.63-1.3,2.96.16.67.19,1.39.42,2.03,2.68,7.13,5.38,14.26,8.09,21.38.06.15.31.22.32.23,8.44-5.06,16.81-10.08,25.39-15.23-4.26-8.69-9.09-16.94-14.75-24.92ZM897.98,478.89c-.83,7.78-1.4,15.48-2.55,23.09-1.13,7.56-2.84,15.03-4.36,22.89,4.03-.91,7.67-1.87,11.35-2.51,2.18-.37,3.13-1.31,3.6-3.51,2.76-13.1,4.5-26.35,6.15-39.62.31-2.51.39-5.05.59-7.78-5.22,2.63-10.13,5.1-14.78,7.44ZM737.11,516.82c9.75-3.59,19.45-7.17,29.44-10.85-.05-6.29-1.58-12.42-3.33-18.49-11.03,3.34-21.67,6.56-32.28,9.77.65,5.95,4.31,17.39,6.16,19.57ZM714.72,444.38c8.88-6.06,18.96-8.76,28.11-13.83-3.09-6.75-6.08-13.29-9.08-19.83-8.87,5.15-17.41,10.1-26.12,15.15,2.28,5.96,4.6,12.03,7.08,18.51ZM891.76,576.66c3.02-5.92,10.3-34.96,9.72-38.97-4.87.68-9.75,1.35-14.74,2.05-3.67,12.56-7.3,24.98-11.01,37.69,5.6-.27,10.81-.52,16.03-.77ZM461.07,293.11c-2.54-1.54-4.59-2.9-6.74-4.06-6.32-3.41-8.27-3.2-12.72,2.34-5.39,6.71-10.54,13.63-15.63,20.57-3.28,4.47-6.29,9.14-9.35,13.77-1.12,1.69-.89,2.64.52,3.9,1.44,1.28,2.11,1.26,3.84-.18,2.66-2.22,5.39-4.36,7.94-6.71,8.38-7.72,16.68-15.52,25.03-23.27,2.17-2.01,4.42-3.95,7.1-6.36ZM729.58,706.41c.61.27,1.02.56,1.46.65,5.82,1.18,11.65,2.3,17.46,3.52,1.31.28,2.03-.23,2.7-1.23,5.42-8.04,10.87-16.07,16.29-24.11.31-.45.45-1.02.77-1.78-4.95-1.05-9.7-1.97-14.4-3.09-2.32-.56-3.8-.07-5.19,2.02-5.19,7.87-11.12,15.16-17.55,22.05-.53.56-.95,1.21-1.54,1.98ZM812.06,651.66c6.36,1.56,12.38,3.05,18.38,4.52,4.04-4.4,16.99-27.06,17.55-30.69-6.86.99-13.69,2.01-20.54,2.94-1.36.19-2.05.96-2.68,2.04-2.29,3.94-4.6,7.86-6.94,11.76-1.82,3.04-3.7,6.05-5.77,9.42ZM877.34,386.38c-11.68,1.93-23.13,3.83-34.84,5.77.64,3.81,1.17,7.6,1.95,11.34.43,2.05,1.27,2.44,3.46,2.3,5.33-.34,10.66-.58,15.98-1.1,4.02-.39,8.05-.94,11.99-1.82,2.99-.67,4.05-2.22,3.98-5.11-.09-3.88-1.2-7.56-2.52-11.38ZM294.68,41.83c-.89,2.43-.91,3.13.42,4.51.94.99,2.12,1.76,3.27,2.53,10.25,6.93,21.01,13.07,30.84,20.69,8.06,6.25,15.34,13.13,21.74,21.01,2.94,3.63,5.54,7.47,7.41,11.79,4.64,10.73,5.53,21.8,3.22,33.19-.2.96-.47,1.96-.4,2.93.14,1.98,2.19,3.13,3.58,1.95.61-.51.83-1.71.88-2.61.55-9.33.24-18.61-1.18-27.87-.8-5.2-2.53-9.93-5.24-14.4-4.41-7.29-10.08-13.48-16.41-19.1-5.56-4.93-10.96-10.08-16.91-14.51-8.41-6.27-17.26-11.98-25.93-17.9-1.54-1.05-3.11-2.11-5.28-2.23ZM536.71,460.08c-.07.28-.14.57-.21.86,1.16,1.17,2.17,2.58,3.52,3.47,1.79,1.18,3.77,2.31,6.11,1.76,12.54-2.96,25.07-5.92,37.6-8.94,1.33-.32,2.57-1.02,3.84-1.57,1.11-.48,1.78-1.31,1.6-2.56-.46-3.09-1-6.17-1.51-9.3-17.04,6.21-33.49,12.79-50.96,16.28ZM732.6,735.98c-2.34-.58-4.26-1.05-6.16-1.54-5.76-1.46-11.51-2.98-17.28-4.37-3.21-.77-5.3.47-6.43,3.57-1.15,3.14-.17,5.83,1.75,8.31,3.76,4.86,7.54,9.7,11.34,14.54.28.36.67.64,1.12,1.06,5.21-7.17,10.31-14.2,15.66-21.57ZM517.42,648.25c-.09.24-.18.49-.26.73,2.35,1.59,4.64,3.27,7.05,4.77,4.99,3.09,10.38,4.94,16.34,4.46,5.92-.47,11.82-1.08,17.72-1.68.51-.05.99-.47,1.43-.69,0-1.82-1.19-2.61-2.31-3.43-4.94-3.64-9.91-7.24-14.81-10.93-1.15-.86-2.15-1.03-3.54-.55-6.17,2.14-12.39,4.14-18.58,6.21-1.02.34-2.02.73-3.02,1.1ZM680.69,625.28c-.19-.33-.28-.63-.48-.79-5.61-4.22-11.25-8.41-16.82-12.67-1.26-.97-2.25-.67-3.5-.05-5.41,2.66-10.86,5.24-16.29,7.86-.47.23-.88.59-1.62,1.1,5.88,4.05,11.47,7.93,17.11,11.74.5.34,1.4.49,1.94.29,6.54-2.43,13.05-4.95,19.65-7.48ZM491.13,596.68c-5.68-5.73-11.13-11.24-16.85-17.01-1.06,1.96-1.96,3.69-2.9,5.38-1.97,3.54-4.02,7.05-5.95,10.61-1.69,3.14-1.49,4.57.84,7.22,1.76,2,3.56,3.98,5.37,5.94.57.62,1.25,1.15,1.89,1.73,5.92-4.67,11.63-9.18,17.59-13.88ZM506.03,412.22c16.71-8.62,33.06-17.05,49.77-25.68-2.01-2.57-3.74-4.78-5.44-6.96-16.22,9.13-31.72,18.88-48.39,27.12,1.44,1.95,2.71,3.67,4.06,5.51ZM747.05,715.36c-2.31-.32-3.96-.48-5.6-.77-4.88-.86-9.75-1.76-14.62-2.68-1.22-.23-2.25-.3-3.27.71-3.51,3.49-7.12,6.9-10.66,10.37-.44.43-.69,1.04-1.08,1.65,6.77,2.16,13.28,4.23,19.78,6.29.85.27,1.74.42,2.58.7.99.32,1.71.07,2.29-.79,3.4-4.99,6.81-9.97,10.57-15.46ZM637.94,617.89c6.27-3.83,12.86-6.47,19.36-10.48-6.49-4.18-12.47-8.04-18.45-11.89-.17-.11-.36-.16-.54-.26-1.32-.77-2.46-.52-3.45.6-2.69,3.04-5.45,6.03-8.04,9.15-1.49,1.78-1.15,4.56.61,5.8,3.4,2.38,6.88,4.65,10.51,7.09ZM676.09,643.76c4.07,2.49,7.84,4.8,11.97,6.39,2.28.87,4.73,1.69,7.12,1.77,7.21.22,14.43.06,21.65,0,.51,0,1.03-.36,2.05-.74-.96-.92-1.55-1.65-2.3-2.16-1.89-1.27-3.88-2.38-5.76-3.65-4.18-2.82-8.33-5.7-12.48-8.57-1-.69-1.88-1.24-3.24-.67-6.11,2.53-12.27,4.94-19,7.63ZM499.98,635.56c7.74-3.44,15.11-6.71,22.96-10.19-5.2-4.39-9.93-8.37-14.76-12.44-6.14,4.63-12.34,8.79-18.5,13.52,3.72,3.29,7.12,6.29,10.31,9.11ZM833.89,613.56c.71.17,1,.32,1.27.28,6-.69,11.99-1.45,18-2.08,1.83-.19,2.8-1.05,3.45-2.71,1.82-4.61,3.77-9.16,5.65-13.74.13-.33.11-.73.15-1.11-5.57,0-11-.1-16.41.08-1.1.04-2.57.88-3.19,1.81-3.64,5.43-5.89,11.56-8.93,17.47ZM809.07,655.51c-1.72,3.59-3.64,6.69-2.63,10.67,1.48,5.86,2.76,11.77,4.14,17.65.13.54.43,1.04.8,1.91,6.31-8.65,11.89-17.35,17.3-26.57-6.7-1.25-13-2.43-19.61-3.66ZM623.06,744.5c2.83-5.85,5.61-11.61,8.57-17.74-1.1.13-1.77.16-2.42.3-5.7,1.21-11.41,2.44-17.11,3.67-2.41.52-5.22.46-7.11,1.75-1.99,1.36-3.12,4-4.57,6.11-.46.66-.78,1.43-1.07,1.98,8.01,1.33,15.7,2.6,23.72,3.93ZM486.51,623.36c6.08-4.55,11.99-8.95,18.16-13.56-3.68-3.5-7.09-6.73-10.46-9.94-5.97,4.8-11.7,9.41-17.64,14.19,3.45,3.23,6.61,6.19,9.94,9.31ZM590.33,752.64c1.29.71,2.22,1.26,3.18,1.75,5.05,2.54,10.05,5.16,15.16,7.55,4.27,2,4.57,1.85,6.93-2.36,1.5-2.67,2.82-5.45,4.19-8.2.28-.57.44-1.21.75-2.08-2.25-.26-4.2-.49-6.14-.71-5.71-.66-11.41-1.32-17.12-1.96-1.07-.12-2.15-.36-2.96.78-1.2,1.68-2.49,3.28-4,5.25ZM464.5,295.9c-12.22,12.62-24.82,24.54-38.3,35.95,1.34.55,2.42.83,3.31,1.39,2.03,1.28,3.46.8,5.18-.83,10.92-10.38,21.96-20.65,32.94-30.97.54-.5.96-1.13,1.54-1.83-1.65-1.31-3.1-2.46-4.67-3.71ZM912.24,420.82c-3.66,14.16-7.25,28.03-10.97,42.41,4.14-2.6,7.94-4.89,11.61-7.36.68-.46,1.16-1.6,1.24-2.47.29-3.15.46-6.32.51-9.48.1-6.33.09-12.67.1-19,0-1.58-.03-3.2-2.5-4.09ZM762.54,661.2c6.22,1.34,11.99,2.02,17.77,2.66.6.07,1.52-.51,1.9-1.07,1.58-2.27,3.04-4.64,4.47-7.01.34-.57.52-1.29.61-1.96.3-2.25-.56-3.32-2.84-3.54-2.96-.28-5.93-.43-8.87-.8-3.47-.44-6.24.31-7.85,3.74-.37.8-.99,1.48-1.48,2.23-1.17,1.79-2.32,3.59-3.71,5.75ZM701.84,360.95c-1.45,3.29-2.05,6.59-2.55,9.91-.49,3.23-1.08,6.45-1.46,9.69-.39,3.22-1.56,6.36-1.57,9.92,6.19-4.56,11.99-8.83,17.75-13.07-2.16-5.47-8.43-14.07-12.16-16.46ZM476.3,745.87c3.03-4.42,8.07-14.5,8.28-16.5-.39-.04-.77-.13-1.16-.12-4.54.09-9.08.17-13.62.32-.54.02-1.24.22-1.58.6-2.61,2.92-5.14,5.91-7.94,9.17,5.55,2.26,10.73,4.37,16.03,6.54ZM473.68,751.14c-6.04-2.09-11.82-4.12-17.62-6.06-.53-.18-1.43.01-1.84.38-1.7,1.51-3.35,3.1-4.88,4.78-1.15,1.26-1,3.02.46,3.83,4.25,2.33,8.57,4.53,12.93,6.63,1.38.67,2.95.46,4.22-.57,2.97-2.4,4.97-5.52,6.73-8.98ZM504.72,639.34c1.85,1.48,3.58,2.78,5.21,4.19,1.1.95,2.13,1.05,3.52.6,6.96-2.23,13.95-4.34,20.93-6.51.59-.18,1.14-.5,2.07-.93-3.59-3.03-6.88-5.8-9.88-8.33-7.41,3.72-14.45,7.25-21.84,10.97ZM618.41,711.18c.64.15.85.27,1.02.23,6.97-1.43,13.95-2.82,20.9-4.36.82-.18,1.74-1.01,2.16-1.78,1.65-3.04,3.15-6.17,4.62-9.3.28-.61.16-1.4.26-2.51-1.51.42-2.56.64-3.56,1.01-4.27,1.58-8.49,3.29-12.78,4.78-5.96,2.05-9.19,6.83-12.61,11.93ZM886.53,595.2c1.27-4.49,2.54-8.94,3.78-13.4.06-.24-.1-.54-.18-.91-5.23.37-10.42.73-15.62,1.1-3.14,5.43-1.7,10.53,1.4,15.84,3.47-.86,6.97-1.73,10.62-2.64ZM778.69,668c-6.25-.83-11.9-1.61-17.57-2.29-.57-.07-1.46.26-1.76.7-1.82,2.68-3.51,5.44-5.44,8.49,1.41.38,2.43.65,3.45.93,3.91,1.04,7.83,2.08,11.74,3.11.97.26,1.96.49,2.66-.56,2.24-3.36,4.47-6.71,6.91-10.38ZM855.45,342.79c-8.88,3.9-17.36,7.66-26.84,9.69,1.05,2.45,1.95,4.56,2.91,6.79,9.4-3.62,18.81-5.93,28.02-9.54-1.46-2.48-2.71-4.6-4.09-6.94ZM638.97,712.54c-.87-.05-1.16-.12-1.43-.07-7.37,1.55-14.74,3.11-22.1,4.71-.55.12-1.24.37-1.53.79-1.77,2.57-3.45,5.21-5.49,8.33,1.36-.23,2.02-.32,2.68-.45,5.34-1.05,10.69-2.1,16.03-3.18,1.94-.39,3.89-.76,5.79-1.31.79-.23,1.74-.73,2.14-1.39,1.35-2.28,2.49-4.69,3.91-7.43ZM728.04,486.81c.5,1.83.87,3.2,1.2,4.45,10.86-3.38,21.4-6.66,32.25-10.04-.56-1.56-1.09-3.06-1.67-4.7-10.47,4.18-20.67,7.98-31.78,10.29ZM847.65,522.65c-1.5-2.2-2.85-4.15-4.16-6.13-1.33-2.02-2.63-4.06-4.27-6.61-1.87,7.77-3.57,14.87-5.42,22.58,4.93-3.5,9.26-6.58,13.85-9.84ZM782.41,584.18c6.64-3.7,12.83-7.14,19.25-10.71-.83-1.7-1.63-3.34-2.37-4.85-6.83,3.7-13.39,7.25-20.17,10.92,1.1,1.54,2.27,3.2,3.29,4.63ZM853.76,615.24c-7.37.93-14.2,1.79-21.01,2.68-.44.06-1.03.32-1.23.67-.98,1.65-1.84,3.35-3.02,5.55,2.27-.36,3.9-.66,5.54-.88,4.8-.63,9.6-1.19,14.39-1.86.94-.13,2.18-.37,2.65-1.02,1.05-1.45,1.71-3.19,2.69-5.14ZM803.62,577.76c-6.11,3.5-11.81,6.76-17.64,10.1.53.34.76.54,1.02.66,2.15,1.04,4.41.97,6.69.61,3.52-.55,7.05-1.06,10.55-1.73,2.23-.43,3.14-1.62,2.49-3.19-.9-2.17-2.03-4.24-3.11-6.45ZM497.82,705.33c-3.33-2.06-5.66.22-8.05,1.11-4.11,1.55-9,6.69-9.67,9.73,2.19-.1,4.36-.2,6.53-.29,7.59-.32,5.38,1.07,9.02-5.7.82-1.53,1.43-3.17,2.18-4.86ZM664.41,635.25c-.07.22-.14.45-.2.67,1.68,1.16,3.31,2.41,5.08,3.43.55.32,1.52.25,2.17.01,5.85-2.13,11.67-4.32,17.49-6.52.58-.22,1.13-.55,1.98-.97-1.09-.78-1.94-1.27-2.66-1.92-1.45-1.3-2.81-1.13-4.6-.49-4.93,1.76-9.96,3.22-14.97,4.75-1.4.43-2.86.69-4.29,1.02ZM764.83,247.57c4.43-3.57,8.35-6.72,12.52-10.08-1.89-1.82-3.61-3.48-5.29-5.1-2.93,2.05-5.51,3.88-8.12,5.68-.8.55-1.34,1.14-1.05,2.21.62,2.28,1.21,4.56,1.93,7.3ZM781.83,571.43c.14.16.28.33.41.49.72-.17,1.51-.19,2.14-.53,2.35-1.26,4.75-2.47,6.91-4,1.41-1,2.5-2.49,3.58-3.88.45-.58.84-1.53.69-2.19-.57-2.57-1.82-4.84-3.54-7.31-4.04,5.84-7.05,11.66-10.2,17.41ZM887.86,535.71c4.82-.75,9.03-1.36,13.21-2.08.7-.12,1.75-.58,1.89-1.08.52-1.94,1.36-3.89.9-6.1-4.41.88-8.67,1.68-12.9,2.62-.63.14-1.4.8-1.63,1.41-.59,1.54-.91,3.18-1.46,5.23ZM766.39,510.43c-2.11.91-3.64,1.56-5.16,2.23-1.63.72-3.26,1.45-4.89,2.17-1.54.68-3.08,1.36-4.64,1.99-1.65.66-3.37,1.18-4.99,1.92-1.42.65-3.29.39-4.64,2.26,1.81.22,3.27.58,4.71.54,5.77-.15,11.03-2.24,16.16-4.62,2.34-1.09,3.15-3.33,3.46-6.48ZM913.43,460.15c-4.87,2.94-9.28,5.53-13.61,8.26-1.99,1.26-2.78,4.38-1.9,6.79.79-.41,1.58-.77,2.33-1.22,3.38-2.04,6.68-4.22,10.14-6.12,2.14-1.18,3.29-2.68,3.06-5.16-.06-.68,0-1.35,0-2.54ZM854.65,532.44c-2.54,1.73-4.67,3.16-6.76,4.62-2.05,1.43-4.54,2.22-6.72,4.56,1.06.2,1.66.48,2.19.37,3.97-.77,7.94-1.58,11.89-2.45,1.78-.38,2.36-1.28,1.72-3-.49-1.34-1.41-2.52-2.33-4.11ZM768.77,229.36c-3.65-4.13-6.59-6.14-9.5-6.35-.18,1.09-.75,2.3-.5,3.31.67,2.74,1.69,5.39,2.71,8.51,2.6-1.95,4.85-3.64,7.29-5.47ZM833.12,538.42c1.63,1.16,1.63,1.18,2.69.55,4.78-2.81,9.55-5.63,14.32-8.46.65-.39,1.25-.88,2-1.41-.83-1.2-1.54-2.23-2.35-3.4-5.62,4.3-11.02,8.42-16.65,12.73ZM876.74,602.11c1.03,3.77,2,7.33,3.03,11.14,1.82-2.66,4.63-10.61,4.65-12.88-2.49.56-4.95,1.12-7.68,1.74ZM795.01,287.98c.54,1.96,1.45,1.6,2.53.98,4.95-2.85,9.93-5.68,14.89-8.53.13-.08.15-.33.32-.71-.61-.71-1.28-1.49-1.96-2.28-5.38,3.59-10.52,7.03-15.78,10.54ZM489.4,720.94c-4.91.13-9.68.64-14.44,1.29-.43.06-.76.81-1.34,1.48,4.53.23,8.56.49,12.6.62,2.05.07,2.3-.28,3.18-3.39Z" fill-rule="evenodd"/></svg>